<?xml version="1.0" encoding="UTF-8" standalone="no"?>
<!-- Created with Inkscape (http://www.inkscape.org/) -->

<svg
   width="50"
   height="50"
   viewBox="0 0 50 50"
   version="1.1"
   id="svg1"
   inkscape:version="1.4.2 (f4327f4, 2025-05-13)"
   sodipodi:docname="hamburger-open.svg"
   xmlns:inkscape="http://www.inkscape.org/namespaces/inkscape"
   xmlns:sodipodi="http://sodipodi.sourceforge.net/DTD/sodipodi-0.dtd"
   xmlns="http://www.w3.org/2000/svg"
   xmlns:svg="http://www.w3.org/2000/svg">
  <sodipodi:namedview
     id="namedview1"
     pagecolor="#ffffff"
     bordercolor="#000000"
     borderopacity="0.25"
     inkscape:showpageshadow="2"
     inkscape:pageopacity="0.0"
     inkscape:pagecheckerboard="0"
     inkscape:deskcolor="#d1d1d1"
     inkscape:document-units="px"
     inkscape:zoom="4.4560784"
     inkscape:cx="79.217637"
     inkscape:cy="16.269911"
     inkscape:window-width="1920"
     inkscape:window-height="1057"
     inkscape:window-x="-8"
     inkscape:window-y="-8"
     inkscape:window-maximized="1"
     inkscape:current-layer="layer1"
     showguides="true">
    <sodipodi:guide
       position="-18.289624,0"
       orientation="0,1"
       id="guide1"
       inkscape:locked="false"
       inkscape:label=""
       inkscape:color="rgb(0,134,229)" />
    <sodipodi:guide
       position="-10.098566,5"
       orientation="0,1"
       id="guide2"
       inkscape:locked="false"
       inkscape:label=""
       inkscape:color="rgb(0,134,229)" />
    <sodipodi:guide
       position="-9.4253279,45"
       orientation="0,1"
       id="guide4"
       inkscape:locked="false"
       inkscape:label=""
       inkscape:color="rgb(0,134,229)" />
    <sodipodi:guide
       position="-18.626243,50"
       orientation="0,1"
       id="guide5"
       inkscape:locked="false"
       inkscape:label=""
       inkscape:color="rgb(0,134,229)" />
    <sodipodi:guide
       position="0,31.822582"
       orientation="-1,0"
       id="guide6"
       inkscape:locked="false"
       inkscape:label=""
       inkscape:color="rgb(0,134,229)" />
    <sodipodi:guide
       position="5,31.485963"
       orientation="-1,0"
       id="guide7"
       inkscape:locked="false"
       inkscape:label=""
       inkscape:color="rgb(0,134,229)" />
    <sodipodi:guide
       position="45,4.999955"
       orientation="-1,0"
       id="guide8"
       inkscape:locked="false"
       inkscape:label=""
       inkscape:color="rgb(0,134,229)" />
    <sodipodi:guide
       position="50,26.212268"
       orientation="-1,0"
       id="guide9"
       inkscape:locked="false"
       inkscape:label=""
       inkscape:color="rgb(0,134,229)" />
  </sodipodi:namedview>
  <defs
     id="defs1" />
  <g
     inkscape:label="Layer 1"
     inkscape:groupmode="layer"
     id="layer1">
    <path
       style="fill:#000000"
       d="M 10.871481,8.4624909 C 9.6905494,6.7981006 6.8710766,4.4839134 5.5716694,5.7012893 4.9109324,6.3203141 5.060784,7.7244769 5.4488251,8.5425168 6.2286232,10.18643 9.1705977,12.45611 10.529366,13.666187 c 4.941561,4.400803 11.610306,11.773661 11.610306,11.773661 0,0 -7.471833,6.69703 -13.0618396,12.323457 -1.7598746,1.771341 -3.7973167,2.900223 -3.7973167,5.812956 0,0.934619 0.8706298,2.013874 1.8738613,1.367636 3.359754,-2.164207 3.538326,-2.206856 6.320342,-5.157685 4.756159,-5.044762 11.30482,-11.514948 11.30482,-11.514948 0,0 4.496175,4.281129 9.869316,9.397251 0.900419,0.857349 3.76518,3.678114 4.823901,4.329967 C 41.054456,42.972333 42.679575,45 44.019306,45 44.968833,45 45.428799,43.371105 45,42.523914 43.410492,39.383477 41.5502,38.304954 38.245287,35.450352 32.689568,30.651628 27.959536,25.812493 27.959536,25.812493 c 0,0 3.994716,-4.632233 9.028141,-9.511417 3.528689,-3.420558 6.662095,-5.710878 7.900117,-8.7372027 0.400547,-0.97913 -0.07727,-2.440889 -1.128926,-2.5077702 -0.916216,-0.058268 -2.954192,1.9907355 -3.802084,2.8612604 -1.302571,1.3373389 -4.918986,4.4395995 -6.539862,6.1466415 -5.422428,5.710687 -8.153358,8.923537 -8.153358,8.923537 0,0 -3.509015,-4.182054 -8.296189,-8.930533 C 15.82501,12.923878 12.057871,9.3023439 10.871481,8.4624909 Z"
       id="path3"
       sodipodi:nodetypes="sssscsssscssssscssssscss" />
  </g>
</svg>
