<?xml version="1.0" encoding="UTF-8"?>
<svg width="286mm" height="90mm" version="1.1" viewBox="0 0 286 90" xml:space="preserve" xmlns="http://www.w3.org/2000/svg"><path d="m100.29 89.838c-3.7706-0.37788-7.6143-0.33302-11.331-1.0071-2.139-2.6244 1.5018-2.8191 3.2808-2.3307 4.2405 1.2527 2.6995-3.6514 2.9096-6.152-0.73016-3.2804-0.92248-7.1254-0.5105-10.444-0.9731-3.5801-0.36726-8.8628-1.5846-12.664 0.81558-3.0652-2.0025-2.5824-4.3805-2.7605-2.9968 2.1237-5.7188-1.6937-1.3909-2.3786 2.5212-0.45835 4.8558-0.03629 7.4628-0.44905 2.181 0.27788 6.8984 0.54718 5.745 3.7693-2.3787-0.17713-6.2922-1.4381-4.5163 3.1612 0.48424 3.4433 1.0685 6.8344 0.92106 10.185 0.01041 4.8053 0.51726 9.6155 1.1301 14.289-0.79747 2.5673-0.17071 3.9797 2.9347 3.9668 1.706-0.02717 5.9063-0.17858 4.1762 2.0338-1.4666 0.73361-3.2206 1.1904-4.847 0.7809zm-97.924-0.49802c-1.0995-4.1091-0.92551-8.5605-1.5906-12.812-0.4634-7.4361-1.1121-14.75-0.62841-22.28 2.549-1.2346 6.8822-2.3192 8.8795-0.50239 2.1115 1.119 3.428 2.9909 4.2843 5.3648 0.3797 2.2814-0.22471 5.0551-1.2828 6.7852-1.3139 2.5672 4.233 1.4094 5.0778 3.6925 3.0882 3.5343 5.2619 10.475 1.7646 14.053-1.7707 3.3464-4.6885 6.2294-9.0355 5.7829-2.3371 0.60238-5.0653-1.25-6.5861 0.27979-0.21061-0.25178-0.97292 0.35756-0.8827-0.36377zm6.4987-2.4679c2.4829-0.43159 5.4858-0.10273 6.3008-2.4104 0.99056-2.0477 3.4174-3.7302 2.7143-6.4083 0.11028-3.0606-1.0763-6.2384-3.5219-7.4383-3.5568-2.0637-7.8094-0.04078-11.224 1.6506 0.6411 2.8904 0.14811 5.8499 0.59601 8.6268 0.56081 1.5379-0.07845 5.8251 2.9986 5.8556 0.46009 0.24363 1.2302 0.56133 2.1358 0.12389zm-3.8166-18.672c1.9138-0.79559 4.1459-1.7823 4.9484-4.0405 1.4595-2.3227 0.72051-6.8303-1.4951-7.9365-1.8055-1.442-6.5488-0.753-5.7936 2.3067 0.19714 3.6129-0.20403 6.8085 0.44828 10.335 0.53828-0.48762 1.2041-0.55726 1.892-0.66502zm222.19 20.633c-3.4138-1.7695-1.2883-6.4033-2.2539-9.5684-0.81691-6.2987-0.58028-13.143-1.4192-19.525-0.32627-2.4716 0.94534-5.2758 1.1301-6.5153 3.1439-2.013 7.3851-1.8087 10.958-2.5592 2.9807 2.6551-1.9923 2.7818-3.8442 3.2686-3.4042-0.23795-5.692 1.7464-5.4926 5.003-0.59432 2.461 1.0569 5.5602 0.36761 7.4601-0.78378 3.7097 4.3807 0.77834 6.1502 2.2085 0.41624 3.1721-4.2035 2.3673-5.2838 3.8924-1.083 1.8648 0.84226 4.2349 0.19738 6.6162 0.52496 1.9815-0.99599 7.9524 2.1774 6.6657 1.9575-0.42098 5.8557-2.463 7.0092 0.23936-0.99737 2.946-4.2423 0.56225-6.1548 2.2638-1.1662 0.35481-2.5097 0.68267-3.5415 0.5502zm-201.8-0.043583c-4.2213-0.68871-0.54606-3.8386 2.0209-2.5902 3.5888 0.76763 3.1702-1.286 2.9575-3.5886 0.74334-2.6165-1.007-5.8753-0.75013-8.1395-1.084-4.5329 0.10734-10.469-1.2236-15.364 0.45354-2.4536-3.7162-1.6938-4.8115-2.9418-4.1125-2.3162 1.7188-3.4003 3.8434-1.6336 2.5238-0.05946 4.5403 0.15694 7.2595 0.04787 1.6492 0.15013 5.6781 1.0853 3.2451 3.0096-1.8901 0.67891-7.1502-1.5973-6.6836 1.8009-0.07678 2.8522 1.0897 5.4815 0.58897 8.2822 0.4215 4.5502 0.71825 9.2693 1.5004 13.506-1.0494 3.054 0.31614 5.8911 3.6125 3.8047 2.9744-1.4162 4.6432 3.4995 1.1721 2.9142-4.2149 0.49025-8.4132 1.3758-12.732 0.8922zm122.27-0.67193c-0.45678-4.4563-2.1627-2.8191-4.7974-0.7748-3.1292 0.0062-5.897-2.7984-7.2191-5.5511-1.1591-3.4099-1.9221-5.537-2.6584-9.2575-0.33806-2.1474-8e-4 -3.8857-0.99782-6.3537-0.78728-4.0778-1.0363-8.3677 1.3973-11.908 1.6231-2.1673 3.2203-2.9817 5.901-3.537 3.4566-0.89075 7.4544 2.0999 7.1701 5.644-2.8304 1.8814-2.8014-3.1312-5.6612-2.9686-5.5346-0.48829-7.0512 6.8232-5.7275 11.24 0.84433 4.113 0.71441 8.5632 2.1745 12.199 1.0409 2.8806 1.8173 6.7916 5.1157 7.5073 2.7336-1.8658 1.9974-4.293 2.3991-7.4802 0.69779-2.5459-1.169-5.8176 0.91488-7.3015 2.9242-0.6184 1.8859 3.8331 2.6791 5.7877-0.12872 3.0319 1.0985 6.5094 0.66213 9.1485 1.4664 1.095 0.42634 5.2177-1.3526 3.6051zm-83.793 0.05192c-2.4208-0.79594-2.1228-4.5917-4.2247-6.5753-0.08615-2.3791-1.6214-3.7006-2.1232-6.0368-0.92145-1.7731-1.1449-3.677-2.8754-5.1552-2.7811 0.26244-4.9656 1.3832-4.14 4.0097 0.76857 2.7869-0.3674 5.0645 0.40491 7.9171 0.03454 1.8507 0.72421 6.1185-2.1594 5.1925-0.54355-2.5225-0.88821-5.912-0.55653-8.234-0.55771-2.2435 0.32267-3.6643-0.17334-6.4781-0.98976-5.0732-1.4257-9.9575-1.6092-14.985-0.18774-1.8315-1.2542-4.0865 2.1381-4.2683 3.9464-0.89507 8.4688 1.4744 10.685 4.7029 2.1965 1.3454 1.7992 4.9849 0.29429 7.0436-1.164 1.6527-3.4521 3.2745-1.4428 5.4424 0.15885 1.9906 2.2311 3.9166 2.2223 5.9455 1.2897 1.5971 1.9362 4.1078 2.9783 6.125 0.80184 1.5197 3.5236 4.5238 0.78116 5.5953zm-11.561-19.84c3.3191-1.4145 6.1119-4.5346 5.8202-8.109-1.8101-2.0232-3.7055-3.3075-5.7322-3.953-2.3016-0.59364-3.754 0.90079-3.2357 3.5539 0.13084 3.0233 0.34188 6.1827 0.99495 9.0609 0.73645-0.11412 1.4479-0.31409 2.1527-0.55289zm71.179 19.879c-1.8192-3.7835-3.4568-7.3949-4.8591-11.233-1.5903-3.5607-3.4586-6.677-5.0575-9.6928-1.378-2.2451-1.355-5.1964-3.3183-7.0189 0.36817 4.009 0.61474 8.2099 0.14478 11.656 0.51031 1.984 0.39229 4.4233 0.67865 6.1435 0.51329 2.4713 0.89068 5.8077 1.506 8.6494-1.9306 3.3769-3.4213-0.83399-3.1858-2.6917-1.5151-6.0629-1.6517-12.611-1.618-19.156-0.59735-3.115 0.0868-6.2116-0.57379-9.1936-1.0832-2.5642 3.3215-5.3847 3.4967-2.3437-0.78178 2.6864 3.1 4.914 3.2849 7.7596 1.1991 2.4916 2.441 6.0921 4.137 8.707 1.0832 2.2922 2.8645 5.1349 3.8204 7.6218 2e-3 0.38354 1.537 5.476 1.7002 2.0209-1.4304-5.5243-0.73124-10.708-1.456-16.038-0.39199-2.8601-0.86161-6.0086-0.59781-9.1016-1.5985-3.3967 4.3958-1.5903 3.1273 1.5359-0.54303 2.7869-0.0539 5.5587 0.20916 8.0836 0.81994 2.0498-0.38107 4.1869 0.45847 6.4745-0.0543 2.6304 0.28758 3.7161 0.68334 6.5331 0.83559 3.7155 0.93768 8.5225-0.59263 11.318-0.50702 0.19144-1.5261 0.3763-1.9878-0.03474zm44.679 0.08365c-2.478-0.89739-1.1779-4.1262-2.0094-6.382-0.087-4.5183-0.71542-7.4997-0.39754-12.045-0.25172-5.9221-0.83763-11.777-0.3852-17.747 3.1272-3.0901 3.0839 2.2128 2.7936 4.348-0.85871 4.8138 0.73839 9.5965 0.25341 14.304-0.2378 2.8762 0.43218 7.0426 0.30542 9.9307 0.20652 2.4957 0.1876 5.7696 3.715 4.2934 1.8443 0.06774 5.9115-0.83064 5.5784 1.9934-2.3954 2.1952-6.01-0.05803-8.9042 1.3109-0.29784-0.14746-0.66417 0.23767-0.94948-0.0072zm-94.598-0.30111c-3.9909 0.94264-4.4178-3.2685-4.0642-6.3106 0.04175-6.3128-0.05042-12.704-1.4683-18.664 0.35634-3.0711-0.60064-6.4172 0.09397-9.4116 2.8066-1.7784 6.7546 0.54379 8.6797 2.7677 2.4975 2.8183 4.4837 5.7636 6.7382 8.8377 1.0539 3.398 2.0788 6.4545 2.1438 10.101-0.18663 2.7604-2.037 6.5289-3.878 8.599-0.95061 2.7386-4.1216 4.9749-7.0089 4.1634-0.39175 0.31185-0.82336-0.04088-1.2363-0.08255zm3.0448-2.3502c2.6165-1.4483 4.8614-4.8079 5.6917-7.5455 1.5639-4.3901-0.08499-9.4639-1.8509-13.312-2.0422-1.506-4.0118-5.6928-6.6892-7.8984-3.4189-2.1897-3.3125 2.0197-3.0598 4.5593 0.38594 2.8577 0.56413 6.0984 1.0922 8.2527 0.32032 1.5203 0.3303 5.0836 0.36879 6.6722 0.64697 2.69-1.1173 4.9885 0.08109 6.0772-0.33443 2.8825 2.3359 3.5049 4.3661 3.1948zm113.36 1.6943c-2.3737-0.97609-5.9196 1.1741-6.8574-1.8927-0.27718-2.3647-1.0038-5.8032-0.99257-8.3083-0.87181-1.7493 0.64452-5.3199-0.89392-7.1446 0.25001-3.3208-0.82211-6.4135-1.3086-9.2878-0.099-2.2705 0.86985-4.1997 0.33693-6.3896 2.6293-2.8796 7.4872-1.0878 10.543-3.2477 4.1507 1.0002-0.32623 3.513-2.6312 3.4529-2.7531 0.42426-6.1307 0.83171-5.2745 3.8622-0.87264 3.4041 1.2756 6.6401 1.1831 9.9682 2.0556-0.12664 7.9974 0.35944 4.1679 2.9141-4.0366-0.60028-4.4263 2.2358-3.5304 5.5531-0.11676 2.349 0.39157 3.8807 0.80034 6.2631-0.0641 3.3902 6.6189-0.72764 7.182 2.5702 0.39516 1.3315-1.6252 2.4097-2.7247 1.6868zm56.492-0.2126c-1.707-2.65-1.0199-6.7682-1.188-9.9845-0.0619-2.819-0.37058-5.8783 0.0632-8.9908 0.4475-4.7565-1.2427-8.8653 0.0877-13.364-0.38518-1.7541-0.44476-6.6666 3.1267-4.931 1.337 1.8876 2.0948 4.6257 3.2733 5.8202 1.7136 2.8354 3.2619 5.5307 3.9966 9.0707 1.9433 3.2955 1.7892 7.8728 4.2766 10.749 0.98354-2.4614-0.0462-4.3639 0.0704-6.6362 0.26559-4.2607 0.6046-9.01-0.0129-12.934-0.41049-1.8312 1.2352-7.3957 3.1174-3.7476-0.54089 5.3641-0.15737 10.887-0.70116 16.028 0.19027 4.1172 0.6653 8.1993 0.60325 11.81-0.0693 1.457-0.0746 6.4001-2.7018 4.2465-1.5418-1.3781-1.3133-4.0198-2.4393-5.2897-0.68631-2.3846-1.7596-4.8363-2.8294-7.2349-0.11129-2.9684-1.8657-5.5837-2.1816-8.1407-0.77666-2.5626-2.1598-5.0017-3.8809-7.4895-2.5508-3.2904-2.0135 3.6029-1.8388 5.165 0.90826 4.896-0.25853 9.6399 0.43823 14.727 0.0342 1.5575 0.92014 4.1491 0.29135 4.526-0.68051 1.8619 1.8318 6.9741-1.571 6.6014zm22.97-1.0612c-2.2679-1.4695-0.80504-5.7834-1.3509-8.5693-0.78483-7.2604 1.5011-14.341 0.86734-21.659 0.45662-2.8779 1.4574-7.1362 5.3297-5.8413 2.3491-0.05105 3.968 1.3524 5.1773 2.4777 1.8827 1.2679 3.801 4.3044 5.2531 6.2736 0.38179 2.8381 1.5942 5.4719 1.1722 8.6028 0.0821 3.0383-0.65767 4.9166-1.5453 7.8644-0.71595 3.2511-2.4669 5.5587-4.3952 7.7134-2.1474 2.7416-5.5668 4.0299-9.2711 3.0785-0.28645 0.57081-0.83822 0.67624-1.2371 0.05856zm6.3619-3.1634c1.9429-1.136 4.7661-3.7012 5.1244-6.3508 1.1979-2.6474 1.8061-5.2209 2.0665-8.3178 0.15643-3.5807-0.0158-8.0351-2.3674-11.027-1.7723-1.7785-3.3667-4.3653-6.6581-4.2451-4.4292-0.02036-2.0727 5.7213-2.6084 8.5056 0.13702 4.2115-0.5122 9.0322-0.63672 12.72 0.89731 2.4388-0.56212 6.5816 1.1486 8.7508 1.2629 0.10146 2.7019 0.32294 3.9312-0.03639zm-59.691 2.4235c-1.1306-1.6032-1.3405-5.1043-2.8514-2.0029-2.4495 1.4621-5.5106 1.5202-7.714-0.24475-2.8434-1.331-2.0065-5.0341-3.3805-7.6422-0.34538-2.9378-0.36757-6.1976-1.6777-8.4415-0.9158-4.2176-0.48164-8.8569 1.1967-12.382 0.75267-3.2548 3.7205-6.0277 7.3845-5.1082 2.8486 0.94465 5.0686 3.4756 5.8 6.3453-2.3124 2.73-3.8845-2.3394-5.75-3.2318-3.2949-2.0841-4.305 2.8571-5.3691 5.0228-1.6994 5.0342 0.46493 9.7365 1.1578 14.641 0.0872 2.9507 1.1354 6.0619 2.4635 8.4563 2.212 1.8091 5.2287 0.26709 5.3776-2.1489 1.5717-2.2893-0.96095-7.0979 1.7899-8.9372 3.5338-0.67949 2.5104 4.724 2.8532 6.9139-0.30992 2.8393 1.8674 6.5029 0.15231 8.754-0.46207-0.07924-1.0442 0.47142-1.4328 0.0065zm-74.69-46.883c-1.2229-3.1935-0.50809-7.7259-1.5304-11.376-0.18366-1.8756 0.53073-6.3786-2.3249-5.8918-2.3311-0.0297-3.9062-0.0019-7.0328 0.0041-2.2134-0.12866-4.7284-1.066-3.768 1.9206-0.0786 4.0868-0.38862 7.8234-0.24208 12.237 0.60189 4.0757-3.9367-0.75837-2.0701-3.3157 0.21871-3.3766 0.24686-7.2344 0.21086-10.234-0.32429-2.5391-0.54033-4.9179-0.54921-7.5739-0.86031-4.1246-1.0115-9.3551-0.82499-13.718 3.3704-0.43747 1.4596 5.1257 2.2183 7.28-0.36643 3.3022 1.3786 4.4418 0.89753 7.9688-0.82523 3.8298 4.3031 2.4463 6.6513 2.6919 3.4944 0.16592 7.5582 0.44756 6.1355-4.3193-0.44351-3.3584-0.33935-8.1652-0.55119-11.98 1.1445-3.5373 2.5757 1.2154 1.9694 2.5678 0.10459 2.9917 0.46037 6.273 0.74561 9.0865-0.65857 2.4642 0.0518 3.8896 0.9059 5.5911 0.0423 1.3182-0.91619 4.2574-0.12362 5.9099 0.74484 1.5664 0.82241 4.6624 0.69925 6.458 0.64283 1.2803 0.2397 4.3352 0.3527 6.3807 5e-3 0.54302-1.5507 1.0384-1.7691 0.31341zm12.424-1.2387c-2.9394-1.9355-0.65608-6.8614-2.3144-9.9892 0.44037-2.1838 0.28386-4.576-0.074-7.2335-1.2964-4.1892-0.23708-9.1498-1.3967-13.445-0.9531-2.2416-1.0498-4.9414 2.3299-4.8985 3.2558-0.91103 6.7636-0.30007 10.123-0.60721 2.1031 3.3905-4.5174 2.374-6.4741 2.9122-2.6553-0.80422-5.0063 0.88548-3.5682 3.9801 0.78861 2.8364-0.40543 6.4393 1.1467 9.1268 1.8851 1.8718 5.5336-1.7889 6.1273 1.1369-0.46401 3.3552-6.6649 0.40018-5.6803 3.6427-0.0122 4.106 0.0234 8.2493 0.64108 12.182 1.0667 2.5538 8.2056-1.7423 7.4962 2.4627-2.0165 1.622-5.8403 0.52528-8.3566 0.7293zm-51.338-0.49816c-0.69524-2.8677-0.44593-6.5685-0.46468-9.6458-0.0956-3.1381 0.29532-6.8271-0.0581-9.8343-0.31596-2.8775-0.80158-6.1382-0.78452-9.243-0.10119-2.7279-0.43845-5.4437-2.8282-5.1485-3.2195-0.30618-6.7224 0.79593-9.6753-0.13712-4.3474 0.87185-1.8042-3.702 1.3694-2.2084 2.7934 0.66301 5.4078-0.96323 7.4517-0.32424 5.5288 0.6137 11.602 1.6913 17.314 0.77283 3.4246 0.32749 1.471 3.7994-1.4261 2.6925-3.4274 0.49075-6.9016-0.36788-10.291 0.09221 0.44665 6.0883 0.53768 11.974 1.1692 17.841 0.0752 2.0709-0.15143 4.2328-0.10998 5.9344-0.0428 2.9688 0.74724 6.4096 0.0126 9.1692-0.52076 0.1559-1.2516 0.68766-1.6791 0.039z" stroke-width=".45828"/></svg>
