<?xml version="1.0" encoding="UTF-8" standalone="no"?>
<svg
   width="24"
   height="24"
   viewBox="0 0 24 24"
   fill="none"
   stroke="currentColor"
   stroke-width="2"
   stroke-linecap="round"
   stroke-linejoin="round"
   class="lucide lucide-earth-icon lucide-earth"
   version="1.1"
   id="svg3"
   sodipodi:docname="earth-white.svg"
   inkscape:version="1.3.2 (091e20e, 2023-11-25)"
   xmlns:inkscape="http://www.inkscape.org/namespaces/inkscape"
   xmlns:sodipodi="http://sodipodi.sourceforge.net/DTD/sodipodi-0.dtd"
   xmlns="http://www.w3.org/2000/svg"
   xmlns:svg="http://www.w3.org/2000/svg">
  <defs
     id="defs3" />
  <sodipodi:namedview
     id="namedview3"
     pagecolor="#ffffff"
     bordercolor="#000000"
     borderopacity="0.25"
     inkscape:showpageshadow="2"
     inkscape:pageopacity="0.0"
     inkscape:pagecheckerboard="0"
     inkscape:deskcolor="#d1d1d1"
     inkscape:zoom="9.8333333"
     inkscape:cx="6.3050847"
     inkscape:cy="6.8135593"
     inkscape:window-width="1680"
     inkscape:window-height="997"
     inkscape:window-x="0"
     inkscape:window-y="25"
     inkscape:window-maximized="0"
     inkscape:current-layer="svg3" />
  <path
     d="M21.54 15H17a2 2 0 0 0-2 2v4.54"
     id="path1"
     style="fill:none;fill-opacity:1;stroke:#ffffff;stroke-opacity:1" />
  <path
     d="M7 3.34V5a3 3 0 0 0 3 3a2 2 0 0 1 2 2c0 1.1.9 2 2 2a2 2 0 0 0 2-2c0-1.1.9-2 2-2h3.17"
     id="path2"
     style="fill:none;fill-opacity:1;stroke-dasharray:none;stroke-dashoffset:0;stroke:#ffffff;stroke-opacity:1" />
  <path
     d="M11 21.95V18a2 2 0 0 0-2-2a2 2 0 0 1-2-2v-1a2 2 0 0 0-2-2H2.05"
     id="path3"
     style="fill:none;fill-opacity:1;stroke:#ffffff;stroke-opacity:1" />
  <circle
     cx="12"
     cy="12"
     r="10"
     id="circle3"
     style="fill:none;fill-opacity:1;stroke:#ffffff;stroke-opacity:1;stroke-dasharray:none;stroke-dashoffset:0" />
</svg>
