<?xml version="1.0" encoding="UTF-8" standalone="no"?>
<!-- Created with Inkscape (http://www.inkscape.org/) -->

<svg
   width="117.03788"
   height="8.8616991"
   viewBox="0 0 30.966271 2.3446578"
   version="1.1"
   id="svg1"
   xml:space="preserve"
   xmlns="http://www.w3.org/2000/svg"
   xmlns:svg="http://www.w3.org/2000/svg"><defs
     id="defs1" /><g
     id="layer1"
     transform="translate(0.00619321,0.00663718)"><path
       style="fill:#000000;stroke-width:0.0516066"
       d="M 0.1540811,2.292326 C -0.21819577,2.0973179 0.13108913,1.6654672 0.46145821,1.8115228 1.0408879,1.7927426 1.6324969,1.870613 2.2162481,1.7907998 2.7779156,1.8880561 3.2892482,1.6956503 3.8344806,1.6658139 3.9808738,1.6884087 4.3862653,1.5451186 4.6449694,1.5697338 5.0152569,1.5214189 4.8782133,1.5133802 5.201882,1.4460002 5.8367828,1.3554817 6.5422312,1.2731379 7.1524644,1.3395362 c 0.6266781,-0.061089 1.2572201,-0.030626 1.8726963,0.035434 0.5602053,-0.018541 1.1190913,-0.011338 1.6682253,-0.073319 0.315371,0.063866 0.648824,0.038702 0.968229,0.1069396 0.432796,0.00908 0.825091,0.056046 1.247743,0.031966 0.268293,0.038188 0.684212,-0.071535 0.97214,-0.037673 0.36489,-0.052177 0.732544,-0.050291 1.084734,-0.063082 0.283223,-0.1318368 0.573243,0.065918 0.875748,-0.00727 0.452847,0.1087189 1.062494,-0.015485 1.58189,0.00961 0.337062,-0.1095887 0.877868,-0.077886 1.299663,-0.125789 0.603018,-0.065287 1.20308,-0.0976 1.772015,-0.295947 1.044949,-0.17523964 2.119144,-0.36398423 3.167425,-0.34624 0.338743,-0.0205906 0.749021,-0.0540579 1.078019,-0.006799 0.390008,-0.0762734 0.842989,0.0583949 1.172293,-0.2103261 0.393285,-0.0598076 0.892008,-0.0631501 1.289918,-0.0838691 0.287118,0.0281105 0.552254,-0.0863592 0.854146,-0.0659028 0.257182,-0.0517811 0.499509,-0.0438373 0.736504,-0.0900874 0.309561,0.01034 0.618808,-0.05507691 0.87038,-0.07531424 0.128428,-0.11093617 0.505069,0.0033175 0.62264,0.0020315 0.245267,0.07681427 0.591697,-0.12789826 0.665028,0.24474107 0.07324,0.36899948 -0.364286,0.26068002 -0.558702,0.41463763 -0.300833,-0.0872789 -0.490319,0.0676451 -0.770559,0.020821 -0.287459,-0.0954455 -0.618747,-0.11728728 -0.932059,-0.0356264 -0.723573,0.0420679 -1.500774,0.0861069 -2.229443,0.18549483 -0.281105,0.0266402 -0.520804,0.19855961 -0.805093,0.19109091 -0.136598,0.1301528 -0.582606,-0.0741814 -0.855528,0.012446 -0.466852,0.00209 -1.002858,-0.00661 -1.404624,0.065581 -0.383044,-0.133409 -0.700539,0.1601252 -1.10109,0.081737 -0.629709,0.022296 -1.258297,0.09517 -1.843233,0.3167864 -0.31951,0.035513 -0.673418,0.174307 -1.022893,0.16066 -0.309244,0.160567 -0.655034,-0.03506 -0.972827,0.085672 -0.570643,-0.024436 -1.260689,0.1168157 -1.886867,0.099079 -0.830681,0.013022 -1.652198,-0.1233528 -2.482537,6.162e-4 -0.831722,0.128959 -1.659242,0.03009 -2.482359,0.076839 -0.265686,-0.0042 -0.535332,-0.171256 -0.76087,-0.082706 C 10.285142,1.7637742 9.7005162,2.015337 9.163726,1.8297204 8.9152748,1.8753941 8.5544398,1.7899159 8.2795259,1.7940714 8.0250325,1.8613417 7.7372431,1.8207109 7.4294178,1.8502034 7.1887821,1.7731127 6.8596544,1.8407586 6.5618431,1.828218 5.597937,1.8840929 4.6454638,2.0530045 3.7017236,2.1953202 2.9756405,2.2919495 2.2511001,2.3476986 1.5158663,2.3251123 1.0668561,2.2996806 0.587478,2.3879558 0.1540811,2.292326 Z M 29.788723,0.04535214 c -0.05018,-0.08516229 -0.02702,0.07251421 0,0 z"
       id="path1" /></g></svg>
