<?xml version="1.0" encoding="UTF-8"?>
<svg width="54" height="24" version="1.1" viewBox="0 0 14.287 6.35" xmlns="http://www.w3.org/2000/svg">
 <path d="m2.958 6.3116c-0.43109-0.073992-0.22724-0.69482-0.3787-1.0096 0.053191-0.57197 0.036889-1.1519-0.031412-1.7178 0.18801-0.55854-0.38914-0.38686-0.72992-0.41046-0.35606 0.15082-1.007 0.020138-1.1962 0.15479 0.18507 0.49242-0.054667 1.0286 0.012548 1.5512 0.12705 0.34613-0.11036 1.2251-0.45655 0.63491-0.082662-1.1157-0.29825-2.2465-0.08923-3.3619 0.13131-0.56834-0.03703-1.1363 0.020585-1.7063 0.012189-0.50779 0.74928-0.1403 0.37134 0.23532-0.012306 0.50874 0.20971 0.96559 0.014641 1.4703-0.08346 0.38988 0.0088364 0.79532 0.50172 0.67492 0.49679-0.07681 1.1277-0.1187 1.5611-0.18487-0.093548-0.78552-0.049998-1.5857-0.15409-2.3701-0.1252-0.25725 0.2918-0.38039 0.40304-0.15135 0.16496 0.36782-0.013173 0.72884 0.12489 1.0258 0.051391 0.55839 0.027035 1.13 0.081643 1.6946-0.00463 0.68034 0.1043 1.3557 0.068771 2.033 0.026698 0.38134 0.080156 0.77106 0.11431 1.1977 0.024862 0.09242-0.13872 0.38139-0.23859 0.23985zm7.686-0.1548c-0.36396-0.38618-0.25418-1.0509-0.44102-1.5456-0.023253-0.52623-0.066961-1.0554-0.16897-1.5709-0.064951-0.41776 0.034363-1.1488-0.20554-1.3598-0.076749 0.49112-0.21246 0.96956-0.43169 1.4162-0.073636 0.46176-0.64949 0.6414-0.83033 0.14327-0.24911-0.41966-0.35253-0.90899-0.56462-1.3443-0.03354-0.4608-0.23493-0.36617-0.16397 0.04117 0.083226 0.5013-0.022512 1.0628-0.030794 1.5874-0.0074954 0.61587-0.10561 1.2266-0.1127 1.8461 0.32224 0.22227-0.26634 1.0554-0.45163 0.41053-0.095053-0.28212-0.0023404-0.61348-0.035502-0.91863 0.11599-0.33151 0.037275-0.7141 0.090639-1.0306 0.021827-0.50046 0.046576-0.80809 0.092347-1.3034 0.032063-0.53342-0.018698-1.0556 0.07096-1.5823-0.04305-0.48783 0.66472-0.26865 0.65266 0.13261 0.23191 0.3629 0.3801 0.75028 0.49874 1.1355 0.10795 0.29803 0.37546 1.1251 0.4933 0.35806 0.13601-0.48024 0.17242-0.98741 0.41806-1.4264 0.030447-0.39415 0.60114-0.85856 0.72122-0.27645 0.09904 0.53155 0.27583 1.086 0.27131 1.6055-0.04013 0.77172 0.18746 1.5166 0.24665 2.282-0.05103 0.40052 0.61805 1.4339-0.11911 1.4001zm2.0236-0.12174c-0.7183 0.096601-0.532-0.72032-0.6305-1.1758-0.12265-0.69833-0.08984-1.415-0.18873-2.119-0.13173-0.72165-0.0836-1.4624 0.02739-2.1824 0.21551-0.36993 0.73893-0.043366 1.077-0.25357 0.31432 0.015222 1.042 0.00645 0.95688 0.44936-0.3095 0.17225-0.74188 0.033046-1.0907 0.006886-0.29543 0.034511-0.65695 0.084476-0.54214 0.49438-0.04309 0.40475-0.06344 0.92294 0.04392 1.272 0.5006 0.20331 1.0611 0.053841 1.5677 0.081351 0.1167 0.22745-0.39388 0.20974-0.61542 0.3872-0.25668 0.12818-0.66356 0.086184-0.87919 0.15985 0.02991 0.50085 0.04601 0.99419 0.1228 1.4929-0.0024 0.45792 0.03236 1.1873 0.67583 0.79738 0.31352-0.10422 1.1109-0.091023 0.80954 0.33778-0.02125 0.28169-0.66163-0.013743-0.89566 0.21009-0.14517 0.016177-0.29213 0.076077-0.43865 0.041579zm-7.679 0.063582c-0.41841-0.075306-0.43763-0.50978-0.62009-0.82312-0.29621-0.4396-0.36621-0.97021-0.38745-1.4915-0.01168-0.83568-0.038533-1.7225 0.32774-2.4667 0.13753-0.27943 0.35014-0.62118 0.65883-0.6625 0.28655-0.038356 0.75179 0.4325 0.75179 0.4325 0.2787 0.32008 0.50057 0.71481 0.52605 1.13 0 0 0.21315 1.0709 0.17137 1.6085-0.03241 0.41704-0.32414 1.2123-0.32414 1.2123-0.011297 0.28927-0.30601 0.47388-0.46359 0.76598-0.24072 0.14458-0.37118 0.30913-0.64047 0.29455zm0.78695-3.6894c-0.021742-0.13102-0.048876-0.72221-0.30079-0.9758-0.53025-0.53377-0.83884-0.11388-0.8425 0.39644-0.00252 0.35163-0.12147 0.72691-0.15313 1.0755 0 0-0.066636 0.88371 0.0046 1.3168 0 0 0.20416 1.2138 0.67111 1.2306 0.45115 0.016232 0.61772-0.70267 0.73218-1.1394 0.16122-0.61506-0.11146-1.9042-0.11146-1.9042z" stroke-width=".060297"/>
</svg>
