<?xml version="1.0" encoding="UTF-8"?>
<svg width="88" height="24" version="1.1" viewBox="0 0 23.283 6.35" xml:space="preserve" xmlns="http://www.w3.org/2000/svg"><path d="m1.8343 6.3477c-0.23677-0.046904-0.46492-0.1661-0.6462-0.30898-0.11624-0.19647-0.35423-0.21979-0.4343-0.45363-0.071588-0.22751-0.15549-0.36936-0.26513-0.55595-0.042246-0.29184-0.041042-0.61464-0.20327-0.86279-0.1091-0.35716-0.020661-0.73385-0.13686-1.0811-0.071563-0.24268 0.10516-0.40201 0.069406-0.57535 0.06894-0.42302 0.26501-0.82175 0.46392-1.2027 0.20286-0.17126 0.26978-0.27117 0.5336-0.29128 0.22739 0.039647 0.34288 0.18781 0.57542 0.19817 0.32325 0.10878 0.66213 0.19983 0.80401 0.53903 0.091765 0.17818 0.12664 0.4258 0.1694 0.64237-0.13765 0.24492-0.53391 0.073014-0.45245-0.20806-0.018458-0.31093-0.25879-0.54477-0.54903-0.60597-0.23624-0.053117-0.55754-0.22035-0.71253 0.069631-0.13399 0.28555-0.23866 0.58197-0.33583 0.89904-0.15398 0.4751 0.034022 0.98917 0.002637 1.4865 0.089206 0.16738 0.21357 0.41951 0.20905 0.64512 0.011734 0.19782 0.10587 0.37842 0.14363 0.5781 0.13587 0.11894 0.18321 0.32116 0.38292 0.40324 0.16325 0.15134 0.3915 0.29546 0.61961 0.21363 0.35274-0.19478 0.29799-0.60432 0.38765-0.93552 0.064034-0.3023 0.47059-0.10452 0.42019 0.14664-0.1357 0.21956-0.075138 0.42034-0.08504 0.65083-0.12443 0.1385-0.1677 0.44382-0.40276 0.41949-0.10843 0.16718-0.37451 0.20931-0.55808 0.18951zm7.7366-0.27565c-0.15841-0.087897-0.23774-0.23085-0.338-0.39365-0.11413-0.37182-0.41026-0.65107-0.59529-0.96948-0.14214-0.18088-0.14051-0.46482-0.2963-0.66791-0.063357-0.27538-0.31908-0.45428-0.34219-0.75426-0.10815-0.17154-0.15066-0.35651-0.27114-0.53861-0.058684-0.18631-0.20276-0.36013-0.27119-0.54686-0.18479-0.33976-0.27974-0.058664-0.14874 0.20063-0.0082 0.3671 0.099719 0.72765 0.10818 1.0696-0.01808 0.2177-0.012718 0.4338 0.0083 0.68639-0.035813 0.27221 0.038054 0.51705 0.049206 0.77866-0.091601 0.20489 0.096018 0.48303 0.050283 0.73752 0.13329 0.21768-0.23624 0.46048-0.31381 0.2107-0.24242-0.16125-0.11326-0.54602-0.18831-0.80362 0.016928-0.26638-0.038495-0.53664-0.047556-0.81003-0.032061-0.37732 0.03574-0.77174 0.0037412-1.1329-0.01842-0.16498-0.10032-0.40282-0.12906-0.56917 0.042695-0.27623-0.066673-0.49421-0.081657-0.75602-0.0032961-0.23442-0.09974-0.53943 0.16166-0.61725 0.26592-0.15851 0.4301 0.19417 0.59553 0.35475 0.13631 0.20598 0.36179 0.37471 0.35337 0.64191 0.18761 0.13934 0.25103 0.42929 0.3824 0.62715 0.13827 0.42944 0.41152 0.80342 0.58558 1.2171 0.10622 0.2155 0.16029 0.48858 0.31279 0.69653 0.11493 0.31873 0.28937 0.14377 0.20886-0.1264 0.069477-0.66336-0.10041-1.3206-0.064951-1.9874 0.12805-0.16844-0.059382-0.34014-0.0087952-0.53235-0.12567-0.23817-0.046399-0.51317 0.19194-0.62032 0.32755-0.08611 0.1367 0.34451 0.28876 0.50194-0.070056 0.26524 0.082342 0.46638 0.00269 0.7126-0.19826 0.11276 0.070557 0.23086-0.046986 0.417 0.11168 0.88712-0.0168 1.8166 0.080214 2.7113 0.11211 0.090252-0.18002 0.41488-0.23952 0.26247zm-4.878-0.0081c-0.49783-0.061063-0.97021-0.43526-1.0538-0.93606-0.1268-0.42446-0.12678-0.854-0.15151-1.3051 0.088525-0.32469 0.081384-0.6304 0.18328-0.93308 0.090408-0.16513 0.00942-0.32383 0.093255-0.5109 0.042521-0.21369 0.064254-0.33547 0.099102-0.54993 0.14292-0.11127 0.0669-0.4225 0.19044-0.54123 0.076659-0.19742 0.35662 0.01224 0.51472-0.085918 0.28301-0.035022 0.55076 0.037543 0.74325 0.24651 0.24104 0.12849 0.25909 0.438 0.47738 0.60052 0.15494 0.21248 0.094798 0.36128 0.26475 0.53489 0.076106 0.19252 0.050964 0.35035 0.11549 0.53698 0.11892 0.21946 0.060343 0.43179 0.066174 0.67045-0.071882 0.20604-0.092993 0.39796-0.082893 0.62316 0.041646 0.21271-0.2288 0.37718-0.19222 0.53335-0.053309 0.19349-0.1019 0.44132-0.23152 0.55702-0.059807 0.16596-0.28153 0.29419-0.43977 0.41504-0.18224 0.073645-0.36896 0.17917-0.59618 0.14425zm0.3329-0.44753c0.27719-0.071503 0.31212-0.34646 0.44892-0.54405 0.082798-0.17317 0.14863-0.33519 0.22295-0.51283 0.037708-0.2793 0.10477-0.32127 0.082922-0.56259 0.056331-0.29675 0.075983-0.54319-0.016212-0.83008-0.035412-0.34786-0.1766-0.68716-0.3574-0.93903-0.10649-0.1184-0.07422-0.31919-0.26457-0.36657-0.1213-0.19275-0.48116-0.35532-0.63328-0.16559-0.22887 0.098706-0.28042 0.43974-0.31798 0.68784-0.033483 0.23343-0.065113 0.45824-0.14149 0.65849 0.010699 0.34263-0.17036 0.608-0.11526 0.95341-0.047453 0.39267 0.084403 0.76881 0.16821 1.1386-0.013015 0.17801 0.24941 0.35841 0.33738 0.43884 0.17468 0.033351 0.37353 0.114 0.58579 0.043547zm9.1417 0.19254c-0.20244-0.17122-0.04211-0.46827-0.04679-0.7048 0.06472-0.091437 0.05899-0.24776 0.06083-0.30487 0.02586-0.25065 0.04379-0.49498 0.08042-0.74515 0.02571-0.15448 0.06512-0.35924 0.08725-0.47363 0.02636-0.17291 0.16607-0.40914 0.14069-0.63385 0.11466-0.15741 0.06957-0.38323 0.14959-0.55056 0.08233-0.20137 0.02544-0.47485 0.12531-0.69408 0.0647-0.089241-0.04425-0.31256 0.08198-0.47928-0.0014-0.25114 0.31769-0.31203 0.45801-0.12987 0.2222 0.26081 0.24902 0.59385 0.44887 0.87125 0.02194 0.21756 0.16128 0.38864 0.15332 0.5785 0.14404 0.20389 0.05252 0.4183 0.19063 0.61334-0.0175 0.23944 0.09394 0.43869 0.14978 0.66589 0.07457 0.23148 0.16733 0.45729 0.19575 0.69266 0.05871 0.22189 0.23431 0.39328 0.27476 0.63555-0.0144 0.18666-0.05398 0.47695-0.33138 0.35131-0.14606-0.16884-0.18605-0.43343-0.27341-0.64042-0.056695-0.23671-0.187-0.46703-0.23695-0.71472-0.21537-0.10748-0.47599 0.15022-0.74449 0.076117-0.19406 0.066286-0.51316-0.00505-0.45828 0.28964-0.10888 0.16058-0.01344 0.40055-0.09643 0.59146 0.03155 0.20646-0.09882 0.35269-0.10245 0.51983-0.02603 0.12868-0.18211 0.31436-0.307 0.18571zm0.78297-1.9306c0.19382-0.12297 0.56744-0.01023 0.79203-0.1331-0.051216-0.29129-0.12837-0.56352-0.16448-0.86639-0.076781-0.29095-0.1479-0.61993-0.32276-0.91055-0.13791-0.16986-0.15113 0.35347-0.17357 0.47892-0.08766 0.18508-0.1015 0.35364-0.125 0.57793-0.02411 0.17045-0.19381 0.29792-0.13323 0.51076-0.0056 0.13048-0.14912 0.46892 0.12701 0.34242zm-2.5725 1.7025c-0.25326-0.047173-0.14313-0.27096-0.21213-0.44738 0.026517-0.28586-0.15371-0.5926-0.06657-0.84982-0.10482-0.45674-0.002537-0.94082-0.1528-1.3974-0.12792-0.32728-0.14175-0.72801-0.18099-1.0512-0.0166-0.32684-0.44851-0.12259-0.66134-0.16812-0.16584 0.072033-0.41308 0.12193-0.54728-0.092202-0.0385-0.30009 0.32304-0.28571 0.52718-0.33563 0.39358-0.0315 0.80789-0.00569 1.1756-0.076941 0.16015-0.046624 0.3492-0.089291 0.55179-0.12001 0.18283-0.098266 0.34-0.081429 0.53252-0.089268 0.17471 0.044964 0.22432 0.42192 0.0027 0.40207-0.2217 0.081805-0.4755 0.082916-0.67508 0.17858-0.18494 0.01235-0.5871-0.010162-0.45283 0.26559-0.02111 0.41666 0.05597 0.81929 0.16018 1.2077 0.08555 0.17514 0.01063 0.40498 0.10904 0.60035-0.11097 0.16776 0.05321 0.43351 0.03536 0.66423-0.0024 0.17258 0.0033 0.31906 0.0673 0.50467-0.02049 0.27592 0.19994 0.61482-0.08559 0.82161-0.03561-0.015899-0.10817 0.028292-0.12706-0.016942zm-0.3134-2.2277c-0.01939-0.036724-0.02112 0.035054 0 0zm0.31622-2.1712c-0.07792-0.022814 0.02199 0.050019 0 0zm5.7906 3.9665c-0.31956-0.060738-0.57634-0.31964-0.76218-0.56198-0.091598-0.16848-0.26505-0.35053-0.30949-0.58395-0.13847-0.41112 0.018426-0.87622-0.18062-1.2731-0.02404-0.23901-0.02156-0.47604 0.0097-0.69811 0.0072-0.26732 0.16765-0.54947 0.20213-0.83221 0.17612-0.16457 0.21831-0.42369 0.4925-0.42918 0.14357-0.083257 0.41939-0.1032 0.59095-0.051074 0.21722-0.081466 0.43052 0.19962 0.57552 0.33525 0.05763 0.16305 0.24025 0.45545-0.01748 0.48505-0.26546 0.15424-0.25386-0.24984-0.42388-0.33749-0.16212-0.20274-0.38494-0.099685-0.58909-0.059291-0.14752 0.23609-0.33372 0.43875-0.33115 0.73324-0.14531 0.40788-0.05611 0.89925 0.04406 1.2657-0.09194 0.23981 0.07803 0.50906 0.10198 0.76424 0.10808 0.35968 0.38004 0.67157 0.71134 0.83564 0.23818 0.073312 0.45449-0.1554 0.51639-0.35476-0.01718-0.24289 0.32661-0.35514 0.41102-0.11275 0.16738 0.13809-9e-3 0.42129-0.1668 0.47705-0.1106 0.23328-0.36882 0.38872-0.5912 0.42215-0.0954-0.00253-0.19124 0.00412-0.28369-0.02448zm2.7803-0.11816c-0.14565-0.1334-0.050706-0.42686-0.078893-0.62687-0.02408-0.40363-0.06677-0.88618-0.04776-1.2493 0.03035-0.2339 0.02927-0.40955 0.01052-0.66498-0.06194-0.17471-0.05591-0.40238-0.08092-0.56647 9.7e-5 -0.23356-0.0064-0.54026 0.0016-0.77109-0.10508-0.13864-0.07232-0.5089-0.2553-0.2972-0.25893 0.066326-0.62352 0.005532-0.90962 0.11707-0.2172 0.024891-0.49777-0.18672-0.35245-0.40493 0.21144-0.11607 0.46458 0.040636 0.67044-0.097418 0.19251-0.005761 0.50676 0.004389 0.60403-0.096264 0.24029-0.035698 0.47611-0.098347 0.7081-0.13893 0.33494-0.086191 0.71109-0.2324 1.0569-0.14954 0.26413-0.035818 0.56782-0.14112 0.8197-0.051607 0.15751 0.21276-0.05623 0.46997-0.298 0.3633-0.20487 0.12733-0.50236 0.026786-0.71227 0.10256-0.29606 0.047541-0.56664 0.0418-0.79912 0.16773-0.20034 0.13303-0.01528 0.55931-0.07875 0.81171-0.0123 0.21945 0.11746 0.37268-0.01855 0.56151 0.05163 0.22837 0.13343 0.47966 0.08013 0.69453-0.0041 0.2086-0.0367 0.41576-0.0199 0.62197 0.0955 0.151-0.10729 0.33842 0.04712 0.51193-0.06608 0.36293 0.15322 0.75469-0.0522 1.0817-0.02356 0.036038-0.22892 0.13063-0.29486 0.08054zm-0.095-1.6423c-0.05339-0.085403-0.04588 0.04792 0 0z" stroke-width=".04802"/></svg>
