<?xml version="1.0" encoding="UTF-8"?>
<svg width="152" height="8" version="1.1" viewBox="0 0 40.217 2.1167" xml:space="preserve" xmlns="http://www.w3.org/2000/svg"><path d="m3.2029 2.0354c-0.66196-0.11475-1.5298 0.00932-2.2792-0.098327-0.6978 0.45723-1.4699-0.58806-0.38063-0.51731 1.2023 0.06379 2.4171 0.094473 3.6325 0.06795 1.8457 0.10839 3.6883 0.036369 5.5234-0.16989 0.86134 0.035424 1.5583 1.512e-4 2.381 0.016382 0.63846 0.12609 1.4211 0.1462 2.062 0.083901 1.1204 0.12658 2.2192-0.10077 3.3369-0.025795 0.99128 0.033367 1.9817-0.22098 2.9966-0.17143 0.9576-3.831e-4 1.9986 0.04793 2.9823-0.10083 0.72533 0.078569 1.7073-0.29316 2.5433-0.27154 1.3529-0.035584 2.7195 0.074965 4.0775-0.18434 1.007 0.019224 2.0072-0.090836 3.009-0.087311 1.8636-0.061936 3.7137-0.3589 5.5751-0.3238 0.3842-0.21569 1.5581-0.38817 1.5539 0.31135-1.0022 0.61815-2.4211 0.018451-3.576 0.29634-1.9764 0.31431-3.9829 0.148-5.9685 0.3804-0.89607-0.029649-1.8303 0.11707-2.7403 0.128-1.5998-0.16423-3.2245 0.20586-4.7875 0.26758-1.0288 0.035754-2.0979 0.12832-3.1514 0.11558-1.2611 0.16284-2.5224 0.15704-3.776 0.12726-1.5797 0.027137-3.1702 0.17878-4.7515-0.085811-1.4956 6.833e-4 -2.9764 0.11555-4.4696 0.24246-0.74023-0.10792-1.8831-0.024045-2.7747-0.023078-0.34019-0.00614-0.68014 0.026125-1.0183 0.022259z" stroke-width=".054717"/></svg>
