<?xml version="1.0" encoding="UTF-8"?>
<svg width="54" height="3" version="1.1" viewBox="0 0 14.287 .79375" xmlns="http://www.w3.org/2000/svg">
 <path d="m0.16853 0.76002c-0.5063-0.38369 0.26663-0.51788 0.50818-0.51614 0.45421-0.012849 0.92363-0.037567 1.3693 0.085997 0.4429-0.057389 0.86852-0.10179 1.3279-0.10076 0.48765 0.015393 0.95808-0.12257 1.4362-0.17574 0.58072-0.10439 1.1709 0.034222 1.7527 0.0043828 0.48666 0.049838 0.96732 0.097302 1.4605 0.11514 0.4557-0.0299 0.92077 0.089068 1.382 0.024198 0.41737 0.002158 0.79773-0.093545 1.2122-0.10023 0.75782 0.066097 1.5266-0.0070111 2.2863 0.037647 0.34566-0.26285 0.7865 0.11341 1.1532-0.13339 0.46419-0.032491 0.12817 0.65496-0.14486 0.63355-0.43966 0.067595-0.86475-0.15056-1.3012-0.02569-0.48748 0.040795-0.96838-0.093364-1.4558-0.020886-0.35031 0.009389-0.73 0.009316-1.0452 0.029822-0.35528-0.027795-0.71574 0.096412-1.1005 0.032625-0.53303-0.035363-1.0752-0.0036297-1.6028-0.042467-0.38441-0.061656-0.77315-0.034522-1.1544-0.041576-0.3125-0.054633-0.69076-0.076015-1.0472-0.09297-0.54774 0.029651-1.0935 0.16293-1.647 0.17071-0.39698-0.0045017-0.80286 0.084317-1.2 0.061225-0.42364-0.007451-0.87167-0.0076637-1.3116-0.026801-0.29092-0.0010262-0.58892 0.086958-0.87803 0.08136z" stroke-width=".059566"/>
</svg>
