<?xml version="1.0" encoding="UTF-8"?>
<svg width="100" height="5" version="1.1" viewBox="0 0 26.458 1.3229" xml:space="preserve" xmlns="http://www.w3.org/2000/svg"><path d="m2.4942 1.3463c-0.59383-0.20972-1.4499-0.27226-2.147-0.38555-0.99105-0.20531 0.41295-0.86622 0.82477-0.44169 0.77023 0.02962 1.5574 0.41906 2.2787 0.22131 0.83873-0.067275 1.7207-0.027604 2.5276-0.13186 1.6021-0.2484 3.2407 0.12786 4.8366-0.21643 1.1571-0.12438 2.3147 0.053434 3.4528 0.001193 0.95059 0.026955 1.8849-0.24754 2.8409-0.18487 1.3161-0.06552 2.6414-0.095247 3.9452 0.007596 0.67748-0.19126 1.5068-0.17299 2.1499-0.13171 1.0469-0.063042 2.1103-0.12843 3.148-0.044321 0.49466 0.87336-0.86691 0.48182-1.316 0.52778-1.0394 0.095098-2.0928 0.069016-3.1328 0.092238-0.89946 0.18728-1.8282 0.094633-2.7335 0.086558-1.4487-0.009421-2.8858 0.062806-4.3173 0.2165-1.0809-0.006586-2.23 9.2734e-4 -3.3327-0.044093-1.2016 0.058268-2.4012 0.36167-3.6074 0.17212-0.80312-0.0065748-1.6247 0.047749-2.4341 0.13363-0.77794-0.02037-1.6053 0.13446-2.3528 0.034375-0.20773 0.040145-0.41723 0.10402-0.63086 0.087238zm1.7897-0.128c-0.024537-0.074507-0.050052 0.072595 0 0zm1.664-0.55023c-0.051843-0.073108-0.051843 0.073107 0 0z" stroke-width=".057644"/></svg>
