<?xml version="1.0" encoding="UTF-8"?>
<svg width="88" height="9" version="1.1" viewBox="0 0 23.283 2.3812" xml:space="preserve" xmlns="http://www.w3.org/2000/svg"><path d="m0.84938 2.4232c-0.54965 0.29581-1.2722-0.86933-0.48263-0.65044 0.69013 0.2654 1.6257 0.05283 2.2994 0.0054576 0.96935-0.06986 1.9325-0.29856 2.8976-0.312 0.5796-0.078868 1.2373-0.19398 1.8619-0.17927 0.8596-0.07197 1.7231-0.081724 2.585-0.093789 0.7181-0.036909 1.4409-0.045147 2.1611-0.1283 0.6573-0.10627 1.35-0.15407 2.0314-0.089586 0.69289-0.084646 1.3939 0.098466 2.0867-0.008017 0.70519-0.034 1.4157-0.19068 2.0771-0.21101 1.0309-0.067406 2.0589-0.20731 3.0795-0.36429 0.49989-0.030111 2.0398-0.67853 1.7238 0.22132-0.5635 0.11835-1.2304 0.11691-1.8122 0.31502-0.84043 0.11507-1.6923 0.23646-2.544 0.33863-0.81092 0.042401-1.6272 0.043181-2.4195 0.19153-0.61609 0.14493-1.2791-0.047783-1.9172 0.03883-0.67424-0.011678-1.2911-0.11813-1.9547 0.055723-0.6869 0.042593-1.359 0.080706-2.0566 0.11911-0.65991 0.00652-1.3813 0.083392-2.0211 0.012468-0.71161 0.14723-1.3483 0.069128-2.0644 0.17233-0.6872 0.037901-1.3038 0.11929-1.9855 0.19603-0.75164 0.18139-1.3532 0.12378-2.1282 0.27831-0.47432 0.024178-0.94389 0.078144-1.4177 0.091924z" stroke-width=".054267"/></svg>
