<?xml version="1.0" encoding="UTF-8"?>
<svg width="228" height="11" version="1.1" viewBox="0 0 60.325 2.9104" xml:space="preserve" xmlns="http://www.w3.org/2000/svg"><path d="m6.3163 2.8897c-0.90138-0.13146-1.8624 0.083448-2.7197-0.11021-1.0791-0.099902-2.154 0.095747-3.2251 0.059283-0.6838 0.017737-0.3027-0.89006 0.17643-0.39058 0.35418 0.023751 0.72067 0.045888 1.1501-0.11837 0.40199 0.15904 1.045-0.10643 1.5496 0.076048 0.7873-0.10958 1.5336 0.23129 2.3365-0.057152 0.46668 0.20842 1.0494 0.17165 1.6439 0.10258 0.46519 0.016738 1.0715-0.13327 1.5583-0.16307 0.25485-0.021971 0.73486-0.062679 0.99836 0.017124 0.30409-0.053543 0.75036 0.041021 0.92246-0.019967 0.33009 0.027189 0.68311 0.10155 1.001 0.053029 0.36999-0.059757 1.0132-0.2072 1.2453-0.22216 0.06482-0.00803 0.70029 0.015188 0.94695-0.045062 0.39267-0.030253 0.4879-0.00299 0.72249-0.080232 0.3148-0.18069 0.84317-0.1829 1.0931-0.18169 0.37833-0.074179 0.9527-0.16024 1.1291-0.089276 0.22802-0.1139 0.3108-0.02197 0.48171-0.047661 0.3026 0.043236 0.60026 0.098219 0.85139 0.056076 0.20992 0.03052 0.29652-0.0015 0.62356 0.025621 0.29879-0.083778 0.345 0.094342 0.58755 0.027325 0.37191-0.00325 0.81293 0.10877 0.92255 0.077732 0.26017-0.076816 0.62755 0.22519 0.82175 0.00214 0.10476 0.18435 0.46646-0.078945 0.53653 0.077039 0.17794-0.12181 0.42435-0.072455 0.57797-0.17976-0.0103 0.21762 0.34397-0.21087 0.52861-0.015125 0.34152-0.032948 0.82625 3.59e-5 0.92183-0.087592-0.0054 0.22994 0.41436-0.028958 0.65756 0.025194 0.36473 0.027524 0.56604-0.017355 0.85538 0.01868 0.5262 0.01101 0.44959 0.052377 0.94662-0.075358 0.26289-0.055852 0.45904-0.037178 0.7149-0.039057 0.43465-0.049004 0.77021 3.518e-4 1.2905-0.00111 0.42976 0.00794 0.74677 0.1777 1.2263 0.093117 0.79882 0.038327 1.7111-9.402e-4 2.4665-0.070419 0.35228-0.038166 0.45023-0.034198 0.84595-0.031433 0.95152-0.23339 1.9-0.42306 2.8591-0.39904 0.63202 0.10342 1.3429-0.054 2.0072 0.15188 0.3397-0.11462 1.1203 0.042273 1.6208-0.019608 1.6033 0.00133 3.1733-0.17319 4.7706-0.38582 1.1416-0.20526 2.2849-0.084735 3.4696-0.069764 1.4999-0.15467 3.0036-0.22299 4.4977-0.47649 0.87524 0.033441 1.7343 0.31515 2.5691 0.26178 0.61911-0.19034 1.5067-0.2752 2.165-0.15097 0.39506-0.079656 1.0229-0.18088 1.5306-0.26543 0.69379-0.046543 1.4815-0.31125 2.105-0.06944 0.18363 0.55408-0.58695 0.46452-0.72636 0.52731-1.0605-0.17052-2.167 0.36601-3.2688 0.23317-0.62425 0.0052587-1.105 0.1666-1.7205 0.19767-1.1309 0.16037-2.2657-0.38406-3.4154-0.12349-1.2349 0.14489-2.5422 0.28026-3.7752 0.3089-0.46202 0.12969-1.0232-0.051648-1.5295 0.02416-1.4264-0.068756-2.867 0.21276-4.2225 0.36431-0.6474-0.059599-1.4489 0.12334-2.1828 0.10098-1.1375 0.084587-2.3405-0.06026-3.4924-0.13257-1.1523-0.00338-2.3298 0.23986-3.5059 0.40281-0.27045-0.027694-0.50076-0.023945-0.71059 0.062577-0.73865 0.026382-1.1644 0.03642-1.7925 0.021727-0.80018 0.067813-1.6759-0.069732-2.3754-0.1425-0.38554-0.00589-1.0241 0.12985-1.4107-0.020775-0.07384 0.18497-0.43683-0.036228-0.49929 0.070618-0.22897 0.025521-0.44608 0.1461-0.71725-0.00642-0.2866 0.084824-0.51697-0.088222-0.7504 0.079584-0.18634-0.085818-0.72557 0.034928-1.0944-0.00563-0.55447 0.036098-1.2794 0.20081-1.9052 0.18066-0.32797 0.039276-0.57121-0.10053-0.88234 0.00218-0.10854-0.050407-0.68594-0.055834-1.0472-0.089878-0.11808-0.14072-0.65882 0.01613-0.80752-0.07876-0.39644 0.1221-0.6964-0.10719-0.94871-0.021495-0.92286-0.056201-1.834 0.15796-2.8695 0.28474-0.43577 0.070948-1.2063 0.27544-1.7609 0.14043-0.50621 0.066641-0.82618 0.2978-1.3779 0.12153-0.37177-0.0027-0.75592 0.10861-1.2447 0.00628-0.36855 0.052144-0.51469-0.10269-0.83127-7.587e-4 -0.82387-0.0018228-1.6229 0.22211-2.4546 0.22984-0.21574-0.025968-0.43043 0.057544-0.66075-1.2e-6zm15.921-0.92726c-0.06278-0.1192-0.07326 0.16663 0 0zm7.3701-0.061168c-0.08095-0.12946-0.06956 0.072641 0 0zm1.8023-0.22536c-0.12685-0.074143 0.08591 0.1398 0 0z" stroke-width=".3033"/></svg>
