<?xml version="1.0" encoding="UTF-8"?>
<svg width="65" height="4" version="1.1" viewBox="0 0 17.198 1.0583" xml:space="preserve" xmlns="http://www.w3.org/2000/svg"><path d="m0.072815 0.97607c-0.15554-0.18845-0.040453-0.22166 0.14378-0.14298 0.014285-0.14106 0.017773-0.21936 0.18328-0.29039 0.099848-0.069648 0.30583-0.046223 0.47392-0.10122 0.21351-0.063374 0.46081 0.040937 0.65356-0.066644 0.15017 0.044348 0.33754-0.10134 0.5389-0.045763 0.3768 0.023677 0.74143-0.074206 1.1185-0.035082 0.41245 0.01342 0.81648 0.059615 1.232 0.052692 0.16128 0.10179 0.38243-0.008115 0.56928 0.02335 0.13565-0.033269 0.26486 0.042028 0.40859-0.03004 0.26271-0.035961 0.57674 0.049895 0.7963-0.12691 0.08639 0.12816 0.25172 0.003835 0.36472 0.087402 0.18667 0.040155 0.3479-0.042266 0.54312-0.011555 0.56114 0.00799 1.1268-0.030187 1.6819 0.036585 0.11103-0.035581 0.30912-0.12446 0.46772-0.071147 0.22064 0.093586 0.48132 0.015678 0.71261 0.09496 0.20691-0.044687 0.45328 0.044705 0.63603-0.015484 0.13815-0.069272 0.35684-0.03614 0.52625-0.064634 0.23326-0.042281 0.42729 0.094682 0.65896 0.075431 0.16856 0.047278 0.37616-0.058806 0.57766-0.011409 0.17129-0.024474 0.38539 0.020687 0.48474 0.035548 0.22487-0.001346 0.46145-0.14988 0.66537-0.069388 0.69245-0.10939 1.4034-0.016096 2.0937-0.15082 0.28714-0.026405 0.57296-0.05882 0.85716-0.10668 0.02771-0.069383 0.30128 0.014444 0.44909-0.037833 0.15591-0.036192 0.39922 0.17939 0.23097 0.28785-0.14702 0.089976-0.20621 0.24328-0.40613 0.1804-0.23701-0.006132-0.46158 0.028804-0.70302-0.009971-0.11272 0.10273-0.32837 0.074894-0.48684 0.10823-0.25216 0.005497-0.51976 0.11494-0.77096 0.015246-0.30283 0.030253-0.60554 0.062794-0.91035 0.05368-0.1956 0.14335-0.48333 0.068412-0.718 0.093456-0.36655-0.01689-0.73855-0.022761-1.1098-0.024468-0.13003-0.031425-0.31672-0.040693-0.48998-0.056858-0.14017 0.048901-0.34506 0.026733-0.52371 0.042261-0.20374-0.003715-0.42871 0.019475-0.6034 0.00644-0.29578 0.076997-0.61482 0.001258-0.92002 0.025065-0.10299-0.001244-0.31251-0.035531-0.48285-0.056262-0.19219-0.042768-0.15696-0.045876-0.36394 0.013499-0.18732 0.0316-0.38353-0.055225-0.53479-0.029498-0.14711 0.066105-0.34846-0.046254-0.50864-0.0032381-0.21022 0.0062241-0.44358-0.044992-0.62974 0.033155-0.34107-0.13523-0.69899 0.015218-1.0551-0.054846-0.29597 0.074665-0.64132-0.012915-0.92124 0.077698-0.1515-0.036498-0.33898 0.01251-0.52547 0.0038256-0.19093 0.039675-0.33595-0.047673-0.48507 0.036874-0.62849-0.039522-1.2648-0.038072-1.894 0.011118-0.17676 0.11581-0.4131-0.026916-0.61346 0.044527-0.25382 0.019868-0.51053 0.048718-0.7499 0.11233-0.21384 0.030556-0.44813 0.082512-0.6618 0.061508z" stroke-width=".053777"/></svg>
