<?xml version="1.0" encoding="UTF-8"?>
<svg width="228" height="32" version="1.1" viewBox="0 0 60.325 8.4667" xml:space="preserve" xmlns="http://www.w3.org/2000/svg"><path d="m16.46 8.3917c-0.27436-0.14188-1.0962-0.36946-0.89233-0.6903-0.02904-0.47446-0.32067-0.63864 0.18483-0.73397 0.27386 0.2709 0.08764 0.7024 0.54177 0.86686 0.31656 0.20605 0.88922 0.16477 0.86198-0.26872 0.17965-0.705 0.12284-1.407 0.059184-2.1531-0.50796 0.18734-1.3538 0.53936-1.5688-0.11753-0.11273-0.27133-0.27605-0.43894-0.3793-0.824-0.01503-0.65697 0.17818-1.0796 0.81761-1.3788 0.40534-0.18319 0.98046-0.2456 1.1526 0.21675 0.17063-0.10268 0.59258 0.2038 0.28045 0.47008 0.17047 0.20064 0.03789 1.044 0.16579 1.4804 0.01122 0.59276 0.12837 1.1797 0.04327 1.6212-0.0741 0.39106-0.12311 0.6849-0.1312 1.002-0.30639 0.30021-0.71228 0.67028-1.1359 0.50904zm0-3.2217c0.50854-0.032956 0.87349-0.54434 0.65125-0.93685 0.20542-0.45314-0.11176-0.67053-0.44128-0.84932-0.43294 0.04775-0.83784 0.18352-0.86544 0.71543-0.08339 0.36599 0.09383 1.0393 0.47136 1.1142l0.10761-0.00896zm-1.0395-1.252c-0.14414-0.027126-0.02476 0.053803 0 0zm8.5096 4.1989c-0.33309-0.2312-0.56335-0.30693-0.37367-0.6695 0.2921-0.45448 0.27583 0.28802 0.6656 0.31281 0.4387-0.013227 0.59242-0.40118 0.58574-0.67141 0.10167-0.20652 0.0034-0.22843 0.1347-0.48437-0.12375-0.2551 0.02141-0.60139-0.04775-0.66729 0.04843-0.2687-0.12516-0.57709-0.09035-0.52474-0.0079-0.12406-0.41975 0.32911-0.70651 0.057167-0.41114-0.18593-0.49986-0.56672-0.67774-0.85181-0.23419-0.54441 0.0067-1.2496 0.49717-1.6403 0.2827-0.18489 0.29256-0.28776 0.74452-0.31818 0.4639 0.073083 0.35074 0.25915 0.53025 0.55178 0.13426 0.093821 0.24263 0.56209 0.17847 0.64346 0.14581 0.47955-0.18386 1.2026 0.04921 1.8199-0.24865 0.35811 0.1639 0.90256-0.13842 1.2021 0.0621-0.073645-0.07846 0.98573-0.2932 0.80535-0.05862 0.19949-0.26492 0.25441-0.26133 0.4101-0.30685-0.020624-0.56163 0.1218-0.79673 0.024997zm1.2365-0.89459c-0.05839-0.11052-0.06357 0.10559 0 0zm0.12748-0.5099c-0.09058-0.12134-0.07544 0.093933 0 0zm0.02813-0.18602c-0.14186-0.067927 0.0509 0.14379 0 0zm-0.365-0.74981c-0.03387-0.24394-0.0427 0.24088 0 0zm0.17897-0.42885c-0.07285 0.098864-0.04136 0.054813 0 0zm-0.83642-0.2064c0.22817 0.050104 0.70179-0.40354 0.4781-0.71765 0.25274-0.48205-0.19402-0.76938 0.13163-1.1666 0.20571-0.3378-0.47701-0.088328-0.75692-0.091353 0.12878 0.26401-0.35406 0.37623-0.33724 0.74232-0.13247 0.05044 0.02825 0.70131 0.12747 0.82845 0.08979 0.20831 0.31245 0.44219 0.35695 0.40484zm-0.86373-0.63872c-0.12127-0.14005 0.07307 0.19774 0 0zm0.5068-0.98835c-0.08048-0.12855-0.06893 0.0723 0 0zm1.0862-0.46626c-0.06501 0.084517-0.01526 0.00225 0 0zm14.699 4.3269c-0.58104 0.097071-1.3462-0.2622-0.98052-0.90227 0.32105 0.051113 0.61527 0.7554 1.1935 0.44259 0.65745-0.20299 0.27277-1.1145 0.28907-1.6629 0.04405-1.0148-0.39738 0.25488-0.87196 0.08844-0.84413-0.02141-0.84587-1.0819-0.57347-1.6879 0.12169-0.16935 0.22193-0.63008 0.52551-0.81589 0.35001-0.28499 0.92752-0.23931 1.1732 0.12298 0.30838 0.30964 0.06299 0.7031 0.16725 0.93877 0.05884 0.666 5.93e-4 1.4943 0.10694 2.0735-0.0079 0.42272 0.09639 1.0735-0.44652 1.301-0.18877 0.021186-0.36657 0.21182-0.58299 0.10155zm-0.22093-2.5522c0.55702-0.40033 0.50892-1.1485 0.53615-1.6954-0.78959-0.10906-1.1089 1.0863-0.85754 1.6765 0.05371 0.11063 0.24675 0.092139 0.32139 0.018833zm-34.803 1.5803c-0.27406-0.28811-0.037775-0.76456-0.10234-1.0673 0.06916-0.33072-0.24467-0.85459-0.010088-1.1921 0.022866-0.082163-0.047527-0.39421 0.036542-0.68827-0.044837-0.19995-0.11187-0.32803-0.0089676-0.66928 0.49907 0.083732 0.29501 0.30638 0.29051 0.68974-0.057278 0.37956 0.38835 0.10671 0.58711 0.17505 0.40943 0.0078447 1.291-0.28342 1.2988 0.19928-0.43923 0.33653-1.3874-0.13908-1.5635 0.50561-0.20796 0.41112-0.30439 0.81101-0.24254 1.2019-0.0067252 0.16965 0.22908 1.0537-0.28545 0.84535zm0.23593-1.4306c-0.049769-0.076221 0.021856 0.20645 0 0zm-4.3766 1.3597c-0.61904 0.047527-0.48196-0.56313-0.56383-0.95809 0.04876-0.32611 0.057951-0.38734 0.14002-0.66212 0.039456-0.32441 0.12361-0.72682 0.066134-1.0805-0.16058-0.38931-0.014011-0.607-0.14242-1.0342 0.017374-0.15555-0.020065-0.68618 0.087992-1.1497-0.27403-0.41626 0.28194-1.0354 0.32159-0.33066-0.010088 0.33831-0.043155 0.58955-0.035309 0.7704 0.045621 0.33279-0.046966 0.37627 0.071066 0.64039-0.21775 0.66661 0.40631 0.54641 0.81949 0.70454 0.29824 0.147 0.65967 0.39232 0.73313 0.63226 0.19488 0.16654 0.011209 0.4542 0.31232 0.69681-0.091579 0.082275 0.023091 0.34066 0.037437 0.55126-0.17025 0.3479-0.29761 0.51608-0.526 0.73443-0.34923 0.29833-0.78303 0.28574-1.2706 0.44055 0.031946 0.052458-0.046406 0.1103-0.051001 0.044612zm0.28045-0.52296c0.53905-0.032507 0.91559-0.31841 1.1747-0.69246-0.018607-0.28981-0.072972-0.82737-0.30786-1.1352-0.036205-0.042931-0.66506-0.69119-1.0198-0.45318-0.20538 0.13107-0.085525 0.52544-0.13608 0.6474-0.035757 0.15065-0.034636 0.56656-0.092251 0.94044-0.12711 0.089448-0.028135 0.68096 0.11363 0.71737 0.090009-0.00225 0.17896-0.00784 0.26771-0.024323zm8.3341 0.4827c-0.096734-0.6629-0.62477-0.060754-1.0295-0.30429-0.39304-0.084965-0.81749-0.46316-0.82885-0.82976-0.12586-0.27824-0.4079-0.88614-0.02253-1.2125-0.13353-0.40887 0.65206-0.70805 1.0222-0.90354 0.26099-0.27906 0.50872 0.40037 0.66411 0.020849-0.074877-0.28856-0.087879-0.94962 0.04394-0.99093-0.01446-0.2188-0.099425-0.21871-0.025893-0.44491-0.14406 0.053467 1.683e-4 -0.5641-0.081378-0.7596 0.27314-0.55685 0.38873 0.37631 0.43182 0.54285 0.021856 0.32161 0.027126 0.39218 0.058288 0.72662-0.044277 0.32205-0.14347 0.63758 0.025446 0.7776 0.065909 0.83869 0.070169 1.6311 0.13283 2.4546-0.046967 0.33458 0.25139 1.167-0.39063 0.923zm-0.73652-0.72477c0.67414 0.049768 0.065013-0.69176 0.51245-0.22684 0.21864-0.3111 0.018159-0.94308 0.030153-1.343 0.10581-0.37429-0.052571-0.58551-0.25833-0.43662-0.35977-0.24325-0.72054 0.055485-0.88213 0.26359-0.31588 0.27657-0.22499 0.65849-0.10593 1.1482 0.036205 0.2495 0.43831 0.61757 0.7038 0.59461zm0.93525-3.7799c-0.042819-0.14404-0.00225 0.22561 0 0zm-6.091 4.2828c-0.17428-0.25172-0.15827-0.69716-0.032954-0.99132-0.12377-0.37435 0.0089674-0.80927-0.14084-1.2788-0.14033-0.4096 0.44574-0.71278 0.45076-0.29409-0.011209 0.37798 0.066357 0.97018 0.015917 1.1416 0.15109 0.3296 0.047639 0.95887 0.005608 1.3514-0.037999 0.12077-0.18512 0.16279-0.29878 0.071177zm9.1203-0.020288c-0.55745-0.03699-0.068039-0.78216-0.23095-1.1942 0.10167-0.46234-0.25994-0.96265 0.11622-1.2278-0.19071 0.11994-0.34504 0.1225-0.28242-0.35693 0.23216-0.56086 0.55845 0.12513 0.48642 0.36712 0.09819 0.49553 0.34621-0.60478 0.74485-0.45791 0.3958-0.042481 0.59315 0.12703 0.85115 0.24379 0.38844-0.030937 0.13323 0.25755 0.42355 0.30543 0.11562 0.19808 9e-3 0.53367 0.04561 0.61234 0.11535 0.34136-0.05033 0.32416 0.01009 0.64766 0.20238 0.11907 0.14166 1.275-0.34182 0.90225-0.23751-0.19504 0.14597-0.78522-0.080138-1.1164 0.17432-0.11854 0.024548-0.47247-0.006686-0.76748-0.18923-0.25694-0.72695-0.51891-1.0365-0.23989-0.12106 0.21972-0.17704 0.25154-0.27813 0.62262-0.23416 0.36641-0.15874 0.70499-0.17535 1.2278 0.067137 0.19461-0.025675 0.4581-0.24534 0.43172zm1.9759-1.1728c-0.05839-0.11052-0.06357 0.10559 0 0zm0.06546-0.62929c-0.11724-0.13303-9e-3 0.26904 0 0zm-3.5965 1.6567c-0.42586-0.39244-0.082049-1.1448-0.22104-1.6854-0.10783-0.38133 0.12452-1.1508 0.5156-0.61261-0.04786 0.64131 0.08204 0.91186 0.01647 1.5943 0.05785 0.31416-0.0418 0.68593-0.26003 0.71566zm25.826-0.21167c-0.78203-0.23145-1.3894-0.76519-1.6718-1.5443-0.02388-0.56154-0.0056-1.0882 0.06691-1.6297 0.08004-0.45198 0.38666-1.0734 1.0099-0.95216 0.56928-0.55272 1.3589 0.048873 1.5667 0.51659 0.21267 0.47311 0.56028 1.0597 0.28026 1.6711-0.19882 0.34404-0.59193 0.68356-0.99722 0.74858-0.47381-0.00336-1.093-0.10099-1.0611-0.65992-0.14693-0.39194 0.10391-0.86353 0.41344-1.0656 0.21726-0.024773 0.76541-0.60641 0.755 0.022195 0.16442 0.31501 0.0079 0.93294 0.27776 1.0216 0.411-0.27614 0.27131-0.99424 0.0353-1.2797-0.1642-0.56112-0.7995-0.8279-1.2489-0.54495-0.50868 0.014347-0.59122 0.54073-0.6353 0.8492 0.06761 0.61138-0.16758 1.3463 0.39127 1.8231 0.29162 0.3712 0.99205 0.4854 1.3145 0.69878-0.01009 0.24586-0.33519 0.3716-0.49683 0.32525zm0.07275-1.8077c-0.0306-0.44377-0.2539-1.1717-0.44163-0.35934-0.11587 0.30517 0.40837 0.72868 0.44162 0.35934zm-2.9539 1.6644c0.036092-0.66364-0.2699-0.67586-0.8987-0.5831-0.32399-0.13884-0.4565-0.081154-0.69432-0.42036 0.011209-0.35571-0.11513-0.3605-0.05548-0.77819-0.19586-0.35651-0.02769-0.36989-0.001189-0.71397 0.21117-0.27187 0.51548-0.15875 0.77803-0.32794 0.27887-0.31073 1.188-0.016589 0.61745 0.34073-0.31799-0.24334-0.78778 0.044612-1.0077 0.26656-0.09818 0.34319 0.09729 0.7577 0.01515 1.0858 0.32899 0.012219 1.0168 0.25449 1.1438-0.085863 0.03733-0.53478 0.02836-0.47482 0.06233-1.0714 0.0022-0.38475 0.10133-0.6156 0.02141-0.90231 0.13324-0.26573-5.94e-4 -0.86382 0.03957-1.1154-0.02723-0.35793-0.02723-1.2044 0.50091-0.89764 0.03845 0.6403-0.05986 1.3755-0.04707 2.0115-0.0621 0.68166 0.05168 1.3139-0.1075 2.0068 0.04719 0.43874 0.37361 1.2855-0.29801 1.3029l-0.06129-0.10536zm-1.6084-1.4161c-0.11966-0.084627-0.02567 0.094045 0 0zm-10.654 1.4901c-0.53364-0.23377-0.999-0.84368-0.80803-1.5751-0.017034-0.43526 0.099538-0.72924 0.32362-0.97234 0.22586-0.187 0.92946-0.47856 1.314-0.20077 0.44751 0.12247 0.59811 0.86096 0.12664 1.1221-0.30018 0.39849-1.2728-0.25161-1.3295 0.39838 0.0056 0.55229 0.63566 1.1301 0.99116 0.60445 0.51-0.19372 0.72694 0.39981 0.31269 0.46337-0.33607-0.12215-0.42776 0.087095-0.5835 0.13161-0.12626-0.018944-0.19079 0.10055-0.34706 0.028247zm-0.73245-1.3791c-0.02286-0.086423-0.14691 0.11906 0 0zm1.2954-0.56566c0.7328-0.31097-0.3995-0.66874-0.62834-0.39523-0.59985 0.49401 0.23147 0.34303 0.62834 0.39523zm-2.7462 1.8236c-0.29037-0.28654-0.35691-0.74202-0.22602-0.96132-0.13338-0.21034-0.040358-0.50326-0.099535-0.96834 0.0446-0.86287-0.0079-1.7588-0.11086-2.6465 0.06814-0.06647-0.02275-0.813 0.43818-0.50453 0.08632 0.58903 0.15462 1.2436 0.1164 1.8568-0.10626 0.15025 0.23001 0.78381-0.0079 1.0561 0.10761 0.76383-0.07801 1.4837 0.23697 2.0269 0.16419 0.073868-0.32789 0.45058-0.3478 0.14101zm9.6815-0.17868c-0.14072-0.29154-0.0315-0.3176-0.13999-0.5995-0.03945-0.36617-0.01727-0.44391 0.02107-0.605 0.03049-0.33749-9e-3 -0.4216 0.05885-0.67185-0.2295-0.16055 0.06063-0.36775-0.09415-0.57789-0.13862-0.39578 0.72776-0.4457 0.42587 0.13431 0.03552 0.47647 0.29466-0.028808 0.49633-0.05414 0.13446-0.15145 0.39124-0.20269 0.67656-0.22675 0.28244 0.067927 0.6763 0.2384 0.70723 0.65009-0.11551 0.093147 0.10167 0.36387 0.02129 0.47597 0.24242 0.34214 0.08643 0.88198 0.19568 1.2832-0.02185 0.49823-0.64042 0.03161-0.52571-0.20908-9e-3 -0.32552 0.04192-0.78967-0.11164-1.0667-0.0022-0.38783-0.01211-0.73304-0.52233-0.67025-0.11007 0.027351-0.33622 0.13306-0.47009 0.37091-0.28563 0.22367-0.34378 0.76278-0.394 0.86113 0.0046 0.26909 0.12855 0.7639-0.10514 0.9178-0.04808-0.28686-0.15858 0.23166-0.23987-0.012219zm1.8713-1.033c-0.07006-0.11923-0.03824 0.10133 0 0zm-3.3654 1.0269c-0.27563-0.024212-0.61111-0.087207-0.61978-0.31304-0.010087 0.16984-0.20083-0.094829-0.25596-0.16649-0.25612-0.14651-0.11215-0.54724-0.25878-0.63661 0.038-0.40474 0.0584-0.33284 0.21178-0.77181 0.1355-0.4481 0.37923-0.81628 0.9562-0.86859 0.47854 0.029032 0.66362 0.43522 0.72665 0.7736-0.04898 0.38363-0.11153 0.43325-0.46085 0.46817 0.10167 0.18213-0.39116 0.033514-0.42373 0.15622-0.41029-0.21811-0.73737 0.25741-0.39393 0.61328 0.19648 0.27099 0.31939 0.22954 0.59488 0.38732 0.17251-0.064453 0.91461-0.49238 0.81745 0.07611-0.1914 0.22039-0.55747 0.27305-0.89392 0.28184zm-0.89234-0.65574c-0.08048-0.12853-0.06893 0.0723 0 0zm-0.15297-0.62464c-0.0852-0.19981-0.06177 0.1331 0 0zm1.301-0.57863c0.34923-0.24759-0.35222-0.66246-0.54873-0.28979-0.51444 0.45068 0.23834 0.41093 0.54873 0.28979zm20.299 1.8093c-0.2215-0.2901-0.12912-0.84811-0.11476-1.0154 0.07634-0.39374-0.24472-1.4562 0.4385-1.3396 0.24868 0.40011-0.08317 0.96907 0.07208 1.4297-0.1926 0.24977 0.23728 1.0259-0.39582 0.9253zm-0.94058-0.032058c-0.49251 0.00897-0.17557-0.93037-0.60229-0.61421-0.442 0.35974-1.2777 0.10211-1.4256-0.38798 0.1633-0.40853-0.05201-1.2243 0.5499-1.4205 0.32227-0.15003 1.3505-0.098191 0.88521 0.40412-0.47373-0.16902-1.0656 0.22086-0.8482 0.60848-0.13699 0.76294 0.96108 0.40988 0.92602-0.15935 0.18221-0.27915 0.05258-1.0965 0.60843-0.78114 0.2321 0.4716-0.23315 0.7321-8.8e-5 1.1347-0.1445 0.5892 0.44006 0.78129 0.13182 1.1977-0.0444 0.09427-0.16028 5.717e-4 -0.22514 0.018158zm2.643 0.00225c-0.50181-0.21318-0.048653-0.86931-0.22958-1.1996 0.15401-0.2553-0.08329-0.47078 0.06489-0.61291 8.97e-4 -0.57739 0.04897-1.5768 0.04956-2.3218-0.06736-0.3919 0.04574-1.5118 0.48622-0.87659 0.03317 1.5925-0.1692 3.1933-0.05772 4.727-0.03139 0.14713-0.10312 0.32849-0.31333 0.28386zm-5.3968-0.12462c-0.36387-0.296-0.096848-1.0743-0.39073-1.4361-0.044499-0.56001-0.89602-0.8657-0.94957-0.21962-0.001091 0.24222-0.094379 0.69669-0.2221 0.98818-0.3393 0.31351-0.61038-0.045285-0.495-0.48591 0.099649-0.37825-0.34032-1.1605-0.4495-0.43839-0.19385 0.34574-0.21396 0.75329-0.22381 1.0026 0.12614 0.70124-0.54222 0.42125-0.35393-0.10514-0.0067-0.50584 0.03229-0.94483-0.08787-1.3991-0.22616-0.12544 0.2243-0.38028 0.34052-0.22098 0.0012 0.50256 0.28814-0.24816 0.60705-0.063444 0.243-0.033404 0.34156 0.45416 0.60961 0.30567-0.04035-0.47993 0.97673-0.58944 1.2115-0.102 0.37486 0.16366 0.45639 0.75062 0.57985 1.1623 0.0079 0.23963 0.33205 1.1088-0.17597 1.0121zm8.9406-0.30037c-0.60784-0.039009-0.7318-0.84235-0.79674-1.2036 0.10862-0.44748 0.10615-1.1145 0.70756-1.471 0.33588-0.42589 1.1156-0.30703 1.1555 0.30332-0.22099 0.58256-0.61415-0.41081-0.92619 0.14714-0.50367 0.40972-0.51204 1.2345-0.16606 1.7189 0.42059 0.24013 1.2718-0.49231 1.3258 0.15905-0.33349 0.28639-0.81986 0.48144-1.2998 0.34613zm2.5806-0.20398c-0.68507-0.17863-1.0433-0.93863-0.77051-1.571-0.03104-0.46 0.21544-1.065 0.80283-0.88872 0.48515-0.12619 0.88731 0.52729 0.88318 0.94942 0.10481 0.5367-0.04259 1.387-0.57559 1.5497-0.11347-0.00896-0.24619 0.053803-0.3399-0.039456zm0.21552-0.418c0.36687-0.16303 0.11949-0.25519 0.36815-0.47333 0.12124-0.51469-0.0983-1.4389-0.73789-0.97544-0.37638 0.20887-0.40125 0.94172-0.14696 1.2057-0.17207 0.03273 0.17871 0.25207 0.5167 0.24308zm1.3076 0.39888c-0.28705-0.30401-0.16526-0.93464-0.13075-1.2038 0.096288-0.39226-0.11216-0.7348-0.11052-1.1981 0.53009-0.48438 0.36124 0.61083 0.52894 0.27254 0.28723-0.43023 0.73221-0.39638 1.0781-0.056831 0.31536-0.4068 1.1389-0.55399 1.2994 0.097294 0.36664 0.55343 0.19525 1.4158 0.01985 2.0503-0.67418 0.1279-0.13491-0.77293-0.23664-1.1477 0.21946-0.68307-0.61464-1.2617-0.82664-0.40607-0.036881 0.35022-0.26152 1.5644-0.65591 0.80383 0.11376-0.33519 0.12748-1.6413-0.36783-0.90719-0.36551 0.52499-0.20426 1.208-0.42215 1.7531-0.06692 0.00449-0.1188-0.00225-0.17577-0.057391zm-6.0328-0.19592c-0.5446-0.5585 0.80106-0.6823 0.39924-0.051897-0.11019 0.086758-0.27654 0.16427-0.39924 0.051897zm-26.024-0.78859c-0.04785-0.17753 0.11588 0.085637 0 0zm-1.8505-0.25838c0.07017-0.11922 0.03812 0.10144 0 0zm-12.872-0.96775c-0.38907-0.38853 0.35839-0.83943 0.48093-0.26974 0.0593 0.24446-0.31948 0.45166-0.48093 0.26974zm-7.4481-0.027911c-0.55269-0.24467 0.18531-1.0051 0.29944-0.34286 0.13685 0.17187-0.15183 0.45799-0.29944 0.34286zm44.923-0.99316c-0.47371-0.02735-0.28852-0.9084 0.1955-0.59664 0.22916 0.082499 0.01356 0.68541-0.1955 0.59664z" stroke-width=".30112"/></svg>
