<?xml version="1.0" encoding="UTF-8"?>
<svg width="62" height="16" version="1.1" viewBox="0 0 16.404 4.2333" xml:space="preserve" xmlns="http://www.w3.org/2000/svg"><path d="m0.93728 4.1911c-0.17291-0.039973-0.33151-0.067833-0.48952-0.15372-0.22148-0.054706-0.40608-0.25906-0.44776-0.48448 0.024933-0.16224-0.011885-0.50445 0.23418-0.45319 0.19482 0.055971 0.064864 0.34659 0.13535 0.49792-0.002234 0.19293 0.21344 0.16177 0.3484 0.24888 0.18083 0.058158 0.42315 0.08135 0.5606-0.048321 0.16055-0.061247 0.28502-0.20825 0.37556-0.33863 0.16326-0.12559 0.28605-0.34861 0.13358-0.53029-0.071149-0.21883-0.19129-0.38948-0.36868-0.54438-0.16686-0.097787-0.40276-0.03891-0.56675-0.16462-0.14423 0.03148-0.24992-0.07437-0.37043-0.16434-0.1577-0.082835-0.24251-0.2489-0.33047-0.39012-0.066042-0.18044-0.024165-0.24744-0.098736-0.45436-0.015255-0.20106 0.068903-0.37698 0.14447-0.54843 0.071134-0.14564 0.16431-0.2483 0.28561-0.31843 0.18199-0.1472 0.35906-0.39148 0.62477-0.29837 0.24788 0.029465 0.52426 0.069129 0.69681 0.24296 0.12822 0.028245 0.23192 0.25048 0.33313 0.36798 0.076784 0.14186-0.25846 0.29839-0.25374 0.13042-0.17403-0.28381-0.49221-0.50875-0.83765-0.46769-0.14168-0.071639-0.2758 0.20481-0.41518 0.27465-0.082121 0.11947-0.20109 0.22128-0.2064 0.38913 0.0029304 0.2185-0.066285 0.48867 0.14058 0.63635 0.19249 0.28772 0.56342 0.33042 0.87662 0.39349 0.24288 0.011487 0.34919 0.29527 0.51425 0.4447 0.065701 0.14141 0.16724 0.30215 0.22824 0.44738 0.097964 0.34624-0.093749 0.69371-0.33557 0.93204-0.14275 0.015057-0.2262 0.14172-0.35464 0.2163-0.16591 0.10119-0.31095 0.092686-0.47765 0.13082-0.025016-0.00379-0.062469 0.048773-0.078975 0.00637zm1.7477-0.055619c-0.13026-0.094625-0.10034-0.15161-0.075624-0.36109 0.020498-0.33398 0.20957-0.63021 0.1745-0.972 0.08179-0.34848 0.087604-0.70911 0.17916-1.0585-0.033289-0.17505 0.13119-0.29552 0.072604-0.45433 0.022816-0.17887 0.072301-0.3702 0.066626-0.56341 0.075176-0.13785 0.11319-0.43278 0.3303-0.37783 0.14273 0.056918 0.21553 0.22355 0.26173 0.34653 0.13164 0.11038 0.16636 0.26263 0.27522 0.38207-0.005563 0.17555 0.16116 0.27797 0.1687 0.45631 0.029263 0.17332 0.20119 0.2892 0.20716 0.4809 0.071166 0.15821 0.24187 0.30041 0.18038 0.49015 0.08595 0.23471 0.13253 0.4908 0.22533 0.71402-0.022079 0.21225 0.23667 0.27549 0.12491 0.50281-0.070532 0.1894-0.31203 0.0012741-0.35298-0.12989-0.10753-0.25584-0.23382-0.52257-0.28094-0.80624-0.10133-0.19065-0.38399-0.021073-0.55323-0.14777-0.16031-0.06563-0.3852-0.06823-0.53266-0.0066356-0.10804 0.20285 0.013514 0.46865-0.11454 0.67549 0.0064701 0.1846-0.10687 0.37882-0.0743 0.5814-0.013542 0.12377-0.12056 0.38524-0.28235 0.24805zm1.4-1.8829c-0.10988-0.21699-0.22535-0.46065-0.29085-0.70862-0.082113-0.13716-0.13141-0.29953-0.24142-0.41044-0.035812-0.24252-0.19145-0.10332-0.15399 0.048505-0.047116 0.19046-0.064983 0.39864-0.114 0.58537 0.030518 0.13797-0.18752 0.38547 0.00955 0.44018 0.25337-0.024555 0.47822 0.092409 0.7217 0.12411 0.033136-0.024806 0.094492-0.016452 0.069-0.079101zm2.9441 1.7746c-0.08992-0.1001-0.12656-0.33706-0.068197-0.44683 0.045894-0.2481 0.1151-0.48941 0.14686-0.74484 0.077571-0.33283 0.063677-0.6856 0.12693-1.0158 0.048905-0.28309 0.10517-0.56186 0.14236-0.84728 0.12301-0.12255 0.15006-0.3275 0.32483-0.41666 0.14591-0.069613 0.37137-0.018761 0.40888 0.19368 0.00658 0.19482 0.20756 0.25817 0.21632 0.45631 0.096941 0.099626 0.08044 0.2708 0.12687 0.36462 0.098651 0.10231 0.12493 0.27142 0.18389 0.40156-0.045526 0.21968 0.17572 0.29778 0.13626 0.43184-0.13332 0.19352 0.12718 0.34292 0.10128 0.54286 0.066985 0.19678 0.25195 0.39126 0.23851 0.59157 0.03467 0.19042-0.20628 0.28957-0.31084 0.12181-0.11992-0.14134-0.052292-0.2847-0.17407-0.42375-0.057024-0.14819-0.10596-0.29942-0.18112-0.44661-0.0023697-0.28784-0.25796-0.12651-0.42478-0.13592-0.14939 0.15077-0.4011 0.0038005-0.55612 0.065328-0.045052 0.15365-0.083811 0.29951-0.09266 0.42616 0.013578 0.2478-0.12631 0.50019-0.054865 0.75572-0.024847 0.09708-0.20577 0.22733-0.29033 0.12622zm1.0479-1.6714c0.17274 0.026393 0.34875-0.023193 0.2539-0.22134-0.096624-0.32972-0.28207-0.64373-0.40785-0.96805-0.06389-0.17399-0.21194-0.31662-0.21013-0.024893-0.049124 0.21734-0.11152 0.42613-0.16002 0.63801-0.03962 0.16902-0.00916 0.36689-0.027911 0.54772 0.18002 0.083118 0.36295 0.011744 0.55201 0.028558zm4.2622 1.632c-0.19239-0.024052-0.1043-0.342 0.06787-0.33212 0.15293-0.05844 0.44023 0.0402 0.52467-0.047752-0.0645-0.38734 0.02891-0.79577-0.10187-1.1742-0.0052-0.32798-0.13788-0.63472-0.16763-0.95958-0.06837-0.19265-0.02341-0.43307-0.14968-0.58725-0.20391-0.13457-0.42367-0.008862-0.62618 0.033116-0.22563-0.051982-0.14498-0.37117 0.05351-0.40303 0.25461-0.064394 0.54493-0.029656 0.80259 0.024578 0.19678 0.077751 0.45641-0.04852 0.62475 0.069829 0.0926 0.12042 0.0024 0.28385-0.15976 0.302-0.24948-0.067764-0.38406 0.055937-0.25862 0.29364 0.0496 0.18088 0.04801 0.37831 0.12299 0.56125 0.0061 0.28809 0.09022 0.57088 0.16135 0.8403 0.0059 0.32841 0.07729 0.65571 0.06793 0.98263 0.22828 0.016648 0.43102-0.10106 0.6595-0.068994 0.12648 0.17433-0.01013 0.28597-0.14176 0.38481-0.12103 0.028507-0.3273 0.03356-0.48686 0.071168-0.1874 0.018652-0.3759 0.059026-0.57851 0.04955-0.13394-0.018475-0.30764 0.064757-0.41429-0.039943zm-6.7067 0.012753c-0.33162-0.13529-0.2163-0.55937-0.25439-0.84464-0.044373-0.26237 0.061752-0.57593-0.13002-0.78907 0.04296-0.15937 0.042855-0.34209 0.036847-0.52841 0.020401-0.1987-0.067831-0.37284-0.061216-0.57343-0.11323-0.19637-0.15667-0.48722-0.01506-0.66987 0.083237-0.16617 0.33863-0.094395 0.49771-0.16223 0.2642-0.034035 0.54204-0.12344 0.8031-0.085892 0.17275-0.0052634 0.29323 0.23554 0.084715 0.2773-0.20138 0.06946-0.41099 0.15633-0.6364 0.13171-0.15013 0.00811-0.40402-0.013702-0.42394 0.15359-0.00814 0.18646 0.042325 0.34803 0.057122 0.51952 0.046985 0.23274 0.011219 0.48561 0.061661 0.72298 0.18077 0.00867 0.36315 0.02827 0.52546-0.049285 0.13211 0.031747 0.096367 0.35785-0.076063 0.32723-0.12976 0.042764-0.41121 0.039325-0.4096 0.20418 0.041914 0.3487 0.022384 0.70724 0.10823 1.05-0.001882 0.12111 1.851e-4 0.3543-0.16814 0.31636zm9.6202-0.11727c-0.16541-0.05702-0.39615-0.034896-0.49852-0.22308-0.16683 0.00817-0.27283-0.2231-0.29989-0.35935-0.06626-0.2247 0.20425-0.28211 0.25887-0.061486 0.06913 0.17121 0.32493 0.16375 0.37087 0.25789 0.23216 0.054078 0.54836 0.1104 0.76241-0.076633 0.13239-0.19491 0.25832-0.42551 0.2258-0.67525-0.028306-0.11477-0.12118-0.29923-0.21829-0.40598-0.09241-0.26083-0.38938-0.036495-0.5717-0.15555-0.16093-0.032734-0.30668-0.11106-0.46152-0.15986-0.18039-0.012804-0.18469-0.24724-0.28643-0.36821-0.06974-0.25477-0.11834-0.54629-0.05597-0.80766 0.07375-0.25154 0.29223-0.50995 0.52572-0.56524 0.13423-0.087429 0.3345-0.074526 0.49789-0.058019 0.30783 0.095399 0.52272 0.38065 0.63084 0.67486 0.1227 0.12722-0.08045 0.38058-0.23485 0.22905-0.1108-0.13396-0.027686-0.34619-0.22976-0.43221-0.15972-0.19824-0.51649-0.31094-0.68558-0.071749-0.15064 0.08586-0.18588 0.28108-0.20513 0.4475-0.03243 0.13567-0.02681 0.40693 0.11057 0.47856-0.0227 0.22404 0.25367 0.15502 0.37572 0.27586 0.23543 0.1437 0.54323-0.021229 0.76767 0.13914 0.0058 0.15328 0.23828 0.25052 0.28522 0.4408 0.11058 0.25725 0.10861 0.55206 0.0374 0.81-0.04684 0.15822-0.10362 0.24992-0.18792 0.37456-0.15246 0.27663-0.4802 0.28409-0.75987 0.29525-0.05185 0.00795-0.102 0.0052-0.15357-0.00319zm-5.2435-0.0432c-0.21696-0.06977-0.10921-0.31878-0.12141-0.48825-0.021702-0.53634-0.11954-1.0645-0.10264-1.6028-0.06509-0.2444-0.019443-0.52517-0.09192-0.77026 0.049563-0.19763-0.35494-0.16093-0.18006-0.37948 0.18143-0.073641 0.32306-0.23001 0.54116-0.17769 0.19236-0.036138 0.33382 0.040309 0.50637 0.081872 0.18762 0.023793 0.3134 0.18839 0.47446 0.2905 0.16472 0.16514 0.2146 0.44051 0.20202 0.67247-0.06009 0.19877-0.15507 0.40403-0.27711 0.56477-0.10067 0.10474 0.13774 0.13548 0.16935 0.28144 0.04778 0.14046 0.20856 0.26329 0.24956 0.3777 0.085 0.13495 0.1939 0.27053 0.30974 0.40567 0.14356 0.11198 0.23359 0.28779 0.11806 0.45575-0.18975 0.10423-0.35982-0.047864-0.40389-0.22641-0.10021-0.15702-0.25049-0.30041-0.33548-0.45371-0.071365-0.14404-0.16951-0.27211-0.26-0.42384-0.13212-0.2137-0.26497 0.00635-0.41043 0.02957-0.15336 0.05478-0.27868 0.032353-0.28149 0.23738 0.08281 0.16322 0.0085 0.37313 0.09444 0.53573-0.03027 0.1779 0.07646 0.32733 0.02072 0.49735-0.06725 0.074629-0.10819 0.14669-0.22145 0.09224zm0.31103-1.6582c0.18568-0.039584 0.21774-0.27081 0.35266-0.36512 0.13517-0.18407 0.283-0.35899 0.21393-0.59121-0.023109-0.32068-0.40464-0.41603-0.67303-0.45307-0.27815-0.10038-0.15454 0.23398-0.16883 0.39819 0.0016 0.20891-9e-3 0.23875 0.04874 0.45943 0.02876 0.19011 0.0024 0.34357 0.04332 0.5103-0.03838 0.13188 0.11975 0.01773 0.1832 0.04147z" stroke-width=".055881"/></svg>
