<?xml version="1.0" encoding="UTF-8"?>
<svg width="62" height="4" version="1.1" viewBox="0 0 16.404 1.0583" xml:space="preserve" xmlns="http://www.w3.org/2000/svg"><path d="m1.2768 1.042c-0.15651 0.032379-0.31596-0.14714-0.44193-0.049577-0.23964 0.068949-0.48962-0.045438-0.73034 0.03872-0.16941-0.090386-0.11303-0.35457 0.028197-0.43328 0.22759 0.096442 0.49482 0.058106 0.73147 0.028548 0.30121-0.025128 0.61159 0.11791 0.92339 0.075996 0.97481 0.012967 1.9478-0.04913 2.9229-0.044185 0.56616-0.012571 1.1303-0.084156 1.6985-0.087934 0.38223-0.040164 0.76456-0.010528 1.1454 0.011935 0.82124-0.050789 1.6491 0.010322 2.4693-0.069276 0.14264 0.008597 0.30748-0.018585 0.47949-0.021209 0.25917 0.001284 0.51834 0.002567 0.77752 0.003851 0.06187-0.074355 0.23218-0.002105 0.39264-0.046866 0.23141-0.016012 0.46947 0.06932 0.69219-7.1896e-4 0.19652 0.083022 0.44456-0.040652 0.6629-0.026714 0.35162-0.005033 0.69775-0.059209 1.0385-0.13603 0.35059-0.012952 0.729-0.055982 1.06-0.080629 0.35506-0.08826 0.74046-0.072437 1.1055-0.073127 0.17882-0.005269 0.25605 0.3212 0.04311 0.3111-0.16584-0.013049-0.11798 0.25251-0.35417 0.12765-0.14783 0.031367-0.33692-0.12621-0.45754-0.019812-0.43983 0.065027-0.89108 0.008284-1.3225 0.12611-0.21178-0.047133-0.37069 0.075164-0.57478 0.077254-0.36725 0.035871-0.73725 0.035547-1.1 0.093609-0.83266 0.03868-1.6793-0.02977-2.5017 0.050168-0.68169 0.022293-1.367 0.069145-2.0505 0.02048-0.19689-0.010009-0.41457-0.006337-0.58678 0.005999-0.16365-0.089779-0.32621 0.035537-0.51144-0.0046222-0.83119 0.013162-1.6603 0.085154-2.4916 0.087579-0.74228 0.087323-1.492 0.016248-2.2378 0.045181-0.26838-0.0089822-0.54667 0.024907-0.80995-0.01021z" stroke-width=".058022"/></svg>
