<?xml version="1.0" encoding="UTF-8"?>
<svg width="37" height="4" version="1.1" viewBox="0 0 9.7896 1.0583" xml:space="preserve" xmlns="http://www.w3.org/2000/svg"><path d="m0.050433 0.95289c-0.093409-0.058614-0.04082-0.22794 0.026931-0.29584 0.070812-0.019701 0.14399-0.081054 0.25279-0.066996 0.14151-0.0061468 0.27079-0.075758 0.41663-0.059092 0.49294-0.028237 0.98791-0.046297 1.4787-0.094662 0.53014-0.052632 1.0652-0.052222 1.5976-0.063543 0.44453 0.009617 0.8898 0.014663 1.3321-0.037773 0.092682 0.086359 0.23877 0.011545 0.35531 0.025888 0.10969-2.7515e-4 0.19473-0.091395 0.31159-0.062574 0.44303-0.01998 0.8868-0.003325 1.3283-0.053749 0.31165-0.021544 0.62409-0.049986 0.93666-0.036802 0.091916-0.10199 0.24797-0.033617 0.36954-0.05685 0.12329 0.065334 0.19713-0.17568 0.20465-0.041074 0.075125 0.097598 0.21747 0.052722 0.3277 0.04073 0.21435 0.018218 0.42766-0.049175 0.63907-0.032244 0.11585-0.007893 0.18264 0.11683 0.15556 0.21201-0.10268 0.057102-0.1627 0.14012-0.21819 0.20745-0.11297-0.001162-0.2497 0.022621-0.35211-0.010866-0.077887-0.093463-0.2322-0.008376-0.34348-0.023839-0.10849 0.014107-0.19649 0.054856-0.30535 0.00484-0.083697 0.065004-0.22092 6.9431e-4 -0.28669 0.05748-0.068028 0.078046-0.1895-0.040135-0.27293 0.022432-0.098973 0.024447-0.22695-0.043813-0.3051-0.008202-0.068405 0.058779-0.21287-0.065257-0.26594 0.053842-0.014921-0.086159-0.15169-0.049149-0.25292-0.045776-0.64758 0.052145-1.314-0.043612-1.9451 0.14506-0.14514 0.062886-0.31799-0.014648-0.47222-0.02349-0.091271-0.10254-0.149 0.064292-0.26189 0.019364-0.23216 0.022744-0.46055-0.026014-0.69063-0.037051-0.16754 0.018316-0.34813-0.011693-0.50741 0.037189-0.072733 0.038114-0.18902-0.085334-0.25148 0.024834-0.091787 0.0099601-0.2161-0.025071-0.32289-0.010368-0.28654 8.6591e-4 -0.57719-1.217e-4 -0.8564 0.064509-0.20895 0.02096-0.41781 0.05158-0.62721 0.018254-0.10127 0.058662-0.22818 0.010765-0.32495 0.054456-0.17189 0.063108-0.38779-0.021239-0.55715 0.077181-0.099469-0.0021957-0.23647 0.077266-0.3131-0.0047358z" stroke-width=".052916"/></svg>
