<?xml version="1.0" encoding="UTF-8"?>
<svg width="47" height="4" version="1.1" viewBox="0 0 12.435 1.0583" xml:space="preserve" xmlns="http://www.w3.org/2000/svg"><path d="m0.29701 0.95209c-0.1701-0.024346-0.14485 0.022422-0.19682-0.17897-0.090869-0.13107-0.034346-0.35134 0.10728-0.4131 0.11858-0.032762 0.23528-0.03996 0.37475-0.045431 0.12666-0.044125 0.24155-0.022898 0.36529-0.082741 0.22707-0.035205 0.4681 0.017386 0.70086 9.098e-5 0.29124-0.00439 0.61254 0.004112 0.88484-0.026915 0.31114-0.054802 0.67231-0.036865 1.0031-0.02959 0.14601-0.003398 0.28268 0.037583 0.41793 0.053466 0.097752-0.069782 0.26256 0.029757 0.25939-0.043094 0.12307 0.06754 0.30567 0.0138 0.42375 0.046227 0.30459-0.17912 0.66571-0.10516 1.0017-0.12722 0.13646 0.006805 0.18421 0.092094 0.30993 0.069747 0.1343-0.02479 0.25177-0.10652 0.3987-0.070228 0.15954 0.023798 0.22998-0.041877 0.38103-0.023009 0.43598 0.0075345 0.87243 0.030666 1.3081 0.0037271 0.12279 0.098753 0.21786 0.075401 0.32469 0.042098 0.17673 0.040131 0.34144-0.040946 0.51777 0.002909 0.28359 0.001934 0.5728-0.006808 0.85664 0.013224 0.14628-0.035255 0.3174-0.051799 0.45655-0.009158 0.10786 0.008039 0.2634-0.025052 0.39205-0.025307 0.13656-0.042442 0.27574 0.030586 0.38928-0.019588 0.13796 0.0018823 0.16608-0.014231 0.26934-0.060549 0.25466 0.082915 0.49954-0.045101 0.75642-0.015298 0.14999 0.064137 0.20566-0.079179 0.34484 0.027541 0.12337 0.063073 0.11698 0.25622 0.0067 0.25155 0.142 0.11513-0.08483 0.06777-0.16618 0.14268-0.1353 0.067865-0.23022-0.072896-0.32471-0.11495 0.02056 0.15994-0.22029 0.011404-0.32248 0.05063-0.15782-0.038301-0.29124 0.037982-0.43523 0.072319-0.17061-6.424e-5 -0.34137 0.001772-0.5028 0.046974-0.13986-0.014547-0.22726-0.038363-0.37168 3.7412e-4 -0.208 0.003021-0.416 0.006044-0.62401 0.009065-0.089733-0.0096327-0.20535 0.010606-0.34495 0.007296-0.38795-0.038554-0.78609-0.0056902-1.1705-0.035075-0.13647 0.024175-0.2172-0.02023-0.3435 0.019881-0.15683 0.013398-0.32811-0.025269-0.4739-0.0084203-0.084109 0.015376-0.22646-0.048911-0.31201 0.02751-0.15146 0.059256-0.25967-0.06551-0.41274-0.0394-0.15426-0.023657-0.29103 0.006643-0.42343 0.0047912-0.17345-0.064393-0.33954 0.05675-0.51341-0.0074075-0.58102-0.0064706-1.1612 0.0074124-1.7392 0.070372-0.13862-0.021111-0.22364 0.015629-0.34361 0.017174-0.14628-0.028918-0.24734 0.057807-0.39871 0.0045062-0.22784 0.008424-0.47137-0.005388-0.68972 0.035263-0.11766 0.028862-0.26147-0.010824-0.39305 0.019491-0.12399 0.036433-0.27747-0.09567-0.33447 0.045877-0.13245-0.056485-0.2409 0.0054871-0.35627 0.017504-0.14885-0.020731-0.26046 0.025328-0.39082 0.037761-0.10528 0.060498-0.27705 0.04284-0.4031 0.11788-0.17093-0.014408-0.16263 0.16738-0.24675 0.13025z" stroke-width=".053519"/></svg>
