<?xml version="1.0" encoding="UTF-8"?>
<svg width="68" height="4" version="1.1" viewBox="0 0 17.992 1.0583" xml:space="preserve" xmlns="http://www.w3.org/2000/svg"><path d="m0.02108 0.92145c-0.1073-0.22236 0.22967-0.15615 0.2347-0.35033 0.11886-0.065422 0.24084-0.076584 0.38555-0.11701 0.49242-0.2065 1.0644-0.057949 1.5779-0.15616 0.2898-0.013421 0.61195 0.086196 0.90384 0.032844 0.13696-0.076236 0.31935-0.13163 0.48749-0.14999 0.39965-0.079386 0.84148-0.0086 1.2489-0.075625 0.34133-0.002616 0.68102-0.054906 1.0248-0.032923 0.17819-0.013863 0.29064-0.0022521 0.47931 0.0021004 0.19807 0.0095367 0.33883 0.027913 0.5431-2.6588e-4 0.14416 0.042334 0.24009 0.10578 0.37104 0.036774 0.11467-0.034034 0.28933-0.006807 0.43778-0.038195 0.14198 8.9236e-4 0.35463 0.039859 0.54307 0.02771 0.31024 0.005834 0.6273-0.029516 0.90864 0.11528 0.56999-0.010256 1.1468 0.054234 1.7062-0.002908 0.33749-0.004656 0.66328 0.038226 1.0035 0.058978 0.20328 0.062706 0.43374 0.050322 0.64897 0.10979 0.27087-0.092648 0.52375 0.10577 0.79408 0.033503 0.21806 0.001639 0.45324 0.014077 0.65869-0.015953 0.49412 0.08171 1.0225 0.002671 1.5163 0.053104 0.1994 1.032e-4 0.43071-0.039397 0.64535-0.032404 0.1799-0.03754 0.33557-0.014284 0.53209-0.034068 0.26743 0.003825 0.53371-0.001397 0.79769-0.044606-0.06313-0.30507 0.16864-0.16905 0.30718-0.047032 0.13271-0.048821 0.30933 0.23503 0.15312 0.26427-0.05189 0.20465-0.2873 0.21492-0.469 0.19057-0.1664 0.0334-0.35977 0.049402-0.54971 0.07528-0.25332 0.014903-0.50108 0.063931-0.75303 7.8915e-4 -0.10765 0.11924-0.31929 0.006513-0.46852 0.020257-0.15685 0.006847-0.28787 0.046129-0.4661 0.015225-0.33345-0.034098-0.6922 0.052443-1.0078-0.070949-0.06804 0.062762-0.27898 0.008675-0.44679 0.014776-0.22027-0.0034-0.38638-0.079817-0.60714-0.032714-0.34319 0.011837-0.64337-0.036004-0.97272-0.030553-0.13916-0.020682-0.24258-0.12057-0.3834-0.089315-0.20158 0.030474-0.23274-0.002124-0.42865-0.011892-0.36976-0.079707-0.75634 0.013822-1.1247 0.007175-0.17169 0.01361-0.35012 0.007886-0.53223-0.024822-0.19174 0.011978-0.4043-0.079084-0.56108-0.034067-0.17565-0.042341-0.28315-0.009907-0.47703-0.048722-0.21644-0.13237-0.48507 0.024707-0.7127-0.07127-0.096934 0.033011-0.33405 0.021587-0.47718-0.0033388-0.127-0.029041-0.21053 0.012353-0.37075 0.029011-0.1473-0.11333-0.30802 0.02909-0.48463-0.01775-0.52849-0.0054027-1.077-0.01038-1.5822 0.014745-0.16959 0.0067018-0.35536 0.030377-0.49962 0.08919-0.17382-0.11282-0.40399 0.021368-0.57495-0.063531-0.24309 0.042341-0.49984 0.055788-0.74647 0.067017-0.15516 0.034122-0.31457 0.028325-0.462 0.063594-0.12436-0.035433-0.30106 0.041589-0.44905 0.02169-0.15925 0.1129-0.41931-0.008013-0.58477 0.033885-0.1422-0.038456-0.16195 0.046081-0.36688 0.034808-0.22919 0.040363-0.46326 0.038141-0.66306 0.096219-0.13342 0.10908-0.26091 0.088973-0.41881 0.10683-0.059861 0.0091664-0.24141 0.12385-0.26844-0.019025z" stroke-width=".049238"/></svg>
