<?xml version="1.0" encoding="UTF-8"?>
<svg width="82" height="4" version="1.1" viewBox="0 0 21.696 1.0583" xml:space="preserve" xmlns="http://www.w3.org/2000/svg"><path d="m8.9669 0.87247c-0.58937-0.056422-1.1838-0.15512-1.7812-0.18082-0.56266-0.11622-1.1404-0.0076181-1.7068 0.026162-0.25326-0.0090243-0.46498-0.092225-0.71675-0.041763-1.0119-0.016533-2.0213 0.094409-3.0331 0.028338-0.58529 0.0033749-1.1602-0.068507-1.737-0.15496 0.013913-0.12428-0.014777-0.31135 0.0078664-0.36998 0.14096-0.006713 0.32889 0.072925 0.51258 0.093342 0.39468 0.043757 0.79281 0.023897 1.1751 0.077142 0.70524 0.019206 1.4078 0.015324 2.112-0.019542 0.63628-0.025592 1.2735-0.00865 1.9077 0.006671 0.57956-0.077705 1.1625-0.054601 1.7417 8.2955e-4 0.20601 0.041782 0.4095 0.0345 0.61686 0.052552 0.48222 0.035428 0.95829 0.13123 1.4478 0.092706 0.37712 0.001582 0.74293-0.092806 1.122-0.038307 0.59508-0.11578 1.2121 0.050026 1.8156-0.020579 0.67903 0.01567 1.3686-0.027243 2.0409 0.01886 0.6204 0.07419 1.2597 0.007677 1.8874 0.037866 0.98758 0.023702 1.9713-0.087914 2.9589-0.069658 0.38282-0.030387 0.76377 0.007147 1.1352-0.11668 0.25067-0.023302 0.55373-0.03182 0.74906-0.096521 0.21129-0.02971 0.54114 0.035868 0.47305 0.31306-0.19667 0.1099-0.36142 0.14685-0.62938 0.095624-0.28838 0.13967-0.66073 0.13811-0.98492 0.15971-0.60981-0.075904-1.227 0.033898-1.8408 0.018865-0.38931 0.050518-0.81126 0.004535-1.212 0.062844-0.52835 0.073177-1.0492-0.064326-1.5799-0.034778-0.21994 0.008967-0.48291 0.065091-0.73304 0.036919-0.32053-0.037917-0.63826-0.085401-0.96652-0.057008-0.23938-0.030542-0.41874-0.063239-0.6597-0.019094-0.35048-0.029207-0.70171 0.065853-1.0453 0.035256-0.29344-0.04601-0.61597-0.018742-0.89933-0.044415-0.46623 0.085897-0.95901 0.025082-1.436 0.038936-0.11128 0.061964-0.42614 0.044653-0.62017 0.070017-0.037295-0.00572-0.089235 0.015468-0.12185-0.00161z" stroke-width=".057737"/></svg>
