<?xml version="1.0" encoding="UTF-8"?>
<svg width="111" height="4" version="1.1" viewBox="0 0 29.369 1.0583" xml:space="preserve" xmlns="http://www.w3.org/2000/svg"><path d="m0.30852 0.95734c-0.25573 0.058545-0.46159-0.33855-0.15519-0.39489 0.63549-0.080131 1.2906 0.17701 1.9014-0.046453 1.4494-0.16328 2.9142-0.14649 4.3657-0.22418 0.73323-0.027498 1.4733-0.079595 2.1885 0.028864 0.73561-0.018213 1.5784 0.053897 2.357-0.029342 1.6369-0.058214 3.2822-0.022055 4.9154-0.062431 0.7731-0.036179 1.5563-0.1256 2.3371-0.11575 0.85897-0.081648 1.7222 0.063763 2.5852 0.008004 0.66808 5.6015e-4 1.3328-0.004187 1.9926-0.022353 0.67937-0.045694 1.3742 0.045575 2.0612 0.016216 0.6308 0.042071 1.2713 0.076417 1.8842 0.14765 0.75484 0.025079 1.5218-0.019205 2.2611-0.10362 0.35208-0.011667 0.53055 0.37779 0.1638 0.43188-0.16566-0.00226-0.48052 0.058606-0.7225-0.025905-0.23223 0.10375-0.5454 0.072476-0.7854 0.072246-0.33955 0.017696-0.60688 0.018328-0.9483-0.011702-0.29632 0.096642-0.54664-0.020519-0.81344-0.079771-0.56308-0.002681-1.1074-0.15408-1.6297-0.017524-0.25866 0.027944-0.45205-0.18732-0.71653-0.092651-0.65745 0.044444-1.2863 0.055466-1.947 0.054414-1.02 0.014613-2.025-0.017964-3.0385-0.046706-0.51534 0.094026-1.0932-0.001577-1.5693 0.065154-0.2333 0.009212-0.61279 0.12798-0.92887 0.10567-0.44988-0.091538-0.92953 0.040726-1.3572-0.028329-0.25028 0.16572-0.67694-0.008695-0.96781 0.024403-0.50049-0.037024-1.055 0.011625-1.5605-0.028002-0.43957 0.002643-0.86764 0.071272-1.2772 0.11318-0.62923-0.06431-1.2963 0.016949-1.912-0.022111-0.44387 0.094363-0.88741-0.10993-1.3478-0.048623-1.0921 0.020987-2.181 0.064151-3.2708 0.10919-0.53734-0.0090205-0.99215 0.057455-1.5061 0.033014-0.41551 0.059443-0.76136 0.15677-1.1921 0.18509-0.35664 0.079047-0.73539-0.10207-1.0651 1.458e-4 -0.10516-0.016892-0.20034 0.048651-0.3017 0.0052476z" stroke-width=".058264"/></svg>
