<?xml version="1.0" encoding="UTF-8" standalone="no"?>
<!-- Created with Inkscape (http://www.inkscape.org/) -->

<svg
   width="50"
   height="50"
   viewBox="0 0 50 50"
   version="1.1"
   id="svg1"
   inkscape:version="1.4.2 (f4327f4, 2025-05-13)"
   sodipodi:docname="hamburger-closed.svg"
   xmlns:inkscape="http://www.inkscape.org/namespaces/inkscape"
   xmlns:sodipodi="http://sodipodi.sourceforge.net/DTD/sodipodi-0.dtd"
   xmlns="http://www.w3.org/2000/svg"
   xmlns:svg="http://www.w3.org/2000/svg">
  <sodipodi:namedview
     id="namedview1"
     pagecolor="#ffffff"
     bordercolor="#000000"
     borderopacity="0.25"
     inkscape:showpageshadow="2"
     inkscape:pageopacity="0.0"
     inkscape:pagecheckerboard="0"
     inkscape:deskcolor="#d1d1d1"
     inkscape:document-units="px"
     inkscape:zoom="5.6568543"
     inkscape:cx="39.863145"
     inkscape:cy="8.0433396"
     inkscape:window-width="1920"
     inkscape:window-height="1057"
     inkscape:window-x="-8"
     inkscape:window-y="-8"
     inkscape:window-maximized="1"
     inkscape:current-layer="layer1"
     showguides="true"
     inkscape:lockguides="false">
    <sodipodi:guide
       position="0,50"
       orientation="0,-1"
       id="guide2"
       inkscape:locked="false" />
    <sodipodi:guide
       position="0,0"
       orientation="0,-1"
       id="guide3"
       inkscape:locked="false" />
    <sodipodi:guide
       position="0,4.0000001"
       orientation="1,0"
       id="guide4"
       inkscape:locked="false" />
    <sodipodi:guide
       position="50,5.8750001"
       orientation="1,0"
       id="guide5"
       inkscape:locked="false" />
    <sodipodi:guide
       position="-7.5625,45"
       orientation="0,1"
       id="guide6"
       inkscape:locked="false"
       inkscape:label=""
       inkscape:color="rgb(0,134,229)" />
    <sodipodi:guide
       position="5,35.9375"
       orientation="-1,0"
       id="guide7"
       inkscape:locked="false"
       inkscape:label=""
       inkscape:color="rgb(0,134,229)" />
    <sodipodi:guide
       position="45,40.049124"
       orientation="-1,0"
       id="guide8"
       inkscape:locked="false"
       inkscape:label=""
       inkscape:color="rgb(0,134,229)" />
    <sodipodi:guide
       position="0,5"
       orientation="0,1"
       id="guide9"
       inkscape:locked="false"
       inkscape:label=""
       inkscape:color="rgb(0,134,229)" />
    <sodipodi:guide
       position="2.7842329,25"
       orientation="0,1"
       id="guide10"
       inkscape:locked="false"
       inkscape:label=""
       inkscape:color="rgb(0,134,229)" />
  </sodipodi:namedview>
  <defs
     id="defs1" />
  <g
     inkscape:label="Layer 1"
     inkscape:groupmode="layer"
     id="layer1">
    <path
       style="fill:#000000;stroke-width:0.937019"
       d="M 9.6099016,5.8931875 C 8.6718443,5.7114088 7.7986268,4.7900108 6.8651216,5 6.089111,5.1745612 5.0595461,5.7761574 5.0025923,6.6747266 4.9410155,7.6462382 5.9894256,8.3907695 6.7670938,8.796047 c 3.2421412,1.689624 7.0048282,1.392166 10.5464042,1.505611 2.141644,0.0686 5.245333,0.277793 7.868055,0.209751 3.017503,-0.07828 6.036821,-0.298432 9.033342,-0.7105259 1.711976,-0.235438 4.08054,-0.199435 5.790611,-0.4522045 C 41.501724,9.1275188 43.907435,9.8503361 45,8.6652427 45.525384,8.0953638 44.582223,6.5260456 44.11571,5.8931875 43.022343,4.4099619 40.718621,5.6557483 39.018261,5.6698907 35.320775,5.7006437 31.63687,6.2074591 27.941112,6.3397813 24.60965,6.4590603 21.274379,6.5443374 17.94227,6.4514297 15.160846,6.3738766 12.352742,6.4247007 9.6099016,5.8931875 Z"
       id="path1"
       sodipodi:nodetypes="assssassssssaa" />
    <path
       style="fill:#000000;stroke-width:0.915105"
       d="m 5.6730116,23.194472 c 2.5874506,-1.797264 6.6889274,0.125634 10.0334404,0.0981 2.836673,-0.02335 5.674884,-0.05611 8.508168,-0.223297 3.246821,-0.191585 6.475233,-0.744213 9.723621,-0.893187 1.806263,-0.08284 3.620006,-0.157446 5.422788,0 1.068168,0.09329 2.193012,0.05846 3.178875,0.558242 0.953275,0.483259 2.526574,1.308506 2.460237,2.26567 -0.04725,0.681879 -1.609288,0.801818 -2.14102,1.056693 -2.632576,1.261871 -5.803759,0.220771 -8.640391,0.250387 -2.002986,0.02091 -3.7627,0.161209 -6.004508,0.283089 -1.646209,0.0895 -3.961988,0.118989 -5.643809,0.223296 -2.525982,0.156661 -4.806932,0.01653 -7.703482,0.209752 -1.283506,0.08562 -3.687234,0.229348 -4.9713485,0.157894 -1.4000476,-0.0779 -2.619114,0.525343 -4.1498146,-0.808629 -0.91102,-0.793931 -1.0476496,-2.500841 -0.072756,-3.17801 z"
       id="path2"
       sodipodi:nodetypes="sssssssssssssss" />
    <path
       style="fill:#000000;stroke-width:0.93633"
       d="m 6.940072,39.975816 c 1.4202224,-1.319644 3.650207,-0.396395 5.4815,-0.446594 2.805954,-0.07692 5.614716,0.06429 8.418017,0.223297 3.856517,0.218748 7.689391,0.943675 11.550302,1.004836 2.025106,0.03208 4.044093,-0.279105 6.068804,-0.334945 1.304737,-0.03598 2.623907,-0.214885 3.915356,0 1.282054,0.213322 2.893616,0.713863 2.625949,1.818939 -0.575534,2.376132 -3.758465,2.655239 -5.665272,2.561484 -1.784556,-0.08774 -5.358966,0.119592 -7.140605,-0.02613 C 29.231867,44.53441 26.256543,44.992492 23.286687,45 21.42661,45.0047 19.597893,44.91101 17.746048,44.711575 15.834207,44.50568 13.94365,43.955087 12.030036,43.771867 c -1.007252,-0.09644 -2.024608,-0.07808 -3.0323641,0.01122 -1.053758,0.09338 -3.4890653,0.26338 -3.8264668,-0.400348 -0.6631917,-1.30462 0.7438057,-2.454457 1.7688669,-3.406925 z"
       id="path3"
       sodipodi:nodetypes="ssssssssssssssss" />
  </g>
</svg>
