<?xml version="1.0" encoding="UTF-8" standalone="no"?>
<!-- Created with Inkscape (http://www.inkscape.org/) -->

<svg
   width="500"
   height="500"
   viewBox="0 0 132.29166 132.29167"
   version="1.1"
   id="svg1"
   xml:space="preserve"
   inkscape:version="1.3.2 (091e20e, 2023-11-25)"
   sodipodi:docname="coming-soon.svg"
   xmlns:inkscape="http://www.inkscape.org/namespaces/inkscape"
   xmlns:sodipodi="http://sodipodi.sourceforge.net/DTD/sodipodi-0.dtd"
   xmlns="http://www.w3.org/2000/svg"
   xmlns:svg="http://www.w3.org/2000/svg"><sodipodi:namedview
     id="namedview1"
     pagecolor="#ffffff"
     bordercolor="#000000"
     borderopacity="0.25"
     inkscape:showpageshadow="2"
     inkscape:pageopacity="0.0"
     inkscape:pagecheckerboard="0"
     inkscape:deskcolor="#d1d1d1"
     inkscape:document-units="mm"
     inkscape:zoom="0.77863095"
     inkscape:cx="396.85039"
     inkscape:cy="561.2415"
     inkscape:window-width="1392"
     inkscape:window-height="1027"
     inkscape:window-x="0"
     inkscape:window-y="25"
     inkscape:window-maximized="0"
     inkscape:current-layer="layer1" /><defs
     id="defs1" /><g
     inkscape:label="Layer 1"
     inkscape:groupmode="layer"
     id="layer1"><path
       style="fill:#000000"
       d="m 42.761629,117.43697 c -0.268436,-1.20081 0.345652,-2.71178 1.127968,-3.61125 1.397807,-1.77969 3.961175,-2.1307 5.605782,-3.37902 1.790172,-4.11038 2.130891,-8.70386 2.24104,-13.133172 -0.635449,-1.763801 -1.152671,-1.158812 -2.350874,-0.27539 -1.448063,-0.460186 1.367877,-2.373415 0.67325,-3.336631 -3.015024,-0.02131 -6.148324,-1.487383 -8.973539,0.14484 -3.755084,1.381438 -7.218366,3.476791 -10.610002,5.543021 -1.966343,0.797992 -4.203993,1.928412 -6.311005,1.339532 -1.992813,-0.36028 -0.587306,-1.999542 0.456667,-2.608832 1.787217,-1.439617 4.00199,-2.646294 5.784276,-3.831821 -0.929948,0.304254 -2.773984,1.238046 -4.148667,1.56578 -2.428551,0.75364 -5.37915,1.578221 -7.69163,0.276373 -1.65056,-1.534603 1.075183,-2.645219 2.315775,-3.069879 3.964543,-1.674162 8.207897,-2.587729 12.403182,-3.473504 -0.619314,-0.515199 -2.997374,0.01514 -4.309324,-0.163837 -1.971744,0.02112 -4.881925,0.377895 -5.490551,-2.065833 1.034184,-1.627592 3.56242,-1.288722 5.295369,-1.749244 3.110936,-0.431786 6.49363,-0.522341 8.853053,-2.903726 4.041758,-2.865022 7.170349,-6.877315 9.616885,-11.143283 2.724204,-5.059171 5.939498,-9.855896 9.472859,-14.363673 0.389259,-1.002325 3.503364,-3.120802 1.115153,-2.751689 -1.895062,-0.514734 1.837217,-1.780313 2.398256,-2.649125 3.59234,-3.223672 6.216824,-7.326008 7.445165,-11.989781 1.411157,-2.17017 -0.09756,-0.979459 -1.715529,-0.642229 0.272369,-1.786489 1.902407,-3.18782 2.88989,-4.69622 2.258077,-2.857195 3.426276,-7.183878 7.397873,-8.123317 0.57261,-0.277403 -0.302067,-3.88935 1.389422,-1.792847 0.771441,2.087797 1.748874,0.03325 3.187885,0.0069 1.366962,0.436875 -1.455221,2.640145 1.079672,2.805603 1.351997,1.930771 1.320226,-0.283875 2.749628,-0.706033 1.208425,-0.875899 3.145662,-0.443997 3.297641,-2.318192 1.933178,-3.435667 3.568741,-7.456082 7.202294,-9.430049 1.8001,-0.306599 2.88219,2.007645 1.8068,3.392091 1.12448,-1.04686 2.4988,-2.118729 4.050957,-1.164496 0.45385,1.396109 2.2855,-1.110352 3.37533,-1.191374 1.42427,-0.618465 3.41487,-2.411585 4.64068,-0.529805 0.41812,1.6851 1.07987,0.847662 2.53257,1.32076 1.32681,0.930006 2.52329,2.458603 2.50151,4.217576 0.57493,1.530471 -0.47003,3.044306 -0.17459,4.58149 -0.78065,0.87452 -3.45546,1.531921 -3.30004,2.07376 1.83094,0.134091 1.58218,3.242337 -0.0654,3.774155 -1.78029,1.364285 -4.03637,2.212879 -5.78478,3.471395 1.30131,-0.751182 3.824,-0.388323 3.38667,1.56865 -1.82177,2.119078 -4.43173,3.239231 -6.80823,4.60173 1.72643,0.160822 2.45305,2.345432 0.76976,3.180951 -0.79058,0.602168 -3.740637,1.637212 -1.2713,1.679115 1.74912,0.0078 2.28628,2.464728 1.0999,3.585223 -1.05636,1.703399 -3.024737,1.179176 -4.712197,1.345041 2.57603,0.796382 3.637077,4.757178 1.22788,6.329092 -0.86525,1.426995 -3.66625,-1.116286 -3.03308,0.754337 0.56376,1.579684 -0.62245,3.041007 0.0242,4.61955 0.2876,3.516623 2.76833,6.620786 2.38349,10.273109 0.0564,4.205423 -1.15073,8.829179 -4.13245,11.713622 -0.803417,1.062939 -2.504149,1.867974 -4.084835,1.34586 -1.495701,0.06523 -2.126026,-0.7332 -2.92439,-0.80749 -1.249791,-0.864937 -1.410788,-2.552465 -0.977862,-4.053763 1.173403,-3.615713 2.520242,-7.346555 2.469658,-11.185687 0.473593,-2.334188 -1.168954,-2.223759 -2.720752,-2.879841 -1.815635,-2.10835 -1.619114,0.641011 -2.833164,1.766841 -0.09136,3.373644 -1.49115,6.628637 -3.81356,9.04396 -1.065522,2.956584 -2.573413,5.799001 -4.75185,8.12476 -1.129486,-1.250606 -1.396187,1.414995 -1.911704,2.442042 -0.318893,0.995812 -0.916058,4.068844 -1.669316,1.663018 -0.814643,-2.288822 -0.859121,1.386089 -0.766644,2.217746 0.441353,1.923144 -0.282303,2.391456 -0.428578,3.599121 0.362306,3.552907 0.567951,7.102069 0.424182,10.678419 2.638074,-0.2792 5.39399,0.6194 7.603621,1.73288 1.173956,0.87426 1.347607,1.80785 2.819828,2.46491 1.556152,1.05743 0.787876,2.48331 -0.777899,1.44854 -1.212536,0.99321 -2.689318,0.87731 -4.238464,0.38459 -2.453775,0.28825 -5.177525,1.52977 -7.467316,-0.0412 -1.280318,0.66259 -2.839666,0.25949 -4.11741,1.00507 -1.527413,-0.20366 -2.425259,1.59638 -3.308001,1.49988 -0.319543,-1.65826 -1.899925,0.22976 -3.145401,-0.24914 -1.454968,0.29435 -2.929234,-0.18198 -4.130822,-0.73664 -1.225046,0.9134 -2.991213,0.30023 -4.402666,0.98885 -1.689097,0.64249 -3.816521,0.53586 -4.885791,2.29429 -0.236825,0.2659 -0.615686,0.77534 -0.876438,0.18352 z m 2.036896,-2.73528 c 0.976013,-0.35323 0.664777,-0.21394 1.570935,-0.55441 0.407289,0.69905 1.097421,-0.30671 1.532225,-0.15239 0.430544,-0.58102 1.772638,-0.44512 2.76824,-0.25032 -0.725664,-2.196 1.019619,0.62563 1.449533,-0.81817 1.422666,1.01555 2.446977,-0.32956 3.037862,-0.0528 -0.20776,2.79562 0.913277,-1.6611 1.198181,1.09795 0.130053,-1.8127 0.669226,-0.76145 1.898936,-0.16933 -0.892371,-0.9236 0.655732,-1.74193 1.967411,-1.35331 0.774117,-0.0618 -2.802569,-1.04398 0.02721,-1.19912 1.292022,0.21348 -0.754983,-1.57618 1.974822,-1.03307 -0.472545,-2.08736 -2.169315,1.08301 -3.150642,-0.0123 -1.819639,-0.19299 -0.08749,-2.0227 0.965282,-0.97367 0.206549,-1.79011 -2.541402,-0.22099 -3.576802,-0.0243 -1.218432,1.36884 -2.636321,0.68768 -1.68081,-1.07632 -0.184329,-0.31522 -3.259528,-1.14441 -0.790781,-1.2378 2.557541,-0.18418 -0.602869,-0.57583 -0.180782,-1.55628 2.036258,0.57749 1.143369,-2.01977 1.41856,-3.19029 -0.09553,-1.71865 0.515366,-3.819632 0.375307,-5.276383 -0.472529,1.855401 -1.546295,0.798331 -1.73389,-0.44974 -0.343256,-0.007 -0.277906,1.002441 -0.61262,1.366591 -1.018822,0.61257 -1.194437,2.579462 -0.330182,3.061962 -1.544706,0.87492 1.261444,1.16259 -0.767326,1.97032 -0.249867,2.80398 -0.879231,5.77261 -2.013111,8.44355 -2.342555,1.07411 -5.524573,1.829 -6.363555,4.58235 0.304245,-0.38823 1.214019,-0.51419 1.015993,-1.14272 z m 14.308666,-1.23816 c 0.08312,-0.80339 -0.587627,0.62197 0,0 z m 2.510363,-0.60884 c 0.325335,-1.77914 1.468399,1.35004 1.15031,-0.74585 1.2869,1.00525 1.114167,-1.38571 2.047306,-0.002 0.143363,-1.62281 1.472366,0.29274 1.404054,-0.75494 1.01363,0.12814 2.0715,0.35851 3.290545,0.90986 1.239725,-0.52468 1.178729,-1.51236 1.985675,0.0169 0.179981,-1.94688 1.052045,0.75185 1.548908,-1.01596 1.455546,1.43953 1.221662,-0.59823 2.318992,-0.762 -0.394988,1.15465 1.023432,0.78747 1.332576,1.18255 0.39249,-0.92353 2.648193,0.12578 0.915534,-1.58625 -1.725326,-0.33263 -3.471739,-0.10803 -5.21146,-0.0599 0.02154,-1.4333 1.113955,-1.54145 1.62987,-1.14515 0.198931,-1.20299 1.9257,0.21943 1.7867,-0.27561 -1.100995,-0.89065 -3.03754,-1.10109 -4.516954,-1.26511 -1.931267,0.42706 -3.123494,-0.28574 -2.47856,-2.34138 0.0035,-1.33877 -2.571977,-1.14182 -0.02873,-1.90151 0.302767,-0.74558 -3.476893,-0.55137 -1.03562,-1.32844 2.917094,-0.299 -0.905164,-0.69129 0.07663,-1.64954 2.233548,0.37256 0.05931,-1.150052 -0.241547,-1.467912 1.614078,-0.17917 0.655463,-2.404252 0.816075,-3.827592 -1.078513,-1.430648 -0.262719,0.776621 -0.833615,0.342181 0.05827,1.247153 -2.178737,-0.398948 -1.916948,-0.227526 0.128946,2.968837 0.979467,5.733449 0.630058,8.720839 -0.06196,2.1899 -0.04028,4.39572 -0.1524,6.57608 -2.028188,-0.12797 -4.817066,0.53293 -4.869,3.02138 0.13061,-0.13162 0.71709,-0.0607 0.3516,-0.41275 z m 3.66062,-3.55935 c 0.02823,-4.2186 0.431328,-8.62321 -0.34857,-12.842343 -1.134524,-1.181974 -1.330316,-3.252671 -2.415958,-4.387153 -1.575028,-1.084975 -3.092351,0.513775 -4.634776,0.944863 -0.892961,1.314824 1.027391,2.775478 -0.03566,3.589369 -1.794372,-1.089185 -1.254137,0.995562 -1.559077,2.411422 -0.441564,3.234462 -0.02986,6.538372 -0.771385,9.729402 1.619985,-0.43883 3.614682,-1.82508 5.150498,-0.83589 0.305987,1.5444 2.91438,-0.18121 3.277481,1.61366 0.235681,0.084 1.048371,-0.0577 1.337445,-0.22333 z M 26.751373,99.919978 c 2.35591,-0.44669 4.424114,-1.87346 6.508387,-3.051121 1.675029,-0.967494 3.700887,-1.955392 5.544636,-2.884949 2.306813,-0.693578 4.583852,-2.530773 7.036146,-1.478848 4.530128,0.755969 9.365339,1.088586 13.607875,-1.000156 1.26576,-1.165458 3.01927,-0.49539 4.034195,0.205054 0.56657,2.091791 1.321419,3.024708 1.725889,0.326675 1.010022,-2.387786 1.976255,3.826072 2.070216,0.753418 -0.228141,-2.486244 1.024438,-2.149046 1.422547,-0.05518 0.668565,-0.208782 -0.449007,-3.076793 0.619439,-4.11073 0.789336,-2.614269 1.314181,0.851767 1.824291,0.10283 0.608849,-2.05997 1.851597,-3.976299 2.46643,-6.08209 1.186737,0.673234 0.857308,1.987752 2.104447,-0.07165 1.212698,-2.020682 2.104782,-4.23213 2.767603,-6.439826 0.355593,-2.732839 1.153753,0.939283 1.792411,-1.562601 0.761656,-1.036734 1.374023,-3.252898 0.08246,-1.182709 -0.282097,-0.464904 2.335605,-3.776766 0.60065,-2.07007 -1.335186,2.139882 0.974923,-2.892043 -0.63976,-0.19114 -1.172071,2.663965 0.244289,-2.595307 -0.805609,0.291989 -1.134967,2.431819 0.2101,-0.469824 -0.571641,-1.160299 -1.625926,3.163452 0.417122,-2.046833 -1.087636,0.18827 -0.291703,-0.526318 -0.628106,-1.08914 -1.065104,1.03323 -0.436488,-0.61329 0.84791,-4.475466 0.01159,-1.699562 -0.764597,0.519328 0.110867,-3.228189 1.171681,-1.453553 1.413867,1.860701 3.984661,0.537433 4.745868,-1.26441 0.02642,-2.004394 1.502566,-2.800208 2.785496,-0.951411 1.960902,1.597178 5.120347,-0.168987 5.34008,-2.558573 0.312241,-2.035417 0.311396,-3.159141 2.586783,-2.089408 1.88372,-0.620837 1.40366,-3.317491 0.86709,-4.846263 0.38828,-1.608393 2.58364,0.993633 3.70637,-0.06882 2.016577,-1.344777 0.76229,-4.596263 -1.38872,-5.126809 -1.82612,0.08873 0.30957,-3.663143 0.0427,-1.433836 0.14859,-0.159682 0.74289,-0.544986 1.14101,-0.353346 0.35382,-0.993722 1.88172,0.506558 2.18827,0.34985 1.468577,-0.413954 2.659867,-2.808609 0.713147,-3.40785 -1.273257,-0.513977 -3.460117,1.206725 -4.084087,0.0544 0.29246,-2.160301 0.73154,-1.124981 0.74212,-0.547662 0.59617,-2.527722 0.93272,0.249459 1.11838,-1.228208 0.99576,0.630408 0.74782,-1.062313 1.878607,-0.488152 0.45727,-1.282334 0.38463,-0.569178 1.40556,-0.934331 1.56917,-1.23989 -1.43573,-2.226236 -2.397817,-1.19167 -1.70505,1.124014 -2.51565,0.426415 -1.74354,-1.402062 0.59592,0.530531 0.0952,1.352143 1.02649,-0.358207 -0.10334,2.029091 0.58569,-0.648164 1.24505,0.241548 0.424677,-1.456212 1.332947,0.696724 1.145497,-1.426878 0.58347,1.948384 1.1723,-1.311024 1.51501,0.06017 0.61968,-0.961306 1.10155,-0.48077 1.30744,-1.24554 0.90611,0.662717 2.50456,-0.947613 3.41555,-1.857023 0.43389,-1.749866 -2.3993,-0.759553 -3.38763,-0.495157 -1.8547,0.282519 -3.56101,1.554179 -5.242807,1.92845 -0.45741,-2.364826 -0.003,-0.763299 0.67994,-1.50513 -0.14079,-1.248628 0.750007,1.243349 0.973907,-0.96393 0.35829,1.237318 0.61578,-0.168779 1.32773,-0.0065 0.31415,-1.094643 0.59504,0.498616 1.25265,-1.023061 0.45932,0.980111 2.72515,-1.101339 3.89016,-1.443158 1.51187,-0.90374 3.51669,-1.576935 4.40718,-3.128322 0.2341,-1.995372 -2.44915,-1.448603 -3.58856,-0.881541 -4.15365,2.106677 -8.432147,4.026621 -12.353407,6.545991 -1.31326,-1.2166 1.47703,-2.249605 2.14718,-3.201552 1.62458,-1.430143 3.366607,-3.144563 4.141977,-5.116838 -0.47782,-1.372357 -2.293717,0.291321 -3.196257,0.531955 -4.78102,2.360697 -8.658794,6.348173 -12.364929,10.173195 0.0037,1.15978 -1.179464,1.282305 -1.767244,2.934296 -1.817346,2.836164 -2.228656,6.641233 -0.538308,9.61974 1.592738,2.463634 0.123005,5.594552 -2.375777,6.740532 -1.405683,0.604243 -3.212005,0.645477 -4.401073,-0.05838 -0.780934,-0.826159 -2.092218,-3.081013 -1.13182,-3.722515 0.642308,-0.427533 0.428761,-2.767338 0.93127,-3.916796 0.283863,-2.694979 2.342163,-4.938955 4.862502,-5.776904 -0.655623,-0.305322 -2.210095,-1.807045 -2.032,-3.241298 0.894127,-0.828505 1.76348,-0.707271 2.2861,-1.677812 0.602026,-0.565321 2.78357,-2.067018 2.660159,-0.763337 -1.546179,0.463688 -1.618646,2.32486 -3.227779,2.205547 -0.500745,0.740793 -1.345545,1.55419 0.20275,2.67389 1.565223,0.687168 1.372223,-2.112448 2.355901,-3.052542 0.161319,-1.324091 2.670482,-2.635099 1.354113,-3.586501 -1.968088,-1.312006 -2.640051,-3.958634 -1.866874,-6.135287 -0.542816,-0.866497 -1.57841,-2.189619 -3.010389,-2.356661 -0.182792,-2.038356 -0.395699,-1.70456 -1.894201,-0.787989 -1.674004,-2.85867 -0.09855,0.565407 -2.077289,0.301588 -2.347129,0.896257 -3.910242,2.827126 -4.962361,5.032412 -1.086867,2.114536 -2.790513,3.79846 -4.01682,5.842 0.990636,-0.641992 3.833986,-1.135832 1.955026,0.556626 -1.514037,2.316443 -1.816999,5.233275 -3.382494,7.566849 -1.792904,2.851222 -3.99125,5.555358 -6.780395,7.485195 1.749661,-0.842802 2.172278,0.280618 0.612105,1.28485 -3.628758,4.144726 -7.015306,8.51619 -9.689873,13.33247 -1.985516,3.137843 -3.462248,6.620682 -6.048279,9.367952 -2.241136,2.91127 -5.165924,5.450322 -8.250644,7.311388 -0.569693,1.248875 -2.921658,0.853432 -4.363012,1.12569 -2.325511,0.494353 -4.994698,0.290718 -7.098513,1.52387 1.305564,2.057005 4.267317,0.941971 6.329646,1.19998 1.642213,0.288418 3.774314,-0.713299 5.033065,0.58498 -0.991594,1.10905 -3.118149,0.958971 -4.558334,1.576722 -4.138605,1.058139 -8.523447,1.719961 -12.182833,4.060928 9.91e-4,1.737076 2.492172,0.947683 3.644352,1.15702 4.48931,-0.857676 8.649042,-2.993756 12.987399,-4.16185 0.623047,1.539913 -2.226092,1.550022 -3.151861,2.416206 -3.088119,1.363288 -5.968348,3.168648 -8.421423,5.479008 0.848063,0.757352 1.81558,0.19078 2.804587,0.11121 z M 70.311414,86.595977 c -0.677866,-1.261237 0.776881,-3.212621 0.21059,-0.81845 1.393945,-2.191832 1.615137,-0.255567 0.2147,0.925047 -0.136976,-0.02387 -0.35427,0.09546 -0.42529,-0.106597 z m -1.97556,-1.9661 c 0.506917,-0.525836 1.056809,-3.94933 1.35467,-2.20817 -0.841618,1.777709 -0.306456,2.109705 0.71484,0.45302 1.537391,-1.545896 -0.605337,2.0752 -1.71435,1.97178 -0.137221,-0.0534 -0.532684,0.15104 -0.35516,-0.21663 z m -5.68078,-3.41708 c -0.25682,-2.503391 1.433032,-1.710209 0.524573,0.283936 -0.350712,1.63429 -0.895968,1.39084 -0.524573,-0.283936 z m 11.26878,-0.50559 c -0.479769,-0.741619 -1.003488,-3.600432 -0.21767,-1.668638 0.934602,2.544241 0.514574,-1.659166 1.57681,-1.187082 -0.719689,0.736758 -0.363309,3.780663 -1.359134,2.987152 z m -7.69842,-0.98335 c 0.185049,-1.135942 -1.005764,-3.627123 0.0868,-3.85233 0.494951,1.200724 0.545961,3.060478 0.15563,4.064 h -0.17465 z m 2.5678,-2.96333 c -0.0559,-1.581236 -0.315659,-3.20628 -0.4575,-4.78367 1.382816,0.518071 0.663829,2.907975 0.84667,4.238692 0.03858,0.353804 0.07602,1.016796 -0.38917,0.544978 z m 2.01936,-1.56633 c -0.320254,-2.074279 -0.02585,-4.237541 -0.48674,-6.30755 1.657266,0.87911 0.669005,3.323481 0.958736,4.903723 0.163765,0.270748 -0.187699,2.110341 -0.471996,1.403827 z m -16.689836,-1.4262 c 0.140015,-1.211199 2.289053,-2.282404 2.748847,-3.790301 1.815146,-0.551458 -1.480618,2.83274 -0.54716,2.422321 1.695102,-1.285868 3.314749,0.378576 0.620935,0.549922 -0.9429,0.06942 -2.183262,1.076498 -2.822622,0.818058 z m 15.667306,-17.17641 c -0.306909,-1.468033 -0.656006,-3.735695 0.76989,-4.64104 0.522855,0.425544 -1.126044,4.434151 0.350502,2.354491 0.992918,-1.790096 2.823708,-0.77831 0.723078,0.386093 -0.705263,0.392786 -0.859826,2.578135 -1.84347,1.900456 z m -0.69221,-10.67085 c -1.743085,-0.849504 1.61589,-1.613269 1.800627,-2.990207 1.746917,-0.01132 -1.78605,2.545745 -0.327907,2.291667 2.037731,-1.345286 1.849341,0.728731 -0.148399,0.802315 -0.424947,0.09221 -0.901253,-0.0091 -1.324321,-0.103775 z m 3.97721,-8.91377 c -0.378197,-1.293651 0.366586,-3.007899 1.3869,-3.97677 2.016868,-0.332145 -1.321299,2.180536 -0.304549,2.20199 0.72235,-1.539964 3.599158,0.02809 1.397989,0.21445 -0.91771,-0.525063 -1.683381,2.606028 -2.48034,1.56033 z m -20.288935,58.04156 c 1.242342,-1.461639 2.378646,2.115471 3.037392,-0.496448 1.160857,0.871852 1.753635,-0.943492 0.5694,-1.205096 -1.696139,0.303475 -3.861749,0.380516 -5.266452,0.696991 -1.298599,1.750565 1.646748,-0.46663 0.784057,2.119783 0.324913,1.688151 0.494288,-0.935983 0.875603,-1.11523 z m 1.495062,1.14896 c -1.326203,-1.689422 -0.443052,0.455498 0,0 z m 11.853333,-2.12263 c -1.255224,-1.082123 0.425767,1.135457 0,0 z m 2.20133,-0.41334 c -0.566034,-1.327136 -0.410523,0.88378 0,0 z m -2.286,-0.34866 c -0.90665,-0.71543 0.05389,0.671403 0,0 z m 23.89863,-8.65764 c -1.262147,-0.898053 2.405126,0.02763 -0.84896,-0.93351 0.426688,-0.368219 1.228992,-2.688534 2.304297,-2.433012 1.466585,0.476755 0.859788,3.64853 2.095042,2.208222 1.88707,-1.69286 -1.52835,-0.726782 -1.790127,-2.29131 -1.134741,-1.321768 0.274497,-3.705512 1.739747,-1.90778 -1.25011,-0.961245 -1.15465,-2.316859 -0.605858,-3.382047 -0.980601,-1.172894 1.725738,-2.787857 0.177984,-3.455257 -1.200542,-1.17406 0.527954,-3.329931 1.318574,-1.56024 1.3557,-0.66361 2.27966,1.218983 1.18213,2.187874 -1.59122,-0.08985 -0.41151,2.899371 0.187,2.57341 0.96657,2.004392 -1.81267,0.19343 -0.95644,1.87009 2.75778,0.870997 -1.24195,1.326923 0.33867,2.19951 -1.786616,0.458848 -0.29802,1.580719 -1.02865,2.07002 -0.16941,1.163105 1.63596,-1.242414 1.7829,-2.349468 1.11349,-2.664928 1.0195,-5.671565 1.02131,-8.476985 -0.45639,-1.649851 -0.76582,-3.321923 -1.45338,-4.904477 -2.333654,-0.206615 0.84313,-0.948006 -1.50763,-0.86342 1.39511,-0.972853 -0.0321,-0.482148 0.67733,-2.17311 -1.04333,-0.02796 0.34867,-1.250399 -2.206642,-1.004468 -0.853189,1.044435 -0.07115,2.989863 -0.209853,4.383106 0.313483,5.616768 0.872737,12.180962 -3.247754,16.631792 -1.864552,1.116776 -0.751467,2.031784 -0.213676,1.243221 0.354212,0.219684 2.967387,1.291971 1.243986,0.367839 z m 4.822539,-14.80321 c -1.20551,-0.09118 -3.014338,0.121395 -1.22042,-1.34645 -1.387994,-0.637696 -1.285437,-2.50813 0.24099,-1.22137 2.15962,-0.170198 0.81598,0.80177 1.6309,1.895235 1.29663,0.339789 -0.003,1.401137 -0.65147,0.672585 z m -0.11775,-0.76715 c -0.35879,-1.085664 -2.766516,-2.78909 -0.89652,-0.885688 -0.824938,1.534009 0.33131,1.438663 0.89652,0.885688 z m 0.26792,-1.19198 c -0.60344,0.270668 -0.14898,0.01813 0,0 z m -2.624669,16.61465 c -0.01036,-0.444724 -1.417498,-0.06074 -0.22166,0.16797 l 0.11701,0.003 z m -0.20054,-1.22277 c -1.117888,-2.323956 -0.723636,-1.036105 -1.089298,-0.08805 -1.971945,-0.81791 -0.170416,1.27844 1.119708,0.548708 l -0.01859,-0.281565 z m -3.60946,-1.1479 c -0.484601,-0.114466 0.0018,-0.05667 0,0 z m -0.508,-0.0747 c -0.533564,-0.853715 -0.45877,0.478903 0,0 z m 5.384799,-0.46719 c 1.01591,-0.869646 -0.91874,-3.420996 -1.512918,-1.975987 -0.437869,0.588514 0.780514,2.790297 1.512918,1.975987 z m -5.783469,-0.51404 c -2.010533,-1.729234 2.098301,0.110097 -0.10937,-0.96768 0.208952,-1.046459 2.385125,0.936545 1.165643,-0.481108 -2.177121,-0.659966 0.927862,-0.48453 0.866347,-0.313152 1.374234,0.460032 -2.604245,-1.809268 -0.01635,-0.89588 2.237544,0.535661 -1.00722,-0.779876 -1.16899,-1.36621 0.783923,-0.248792 3.43649,1.27222 1.815876,0.03198 -2.481036,-1.622112 0.02713,-0.159049 0.950004,-0.528874 -2.008575,-0.499774 -1.904877,-1.2349 0.09993,-0.61923 -0.832327,-0.547067 -2.697291,-1.118255 -0.187605,-0.777969 0.190094,-0.09143 -1.276223,-0.90967 0.493945,-0.868091 -1.659021,-0.573053 -1.049545,-0.374893 -0.46278,-1.27585 -1.151215,-0.873503 -1.064542,-0.190179 -0.43739,-1.27106 -1.741634,0.07524 -0.811784,-0.542707 -0.674734,-1.770296 -0.36437,-0.795283 -0.08913,-3.952339 -1.08266,-2.591414 0.515898,3.567304 -0.276627,7.136702 -1.184476,10.58045 -0.03547,1.712525 -0.559753,1.384645 -1.027633,2.892401 -0.572664,1.295112 0.420282,0.57116 0.960243,0.221979 z m 1.16067,0.37857 c 0.08307,-0.803379 -0.587577,0.621951 0,0 z m -0.59267,-0.254 c -0.399499,-1.054293 -0.379923,1.00815 0,0 z m 1.524,-1.016 c -0.399499,-1.054293 -0.379923,1.00815 0,0 z m 4.525019,-0.98225 c 0.0296,-1.376223 1.5993,-0.412011 0.047,-1.822998 -0.0537,-1.633714 -1.95459,-0.770517 -0.33529,-0.158022 0.21085,1.893519 -2.201704,-0.633111 -0.38526,1.382567 0.16114,0.363565 1.31948,1.91233 0.67358,0.598453 z m 0.63968,-3.60077 c -0.82897,-1.363638 -0.58163,-3.37622 -1.604475,-0.717277 0.409625,-0.503731 2.922005,2.695739 1.701285,0.83536 z m -0.6704,0.27629 c -0.999696,-0.91912 0.26709,1.07298 0,0 z m 1.05984,-3.26247 c 0.87583,-2.711842 -0.67889,0.785073 -0.8697,-0.8128 0.0279,-0.606682 -0.98617,0.980187 -0.91651,-1.13888 -0.958035,0.805608 0.46215,2.73037 1.78621,1.95168 z m -3.599279,-1.2776 c -0.315795,-2.006361 -0.169734,-4.106534 -0.31448,-6.14764 -1.57565,1.111997 -0.756359,3.174395 -0.4832,4.754246 0.284841,0.332997 0.742747,2.517897 0.79768,1.393394 z m -10.50619,-15.19945 c 1.743092,-0.878403 2.875119,-2.764994 2.23201,-4.70965 -0.34029,-1.253486 -1.206869,-2.393581 -1.48972,-3.75046 -1.041873,2.145792 -1.370105,5.313809 -4.038778,6.00569 -1.97117,-0.06253 -1.501771,1.0616 -0.661712,2.52126 1.20891,0.07838 2.617503,1.092959 3.9582,-0.06684 z m -2.39135,-3.77854 c 1.68487,-1.568083 1.833129,-4.500765 2.987106,-6.068454 1.00564,-2.539286 -1.00174,-2.195387 -2.314483,-0.742351 -2.178434,1.495763 -1.962054,4.469224 -2.591973,6.771445 0.134666,1.046531 1.459193,0.515391 1.91935,0.03936 z m 9.24931,-17.86371 c 2.220034,-0.766496 -1.419916,-2.47074 0.34411,-3.0961 2.69298,-1.073086 -0.367093,0.738935 0.918865,0.486471 1.969845,-1.163571 -1.438709,1.80722 0.938455,0.283359 0.77012,-0.204087 2.298022,-1.841604 3.387549,-2.556374 2.35232,-1.715721 4.97019,-3.616346 7.944587,-3.869926 1.08975,1.105515 0.45954,2.561237 1.27075,3.897096 0.4389,1.302555 2.60994,-1.043057 3.73781,-1.191576 1.47546,-0.605059 2.78125,-0.936363 3.99117,-1.902953 1.71021,-0.49053 2.96192,-1.797695 2.81942,-3.659887 0.22878,-2.050364 -0.31899,-4.430132 -2.1771,-5.488811 -1.87019,-0.226124 -3.46271,1.497285 -5.22624,2.072341 -4.0779,2.155891 -8.283527,4.059625 -12.529857,5.84137 -1.376839,0.487369 -2.714486,1.351259 -3.957979,1.93193 0.225566,1.101236 -1.677172,2.980729 -2.160894,1.186087 -0.899707,-0.490708 -2.705663,0.796245 -3.252542,1.867043 -0.664623,1.976823 0.06352,4.24095 1.835221,5.448106 0.64665,1.227429 1.486484,-0.943796 2.116675,-1.248176 z m -2.12948,0.68817 c -0.893133,-0.95285 -1.952071,-2.344738 -1.43711,-3.683 0.560666,0.678768 0.472238,2.760967 1.77143,3.54318 0.950045,0.633382 0.195867,1.08861 -0.33432,0.13982 z m 0.26748,-0.719 c -1.321346,-2.069165 2.031426,1.555518 0,0 z m 17.311986,-8.60293 c 1.92943,-1.29063 4.3443,-2.378227 6.52104,-3.33438 0.12092,0.807015 -2.66962,1.421153 -3.64519,2.124276 -0.85128,0.317983 -2.34077,1.672548 -2.87585,1.210104 z m -5.374617,6.99359 c 0.17041,-0.767529 -0.98411,0.766378 0,0 z m 0.90517,-0.7532 c -0.14358,-1.069869 -0.91373,1.416538 -0.005,0.02479 z m 0.84353,-0.67531 c -0.188,-1.895276 -0.9019,2.222673 0,0 z m 0.706637,-0.53293 c -0.39412,-2.368054 -0.40567,2.337266 0,0 z m 1.18533,-0.65804 c 0.005,-3.003242 -1.919057,1.007328 -0.40711,0.88797 0.55942,-0.05897 0.39158,-0.485123 0.40711,-0.88797 z m 0.77862,0.1819 c 0.22972,-1.533426 -1.34686,-2.846739 -0.29352,-0.52574 -0.22422,0.429679 -0.20615,1.262623 0.29352,0.52574 z m -17.622066,-2.62599 c -0.786046,-0.978335 -0.249245,2.033291 0.02889,0.09101 z m 3.63545,0.34168 c -0.511264,-3.086577 -1.142564,0.640523 0,0 z m -2.87867,-0.6221 c -0.2355,-1.521985 -0.591066,1.668329 0,0 z m 0.83477,-0.62501 c -0.534238,-0.560035 -0.342428,1.651366 -0.01191,0.127 z m 0.97103,-0.0309 c -1.037427,-0.999356 -0.243633,1.590564 7.42e-4,0.0019 z m 1.69696,-0.71373 c -1.014703,-0.03826 -0.265938,1.221753 0,0 z m 0.97513,-0.0444 c 0.08815,-2.073081 -1.059497,0.723858 0,0 z m -0.77315,-1.18296 c 0.955892,-1.275196 1.772025,-2.513976 3.505846,-2.985446 1.410563,-0.760111 2.818003,-0.343153 2.842033,-2.140296 0.51875,-1.11646 1.48676,-2.954462 0.52834,-3.931693 -1.62234,-0.672871 -2.7962,1.564815 -3.895981,2.538613 -1.516577,2.258101 -3.066812,4.66864 -3.975618,7.198492 0.359067,-0.186648 0.674868,-0.435398 0.99538,-0.67967 z m 1.89348,-0.52565 c 0.469751,1.644732 0.528603,-0.757878 1.17515,0.48804 -0.01486,-0.981323 0.978149,-0.471165 1.231559,-0.80123 0.64625,1.137788 0.28685,-2.282791 1.6447,-0.34282 -0.15552,-0.581195 2.01539,-0.631503 -0.16548,-1.704004 -1.48447,0.294656 -3.358273,0.95092 -4.175672,2.175807 -0.424707,1.508376 0.03224,1.873076 0.289743,0.184207 z m 6.457499,-2.48443 c 0.31444,-2.542688 0.4413,2.454145 1.08488,-0.630137 0.60045,-0.868096 0.3112,1.829302 1.07345,-0.455353 0.395237,1.319399 0.360167,-0.680803 1.235877,0.07388 0.11978,-2.541287 0.90896,1.409547 0.97545,-1.29427 0.51703,0.333899 0.43273,0.378757 0.96341,-0.263478 0.50429,1.467501 0.68827,-2.148753 1.11643,0.173608 0.48992,-2.632207 0.81344,0.79561 0.9682,-1.34288 0.49994,-0.587629 0.3608,1.579979 1.0159,-0.570406 0.078,2.632661 1.00791,-2.913559 0.84676,0.395324 0.5551,-0.983347 0.64243,-0.543784 1.26922,-0.812505 1.12143,-0.03463 0.27939,-2.169675 -0.96024,-1.812508 -3.40159,1.535751 -6.43946,3.505479 -9.623877,5.369837 -2.08651,0.450472 -0.88164,1.481354 -0.0171,1.959881 0.0172,-0.263665 0.0344,-0.52733 0.0516,-0.790995 z m 0.25727,-2.19785 c 1.0516,-0.473651 4.019417,-2.207215 1.33492,-2.10667 -0.90728,-0.07215 -3.27782,3.041958 -1.65152,2.282093 l 0.24682,-0.136759 z"
       id="path1" /></g></svg>
