<?xml version="1.0" encoding="UTF-8"?>
<svg width="131" height="26" version="1.1" viewBox="0 0 131 26" xml:space="preserve" xmlns="http://www.w3.org/2000/svg"><path d="m42.163 25.499c-1.2285-0.46516 0.1009-2.193-0.30617-3.181 0.58816-1.2969 0.41408-2.7062 0.59475-4.0757-0.34021-1.3126-0.14878-2.6519 0.02325-3.965-0.02016-1.3187 0.40864-2.8424 0.59812-4.1836-0.09343-2.3078 1.0671-4.1214 0.81204-6.4392-0.16157-0.99656 1.7481-1.9186 2.2172-0.83773 1.4483 1.7333 2.6158 3.8599 3.2635 6.101 1.1623 3.4796 2.0034 7.0567 3.2654 10.447 0.54579 1.7777 1.1315 3.5852 1.5709 5.3809-0.40592 0.99848-1.7355 1.0649-2.0061-0.04565-0.48928-1.051-0.82212-2.4695-1.0731-3.1693-0.60714-1.9823-1.3929-4.1289-1.9115-6.1066-0.94364-0.46908-2.5085 0.01865-3.6032 0.30916-1.2834 0.22439-1.6939 1.5966-1.4753 2.9448-0.70896 0.98299 0.24963 1.8992-0.09798 3.2915-0.20336 1.1834-0.40338 2.3063-0.75888 3.3958-0.20971 0.3957-0.83951 0.14668-1.113 0.13336zm2.7807-11.721c0.89228-0.79311 2.7545-0.04938 3.4758-0.83898-0.65618-1.856-0.86808-3.5801-1.6993-5.2672-0.32814-1.7145-1.5152-1.7581-1.3122 0.20672 0.08077 0.23459-0.57167 2.4325-0.57629 3.725 0.10731 0.46109-0.94786 2.7799 0.11199 2.1744zm-43.871 11.202c-1.4715-0.40903-0.34739-2.0507-0.76245-3.0878 0.24958-0.94422 0.10653-2.0189 0.14778-2.6721 0.027024-0.95088-0.016492-1.9923-0.16206-3.0509 0.093478-1.6477-0.364-3.1454-0.28771-4.9391 0.08242-1.5734 0.35393-3.3344 0.29504-4.7715-0.082132-1.0785-0.50398-2.8187 0.15265-3.5476 1.4593-0.91629 1.7561 1.4442 1.3283 2.5176 0.2397 1.2169 0.27558 2.9919 0.21315 3.8415-0.37728 0.34085 0.047586 2.1166-0.31069 2.8242 0.17636 0.86504 0.44686 2.2161 0.29413 3.4008 0.079729 1.151-0.10909 2.35 0.24828 3.4572-0.16691 0.38502-0.20916 2.2922-0.21282 3.1507-0.59154 1.2645 1.6257 1.384 2.216 0.74962 1.1803-0.11453 2.4511-0.029 3.2147 0.19825 0.92465-0.36596 2.7844-0.24016 2.3648 1.2521-0.85068 0.75164-1.9761 0.81536-3.1026 0.5801-1.3064-0.15186-2.1637-0.21437-3.2204 0.08052-0.80094-0.03511-1.6406 0.13098-2.4161 0.01639zm16.522-1.3098c-0.95813-0.6035-2.157-1.1281-2.6649-2.4869-0.74178-1.0109-0.16357-1.8186-0.88256-2.2553-0.55622-3.1602-0.71681-6.6618-0.11868-9.8931 0.38043-1.3595 0.48259-2.5472 1.2157-3.6063 0.68772-0.89747 1.3043-2.1108 2.0434-3.0183 1.1653 0.4465 2.4924-0.24533 3.1807 0.74275 1.1819 0.93184 1.946 2.2416 2.8437 3.4124 0.74558 1.4333 1.1761 2.8349 1.1382 4.3836-0.06266 1.2022-0.07274 2.6812 0.08589 3.3516 0.12867 1.2215-0.0045 2.2069 0.03128 3.2545-0.06432 1.2368-0.59765 2.4653-1.1989 3.5141-0.66796 1.8571-2.6233 2.9808-4.6513 2.7695-0.37261 0.02619-0.71162 0.09556-1.0225-0.16849zm2.2455-1.9348c1.6361-0.78825 2.8923-2.4874 2.6983-4.4687 0.56817-1.2042 0.15301-2.5976 0.05723-3.8766 0.20866-2.0594-0.31118-4.1502-1.0271-5.9651-0.71771-0.98064-1.5575-2.2827-2.7233-2.7973-1.2545-0.61627-1.4825 1.1405-1.9904 1.8089-0.2618 0.67363-0.61036 1.4463-0.85836 1.7833 0.17822 1.2456-0.45758 1.5065-0.27357 2.6228-0.43144 0.9442-0.05082 2.5481-0.06456 3.8315-0.21466 1.0869-0.02952 1.633 0.22836 2.7493 0.11721 1.0475 0.5854 2.177 0.66007 2.7191 0.54581 1.3831 1.8889 2.0822 3.2933 1.5928zm13.054 1.8479c-2.4453-0.85218-3.6429-3.6272-4.4671-5.8811-0.30143-1.0555-0.38301-2.0247-0.57548-2.6642-0.41887-1.784-0.05792-4.0892 0.38929-5.9929 0.01397-1.5621 0.78988-2.7944 1.1774-4.1254 0.24851-0.95731 1.35-1.7377 1.913-2.1958 1.0724-1.2526 3.1096-1.1405 4.5366-0.40963 1.2236 1.7828-1.0867 2.201-2.2743 1.421-1.3767 0.15718-2.3327 1.5181-2.7481 2.8512-0.64187 1.8992-0.95279 4.4579-1.0997 6.6636-0.04736 1.9681 0.44293 3.9156 1.3475 5.5998 0.54633 1.4611 2.1323 3.4907 3.8019 2.5328 1.2458-0.30508 0.83527-2.7492 2.1323-2.382 1.8471 0.44938 0.81327 2.9611-0.35026 3.4907-0.63875 1.4546-2.418 1.1544-3.7831 1.092zm-4.7889-8.0414c-0.08841-0.16997-0.09636 0.16224 0 0zm33.599 6.8981c-0.65055 0.06294-1.2315-1.4086-1.1776-1.2317 0.62937-1.2583-0.4213-2.8137-0.09352-4.25-0.08985-1.9431-0.62175-4.1805-0.03782-5.915-0.85926-1.2916-0.30061-3.1795-0.45971-4.7093-0.02302-1.4256 0.70675-3.7888-1.5618-2.9911-1.4419 0.1182-2.9555 0.38337-4.3026 0.33738-1.2078-0.59059-0.51402-2.5938 0.86704-2.1701 2.7532-0.19957 5.5313-0.25679 8.3377-0.5588 1.1171-0.040959 3.1529-0.13505 2.7244 1.3833-0.78264 1.5162-3.5047-0.36341-3.985 1.2123-0.19733 2.7928-0.14591 5.7617-0.12185 8.4511 0.37958 2.6553 0.28646 5.5201 0.81537 8.2043 0.10867 0.74144 0.23212 2.8274-1.0046 2.2376zm10.516-0.23981c-1.2289-1.3661 1.1775-1.978 2.194-2.125 0.77967-0.37461 3.0105-0.3845 1.9445-1.7569 0.03467-1.3318-0.47331-1.9764-0.10979-3.3019-0.4344-0.93788-0.054953-2.4425-0.27859-3.5559-0.16203-0.92925 0.12271-1.946-0.17907-3.0532-0.43472-1.791 0.1119-3.5145 0.13687-5.2915-1.2337-0.051285-2.3754 0.44356-3.6207 0.060476-0.94607 0.63697-1.3991-1.9515-0.16278-1.8453 2.515-0.11176 5.0718-0.13305 7.5659-0.59227 1.3825 0.24396 1.274 1.8337-0.20967 2.1999-1.5634-0.23502-1.7177 0.72913-1.8281 1.8288-0.34515 3.7904 0.5284 7.5563 0.38897 11.348 0.04417 1.1643 0.0524 3.4294 1.6642 2.4584 1.0109-0.18649 2.6344-0.76426 3.1219 0.32576 0.42692 1.3076-1.4467 1.4164-2.3137 1.7945-1.7388 0.15545-3.446 0.74832-5.0756 1.3273-1.1827-0.07459-2.0707 0.7469-3.2384 0.17924zm40.654-1.0359c-1.5752-0.75117-1.6942-2.65-3.0854-3.6611-1.0479-1.1517-1.4188-2.5019-2.6657-3.5293-0.31884-1.4019-1.5827-2.6169-1.7931-4.2727-0.54885-0.37791-0.88156-1.6021-1.4666-2.3184-0.46093-0.92215-0.82435-1.9092-1.5501-2.7236-0.30667 1.1781 0.37232 2.9403 0.13544 4.3883-0.0812 2.9143 0.43642 5.7241 0.55152 8.5689 0.15834 0.8783 0.45957 2.9898-0.63373 2.8489-1.0297 0.621-1.7841-1.1759-1.4113-2.4463-0.0575-1.505-0.0348-2.9553-0.40541-4.4371-0.56013-2.893 0.40476-5.8522-0.30316-8.6692 0.23377-1.116-0.75284-3.1254 0.56327-3.6147 1.2164 0.38656 2.3362 0.77949 3.0508 2.042 0.93848 1.2939 1.3603 2.6812 2.2023 3.8133 0.78927 1.226 1.2979 2.1874 1.7544 3.5159 0.87838 1.6952 1.5582 3.1987 2.7797 4.5473 0.23723 0.51866 1.5194 2.3045 1.8606 1.7406 0.11203-2.1243-0.43586-4.4028-0.15668-6.3933 0.0108-1.0555-0.61166-1.7538-0.64078-3.067-0.0573-1.2185-0.21139-2.5203-0.28491-3.6298-0.99629-1.2773 1.0528-1.7449 1.5563-0.8931 0.84837 2.2051 0.73825 4.8123 1.3327 7.1365-0.14695 3.0574 0.71967 6.7251-0.11407 9.9085-0.16997 0.46532-0.61507 1.3726-1.2761 1.1454zm-0.88534-12.678c-0.0884-0.16995-0.0964 0.16224 0 0zm-20.816 12.284c-1.6673-0.05853-3.0269-1.319-4.0364-2.385-0.2142-0.62854-1.2967-1.85-0.71394-2.2208-0.51569-0.89316-0.25802-2.3222-0.21471-3.4729 0.14054-2.165-0.27068-4.4233 0.83282-6.3133 0.26031-1.4747 1.0706-2.3849 1.3138-3.8543 0.87027-0.61595 1.0698-2.7495 2.3928-1.8441 0.1892 1.5333 1.7338 0.57225 2.681 1.4084 1.0982 1.4431 1.9985 3.2621 2.5386 5.1083 0.98671 2.0473 0.92308 4.4121 1.2036 6.6451-0.6451 2.1288-0.94238 4.7761-2.9241 6.0911-0.80344 0.7046-2.0397 0.85811-3.0735 0.83741zm1.093-2.1001c2.1247-0.47828 2.4632-2.9715 2.8127-4.7826 0.15255-1.3718-0.04717-2.3627-0.248-3.7683-0.23758-1.1691-0.23774-2.3861-0.61566-2.7862-0.15383-1.1419-0.81769-1.4347-1.0399-2.5311-0.33888-1.3485-2.0073-1.1084-3.0564-1.0984-0.43412 1.1181-0.87788 2.1653-1.2107 3.2525-0.85804 1.4097-0.38265 3.162-0.75217 4.652 0.43218 1.7384-0.52556 3.4036 0.43375 5.0546 0.37006 0.97144 1.5717 1.848 2.6602 2.1939 0.33602-0.06614 0.71476 0.01063 1.0161-0.1862zm-5.7661-1.7957c-0.08843-0.16997-0.09634 0.16224 0 0zm38.526 3.1317c-1.7155-0.034-3.9955 0.09777-4.4629-1.9824-0.89148-1.3538 0.93991-1.6924 1.5531-0.71668 1.3804 1.4038 3.1583 0.47847 4.5535-0.31494 1.4139-0.62308 2.0738-2.2853 2.4541-3.7507-0.60289-0.83861-0.36426-2.1043-1.5318-2.4286-0.98909-0.80871-2.5885-0.31038-3.9057-0.08698-1.0461 0.07437-2.2377 0.28547-3.3451 0.11724-1.0716-0.43071-1.9972-1.7896-2.3225-3.196 0.011-1.4753 0.26661-2.7564 0.87754-3.9069 0.94848-1.9003 2.8572-4.0312 5.214-3.1058 1.2619 0.39062 3.0763 0.1712 3.6384 1.7365 1.1199 0.73959 0.61685 1.8576 0.0623 2.4695-1.5385 0.11657-1.2626-2.301-2.8452-2.197-0.66977-0.2156-2.2899-0.58432-2.9544 0.34283-1.5366 0.84109-1.6638 2.777-1.9137 4.4021 0.22414 1.1987 1.8029 2.1998 2.675 1.3538 0.98877-0.10653 2.2144-0.59121 3.5608-0.38527 1.7836 0.43037 3.8344 1.071 4.2481 3.1172 0.63157 1.1065 0.45714 2.957 0.0826 3.8999-0.14086 0.80866-1.4116 2.0816-2.172 2.9551-0.77372 0.44989-1.9272 0.71802-2.7037 1.3586-0.43486-0.01846-0.42531 0.21365-0.76254 0.31858z" stroke-width=".36726"/></svg>
