<?xml version="1.0" encoding="UTF-8"?>
<svg width="100" height="24" version="1.1" viewBox="0 0 26.458 6.35" xml:space="preserve" xmlns="http://www.w3.org/2000/svg"><path d="m1.5116 6.3345c-0.32-0.03993-0.61491-0.21976-0.78527-0.44965-0.2407-0.15148-0.28174-0.56219-0.041804-0.765 0.22064-0.01142 0.33687 0.082584 0.32046 0.29664 0.20433 0.40148 0.81761 0.61139 1.167 0.26386 0.31434-0.10915 0.42768-0.45476 0.54042-0.67196 0.08066-0.20323 0.17105-0.42322 0.19166-0.65806 0.14024-0.3125-0.071819-0.59194-0.10548-0.88867-0.12512-0.18815-0.24781-0.31737-0.42002-0.4774-0.34132-0.15128-0.65742 0.22054-1.0182 0.18776-0.40003 0.059041-0.78176-0.075223-1.0282-0.39467-0.12567-0.30622-0.39218-0.57736-0.31988-0.93824-0.026021-0.29056 0.0501-0.57104 0.13533-0.83747 0.14547-0.22194 0.2348-0.29348 0.31918-0.40744 0.17685-0.12161 0.32102-0.3641 0.55995-0.39072 0.28461-0.17455 0.60191-0.083262 0.87711 0.068438 0.35448 0.17188 0.81813 0.29134 0.93105 0.69168 0.077803 0.2003-0.083703 0.37001-0.31073 0.267-0.17895-0.1232-0.28196-0.33174-0.52569-0.42288-0.32618-0.13372-0.72093-0.34922-1.009-0.027353-0.16839 0.12257-0.28112 0.24959-0.33778 0.43917-0.15296 0.25131-0.15926 0.63386-0.082304 0.91654 0.13722 0.26188 0.33198 0.61953 0.69582 0.50919 0.34806 0.051864 0.58826-0.2541 0.93301-0.18206 0.3883-0.18187 0.66835 0.28298 0.85052 0.53104 0.13456 0.15517 0.25266 0.3526 0.29264 0.5061 0.013673 0.2771 0.17434 0.54614 0.10943 0.81271-0.12051 0.39504-0.20187 0.78525-0.45937 1.1007-0.063768 0.32187-0.31761 0.55919-0.57262 0.71561-0.24832 0.19434-0.59943 0.25229-0.90718 0.20512zm5.882-0.051981c-0.23844-0.11879-0.28285-0.34962-0.30048-0.59392-0.15464-0.22059-0.09269-0.48447-0.20197-0.71904 0.019795-0.22756-0.19576-0.32247-0.23765-0.57271-0.12304-0.22962-0.076243-0.59597-0.42786-0.40404-0.33066 0.021935-0.66513 0.021877-0.99215 0.090411-0.039542 0.40244-0.25223 0.79811-0.20581 1.1927 0.040993 0.26591 0.095268 0.56404-0.0089888 0.81752-0.19255 0.12822-0.42581 0.11361-0.42646-0.18777l-0.037082-1.1605c-3.7e-6 -0.20445 0.14163-0.43025 0.13067-0.60733 0.08351-0.34535 0.12549-0.59641 0.11787-0.94853 0.02868-0.21082 5.28e-5 -0.47166 0.11465-0.7079 0.085301-0.52731 0.05016-1.0952 0.095992-1.6091 0.017103-0.24893 0.33861-0.26375 0.51235-0.35916 0.28788 0.097205 0.27766 0.31887 0.45148 0.56423 0.13839 0.24188 0.25135 0.4932 0.27236 0.73594 0.065605 0.23974 0.12322 0.4601 0.23876 0.69408 0.075634 0.25993 0.10919 0.50423 0.24022 0.75315 0.024798 0.17069 0.22556 0.45668 0.29137 0.62536 0.093218 0.23393 0.26382 0.52676 0.29488 0.8194 0.14303 0.19487 0.12925 0.48829 0.21639 0.7026 0.00542 0.25006 0.28597 0.52229 0.12358 0.77308-0.084091 0.052496-0.1529 0.15217-0.26212 0.10157zm-1.1531-2.7835c-0.05302-0.21221-0.20777-0.36898-0.21342-0.61561-0.10822-0.30026-0.21827-0.65258-0.27601-0.93364-0.099707-0.16024-0.083286-0.6139-0.26868-0.58796-0.00692 0.24519 0.019027 0.47823-0.012871 0.71289-0.04703 0.41576-0.10963 0.8091-0.19856 1.2111-0.025109 0.32922 0.2419 0.20342 0.5012 0.23332 0.14262 0.00709 0.37028 0.078664 0.46836-0.02011zm5.3417 2.4547c-0.20914-0.051145-0.20403-0.32323-0.17927-0.5061-0.04782-0.10123 0.04233-0.46837 0.04787-0.62178-0.02556-0.16214 0.03294-0.48721 0.08502-0.70721 2.63e-4 -0.28309 0.0365-0.5275 0.0681-0.82424-0.02886-0.2099 0.0668-0.57133 0.08491-0.64231 0.02676-0.31877 0.11876-0.60414 0.1644-0.90676 0.02612-0.2395 0.2041-0.37854 0.09938-0.56106-0.03127-0.27364-0.0321-0.51537 0.10591-0.70943 0.2763 0.10201 0.43961-0.25236 0.66013-0.092202 0.11273 0.23257 0.06275 0.32069 0.15746 0.48227 0.18827 0.20248 0.18835 0.45315 0.35134 0.66895 0.15739 0.32567 0.19526 0.58657 0.32294 0.91629 0.07046 0.21366 0.16278 0.4362 0.21039 0.63816 0.01514 0.2929 0.15999 0.57347 0.23577 0.85548 0.18661 0.22281 0.19062 0.54689 0.34173 0.73751 0.09579 0.17194 0.22061 0.51958 0.05711 0.61813-0.03082 0.14562-0.40634 0.14376-0.3374-0.097669-0.14174-0.1902-0.08867-0.37804-0.23318-0.57914 0.0052-0.13581-0.25648-0.39043-0.25068-0.6113-0.09908-0.26652-0.24099-0.46645-0.57498-0.40479-0.33151-0.029032-0.69923-0.040529-0.96554 0.18583-0.0079 0.23325-0.04723 0.38827-0.07374 0.58192 0.0072 0.2339-0.07356 0.54932-0.12964 0.68676 0.09091 0.23006 0.01962 0.48689 0.02928 0.71742-0.0045 0.10058-0.20075 0.19072-0.2773 0.17528zm1.4839-2.7377c0.20056-0.053048 0.25621-0.28285 0.08494-0.49542-0.06995-0.18893-0.1482-0.45936-0.22066-0.66968-0.07432-0.14896-0.1292-0.41115-0.22021-0.49779-0.0277-0.22785-0.30368-0.53883-0.29942-0.14681-0.11017 0.14762-0.0084 0.29523-0.10929 0.42637-0.0087 0.32704-0.16481 0.54312-0.13384 0.84832-0.15186 0.37168 0.07284 0.5522 0.4303 0.40601 0.29249-0.04232 0.44682 0.12985 0.46818 0.129zm-3.9027 2.6748c-0.26366-0.1343-0.15552-0.56564-0.22508-0.82714 0.017346-0.40981-0.31191-0.77149-0.28889-1.1623 0.053902-0.28108-0.056024-0.60859 0.068038-0.88074-0.2073-0.3774-0.15726-0.82281-0.28423-1.2305-0.021265-0.12684-0.12331-0.34525-0.13045-0.52634-0.099028-0.2175-0.16114-0.60485 0.17368-0.66236 0.49795 0.025821 0.96473-0.091342 1.4581-0.20579 0.20211 0.033876 0.6504-0.15902 0.67391 0.17145 0.1045 0.18698-0.25077 0.29103-0.39271 0.29932-0.32209 0.10527-0.67461 0.1075-0.99615 0.21386-0.29468-0.014759-0.4758 0.14434-0.3014 0.45851 0.057085 0.39467 0.16014 0.77482 0.20237 1.1679 0.013742 0.25628 0.047561 0.54069 0.38826 0.35597 0.29234-0.037966 0.44959-0.19603 0.66603-0.020916 0.18624 0.23498-0.17125 0.29872-0.29765 0.39751-0.23158 0.16735-0.78169 0.081557-0.68552 0.49497-0.00517 0.37596 0.21726 0.66068 0.23165 1.0283 0.040093 0.27372 0.13664 0.58109 0.044552 0.8314-0.059971 0.11195-0.19287 0.12584-0.30452 0.096847zm15.523 0.00569c-0.177-0.001053-0.37821-0.11485-0.58791-0.24336-0.22094-0.15815-0.38296-0.29454-0.46142-0.57646-0.28784-0.14794-0.10966-0.633 0.19866-0.45497 0.20292 0.13913 0.2702 0.33898 0.41531 0.53857 0.13986 0.13913 0.3833 0.21416 0.58199 0.25409 0.16074-0.18825 0.42614-0.24675 0.5485-0.4046 0.075788-0.1196 0.18757-0.26107 0.25961-0.40992 0.070951-0.24442 0.13117-0.48766 0.23943-0.71175-0.040705-0.28793-0.16655-0.79866-0.56648-0.7148-0.41733-0.038282-0.82682-0.12892-1.2475-0.15956-0.40571-0.098122-0.65505-0.54319-0.68712-0.90589 0.01549-0.31144-0.04013-0.61855 0.01137-0.93322 0.03459-0.28373 0.11478-0.53642 0.33644-0.75309 0.25578-0.12072 0.34736-0.29266 0.59168-0.38371 0.20963-0.074241 0.46928-0.020684 0.69304 0.0070716 0.37694 0.14036 0.68832 0.43325 0.81278 0.78525 0.055279 0.28598-0.16955 0.28414-0.35806 0.24971-0.18773-0.30803-0.39822-0.62004-0.80066-0.5682-0.42058-0.077878-0.70733 0.39872-0.72513 0.75766-0.02879 0.2819-0.06839 0.59677-0.02445 0.85742 0.06904 0.33644 0.3915 0.43444 0.69817 0.41207 0.30418 0.070298 0.64864 0.17022 0.932 0.10825 0.38891 0.15236 0.66839 0.4763 0.75451 0.87265 0.15064 0.45546-0.06558 0.95979-0.22916 1.3592-0.22404 0.30844-0.44526 0.64814-0.81061 0.81862-0.15437 0.1462-0.36012 0.23642-0.57496 0.19896zm-5.6311-0.10908c-0.18323-0.22583 0.12037-0.47607 0.31467-0.47592 0.23608-0.071546 0.49608 0.028671 0.75075-0.075449 0.09667-0.18776-0.02836-0.48995-0.0314-0.71585-0.0149-0.20155-0.14657-0.4028-0.11493-0.67829 0.0057-0.35315-0.01431-0.74949-0.0055-1.0741-0.09177-0.26497-0.0105-0.55442 0.03878-0.83132 0.03179-0.38896 0.06082-0.77118-0.0014-1.1642-0.3506-0.006742-0.72332 0.12706-1.0787 0.14366-0.31411-0.00797-0.21492-0.4778-0.03792-0.47542 0.24512-0.13785 0.49655-0.035592 0.71016-0.13579 0.21461 0.033659 0.51418-0.14279 0.68195 0.017361 0.17185-0.042569 0.4465-0.044952 0.67634-0.076368 0.22984 0.13927 0.38545-0.12403 0.59478 0.017732 0.26162 0.14781 0.02732 0.38795-0.18137 0.43538-0.21359 0.16241-0.46817 0.008618-0.73217 0.056257-0.22201 0.040292-0.04446 0.43979-0.08292 0.6111-0.04782 0.59442-0.03333 1.1847-0.13823 1.7679 0.12911 0.15822 0.01693 0.43715 0.1022 0.65776-0.03116 0.22522 0.0097 0.41113 0.06294 0.64589 0.07467 0.25188 0.02563 0.62705 0.16622 0.80432 0.41635 0.032158 0.95005-0.25045 1.2713 0.13267 0.17419 0.29333-0.30035 0.45312-0.51077 0.31086-0.34598 0.00732-0.67183 0.14711-1.0302 0.0892-0.40697 0.024731-0.91638-0.076951-1.2308 0.07385-0.09633-1.091e-4 -0.15307 0.071871-0.19375-0.061218zm-3.4553-0.059579c-0.19182-0.054342-0.2717-0.21104-0.18001-0.49543 0.13204-0.18657-0.11519-0.4109-0.031858-0.68247 0.018968-0.056468-0.051502-1.5018-0.11471-2.2511 0.06106-0.2176-0.07907-0.57459 0.05738-0.79878-0.02861-0.15969-0.01389-0.52212-0.03961-0.7787-0.13745-0.13564 0.02052-0.30419 0.19298-0.40298 0.20544 0.089382 0.46408-0.06223 0.68244-0.097271 0.21686-0.062694 0.54947-0.007631 0.76443 0.16092 0.25995 0.14954 0.47052 0.34475 0.63543 0.5694 0.06777 0.272 0.27502 0.55412 0.1147 0.85599-0.12368 0.28395-0.27962 0.56371-0.46985 0.78805-0.17209 0.15294 0.13182 0.41779 0.06645 0.62206 0.22308 0.28482 0.20225 0.69204 0.45335 0.94981 0.07596 0.32983 0.22278 0.61505 0.32272 0.9325 0.03841 0.119 0.23287 0.35425 0.04669 0.55089-0.31636 0.22083-0.57558-0.22654-0.5182-0.51242-0.17166-0.17044-0.15249-0.46396-0.27282-0.65848-0.099444-0.19528-0.24589-0.45329-0.29974-0.72493-0.12887-0.1279-0.12252-0.55225-0.33039-0.49417-0.25564 0.13773-0.53526 0.23269-0.81677 0.14311-0.18946 0.22168 0.07579 0.46584-0.01962 0.69628 0.059 0.25802 0.0069 0.55515 0.04109 0.77859-0.01728 0.23904 0.06308 0.57795-0.03187 0.77527-0.04502 0.051562-0.16533 0.13066-0.25225 0.073834zm0.68616-2.7502c0.27956-0.088635 0.3769-0.31219 0.46572-0.48658 0.16426-0.14264 0.16239-0.33771 0.31417-0.47988 0.09791-0.22729 0.22265-0.31354 0.14778-0.59778 0.01305-0.10926-0.14654-0.40183-0.34282-0.50279-0.21008-0.10229-0.23885-0.26972-0.52005-0.2079-0.25821-0.013636-0.64872 0.10567-0.53454 0.42635 0.0023 0.58432-0.10813 1.176-0.03611 1.7597 0.16921 0.064972 0.31342 0.16536 0.50585 0.088927z" stroke-width=".054652"/></svg>
