<?xml version="1.0" encoding="UTF-8"?>
<svg width="77" height="20" version="1.1" viewBox="0 0 20.373 5.2917" xml:space="preserve" xmlns="http://www.w3.org/2000/svg"><path d="m7.953 5.2893c-0.21795 0.024782-0.33047-0.15069-0.28135-0.34386 0.059651-0.15781 0.29642-0.20772 0.42655-0.31397 0.43492 0.06451 0.88955 0.044924 1.3354 0.0343 0.21202-0.010678 0.45978-0.043104 0.64096-0.068473 0.22011 0.10603 0.50013 0.025984 0.7429 0.016299 0.17024-5.979e-4 0.44151 0.034716 0.64109 0.10029 0.09007 0.17989-0.0049 0.27294-0.10279 0.40381-0.15556 0.047282-0.22645 0.2229-0.4678 0.10806-0.19094-0.027415-0.3082-0.032942-0.48826-0.068417-0.24584 0.17635-0.60035 0.011718-0.8509 0.068649-0.16359 0.14117-0.27755-0.10563-0.46139 0.011436-0.23012 0.077807-0.5145-0.077285-0.77231 0.011305-0.1279 0.01071-0.28376 0.015486-0.36207 0.040564zm-4.6035-1.3733c-0.21433 0.035037-0.29509-0.20576-0.25844-0.34653-0.058521-0.17562 0.23295-0.097418 0.25843-0.35145 0.082264-0.16245 0.24672-0.32239 0.31147-0.4853 0.077149-0.14231 0.18251-0.30991 0.20065-0.44949 0.027586-0.1635 0.23367-0.32322 0.12002-0.49514-0.16961-0.13283-0.23295-0.32371-0.41043-0.47585-0.085274-0.2738-0.4962-0.39245-0.46217-0.69956 0.0022108-0.21385 0.28684-0.24017 0.43817-0.17102 0.14609 0.21808 0.37306 0.38788 0.46252 0.6207 0.14513 0.083923 0.19916 0.47142 0.38816 0.26014 0.11449-0.1804 0.2412-0.44956 0.36319-0.55 0.081504-0.13311 0.14071-0.30379 0.27878-0.4468 0.13542-0.16811 0.29166-0.35066 0.50295-0.21029 0.11686 0.17221 0.041011 0.4015-0.072893 0.46571-0.083691 0.13646-0.20196 0.21974-0.29168 0.40302-0.20224 0.073835-0.19418 0.24436-0.32306 0.3304-0.022028 0.22429-0.29324 0.38257-0.19407 0.59903 0.077942 0.16324 0.23009 0.34322 0.40611 0.46789 0.26496 0.13291 0.28988 0.44741 0.50513 0.63355 0.1973-0.037584 0.28999 0.33463 0.037856 0.33163-0.21945-5.777e-4 -0.40555-0.054546-0.54131-0.20705-0.093966-0.16745-0.29441-0.37301-0.33711-0.48517-0.20536 0.006831-0.22356-0.26634-0.35968-0.30015-0.12898 0.18403-0.20401 0.36539-0.27137 0.5799-0.11157 0.19891-0.28902 0.368-0.39082 0.56301-0.066089 0.12097-0.24718 0.30836-0.31035 0.43487l-0.040016-0.012818zm0.74082-1.782c0.079634-0.088609-0.29744 0.060168 0 0zm14.506 1.6467c-0.27207-0.022415-0.30364-0.15507-0.46973-0.3427-0.06544-0.31465-0.05277-0.62565-0.0413-0.94554-0.06866-0.44316-0.08657-0.90413 0.0018-1.3421 0.0025-0.16171 0.08433-0.33296 0.09322-0.43904 0.10773-0.13375 0.12203-0.28082 0.26585-0.41716 0.03258-0.13646 0.3069-0.17416 0.4455-0.22938 0.27776-0.038518 0.64083-0.12622 0.84214 0.1271 0.271 0.010755 0.21956 0.35345 0.05993 0.46285-0.303 0.17218-0.22725-0.16433-0.48229-0.14249-0.1369-0.12788-0.3971 0.043079-0.52425 0.15733-0.15783 0.15777-0.16424 0.42745-0.22682 0.63114-0.08013 0.13833-0.14923 0.59258 0.12844 0.51575 0.31236-0.049076 0.63121-0.064385 0.94065-0.10242 0.1521 0.05006 0.41803-0.16521 0.44481 0.029567 0.12763 0.28307-0.15249 0.24496-0.35672 0.24827-0.16582 0.050899-0.2873 0.17249-0.50756 0.15577-0.13722 0.038046-0.27191 0.092223-0.46213 0.15288-0.31093 0.010067-0.13317 0.16135-0.20109 0.32928-0.02966 0.21092 0.02562 0.46547 0.09337 0.62677 0.18243 0.10013 0.46724 0.061148 0.65701-0.016545 0.26275-0.085374 0.57901-0.14781 0.78928-0.28208 0.09556-0.063635 0.3727 0.1773 0.21696 0.32737-0.14311 0.13755-0.26375 0.1761-0.44083 0.23564-0.1822 0.10643-0.39013 0.14526-0.60724 0.18653-0.23326 0.058642-0.31956 0.079745-0.58072 0.078504l-0.03817 4.772e-4zm-11.57-0.22461c-0.25126-0.21599-0.17828-0.60265-0.31217-0.89197-0.14539-0.38399-0.17243-0.81292-0.24547-1.2228 0.0079063-0.32571-0.10622-0.73398 0.14618-0.98917 0.16302-0.10339 0.23384-0.24684 0.42661-0.31539 0.19833-0.10517 0.45878-0.089721 0.67306-0.012509 0.26282 0.16292 0.64955 0.25077 0.75667 0.56533 0.051448 0.23886-0.062609 0.37271-0.20449 0.55345-0.034228 0.12159-0.19111 0.16547-0.24885 0.23026-0.18779 0.18464-0.46787 0.26417-0.67401 0.40045-0.23056 0.029213-0.23065 0.21704-0.14303 0.42362 0.11539 0.33011 0.10057 0.68095 0.16881 1.018-0.19157-0.0939-0.10351 0.36575-0.32146 0.25474zm0.16659-2.1026c0.15158-0.094277 0.33387-0.23795 0.44325-0.28053 0.15147-0.024732 0.38273-0.17217 0.35715-0.37041-0.19873-0.16723-0.49264-0.3681-0.75878-0.2077-0.16063 0.027673-0.22545 0.27454-0.2027 0.47391 0.016973 0.10966-0.041484 0.49624 0.16108 0.38474zm-5.8491 2.1121c-0.21448-0.020336-0.43724-0.014007-0.62665-0.14325-0.23876-0.099116-0.34617-0.35108-0.53128-0.51053-0.094543-0.1513-0.031017-0.39582-0.10945-0.59851-0.066515-0.36062-0.08059-0.74892 0.011466-1.0913 0.095956-0.17776 0.087518-0.42669 0.22019-0.58002 0.19763-0.13835 0.16067-0.22369 0.37331-0.34445 0.19146-0.11034 0.42687-0.1725 0.64279-0.21701 0.3675-0.15547 0.78381-0.024023 1.1775-0.028853 0.091012 0.14153 0.018531 0.29494-0.060808 0.44286-0.19594 0.081885-0.47663 0.024022-0.71714 0.027662-0.19342 0.098119-0.50383 0.016949-0.6983 0.16163-0.13825 0.12358-0.34676 0.11687-0.37425 0.3547-0.045458 0.25795-0.16944 0.27108-0.12016 0.54616-0.052805 0.2728 0.27978 0.11319 0.4157 0.17793 0.23201-0.04459 0.53349 0.073468 0.70764-0.0090378 0.13162 0.092872 0.30582-0.0046918 0.24132 0.21474-0.025902 0.10779-0.23705 0.23481-0.39848 0.19624-0.14557 0.0031932-0.3392 0.012267-0.46061 0.066917-0.17453 0.010363-0.50203-0.0057292-0.437 0.23085 0.034349 0.1798 0.14335 0.33164 0.24544 0.45999 0.12998 0.20133 0.37612 0.18317 0.60449 0.18637 0.26419 0.021072 0.51168-0.14146 0.75845-0.21038 0.29032-6.482e-4 0.18031 0.32044 0.038384 0.44397-0.17817 0.11127-0.37533 0.1427-0.57074 0.18124-0.094333 0.043513-0.23615 0.055609-0.33182 0.042064zm14.054-0.063452c-0.14824-0.10684-0.1122-0.34015-0.21477-0.5143 0.0167-0.17786-0.17308-0.33607-0.15802-0.53259-0.04751-0.37808-0.20015-0.75894-0.22482-1.1561 0.01529-0.28553-0.05496-0.62773 0.12743-0.86608 0.01386-0.053198 0.21443-0.36621 0.41288-0.37595 0.19855-0.10801 0.45276-0.045026 0.64987 0.042312 0.20662 0.067034 0.4281 0.1136 0.5867 0.21613 0.17989 0.089112 0.33407 0.19373 0.4461 0.33681 0.2138 0.22616 0.15291 0.56421-0.05603 0.77831-0.09335 0.16074-0.30988 0.22987-0.41603 0.30289-0.09112 0.08822-0.41501 0.17444-0.32359 0.27878 0.30178 0.06184 0.62441 0.33819 0.93725 0.41018 0.17605 0.12233 0.40194 0.25757 0.57836 0.44095-0.06469 0.022703 0.22408 0.33593-0.04788 0.41916-0.15232 0.023934-0.33204-0.042488-0.41034-0.18756-0.059921-0.19731-0.27221-0.24994-0.45853-0.34473-0.1891-0.11199-0.47782-0.18541-0.68274-0.29972-0.17584 0.015569-0.33866-0.16828-0.52058-0.15644-0.04231 0.26629 0.10138 0.47409 0.07007 0.74042 0.13133 0.13216-0.07644 0.3393-0.15635 0.45435-0.04362 0.00666-0.09447 0.03605-0.13897 0.013168zm0.39544-1.7863c0.21515-0.091336 0.35413-0.34817 0.60546-0.3546 0.12642-0.11811 0.33543-0.17297 0.31135-0.38379-0.024711-0.22361-0.33814-0.29432-0.30465-0.28359-0.20749-0.16954-0.45414-0.13406-0.67222-0.23455-0.29828-0.08089-0.31521 0.15592-0.24055 0.36904-0.01017 0.22505 0.09112 0.43462 0.03239 0.65902 0.08029 0.12887 0.01384 0.38511 0.26823 0.22847zm-3.2937 1.7183c-0.20169-0.0064359-0.36711-0.078314-0.5325-0.16619-0.13241-0.10043-0.30319-0.16062-0.37706-0.32159-0.27937-0.30405-0.30234-0.78601-0.20123-1.1986 0.08947-0.19954 0.13371-0.23068 0.16751-0.43441 0.0519-0.21835 0.22288-0.32536 0.32493-0.48715 0.17557-0.14716 0.25895-0.39146 0.5442-0.32007 0.2609 0.065377 0.55252 0.075413 0.83694 0.070905 0.20954 0.098971 0.45989 0.21141 0.6462 0.36395 0.26922 0.19425 0.35448 0.56028 0.43422 0.8707-0.02112 0.21101-0.1141 0.34979-0.15047 0.54678-0.05534 0.17554-0.20644 0.31627-0.29352 0.49722-0.02925-0.011078-0.22966 0.22328-0.35808 0.27677-0.13585 0.093835-0.23541 0.22808-0.46051 0.27738-0.17767 0.049565-0.39735 0.042754-0.58065 0.02426zm0.29032-0.42991c0.19174 0.012763 0.36619-0.14091 0.48081-0.2095 0.21747-0.065039 0.31614-0.3159 0.45152-0.46126 0.07128-0.17801 0.11768-0.44079 0.01309-0.65121-0.06925-0.33963-0.32901-0.61506-0.64702-0.72568-0.17664 0.030831-0.35474 0.10037-0.57752 0.032516-0.20347 0.045476-0.16123 0.21893-0.27943 0.34703-0.14872-0.099877-0.28271 0.069216-0.34142 0.27543-0.09597 0.18441-0.04922 0.39633-0.13116 0.5771 0.09488 0.11946 0.01657 0.29384 0.20022 0.45777 0.12729 0.17704 0.28732 0.28539 0.48592 0.34026 0.12508 0.037227 0.22406 0.077462 0.34501 0.017533zm-3.1785 0.23467c-0.12705-0.16156-0.24393-0.31662-0.34247-0.50924-0.12581-0.16557-0.1546-0.46032-0.17654-0.70622-0.072116-0.2215 0.047856-0.49342-0.09623-0.68824 0.07533-0.14989-0.0081962-0.34803 0.0037235-0.56124 0.040107-0.21247-0.050166-0.46091 0.089342-0.6522 0.19269-0.05537 0.52226 0.0056526 0.42783 0.26887-0.044066 0.52706 0.030017 1.0606 0.038404 1.588 0.072632 0.15996 0.016937 0.39677 0.15262 0.5553 0.08117 0.20884 0.2957 0.36686 0.51903 0.22707 0.16286-0.079034 0.37157-0.11895 0.44244-0.21799 0.137 0.043916 0.41394-0.29383 0.35652-0.010196 0.09135 0.027195 0.15106 0.29105 0.01409 0.4221-0.10381-0.15801-0.28301 0.15461-0.48311 0.12468-0.24039 0.17592-0.56704 0.21925-0.87053 0.23342-0.025028-0.024699-0.050056-0.049399-0.075082-0.074097z" stroke-width=".056756"/></svg>
