<?xml version="1.0" encoding="UTF-8"?>
<svg width="152" height="24" version="1.1" viewBox="0 0 40.217 6.35" xml:space="preserve" xmlns="http://www.w3.org/2000/svg"><path d="m15.823 6.3199c-0.44252-0.048583 0.03473-0.50727-0.23819-0.68387 0.10106-0.349 0.10515-0.6726 0.07498-1.0025-0.15092-0.89538-0.0913-1.8225-0.07458-2.7288-0.07641-0.24008-0.05322-0.75017 0.31018-0.59264 0.39622 0.047065 0.43246 0.54258 0.73548 0.76358 0.1914 0.44983 0.42201 0.89988 0.65573 1.3291 0.0486 0.26172 0.33844 0.4834 0.31756 0.71641 0.17075 0.079547 0.34797 0.84785 0.38944 0.35185-0.02219-0.44445 0.14842-0.87032 0.04353-1.2513 3e-3 -0.62952-0.05195-1.0748-0.03509-1.676-0.01141-0.40665 0.78816-0.59969 0.53848-0.054922-0.0938 0.79731 0.07471 1.5802-0.03489 2.3882-0.05576 0.58314-0.01189 1.2587-0.20848 1.779-0.33306 0.11427-0.44899-0.080793-0.588-0.37754-0.16132-0.25118-0.22752-0.57769-0.43528-0.80182-0.21808-0.42099-0.39096-0.84018-0.60871-1.2738-0.20684-0.2426-0.26319-0.58978-0.51099-0.86393-0.21528 0.58948-0.01985 1.311-0.02285 1.8726-0.0025 0.34014-0.04058 0.7043 3e-3 1.0487-0.15305 0.32879-0.0072 0.73416-0.14887 1.071-0.05411-0.00529-0.10961 0.00187-0.16261-0.013321zm-9.0606-0.16593c-0.37576-0.16312-0.30415-0.67776-0.31852-1.0264-0.09158-0.40964-0.073499-0.9608-0.15434-1.3208-0.47646 0.15262-0.97432 0.055094-1.4501 0.22302-0.48193-0.091023-0.32481 0.44107-0.33777 0.773-0.08288 0.38636 0.22921 0.96149-0.15193 1.1826-0.40363 0.0066497-0.26367-0.45009-0.31478-0.70484-0.054242-0.47731-0.039911-1.0139-0.074761-1.4832-0.11891-0.79171-0.22918-1.6801-0.30255-2.5036 0.37207-0.38608 0.57462 0.1463 0.55178 0.47174 0.074519 0.58554 0.065915 1.1872 0.22989 1.76 0.48162 0.099498 1.0359-0.24353 1.5329-0.08487 0.40648-0.037188 0.26869-0.47782 0.25933-0.81506 0.056244-0.47397-0.02956-0.94996-0.076921-1.4212 0.23053-0.41191 0.69968 0.043916 0.49625 0.34628 0.2039 0.33885 0.039559 0.91195 0.12894 1.3398-0.028795 0.69405 0.14994 1.4478 0.099152 2.0943 0.051596 0.34926 0.15531 0.75102 0.092284 1.1142-0.070526 0.00874-0.13457 0.084249-0.2089 0.054984zm-2.3084-0.35168c-0.052373-0.012354 1.565e-4 -0.00615 0 0zm-0.018287-2.2427c-0.020969-0.039691-0.02285 0.037883 0 0zm3.6112 2.429c-0.2388-0.25178-0.068302-0.79843-0.10653-1.1658 0.08702-0.91887 0.28656-1.7881 0.41924-2.6912 0.12528-0.36771 0.015691-0.93529 0.37854-1.1626 0.27834 0.035796 0.63335 0.12083 0.64975 0.46688 0.31288 0.39359 0.3966 0.99186 0.63161 1.4206 0.16669 0.5542 0.31266 1.1261 0.43938 1.6659 0.08676 0.16315 0.171 0.45615 0.27484 0.71779 0.15235 0.39697-0.22267 0.77543-0.46026 0.36615-0.082643-0.56393-0.36198-1.0702-0.49934-1.62-0.40055 0.10857-0.79488 0.2697-1.2491 0.20687-0.14052 0.5223-0.050873 1.2115-0.14677 1.7747-0.10858-0.0020508-0.23289 0.078824-0.33138 0.020672zm0.7883-2.2903c0.32652-0.048025 1.1483 0.019872 0.74495-0.51252-0.13692-0.5075-0.38806-1.0032-0.59622-1.4822-0.165 0.60517-0.28406 1.3768-0.38761 1.9568 0.068962 0.041011 0.14034 0.091366 0.23888 0.037945zm-7.3893 2.2877c-0.31793-0.12677-0.64595-0.15401-0.84069-0.42797-0.46118-0.32275-0.43619-0.8412-0.4975-1.3668-0.31021-0.45303-0.11255-1.1019-0.031489-1.6242 0.15555-0.27414 0.17273-0.50741 0.36854-0.75888 0.11376-0.49649 0.68277-0.90564 1.1684-0.63586 0.24434 0.049 0.83213 0.26771 0.50108 0.56781-0.37752 0.13636-0.92658-0.47077-1.102 0.11802-0.19359 0.25428-0.31381 0.6895-0.45549 0.9829-0.018845 0.29516-0.18 0.77947 0.009829 1.1291 0.044279 0.37821 0.086398 0.76438 0.20766 1.1011 0.3061 0.16938 0.61703 0.623 0.96051 0.23687 0.22764-0.15336 0.50463-0.64538 0.80617-0.39237 0.12486 0.40406-0.43421 0.63182-0.65907 0.91092-0.13572 0.073406-0.26758 0.22903-0.43598 0.1594zm10.508-0.06468c-0.17357-0.20446 0.01645-0.3965-0.18111-0.58357 0.1643-0.30221 0.0067-0.63609-0.0069-1.0004-0.04621-0.86901-0.01691-1.7469-0.10912-2.6091 0.05294-0.27402-0.0025-0.87354 0.44107-0.70368 0.34812 0.17304 0.52162 0.64855 0.63161 0.94724 0.3381 0.37789 0.33451 0.90947 0.62246 1.3536 0.19833 0.44893 0.26348 0.87156 0.45769 1.3036 0.20505 0.61372 0.20616-0.12504 0.2222-0.39021-0.03398-0.88901-0.08209-1.7608-0.02371-2.6431-0.19076-0.33399 0.33376-0.64508 0.4695-0.37443 0.07114 0.37545 0.04225 1.0276-0.04779 1.2732 0.08366 0.89797 0.14543 1.8541 0.03124 2.777-0.01824 0.26136-0.02083 0.83329-0.41225 0.61136-0.19826-0.13329-0.39576-0.42991-0.47486-0.68485-0.25358-0.41773-0.42501-0.92105-0.52408-1.3245-0.15444-0.30475-0.32077-0.74224-0.41781-1.1311-0.13076-0.20766-0.27908-0.62837-0.47102-0.83953 0.04632 0.6123 0.101 1.2971 0.0696 1.9428-0.03098 0.10335-0.0021 0.35623 0.05525 0.63042-0.04291 0.48075 0.28437 1.2859-0.32142 1.4728zm1.874-1.1717c-0.02097-0.039689-0.02285 0.037884 0 0zm6.4601 0.83514c-0.2196-0.021261-0.76111-0.088961-0.50785-0.44153-0.30873-0.12131-0.09297-0.64499-0.26384-0.88607 0.0058-0.83705-0.06871-1.627-0.01752-2.4917 0.08367-0.30279 0.1092-0.56363 0.48338-0.6011 0.57296-0.065745 1.1208-0.20686 1.6726-0.32717 0.14855 0.17117 0.19033 0.3991-0.19213 0.51196-0.45366 0.17919-0.99216 0.15709-1.4183 0.3748-0.18438 0.48763-0.02671 0.95622-0.04688 1.4983 0.3565-0.019566 0.72653-0.426 1.0701-0.23621 0.20844 0.2477-0.28543 0.37406-0.47444 0.51601-0.36456 0.13338-0.75173 0.35815-0.54351 0.79855 0.09522 0.3495-3e-3 0.96975 0.58523 0.80923 0.36606 0.047975 0.93758-0.41041 1.0812 0.14403-0.35644 0.37892-0.90544 0.27251-1.3799 0.36899zm-0.74818-2.4279c-0.02097-0.039686-0.02285 0.037883 0 0zm4.0643 2.3714c-0.54826 0.10685-0.626-0.46807-0.56503-0.87018-0.029402-1.2337-0.25379-2.421-0.38396-3.5822-0.09029-0.37084 0.58984-0.47289 0.53267-0.016225 0.01068 0.69673 0.17566 1.352 0.21747 2.0606 0.10298 0.60688 0.17686 1.2426 0.12567 1.8235 0.41549 0.16233 1.0015-0.17205 1.3184 0.14915 0.1521 0.43951-0.37511 0.41094-0.66066 0.40417-0.19045 0.05288-0.38949 0.043-0.58456 0.031228zm4.641-0.13257c-0.68871-0.044784-0.50321-0.85478-0.60873-1.3284-0.2007-0.95842-0.30046-1.9597-0.51301-2.9278-0.32168-0.35488 0.43557-0.68334 0.47174-0.19473 0.18007 0.79682 0.27534 1.6724 0.42555 2.4685 0.08961 0.46856 0.11723 0.97902 0.22446 1.449 0.40183 0.15125 0.81971-0.12137 1.2126-0.1059 0.40371-0.13881 0.46864 0.52805 0.0323 0.4965-0.4408-0.038354-0.84321 0.13985-1.2449 0.14291zm3.6445-0.11999c-0.33616-0.07159-0.70537-0.041061-1.0192-0.17113-0.04195-0.15699-0.1526-0.23206 0.10584-0.38947 0.30633-0.14762 0.9231 0.24317 0.69977-0.34994-0.06896-0.5797-0.27924-1.1281-0.22521-1.7296 0.04586-0.50435 0.02666-1.203-0.0108-1.7668-0.30329-0.072887-0.87306 0.38042-0.97728-0.15294 0.1286-0.45972 0.80128-0.28308 1.1692-0.49806 0.37544 0.052642 1.1145-0.27221 1.1991 0.24694-0.06077 0.41117-0.98598-0.012609-0.86006 0.49525 0.04616 0.48728-0.05229 0.92593 0.01945 1.4005-0.0358 0.53067-0.05658 0.9937 0.09771 1.4922 0.05282 0.31965 0.05974 0.73283 0.20699 0.92444 0.27946-0.086872 0.89007-0.27898 0.94036 0.20984-0.1622 0.41905-0.58167 0.086031-0.90789 0.27047-0.14352 0.010023-0.30008 0.033063-0.4381 0.018312zm3.4405-0.059244c-0.34462-0.092216-0.75161-0.29475-0.74001-0.70856 0.09321-0.34815 0.61606-0.65566 0.50853-0.048291 0.23528 0.47628 0.82324 0.22756 0.87142-0.23175 0.23162-0.29558 0.44178-0.84118 0.05688-1.1274-0.26087-0.19704-0.4798-0.20823-0.75176-0.1165-0.33875-0.024132-0.86832 0.12168-0.96115-0.35054-0.37792-0.38015-0.38427-0.89166-0.27857-1.3838 0.23968-0.41617 0.51364-0.90879 1.0644-1.0137 0.55653-0.055998 1.0173 0.37856 1.2464 0.83691 8e-3 0.42565-0.4739 0.21483-0.59926-0.048314-0.20755-0.29631-0.70998-0.37442-0.91747-0.00968-0.26928 0.36309-0.48201 0.65012-0.27234 1.0985 0.12896 0.38322 0.4478 0.37406 0.80356 0.33751 0.60936-0.2558 1.1556 0.30434 1.3755 0.83417 0.10625 0.67878-0.26478 1.2931-0.71051 1.7848-0.21641 0.069063-0.4463 0.23062-0.69565 0.14668zm3.5242-0.52717c-0.29094-0.24902-0.051716-0.77464-0.18696-1.1297-0.15689-0.7222-0.007921-1.5448-0.21908-2.2246-0.16998-0.27397 0.11654-0.92999-0.40865-0.80829-0.30668 0.02789-0.75121 0.18835-0.8408-0.043256-0.18491-0.47416 0.49948-0.37455 0.82818-0.48326 0.56103-0.0082515 1.1199 0.24737 1.6686 0.071909 0.30801-0.1573 0.74622 0.39423 0.38533 0.5206-0.41159 0.036756-0.83952 0.043896-1.2175 0.12927 0.08994 0.84817 0.23029 1.6894 0.27608 2.5539 0.03544 0.45837 0.2447 0.86833 0.01153 1.3095-0.05337 0.059892-0.24957 0.12115-0.29681 0.10398zm-28.34-0.012903c0.02097-0.039689 0.02285 0.037884 0 0z" stroke-width=".051895"/></svg>
