<?xml version="1.0" encoding="UTF-8" standalone="no"?>
<svg
   width="150"
   height="118"
   version="1.1"
   viewBox="0 0 39.687963 31.220844"
   xml:space="preserve"
   id="svg1"
   sodipodi:docname="aside-birding-legend-logo.svg"
   inkscape:version="1.3.2 (091e20e, 2023-11-25)"
   xmlns:inkscape="http://www.inkscape.org/namespaces/inkscape"
   xmlns:sodipodi="http://sodipodi.sourceforge.net/DTD/sodipodi-0.dtd"
   xmlns="http://www.w3.org/2000/svg"
   xmlns:svg="http://www.w3.org/2000/svg"><defs
     id="defs1" /><sodipodi:namedview
     id="namedview1"
     pagecolor="#ffffff"
     bordercolor="#000000"
     borderopacity="0.25"
     inkscape:showpageshadow="2"
     inkscape:pageopacity="0.0"
     inkscape:pagecheckerboard="0"
     inkscape:deskcolor="#d1d1d1"
     inkscape:zoom="1.9074074"
     inkscape:cx="-113.24272"
     inkscape:cy="95.941748"
     inkscape:window-width="1920"
     inkscape:window-height="1027"
     inkscape:window-x="0"
     inkscape:window-y="25"
     inkscape:window-maximized="0"
     inkscape:current-layer="svg1" /><path
     style="stroke-width:1.52928"
     d="m 26.679233,28.904974 c -0.245353,0.366731 0.330812,0.568274 -0.637095,0.618287 -1.234623,0.06379 -4.076675,-0.07578 -4.559935,0.03327 -0.581302,0.07585 -1.396757,0.06645 -1.824477,-0.01146 -1.069664,-0.128032 -1.702642,0.01262 -3.224229,0.02063 -1.048834,0.104579 -4.091881,-0.382176 -3.292557,-0.612046 0.562161,-0.32845 3.742133,0.23794 4.406439,-0.05502 1.369999,-0.382322 2.768313,0.08802 4.179814,-0.09043 z"
     id="path7-0"
     sodipodi:nodetypes="csccccccc" /><path
     id="path6"
     style="stroke-width:2.27568"
     d="m 17.593827,26.535977 c -0.560023,-0.19473 -0.499808,-1.671604 -0.879461,-1.330092 -0.679474,0.768703 -2.290476,1.52216 -2.798864,0.26473 -0.503564,-0.471203 -0.617689,-1.280823 -1.018118,-1.919153 -0.117243,-1.820161 -0.06226,-3.619248 0.536151,-5.342396 0.491001,-1.287878 2.488233,-1.705216 3.568046,-0.76356 0.542568,0.400656 0.414152,2.017803 -0.311133,1.216284 -0.128553,-1.017322 -1.436001,-1.028154 -2.033187,-0.486017 -0.553469,0.226112 -0.329019,0.922015 -0.710377,1.063928 -0.337029,1.17646 -0.413015,2.651399 -0.2653,3.899385 0.365863,0.707488 0.509595,1.831562 1.281893,2.159169 1.392173,-0.246639 1.834384,-1.67636 1.776831,-2.87692 0.748678,-1.251422 1.107554,0.611271 0.891045,1.357787 -0.249961,0.89266 0.303304,1.551494 0.590267,2.351465 -0.143618,0.307832 -0.208771,0.68514 -0.627748,0.40523 z M 9.0827671,26.141246 C 8.0881564,26.258877 7.2377553,25.695075 7.2021637,24.701943 6.857898,23.531423 7.1329629,21.963841 6.7833474,20.711531 c -0.3190284,-0.880325 -0.012968,-1.352848 0.2898995,-1.889 0.1730202,-0.888655 1.4191162,-0.865352 2.248717,-0.873135 0.9480271,-0.335003 1.5213401,0.350069 1.0746691,0.751432 0.521723,0.489135 -1.1687907,-0.359263 -1.2181966,0.197437 -1.0176397,0.153837 -1.7872083,0.378879 -1.4019579,1.723354 0.00635,0.903151 0.1049527,1.463948 1.0456999,1.015273 1.1760742,-0.571924 1.3719866,1.082066 0.2912426,0.951942 -0.8315585,0.04215 -1.482063,0.317504 -1.1789646,1.201767 -0.087475,0.826528 0.7147244,1.050615 1.4270133,1.231532 0.7268763,-0.114353 1.8063023,0.508296 0.9293673,1.062813 -0.3848864,0.119382 -0.8107122,0.05177 -1.2080699,0.05619 z M 21.787914,25.949274 c -1.057784,0.211752 -2.126605,-0.602305 -2.245418,-1.625886 0.38632,-1.990677 -0.970989,-4.629425 1.067956,-6.036708 0.945956,-0.331726 1.859007,-0.848261 2.831633,-0.473 0.01456,1.143007 -1.357764,0.601645 -2.064068,1.158959 -0.931847,0.289741 -1.128147,1.788143 -0.789435,2.498702 0.570651,-0.04804 2.127469,-0.142162 1.84203,0.397039 -0.362585,0.517719 -1.024581,0.689214 -1.883174,0.649662 -0.13488,0.681477 0.03298,1.402869 0.04269,1.824462 0.07826,0.893752 1.762676,0.46094 2.590184,0.542705 1.061357,-0.55356 1.071005,1.23003 0.104953,0.837293 -0.353528,0.14182 -1.139072,-0.05446 -1.497332,0.226841 z m 12.300074,-0.124651 c -0.729289,-0.634962 0.06035,-1.722738 -0.287145,-2.6935 -0.157365,-1.770779 -0.01274,-3.504098 -0.306035,-5.201304 1.310771,-0.847351 3.011641,-0.288056 4.392527,0.218283 1.10737,0.782335 2.137094,1.997141 1.696226,3.529586 -0.218534,1.243617 -0.980228,2.283878 -1.816679,3.157286 -0.708511,0.714792 -1.598918,0.864714 -2.551269,1.099337 -0.361311,-0.06911 -0.812261,0.108004 -1.127557,-0.109893 z m 1.585515,-0.885286 c 1.786139,-0.419751 2.673701,-2.009043 3.033487,-3.667038 -0.197712,-1.025492 -0.481329,-2.171185 -1.676178,-2.511218 -0.627247,-0.002 -1.73571,-0.605742 -2.261757,-0.171564 -0.112555,1.533698 -0.134379,3.155691 -0.05175,4.515186 0.442028,0.320029 -0.07196,2.2636 0.956084,1.834611 z M 0.65071882,25.630712 C -0.54981854,24.726492 0.31906058,22.95701 0.11390767,21.6758 c -0.0549806,-0.858069 -0.14989939,-1.784911 0.0111508,-2.402213 0.30207433,-1.55081 -0.20972705,-3.246718 0.2979099,-4.717266 -0.67166825,-0.614776 0.64422343,-1.935606 0.90904483,-0.74251 0.4375686,0.856636 -0.39119021,1.439302 -0.017523,2.441582 0.436317,2.043679 -0.41510751,4.039112 -0.2902408,6.122046 0.1131925,0.798697 -0.70821567,2.592233 0.7512944,2.32575 1.1629886,0.108413 2.5476288,-0.244614 3.4874865,-0.348044 0.5883325,0.437774 -0.2121393,1.179784 -0.8451437,1.017437 -0.9764051,-0.0055 -1.959114,0.265481 -3.0337149,0.120951 -0.2405626,0.06472 -0.48005561,0.325219 -0.73370341,0.136975 z M 25.842546,25.495471 c -0.43461,-1.486887 0.24277,-2.994573 -0.0098,-4.513365 0.142617,-0.915371 -0.02362,-1.960048 0.307127,-2.77497 0.660403,-0.526844 1.597621,-0.564347 1.947803,0.368342 0.490092,0.89489 0.701753,1.915261 1.090349,2.817297 0.346109,0.649048 0.28487,1.178714 0.82316,1.794127 0.200375,0.141571 0.690898,1.496309 0.781698,0.65781 0.02667,-1.855252 0.142935,-3.791974 -0.511005,-5.503743 -0.539702,-0.51963 0.692537,-1.49071 0.829623,-0.520359 0.120453,0.470226 -0.116742,1.195282 0.244386,1.596143 0.147806,1.808919 0.584441,3.877994 -0.07198,5.696721 -0.578138,0.758054 -1.236653,-0.271466 -1.539751,-0.77478 -0.930938,-1.286103 -1.26635,-2.959982 -1.939658,-4.450555 -0.03316,-0.492094 -0.783494,-1.697661 -0.744489,-0.5491 -0.04592,1.403141 -0.524227,2.673474 -0.368911,4.002245 -0.353209,0.758304 0.485972,2.317786 -0.787979,2.261804 z" /><path
     id="path1"
     style="stroke-width:1.8564"
     d="M 1.6785123,11.583847 C 0.73912048,11.463532 0.51161916,10.646256 0.61305261,9.8103578 0.43518578,9.1121668 0.51317296,8.4293298 0.40931319,7.8019228 0.31053439,6.2899818 0.11425768,4.5872035 0.18836499,2.9879175 0.29450255,2.2347405 -0.14578623,0.82818749 0.90732848,0.74464949 c 0.52695642,-0.521481 1.20457792,-0.94834 1.98708582,-0.511641 0.9856347,0.234202 1.761441,1.29370301 2.1406098,2.08120501 0.4822916,1.199324 0.1152915,2.5280403 -0.9362731,3.2834063 0.8246852,0.290935 1.9417898,0.71785 2.0758216,1.678275 0.349021,1.010529 -0.2604151,1.845499 -0.7297862,2.618632 C 4.6868943,11.052045 3.2523831,11.69731 1.8931303,11.661222 L 1.7431279,11.607182 Z M 3.1941665,10.881331 C 3.5456936,10.584066 4.3613382,10.424472 4.5588216,9.9103438 5.0349499,9.2915508 5.3808335,8.6464908 5.2434231,7.8079748 5.2829421,7.0512148 4.7287189,6.5913858 4.0647975,6.4756588 3.4250279,6.0366768 2.2527697,6.1151648 1.4782815,6.2698778 c 0.034787,0.723251 -0.1023394,1.865677 0.00501,2.317152 -0.3962477,0.377257 0.22726,1.004087 -0.095833,1.4458732 -0.43305992,0.464192 0.4674776,0.770813 1.0080229,0.788652 0.2482743,0.06891 0.5873079,0.18501 0.7986956,0.05974 z M 2.107841,5.3579968 C 2.991114,5.4762868 4.0698655,5.0393098 4.107179,4.0950165 4.087485,3.3282685 4.3729221,2.3252955 3.7665676,1.7555865 3.2839976,1.0994435 1.6629001,0.58455349 1.2088257,1.6415855 1.082691,2.0224245 0.98254958,2.6098815 1.1001041,3.0608365 c 0.1307125,0.651763 0.052989,1.6575213 0.2270928,2.1846073 -0.088883,0.442416 0.5739604,-0.02336 0.7806515,0.112527 z m 11.68768,6.1897802 c -0.456302,-0.778052 -0.749037,-1.6455832 -1.110645,-2.3811982 -0.396414,-1.13799 -0.621037,-2.852353 -0.27146,-4.193412 0.805732,-0.9599063 2.787935,-1.3116373 3.386066,0.04216 0.471413,0.697466 -0.04888,1.461893 -0.35149,2.044262 0.822197,0.767565 1.220858,1.776553 1.537764,2.741711 -0.0315,0.5763922 1.042199,1.0461532 0.235873,1.4833162 -0.623823,-0.0403 -0.795855,-0.581665 -0.789841,-1.069952 -0.384348,-0.8471472 -0.57253,-2.0047222 -1.494862,-2.6071222 -0.536926,0.2327 -1.574891,0.558423 -1.167543,1.386728 0.230694,0.664942 0.2663,1.4360702 0.561374,2.1378242 -0.109843,0.235614 -0.190224,0.745046 -0.535162,0.415648 z M 13.662763,7.3903788 c 0.614077,-0.405771 1.404104,-0.704762 1.634835,-1.440117 0.257129,-0.682189 -0.586677,-1.4543933 -1.305232,-1.042552 -0.836158,0.04496 -1.010139,0.946501 -0.747644,1.628374 0.160665,0.177227 -0.01174,1.178385 0.418041,0.854295 z M 7.7260107,11.512457 C 6.9573701,11.177118 7.8977087,10.475085 8.3540851,10.262063 9.3561674,10.406456 8.5269173,9.0909008 8.653763,8.5290258 8.4957577,7.9811278 8.4865593,7.2466458 8.3018089,6.7397388 8.4530142,5.9327998 8.0239993,5.6313768 7.3152275,6.0123098 6.6755507,6.2432638 5.9320456,5.4405768 6.9932171,5.2487748 c 1.0229296,-0.106945 2.077121,-0.7537163 3.1341519,-0.443605 0.644875,0.437645 -0.2937553,0.923334 -0.7728538,0.928941 -0.8279896,-0.03281 -0.051908,0.967794 -0.1394097,1.50264 0.2066725,0.957362 0.2740225,1.794411 0.3879681,2.7905342 0.6007104,-0.2868132 1.7743234,0.02912 1.1734084,0.677955 -0.9618533,0.206339 -2.0754497,0.324907 -2.9507402,0.828492 z M 19.124279,11.16771 c -0.66871,-0.32654 -0.279685,-1.3976622 -0.495268,-2.1745822 -0.07425,-1.318654 -0.67777,-2.789235 -0.237526,-4.039517 0.411043,-0.5922653 1.259379,-0.8216043 2.019944,-0.7310673 0.691434,0.3969903 1.236341,0.8343943 1.833191,1.4140913 0.62464,0.849895 1.093009,1.89835 0.735133,2.968191 -0.198207,0.684434 -0.469353,1.6869432 -1.165074,1.7605312 -0.153598,0.447688 -1.064216,0.761289 -1.692829,0.769532 -0.350023,0.0043 -0.678067,-0.04283 -0.997571,0.03289 z m 1.600213,-0.660506 c 1.555716,-0.6726272 2.339244,-2.9793292 1.110867,-4.2071492 -0.578527,-0.917765 -1.733112,-1.9072613 -2.799073,-1.102959 -0.326689,0.487267 -0.149292,1.321252 -0.107225,1.76365 0.192006,0.955413 0.43137,1.94773 0.466084,2.812996 -0.131692,0.9096352 0.582761,1.0280352 1.329273,0.7335182 z m 6.055563,0.525009 c -0.741816,-0.221597 -1.752067,0.210627 -2.40756,-0.151207 -0.06206,-0.757075 1.220413,-0.467997 0.924634,-1.2028882 -0.222954,-1.569676 -0.42001,-3.193744 -0.486042,-4.804167 -0.421699,0.01563 -1.718336,0.491574 -1.272225,-0.4061613 0.740461,-0.530483 1.881271,-0.502916 2.759347,-0.338903 0.541695,1.0063893 -1.135929,0.255885 -0.694663,1.0218533 0.0089,0.260712 -0.04485,0.847129 0.07132,1.581537 0.157014,1.156034 0.445257,2.129843 0.443047,3.3145952 0.337085,0.185862 0.94485,-0.4336172 1.086975,0.08557 0.122913,0.188963 0.138952,1.003791 -0.42478,0.899813 z m 12.340798,-0.374505 c -0.593695,-0.263107 -0.253398,-1.7232372 -1.149777,-0.9425672 -0.604852,0.3427282 -1.698287,0.234798 -1.994698,-0.549474 -0.496363,-0.49523 -0.8687,-1.213674 -1.022186,-1.872917 0.01634,-1.238848 0.552407,-2.355024 1.229267,-3.2757973 0.611163,-0.717496 1.765656,-0.797024 2.52507,-0.166893 0.564084,0.193771 0.687534,2.0529883 -0.09458,1.7401303 -0.526883,-0.421848 0.127552,-1.1173843 -0.717015,-1.3880463 -1.056048,-0.0881 -1.386579,0.8498573 -1.909117,1.4848383 -0.264518,0.842172 -0.41017,1.724164 0.14465,2.570366 0.230026,0.900463 1.980218,1.169658 2.130029,0.0081 -0.156958,-0.624789 0.669398,-1.564182 0.955227,-0.713934 -0.104497,1.020814 0.493485,2.070438 0.230973,3.0320522 0.02112,0.19739 -0.233517,0.08418 -0.32784,0.07416 z m -9.51904,-0.173751 C 29.116589,9.7160768 29.213789,8.6277098 29.074504,7.7689778 28.996684,6.9725658 28.73276,5.9687568 28.71466,5.0842578 28.336902,4.6414528 28.70185,3.7178955 29.39425,4.1728795 c 0.625066,0.263831 0.921533,0.9043243 1.466775,1.3865043 0.627183,0.919084 1.000504,1.778353 1.59882,2.691959 0.461389,1.041791 0.405716,-0.224437 0.383365,-0.884275 0.12733,-1.131899 -0.198709,-2.217835 -0.408835,-3.2919463 0.411118,-1.033066 0.864487,0.06874 0.968036,0.5587013 0.07903,0.666854 0.242223,1.411083 0.156867,2.063569 0.114817,0.90568 0.221022,1.934736 0.191505,2.895978 -0.199191,0.8111152 -1.062434,0.4765362 -1.29621,-0.161049 -0.728524,-0.809629 -0.997961,-1.798346 -1.659877,-2.694186 -0.264054,-0.672109 -0.668247,-1.06067 -1.230456,-1.547548 0.01522,1.378188 0.282153,2.687505 0.407719,4.015013 0.277996,0.348631 0.228059,1.6532692 -0.370165,1.2782582 z" /></svg>
