<?xml version="1.0" encoding="UTF-8" standalone="no"?>
<!-- Created with Inkscape (http://www.inkscape.org/) -->

<svg
   width="256"
   height="50"
   viewBox="0 0 67.733485 13.229167"
   version="1.1"
   id="svg1"
   xml:space="preserve"
   inkscape:version="1.3.2 (091e20e, 2023-11-25)"
   sodipodi:docname="coming-soon-text.svg"
   xmlns:inkscape="http://www.inkscape.org/namespaces/inkscape"
   xmlns:sodipodi="http://sodipodi.sourceforge.net/DTD/sodipodi-0.dtd"
   xmlns="http://www.w3.org/2000/svg"
   xmlns:svg="http://www.w3.org/2000/svg"><sodipodi:namedview
     id="namedview1"
     pagecolor="#ffffff"
     bordercolor="#000000"
     borderopacity="0.25"
     inkscape:showpageshadow="2"
     inkscape:pageopacity="0.0"
     inkscape:pagecheckerboard="0"
     inkscape:deskcolor="#d1d1d1"
     inkscape:document-units="mm"
     inkscape:zoom="1.5572619"
     inkscape:cx="149.62159"
     inkscape:cy="184.29784"
     inkscape:window-width="1392"
     inkscape:window-height="1027"
     inkscape:window-x="0"
     inkscape:window-y="25"
     inkscape:window-maximized="0"
     inkscape:current-layer="layer1" /><defs
     id="defs1" /><g
     inkscape:label="Layer 1"
     inkscape:groupmode="layer"
     id="layer1"><path
       style="fill:#000000;stroke-width:0.662061"
       d="M 8.145523,13.117669 C 7.4885105,13.06129 6.9957888,12.349894 6.8987772,11.760354 5.983793,10.251158 6.0015356,8.4274111 5.7495379,6.7315253 5.732002,5.2537042 5.6177813,3.7644973 6.2015228,2.3696839 6.3694226,1.6758147 6.6245123,1.334463 7.0474433,1.2334873 7.1573892,2.1670659 7.681616,0.58552015 8.3044177,0.78243784 9.5451257,0.8403306 10.292833,2.0073916 10.707227,3.0620378 c 0.480126,1.1810337 1.359831,2.2723423 1.115721,3.6155909 0.14134,1.5880629 -0.365532,3.1092847 -0.889833,4.5603323 -0.5507,0.832635 -1.3178367,1.764937 -2.3416917,1.965386 -0.1486334,-0.02856 -0.2972669,-0.05712 -0.4459003,-0.08568 z M 9.5589931,11.96729 C 10.137,11.531407 10.45684,10.698917 10.553197,10.005283 10.75414,8.4877272 10.952884,6.9247635 10.822663,5.3935477 10.660491,4.3604996 10.163471,3.4340527 9.7805801,2.4825136 9.3337053,1.7591775 8.8052025,1.2051783 7.887922,1.4576879 7.0882316,1.844078 6.4997387,2.4303473 6.6099436,3.3833924 6.4450834,5.2549472 6.262642,7.1268682 6.6306849,8.9873246 6.827569,10.004263 7.0268516,11.015785 7.5468825,11.939944 c 0.5605897,0.447039 1.4641008,0.510185 2.0121106,0.02735 z m 3.3915639,0.988167 c -0.118739,-1.353732 0.564658,-2.657676 0.548931,-4.0311965 0.245937,-2.377133 0.480928,-4.7542063 0.563147,-7.1435725 0.744699,0.061979 1.471408,-0.3969791 1.728848,0.6506327 0.450175,0.8109756 0.589758,1.8748016 1.016668,2.6139136 0.453534,-1.0457973 0.454017,-2.356291 1.357749,-3.13906 0.85347,-0.04676 1.283192,0.9675698 1.347005,1.7111737 0.343292,2.0047431 0.03911,4.0754635 0.06283,6.1060419 -0.08402,0.9780641 0.07142,1.9934331 -0.180998,2.9452611 -1.039235,0.01899 -0.39829,-1.34649 -0.555439,-1.995242 0.01876,-2.3098268 0.09896,-4.6379189 0.0031,-6.9369936 C 18.716428,2.3338996 17.912121,3.0731166 17.817345,4.0619577 17.554783,5.212897 16.905491,6.2395662 16.813616,7.4139798 16.624611,8.4401703 15.827499,7.4351176 16.046549,6.8204475 15.868054,5.4241073 15.783704,3.9887307 15.226646,2.6780201 c -0.547947,1.3196312 -0.234915,2.8694764 -0.57463,4.2651677 -0.36584,2.0460908 -0.746612,4.0984262 -1.240004,6.1153582 -0.175787,-0.01703 -0.46217,0.22968 -0.461455,-0.103089 z M 1.5003849,12.66983 C 0.97786289,12.246774 0.41280988,11.969755 0.4002726,11.136992 -0.31557873,9.5843651 0.12806492,7.8401727 0.01821332,6.1874242 0.13956726,4.8811408 0.23026513,3.5877607 0.62312231,2.357553 0.97508123,1.0460869 2.3618488,-0.1243364 3.7415531,0.4855001 4.5440081,0.71198616 4.8136153,1.5604785 4.7151368,2.3268868 4.9771978,3.4684607 3.7036131,3.4231237 3.9466718,2.2956647 3.7715419,1.7736366 3.1553928,0.79548587 2.5007772,1.0926158 1.1815534,1.5241337 1.0727338,3.0422384 0.85087648,4.203075 0.43898711,6.0239441 0.83197852,7.9261435 0.77028629,9.7823988 0.71663588,10.694705 1.2732939,11.512104 1.8889629,12.138982 2.9607591,12.179296 3.6099217,11.165108 3.8377779,10.266418 3.4008883,9.5453687 4.3497024,8.4760862 4.4305565,9.6977099 4.5951292,10.783785 4.0771013,11.820817 3.3221228,12.57607 2.7637114,12.846181 2.0411399,13.122421 1.5003849,12.66983 Z m 20.1235891,0.0439 c -0.918087,-0.606496 0.865247,-0.490123 1.030261,-0.817361 0.256804,-1.358141 0.03989,-2.8375071 0.103212,-4.2423225 -0.04991,-1.8421977 -0.09995,-3.6841338 -0.208595,-5.5237849 -0.563104,-0.073463 -1.536898,0.859025 -1.79608,-0.038352 0.423428,-1.0215305 1.727587,-0.6136835 2.626972,-0.7786286 0.739248,-0.012341 1.950177,-0.42467555 1.21915,0.5538786 -0.676103,0.1523687 -1.848604,-0.00862 -1.434218,1.0216538 0.217765,3.0408154 0.330508,6.08637 0.281058,9.1350945 0.672949,0.05028 1.74948,-0.257786 2.186404,-0.05884 0.07625,0.889514 -1.329905,0.619658 -1.946687,0.749216 -0.67891,-0.0729 -1.460351,0.302216 -2.061477,-5.49e-4 z m 5.997561,-0.292598 C 27.040792,10.789155 27.555967,8.9015231 27.04188,7.2180215 26.991805,5.2434771 26.394986,3.3252439 26.464996,1.3455534 c 0.612359,0.1186789 0.879122,-0.62318051 1.24004,0.2393349 0.138125,1.8650102 1.399075,3.3484416 2.125323,5.0165772 0.616766,1.2579835 1.332732,2.5929543 2.239489,3.6006745 C 31.87021,7.5401047 31.482483,4.8788846 31.42807,2.2142172 c -0.237265,-0.7550886 0.495001,-1.77623421 0.8524,-0.6270354 0.276477,0.8028728 0.04193,1.7341261 0.341249,2.5676953 0.299189,2.338668 0.687029,4.7141093 0.541357,7.0724049 0.05812,1.28776 -0.926719,0.427483 -1.359952,-0.10871 C 30.803586,9.6115312 29.759843,8.0940283 29.042851,6.4071896 28.708005,5.6244567 28.2671,4.8945033 27.873988,4.1407661 c -0.333198,1.6269033 0.118914,3.2405762 0.09434,4.872767 0.145264,1.1559739 0.140917,2.3185499 0.12988,3.4814199 -0.179149,-4.96e-4 -0.390226,0.19117 -0.476672,-0.07382 z m 16.508351,0.02589 c -1.343316,-0.128695 -2.068661,-1.748593 -1.601585,-2.9175321 0.77944,-0.06556 0.332707,1.0612391 0.710161,1.4679431 0.494572,1.090039 2.017563,0.870383 2.821299,0.297636 0.760247,-0.644416 1.107257,-1.6490137 0.866042,-2.6211007 C 46.818529,7.8993805 46.346505,6.6663441 45.347172,7.0122653 44.473072,7.1785934 43.454323,7.3557868 42.862916,6.5145671 41.87416,5.7415583 41.850874,4.3705674 42.015284,3.2411895 42.179768,1.8033734 43.107225,0.32814465 44.570786,0 c 0.77621,0.16401357 1.563207,0.56230771 1.785815,1.3938162 0.310471,0.4581429 0.370752,1.7185844 -0.252125,1.7452372 C 45.596275,2.5468804 45.772075,1.7279391 45.192138,1.1325309 44.543351,0.49623618 43.85723,0.89288994 43.393604,1.5104637 c -0.565556,0.8667006 -0.683257,2.0618861 -0.718957,3.0885019 0.171173,0.748108 0.524606,1.8893017 1.506267,1.6230911 0.927347,0.046073 1.954547,-0.2396836 2.665462,0.5256375 0.525053,0.825915 1.155115,1.775101 0.881905,2.8136389 -0.161971,1.1496439 -0.883689,2.4720319 -2.139222,2.6883409 -0.484645,0.142783 -0.952169,0.449424 -1.459173,0.197348 z M 39.03573,12.284381 c -0.209166,-0.715468 -0.0454,-1.758701 -0.872597,-0.675624 -0.909494,0.286041 -1.969439,0.245015 -2.622421,-0.562432 C 34.62742,9.7953739 34.677931,8.1049293 34.394358,6.6217324 34.338371,5.7529243 34.241172,4.887461 34.22886,4.0186327 34.338763,2.6057891 34.918923,1.194543 35.989147,0.24516086 c 0.879009,-0.34370606 2.172597,-0.0238922 2.324663,0.99624454 -0.131181,1.019428 0.561039,2.0715251 0.0484,3.0189549 -0.76496,-0.1845434 -0.517084,-1.3401224 -0.65172,-1.9697106 -0.0046,-0.7328049 -0.400979,-1.6940864 -1.274877,-1.52098963 -1.57563,1.26212763 -1.534947,3.42231513 -1.362477,5.24904973 0.205803,1.2812815 0.282955,2.6119519 0.577405,3.8651834 0.164292,0.8581368 1.227352,1.5257638 1.993395,1.1055608 1.02033,-1.0062004 0.398991,-2.7231285 1.197521,-3.8250583 0.9366,0.027198 0.439394,1.3855237 0.639211,2.0282802 0.05791,1.0826081 0.153505,2.1670271 0.109149,3.2516621 -0.205647,-0.02773 -0.455723,0.09759 -0.554088,-0.159957 z M 57.790253,11.762095 C 56.829622,11.255727 56.553902,10.0062 56.251774,9.0249985 56.091634,7.359134 56.240714,5.6616134 55.859609,4.0109467 c 0.143455,-0.9421548 0.002,-2.1952496 0.78057,-2.7831184 0.2649,-0.97550076 1.175152,-0.61936009 1.934728,-0.57412977 1.281445,0.29149342 2.004512,1.54302027 2.298864,2.74449467 0.422238,1.3002643 0.32683,2.7142898 0.571698,4.051262 -0.128321,1.374186 -0.220306,2.8594858 -1.249578,3.8892268 -0.515801,0.613457 -1.713771,0.829941 -2.405638,0.423413 z m 1.411781,-0.603648 c 1.591928,-1.01697 1.648148,-3.1621449 1.506647,-4.8640719 0.04685,-1.7743795 -0.284041,-3.771009 -1.767415,-4.9300866 -0.675805,-0.38287248 -1.656768,-0.62419857 -2.021836,0.2870688 -0.568529,1.3394879 -0.258386,2.8497969 -0.137565,4.216376 0.05629,1.4353617 -0.139986,2.9182323 0.572612,4.2301367 0.315372,0.617376 1.092687,1.541976 1.847557,1.060577 z m 7.513727,0.552212 C 66.421078,10.619841 66.567462,9.362456 66.239414,8.2328759 65.833183,6.4490007 64.764957,4.8807213 63.593834,3.5036178 62.857219,2.4554142 63.310352,4.3038271 63.285676,4.7795544 c 0.244056,2.2161549 0.322367,4.4630609 0.41783,6.7118396 -0.714347,0.86882 -0.764587,-0.664587 -0.779708,-1.226423 C 62.91051,7.5250009 62.550306,4.8091121 62.44554,2.0742263 61.660639,1.2462877 63.061725,0.69453213 63.598052,1.2673346 c 0.843268,0.5676342 0.907245,1.7483878 1.64658,2.447919 0.251133,0.9097318 0.908522,1.7682262 1.139071,2.6911145 0.448822,0.5737643 0.153138,-1.3549544 0.200119,-1.8577212 0.02859,-1.1916402 -0.190627,-2.4600185 -0.0071,-3.60368609 0.488926,-0.54913161 1.176448,0.35811049 1.000268,0.95371489 -0.03648,0.7015934 -0.04311,1.7885521 -0.200932,2.1831526 0.300454,0.594059 0.04989,1.4929459 0.143368,2.198588 -0.03028,1.778132 0.118154,3.5859454 -0.02217,5.3458037 0.04216,0.273006 -0.711328,0.284619 -0.781468,0.08444 z m 0.676773,-8.8022282 c -0.286712,-0.5211031 -0.323732,0.7538009 0,0 z M 51.278577,11.316595 c -1.144533,-0.225884 -1.827596,-1.307126 -1.739661,-2.4381104 -0.01716,-1.2528494 -0.555747,-2.416047 -0.351205,-3.6685854 -0.02218,-1.4315766 0.588475,-2.8174337 0.929119,-4.125752 0.453377,-0.085062 1.196379,-0.28840386 1.931705,-0.29917364 1.156907,0.62190494 1.346281,2.02943304 1.971568,3.08300324 0.234744,1.492104 0.520752,2.9891934 0.147702,4.484363 -0.09516,1.1314027 -0.479538,2.4735162 -1.558083,2.9888732 -0.4454,0.0027 -0.909351,0.188224 -1.331145,-0.02462 z m 1.22982,-0.806152 C 53.780852,9.0657145 53.285624,6.9555453 53.23768,5.1890939 52.998025,3.8942625 53.07032,2.107631 51.739701,1.4576283 c -1.392723,-0.029444 -1.537104,1.617397 -1.782603,2.6542306 -0.06225,1.8199414 -0.006,3.7220007 0.393701,5.5016902 0.192712,0.8711119 1.436419,1.3191179 2.157598,0.8968939 z"
       id="path1" /></g></svg>
