<?xml version="1.0" encoding="UTF-8"?>
<svg width="139" height="40" version="1.1" viewBox="0 0 36.777 10.583" xml:space="preserve" xmlns="http://www.w3.org/2000/svg"><path d="m1.8319 10.583c-0.31191-0.018585-0.41412-0.26609-0.67531-0.31273-0.11661-0.21622-0.28826-0.3096-0.48825-0.41609-0.15564-0.2497-0.33188-0.51255-0.33628-0.76479-0.13489-0.28632-0.1422-0.71703-0.20367-0.90367-0.063144-0.15008-0.048849-0.61008-0.10412-0.7258-0.079366-0.29015 0.0013204-0.44291-0.05125-0.82003-0.068272-0.30015-0.14458-0.57508-0.10388-0.81653-0.069273-0.32148 0.10848-0.65764-0.0058197-0.9384 0.050377-0.33591-0.019878-0.63206 0.15184-0.96724-0.02497-0.32698 0.11168-0.38621 0.054105-0.6299 0.0074565-0.42455-0.026571-0.87398 0.27257-1.2221 0.092151-0.43136 0.51757-0.89739 0.8635-1.039 0.31495-0.25185 0.80874-0.19443 1.2118-0.20036 0.43878 0.071491 0.98598 0.10288 1.1663 0.57315 0.2708 0.09557 0.37761 0.32389 0.50497 0.53049 0.085149 0.23082 0.10697 0.44159 0.20608 0.68893 0.074838 0.2285 0.14198 0.70933-0.25183 0.6311-0.30725 0.13374-0.2969-0.4121-0.38252-0.58431-0.023479-0.49613-0.39885-0.96669-0.83656-1.2041-0.267-0.15871-0.59022-0.11825-0.99116-0.11117-0.44903 0.033645-0.75977 0.49843-0.9554 0.90043-0.18925 0.36734-0.089841 0.82935-0.21032 1.1878 0.068327 0.21771-0.10603 0.59395-0.12958 0.84345-0.0081839 0.76722-0.053359 1.6179 0.04312 2.3007 0.04363 0.35558 0.074219 0.79884 0.13314 1.1782 0.029953 0.41413 0.21873 0.90542 0.25843 1.3053 0.043066 0.33546 0.43039 0.50553 0.62654 0.71956 0.24833 0.24472 0.51875 0.31832 0.84888 0.14122 0.18682-0.097898 0.41066-0.43599 0.63687-0.57452 0.16744-0.30744 0.42171-0.51432 0.44006-0.81442 0.097916-0.28707 0.22463-0.55578 0.17996-0.86367 0.016913-0.35956 0.41876-0.56836 0.52962-0.14186 0.14411 0.1243 0.15397 0.2826 0.019278 0.43707-0.070273 0.33876 7.747e-4 0.37481-0.07913 0.61079-0.15393 0.13807-0.1536 0.39731-0.24627 0.47097-0.11203 0.33736-0.38674 0.60238-0.62973 0.82532-0.16193 0.32022-0.55227 0.35837-0.70656 0.51533-0.18083 0.089987-0.50826 0.24963-0.75945 0.19104zm0.37713-0.09895c-0.023315-0.04416-0.025407 0.04216 0 0zm-1.7306-6.2914c-0.023315-0.044157-0.025407 0.042156 0 0zm3.7667-1.2013c-0.023315-0.044157-0.025407 0.042156 0 0zm0.04072 0c-0.023315-0.044157-0.025407 0.042156 0 0zm2.6672 7.4842c-0.25817-0.076438-0.39301-0.43139-0.65153-0.50339-0.16524-0.098571-0.26025-0.36714-0.34088-0.47564 0.014004-0.32324-0.30589-0.58586-0.19126-0.91809-0.21938-0.02788-0.16415-0.56009-0.16995-0.78516 1.145e-4 -0.43542-0.12698-0.92053-0.082712-1.3799 0.08013-0.49342 0.031681-1.0599 0.12878-1.4983 0.077147-0.20938-0.061816-0.36668-0.028426-0.73822-0.073074-0.49847 0.20373-0.84329 0.22475-1.274 0.0083658-0.32364 0.082858-0.79093 0.19141-1.105-0.021187-0.29236 0.1183-0.47277 0.45787-0.47217 0.17412 0.36335 0.19413-0.032481 0.4688-0.23359 0.3368-0.12192 0.64465 0.14073 0.99048 0.14335 0.27136 0.16326 0.6293 0.32086 0.74438 0.60561 0.32139 0.35838 0.68376 0.70413 0.73405 1.2063-0.15044 0.10825 0.36998 0.6112 0.10852 0.85153 0.19013 0.16188 0.06318 0.41999 0.14535 0.66106 0.15022 0.29669 0.11774 0.51811 0.12765 0.90543 0.10517 0.26975 0.08564 0.55981-0.067908 0.83563-0.13591 0.030244 0.083076 0.4733-0.080821 0.43666 0.15186 0.37545-0.012185 0.97162-0.23152 1.3042-0.16857 0.2957-0.43669 0.6863-0.56826 1.0553-0.095552 0.18176-0.35467 0.2679-0.3518 0.43282-0.21108-0.065381-0.051159 0.25708-0.28681 0.41436-0.28227 0.45956-0.79113 0.42576-1.2605 0.551l-0.00964 5.75e-4zm0.40178-0.61527c0.48287-0.09437 0.58781-0.5676 0.86723-0.91778 0.15666-0.18271 0.23714-0.46157 0.41323-0.67264 0.19713-0.21807 0.27955-0.50472 0.40352-0.73814 0.05145-0.18595 0.0098207-0.41538 0.045739-0.61792 0.025789-0.32755 0.15675-0.7176 0.18087-1.0311-0.0081839-0.37724-0.045612-0.74732-0.12189-1.1506-0.073983-0.49039-0.11147-1.0216-0.24713-1.4421 0.059779-0.29135-0.26584-0.56981-0.23307-0.67542-0.23755-0.066766-0.31262-0.43443-0.52564-0.53435-0.23697-0.20237-0.65953-0.5192-1.0492-0.39587-0.3564 0.09928-0.45026-0.083494-0.51658 0.37041-0.060125 0.59781-0.1749 1.144-0.29813 1.7478-0.050849 0.25301-0.058106 0.58716-0.018314 0.83793-0.040301 0.38233-0.012367 0.71784-0.07431 1.0132 0.027189 0.20599-0.053505 0.54142-0.0357 0.8458-0.055214 0.60915 0.12982 1.1759 0.074565 1.7655 0.054432 0.41734 0.32184 0.79442 0.29428 1.1566 0.16048 0.079421 0.47634 0.26638 0.43629 0.33959 0.15748-0.010003 0.26682 0.17506 0.40419 0.098989zm-0.68682-0.35577c-0.07862-0.056615-0.096207 0.091278 0 0zm1.6492-0.57809c-0.058251-0.013822 1.964e-4 -0.00691 0 0zm-2.6672-0.58027c-0.023315-0.044157-0.025388 0.042156 0 0zm4.0517-3.4816c-0.023315-0.044157-0.025389 0.042156 0 0zm-3.4002-1.4456c-0.023315-0.044157-0.025388 0.042156 0 0zm-0.16966-1.9376c-0.093642-0.027407 0.026443 0.060125 0 0zm5.6844 8.6734c-0.16441-0.09395-0.3892-0.34349-0.30849-0.66049 0.12047-0.44263 0.07869-0.92638 0.0503-1.3861-0.05025-0.62524-0.17061-1.3652-0.17326-2.0579 0.06676-0.28671 0.07935-0.5876 0.04752-0.85522-0.04821-0.35925-0.12296-0.5509-0.11778-0.94579-0.11192-0.3756-0.10806-0.81908-0.15031-1.213 0.0493-0.49566-0.10301-1.0136-0.11876-1.4773 0.30387-0.17135 0.75437-0.38462 1.0129-0.013094-6e-3 0.22016 0.2965 0.43001 0.23355 0.6161 0.1225 0.10559 0.27046 0.39783 0.38234 0.62449 0.30254 0.30486 0.3843 0.68847 0.60618 1.0327 0.10017 0.19156 0.17412 0.43135 0.29309 0.62802 0.10963 0.26304 0.25771 0.55835 0.37301 0.91622 0.13025 0.30419 0.15779 0.70754 0.30556 1.0653 0.22875 0.47964 0.41873 0.90496 0.64144 1.4057 0.10197 0.13629 0.1222 0.5206 0.33595 0.57204-0.012-0.56769-0.07998-1.2008 0.06616-1.6999-0.06769-0.16341 0.01255-0.63392 0.03052-0.91727-0.13214-0.35693-0.02482-0.62405-0.10725-0.93177-0.05778-0.57319-0.0082-1.1518-0.12892-1.6466 0.01018-0.19372 0.07871-0.35576-0.03368-0.57339-0.04017-0.19106 0.07957-0.26437-0.02966-0.63911 0.07035-0.34563-0.11828-0.62953 0.07049-0.90612-0.09904 0.00837 0.17472-0.28394 0.38474-0.11026 0.17328 0.12294 0.16213 0.41192 0.10879 0.65209 0.27274 0.22926-0.07787 0.1883 0.06353 0.5891 0.09892 0.24901 0.02512 0.68607-0.06604 0.76214 0.16004-0.10403 0.06111 0.40997 0.14704 0.63208 0.15608 0.16881-0.02153 0.51788 0.05558 0.70753 0.03686 0.30959 0.11057 0.72873 0.08033 1.1226 0.04903 0.4855 0.1099 0.90692-0.07758 1.4006 0.12225 0.53608-0.06425 1.1761 0.06451 1.7431 0.06665 0.35242-0.03616 0.78166-0.07447 0.97609-0.04865 0.26034-0.31387 0.2322-0.42173 0.35683-0.34449-0.069166-0.3468-0.56069-0.52937-0.77454-0.076584-0.24512-0.20024-0.47615-0.33595-0.68131-0.10068-0.23014-0.21023-0.48141-0.29523-0.68206-0.11145-0.18611-0.1282-0.35524-0.26468-0.56936-0.18112-0.25644-0.29656-0.66412-0.38675-0.97797-0.16177-0.25139 0.006547-0.52254-0.20159-0.70248-0.16573-0.40194-0.29915-0.80721-0.4996-1.19-0.096098-0.30301-0.22161-0.57611-0.41959-0.87973-0.099335-0.23797-0.1819-0.29804-0.323-0.54117-0.1109-0.20217-0.30368-0.39989-0.28639-0.63561-0.29155-0.23242 0.09291 0.31625-0.09792 0.45346 0.06434 0.058106-0.01951 0.44834 0.04163 0.52292 0.02603 0.58318 0.19687 1.243 0.25408 1.877 0.02311 0.12478 9.3e-5 0.7546-0.0056 0.61717 0.04805 0.63679-0.07024 1.287 0.1358 1.8661-0.08202 0.23029 0.05932 0.53038 0.0151 0.75025-0.03115 0.2625 0.04096 0.4868-0.03763 0.75795 0.07386 0.16753-0.03561 0.53084-0.0014 0.8008-0.14917 0.015277-0.17015 0.3161-0.30734 0.21927zm3.9528-0.64801c-0.02332-0.044157-0.02539 0.042156 0 0zm-4.1026-0.47847c0.0205-0.092279-0.11832 0.092151 0 0zm0.31559-1.8235c-0.03712-0.10341-0.05083 0.12112 0 0zm3.3086-2.0857c0.02644-0.080494-0.06651 0.076002 0 0zm0.30541-3.0744c-0.09055-0.00782-0.04092-0.00564 0 0zm3.3086 7.9418c-0.18425-0.20672-0.19568-0.30761-0.16421-0.59931-0.03448-0.16668-0.03885-0.43806 0.05201-0.56281-0.09793-0.19883-0.08426-0.61688-0.014-0.92318-0.07593-0.7473-0.19956-1.5559-0.1584-2.2633-0.01491-0.372 0.08684-0.86895 0.10719-1.3051-6e-3 -0.31842 0.02853-0.69544-0.01091-0.98532 0.04008-0.31525 0.06193-0.52389 0.06451-0.74292 0.0065-0.44356 0.03143-0.85289-0.0033-1.2714-0.60973-0.041611-1.2582 0.2302-1.8681 0.075292-0.17504-0.24485 0.07735-0.68116 0.42851-0.50225 0.32446 0.023497 0.57404-0.11017 0.89367-0.04774 0.37382-0.075547 0.6348-0.14167 1.0101-0.1941 0.34236-0.10212 0.72695-0.040174 1.0781 0.050613 0.06165 0.13736 0.49-0.012731 0.67059 0.13958 0.37483 0.10595 0.4886 0.2311 0.4136 0.44458-0.19748 0.31475-0.61142 0.13009-0.87041 0.048012-0.26181-0.041411-0.54222-0.074565-0.77779-0.12725-0.5518-0.16401-0.24109 0.49071-0.33965 0.8051-0.0031 0.41552-0.0527 0.8618-0.06513 1.2208-0.03806 0.45217-0.12936 0.30493 0.0027 0.64761-0.04992 0.20443-0.02986 0.59431-0.04187 0.83862-0.06082 0.30923-0.07764 0.57907-0.04059 0.89254-0.11976 0.50098 0.02528 1.1582 0.08182 1.713 0.13098 0.40436-0.0025 0.80236 0.02161 1.1955 0.06447 0.33834 0.0073 0.52655-0.02199 0.80865 0.14358 0.43422-0.13964 0.49808-0.40782 0.66375h-0.0401zm0.44793-8.7868c-0.02332-0.044157-0.02539 0.042156 0 0zm-0.89586-0.38685c-0.02332-0.044157-0.02539 0.042156 0 0zm1.0282-0.11197c0.01-0.096607-0.07066 0.074783 0 0zm-0.0509-0.020369c-0.04661-0.088277-0.0508 0.084258 0 0zm0.11538-0.01364c-0.05454-0.026989 0.03039 0.087241 0 0zm0.10859 0.003455c-0.02332-0.044157-0.02539 0.042156 0 0zm1.1658 9.1515c-0.35137-0.056396-0.26162-0.42617-0.045994-0.48543 0.1574-0.42268 0.2666-0.7124 0.42757-1.1433 0.11868-0.26996 0.08653-0.3882 0.19733-0.64374 0.05045-0.35721 0.2942-0.70312 0.35239-1.0599 0.15844-0.47935 0.2443-1.0826 0.44333-1.5626 0.13049-0.28589 0.19763-0.37885 0.23168-0.72085 0.13831-0.17394 0.09139-0.61652 0.18381-0.73094 0.06465-0.32198 0.24526-0.55093 0.26163-0.82191 0.0493-0.25225 0.15919-0.33192 0.10324-0.49547 0.11298-0.2704 0.17821-0.57844 0.30335-0.81126 0.17736-0.24568 0.10892-0.70591 0.3679-0.96323 0.31444-0.14316 0.57149 0.060034 0.5076 0.41669 0.07867 0.3278 0.05547 0.81028 0.12394 1.1606 0.04338 0.1962 0.06456 0.41265 0.14309 0.56276 0.03957 0.2553 0.22843 0.44631 0.23573 0.67898-0.02446 0.093552 0.22313 0.27701 0.19687 0.6088 0.1874 0.37761 0.24164 0.91189 0.33846 1.3641 0.16244 0.54027 0.2742 1.1065 0.36625 1.6968 0.0987 0.55765 0.38185 0.96788 0.40018 1.5152 0.12276 0.32536 0.19685 0.70293 0.3132 0.98963 0.23036 0.12287-0.20854 0.19401-0.34362 0.317-0.32377 0.011821-0.39453-0.44861-0.3862-0.72947-0.29944-0.3617-0.14402-0.90545-0.41621-1.2787 0.09193-0.071328-0.17372-0.45552-0.17763-0.66641-0.09502-0.19124 0.10517-0.74751-0.21713-0.68037-0.21585 0.096243-0.55195 0.00491-0.865 0.020242-0.47444 0.089132-1.0651-0.08775-1.4629 0.088477 0.02864 0.24302-0.28114 0.61249-0.24942 0.57556 0.03559 0.24704-0.21529 0.63682-0.26304 0.94648-0.02819 0.31589-0.21386 0.68256-0.32365 0.94621-0.04097 0.06047-0.12336 0.41798-0.25518 0.56073-0.04921 0.22539-0.26516 0.39755-0.49155 0.34544zm-0.18852-0.25402c-0.02332-0.044157-0.02539 0.042156 0 0zm4.1128-3.7368c-0.13533-0.38321-0.1665-0.71069-0.19921-1.0764-0.15919-0.19225-0.033173-0.59859-0.20693-0.77596-0.034063-0.26649-0.18945-0.59199-0.29862-0.84279-0.048358-0.17546-0.20647-0.39643-0.2331-0.60255 0.030535-0.27466-0.21163-0.6332-0.26942-0.12982 0.0038 0.41275-0.16724 0.79483-0.34889 1.1885-0.0463 0.14749 0.014 0.55188-0.15708 0.771-0.06675 0.30432-0.24021 0.64892-0.34314 1.0097-0.34599 0.43134 0.25723 0.39982 0.57009 0.41168 0.49011 0.041811 1.0563-0.041193 1.4863 0.046576zm-0.414-3.3927c-0.09364-0.027425 0.02644 0.060125 0 0zm10.365 6.7166c-0.21894-0.21062-0.3296-0.27461-0.24934-0.50337-0.037537-0.1552-0.041902-0.48048-0.050904-0.58618-0.10677-0.24039-0.10435-0.42446-0.10816-0.75229 0.07773-0.24414 0.03623-0.33899 0.01564-0.70789-0.0459-0.19966 0.16337-0.49213 0.01091-0.63103-0.12922-0.19688 0.0096-0.47942-0.07802-0.63196-0.02077-0.25913-0.05456-0.48312-0.05265-0.76906 0.04361-0.23967-0.04623-0.56029 0.07722-0.64453-0.17797-0.11116 0.03477-0.4854-0.11063-0.71328-0.07871-0.43092-0.08835-0.84727-0.03774-1.2762 0.06718-0.029862 0.03643-0.39035 0.10154-0.59624 0.18372-0.49119-0.31547-0.48755-0.6702-0.40496-0.38344 0.017095-0.81292 0.23403-1.1637 0.075438-0.25149-0.18871-0.09621-0.67947 0.30643-0.58465 0.21939 0.075183 0.61409-0.12245 0.6726-0.065926 0.05327-0.057924 0.49089-0.15422 0.56835-0.15526 0.27035-0.010548 0.59105 0.02457 0.84682-0.070491 0.35839-0.072837 0.67952 0.062925 0.99579-0.087295 0.31682-0.093297 0.63976-0.049085 0.85314 0.074892 0.18194 0.060143 0.24238 0.36362-0.0654 0.444-0.23901 0.28645-0.65266-0.014367-0.97821 0.17428-0.20762 0.10092-0.66355-0.11438-0.6974 0.2126-0.10512 0.36067-0.0776 0.83884-0.21692 1.147 0.02561 0.47714 0.04265 0.98003 0.14218 1.4546 0.02808 0.36728-0.03052 0.92712 0.01637 1.1699 0.01182 0.47582 0.0371 0.76646 0.09955 1.2372 0.0319 0.51321 5.73e-4 1.0485-0.0195 1.5302 0.0058 0.495 0.21944 0.80602 0.17972 1.2796 0.05432 0.27546-0.07078 0.39941-0.38758 0.38105zm-0.36132-1.5824c-0.02331-0.044157-0.02541 0.042156 0 0zm0.01364-1.6933c-0.09364-0.027425 0.02644 0.060125 0 0zm1.4727-5.7382c-0.02332-0.044157-0.02541 0.042156 0 0zm-6.5764 8.8069c-0.31007-0.014549-0.56037-0.27474-0.8041-0.42125-0.21535-0.11312-0.34251-0.3412-0.51813-0.5265-0.30636-0.42129-0.38511-0.91424-0.60717-1.3991-0.1562-0.46902-0.44344-0.91318-0.4199-1.469-0.0299-0.33648 0.08082-0.46653 0.03708-0.78943-0.04397-0.28254 0.04248-0.65258 0.06245-1.0098 0.01419-0.24039 0.05331-0.51726 0.12249-0.81455 0.14229-0.35318 0.20091-0.66845 0.38426-0.99068 0.16695-0.40204 0.47157-0.74954 0.72532-1.0862 0.33624-0.068745 0.65447-0.15784 0.97531-0.088987 0.42886 0.17646 0.74866 0.44173 0.97834 0.83092 0.10734 0.235-0.3032 0.52792-0.53899 0.33-0.139-0.44519-0.78376-0.84414-1.1395-0.37405-0.36564 0.3618-0.49049 0.85148-0.69352 1.3118-0.13711 0.24495-0.21044 0.75464-0.21586 1.1462-0.01509 0.39524-0.12005 0.75429-0.06283 1.1388-0.0854 0.37606-0.0095 0.84912 0.17406 1.2091 0.10901 0.23225 0.24523 0.48511 0.2986 0.74169 0.14075 0.21901 0.18746 0.56 0.36649 0.78687 0.23169 0.47755 0.74468 0.83638 1.2339 0.90305 0.28446-0.19598 0.40244-0.37877 0.5231-0.68208 0.17692-0.33029 0.15006-0.74359 0.27402-1.0722 0.28706-0.20409 0.65047 0.072146 0.7045 0.19553-0.40644 0.17796-0.08262 0.82607-0.41946 1.118-0.09261 0.30376-0.24485 0.38683-0.35132 0.60341-0.05414 0.17201-0.37334 0.32532-0.56262 0.36733-0.13647 0.028789-0.34567 0.099735-0.52661 0.041065z" stroke-width=".13142"/></svg>
