<?xml version="1.0" encoding="UTF-8"?>
<svg width="137" height="32" version="1.1" viewBox="0 0 36.248 8.4667" xml:space="preserve" xmlns="http://www.w3.org/2000/svg"><path d="m17.222 8.4654c-0.41499-0.071707-0.88104-1.507e-4 -1.2004-0.11719-0.23299-0.081182-0.54948-0.15923-0.7798-0.15878-0.30442-0.17681-0.76787-0.19739-1.009-0.33195-0.34622-0.08076-0.61744-0.20308-0.93659-0.36954-0.3098-0.17411-0.79092-0.18449-1.0053-0.31663-0.20168-0.071922-0.61503-0.10955-0.88846-0.17233-0.28353-0.094252-0.55952-0.022086-0.82779-0.12326-0.33065-0.037646-0.49717-0.20552-0.76062-0.31865-0.38444-0.065926-0.69387-0.40966-1.015-0.36665-0.37677-0.28798-0.8774 0.0281-1.3143-0.11219-0.32862 0.054453-0.67414 0.092253-0.96305 0.081944-0.35616 0.1241-0.76311 0.10209-1.0617 0.11242-0.30393 0.069162-0.54278 0.038883-0.8318 0.13126-0.40313-0.06658-0.79654 0.056084-1.1672 0.044333-0.24188 0.076879-0.62043 0.091786-0.88743 0.17072-0.40994-0.084632-0.58181 0.096178-0.97139 0.10846-0.54196 0.0377-1.0142 0.12132-1.5395 0.18573-0.26317-0.29947 0.3661-0.4257 0.59437-0.46597 0.27672-0.15217 0.76506-0.36326 1.051-0.4345 0.29895-0.28812 0.91333-0.20936 1.1787-0.56242 0.33261-0.14081 0.76217-0.059804 1.1364-0.12005 0.48486-0.0038543 0.93381-0.12892 1.3719-0.12466 0.19574 0.0036749 0.6748 0.1548 0.61699-0.10722 0.18394-0.26028 0.48454-0.35634 0.70169-0.59326 0.21078-0.17032 0.45481-0.29491 0.61492-0.458 0.28228-0.041706 0.32739-0.36549 0.55324-0.33619 0.068024-0.18 0.32047-0.32336 0.56753-0.53925 0.46825-0.14334 0.7394-0.46819 1.212-0.64196 0.26037-0.12799 0.46762-0.18237 0.71405-0.39787 0.18819-0.13189 0.45533-0.20526 0.69572-0.29334 0.30324-0.19735 0.5804-0.32292 0.96376-0.34944 0.2045-0.035809 0.57274-0.20155 0.8197-0.21009 0.26411 0.089812 0.15565-0.14274 0.50206-0.15821 0.32153-0.033971 0.49908-0.060718 0.7628-0.168 0.26673 0.10121 0.33493-0.10783 0.63924-0.11237 0.04373 0.13293 0.68477-0.35345 0.67646 0.039941 0.01349 0.19979-0.31546 0.31865-0.35032 0.57743-0.07624 0.17005-0.57652 0.67417-0.18336 0.59595 0.34009-0.159 0.66077-0.49516 0.97019-0.6032 0.05687-0.1063 0.34804-0.15922 0.4738-0.34077 0.28909-0.27207 0.60147-0.48534 1.0038-0.46647 0.33564-0.023386 0.56061-0.062466 0.92206-0.17123 0.17704-0.036248 0.39026-0.069565 0.51452-0.12028 0.49694-0.17021 1.0534-0.099572 1.5688-0.21494 0.24122 0.13494 0.67181-0.002868 0.98678 0.014772 0.33036-0.001972 0.38572 0.024685 0.67931-0.037395 0.19994 0.050554 0.60816-0.12731 0.91054-0.067154 0.44759-0.0079775 0.85213 0.02931 1.2545-0.015292 0.22382-0.114 0.58528 0.10255 0.82077-0.0049301 0.28306-0.041393 0.43025 0.038166 0.69831-0.0096358 0.45143 0.028907 0.90578 0.16627 1.3746 0.20731 0.09762 0.18783 0.58729 0.0524 0.70528 0.106 0.19081 0.031211 0.54151 0.015453 0.69615 0.15158 0.42274-0.11431 0.89812 0.14523 1.3815 0.17778 0.33592 0.14619 0.69221 0.27276 1.0575 0.4001 0.41616 0.00744 0.64521 0.24818 1.0069 0.34261 0.38373 0.018814 0.52847 0.24006 0.84836 0.36115 0.34631 0.14537 0.81321 0.1134 1.0674 0.37571 0.49572 0.13047-0.12642 0.31883-0.36011 0.29735-0.55494 0.059947-0.37404 0.33143 0.04017 0.28558 0.40122-0.016304 0.65737 0.090758 0.99912 0.1217 0.36125 0.081451 0.84542 0.010908 1.1553 0.013984 0.16454-0.087071 0.66807 0.01314 0.29683 0.26978-0.29733 0.2634-0.8155 0.20667-1.1357 0.35665-0.38994 0.17388-0.64755 0.27908 0.0098 0.25618 0.25975-0.12468 0.78819 0.10174 0.3126 0.32003-0.22916 0.048653-0.4389 0.19607-0.70385 0.20027-0.26643 0.34856-0.78687 0.19735-1.0975 0.4554 0.22014 0.46926-0.13598 0.014745-0.36455 0.50967-0.15653 0.2241-0.26834 0.60133-0.59313 0.63413-0.27079 0.15527-0.52425 0.15962-0.60008 0.41709-0.26228 0.076395-0.49396 0.21888-0.75299 0.31566-0.28816 0.10641-0.62578 0.21493-0.87811 0.26424-0.24469 0.039968-0.49257 0.26233-0.78991 0.2889-0.44174 0.024776-0.88143 0.12842-1.2974 0.31609-0.3383 0.082427-0.73161 0.11629-1.0514 0.17997-0.44588 0.019335-0.85912 0.19137-1.3358 0.14784-0.26837 0.10643-0.6397 0.047587-0.96013 0.049425-0.28246 0.086317-0.63959-0.00332-0.89855 0.00493-0.32208 0.034787-0.67149 0.066007-1.0063-0.00439-0.33979-0.045101-0.45349-0.2389-0.79901-0.23588-0.29266-0.21003-0.57116-0.58403-0.84866-0.62541-0.20265-0.10733-0.52084-0.29439-0.29778 0.063559 0.28214 0.079425 0.32158 0.43319 0.53915 0.62685 0.1224 0.10574 0.5097 0.27408 0.23735 0.4204-0.41205 0.00663-0.9015 0.00458-1.2702-0.065047-0.18786 0.017963-0.4361-0.040677-0.70336 0.093446-0.31843 0.20981-0.54389-0.082237-0.75599-0.24606-0.03412-0.20085-0.39969-0.21735-0.48922-0.40487-0.121-0.060162-0.61102-0.47928-0.41461-0.18395 0.16378 0.29557 0.54628 0.37052 0.68405 0.70426 0.25182 0.075884 0.54874 0.37986 0.15545 0.41047-0.40737-0.021171-0.73727 0.14812-1.0802-0.059346-0.17945 0.14125-0.38259 0.12965-0.56563 0.12715zm0.91026-0.28727c0.16194 0.065809 0.38948-0.1983 0.04137-0.28689-0.36442-0.14462-0.53065-0.62483-0.79096-0.75394-0.065315-0.21366-0.24655-0.29834-0.41565-0.51046-0.18728-0.22539-0.26071-0.30015-0.084946-0.49837 0.30865 0.00834 0.43358 0.46031 0.79401 0.48841 0.20447 0.21721 0.61809 0.20721 0.7404 0.48111 0.34583 0.15091 0.55176 0.42547 0.85862 0.64466 0.1639 0.24355 0.38203 0.082123 0.63918 0.054255 0.30839-0.064231 0.59765-0.036804 0.90747 0.019817 0.39496 0.10795 0.13279-0.40482-0.05214-0.48529-0.19541-0.25287-0.39347-0.43729-0.5745-0.69421-0.14441-0.18376-0.49073-0.43752-0.14571-0.58288 0.16536-0.016851 0.37657 0.27434 0.57676 0.26256 0.23148 0.1707 0.5302 0.27861 0.79041 0.39616 0.30932 0.13451 0.35456 0.51493 0.7111 0.50931 0.21754 0.1005 0.44359 0.24344 0.68581 0.30151 0.45347 0.13707 0.90604 0.060145 1.3954 0.00385 0.30217 0.16475 0.46908-0.057832 0.82682 0.021422 0.39135 0.032922 0.75372-0.15683 1.1582-0.1104 0.31094-0.1106 0.48872-0.018662 0.75932-0.097316 0.4855-0.065146 0.92193-0.21807 1.3976-0.28784 0.37668-0.12965 0.76215-0.11024 1.1249-0.28125 0.25602-0.10741 0.53069-0.18384 0.77118-0.2813 0.31979-0.088406 0.48589-0.14305 0.82162-0.19643 0.20655-0.12132 0.32696-0.18285 0.56915-0.35175 0.18667-0.07532 0.28528-0.1575 0.43964-0.21538 0.187-0.11729 0.422-0.25151 0.61224-0.45646 0.03434-0.2371 0.49706-0.44907 0.25211-0.69288 0.0117-0.17031 0.06663-0.20054 0.2824-0.26269 0.37257-0.025986 0.85425-0.072389 1.1078-0.31046-0.23418-0.15523-0.62707-0.032532-0.96635-0.19104-0.41161 0.2691-0.3598-0.52647-0.007044-0.21243 0.067261-0.17826 0.53872-0.12531 0.74882-0.1649 0.13136 0.01669 0.49836-0.18322 0.625-0.17485 0.24332-0.21212-0.54382-0.11104-0.73115-0.19179-0.41219-0.12695-0.88803-0.094196-1.2706-0.13867-0.23548-0.026066-0.88375 0.07151-0.59986-0.32142 0.34926-0.10397 0.7103-0.28529 0.94506-0.45114-0.30153-0.090625-0.53121-0.15986-0.7964-0.31134 0.003815-0.14576-0.50392-0.10976-0.55216-0.37659-0.012924-0.0042166-0.33428-0.13271-0.49898-0.21006-0.17406 0.044871-0.38133 0.027544-0.70764-0.037539-0.25946-0.098868-0.48618-0.13955-0.73941-0.27618-0.26256-0.099787-0.56974-0.045113-0.81374-0.23463-0.52225 0.013544-1.0734-0.11465-1.6369-0.13044-0.25799 0.13219-0.4111-0.19701-0.64489-0.11763-0.33363-0.05482-0.66576-0.10047-0.93573-0.21811-0.25979 0.044369-0.44456 0.099725-0.83987 0.095217-0.32575-0.066302-0.71565-0.001345-1.0723 0.01634-0.33828-0.05629-0.63871 0.05932-0.90603-0.014906-0.35349-0.02897-0.74494 0.060414-1.048 0.094366-0.24973 0.093074-0.64606-0.052714-0.84474 0.02689-0.23595 0.15121-0.53829-0.049774-0.84318 0.034868-0.33952-0.036365-0.45656 0.080366-0.78922 0.065245-0.23894 0.006095-0.54954 0.1014-0.77445 0.098814-0.31881 0.060611-0.63557 0.1696-0.99359 0.26276-0.28302 0.12984-0.68596 0.016851-0.898 0.21661-0.12107 0.16102-0.45697 0.34471-0.6334 0.46099-0.22524 0.2357-0.4739 0.29721-0.6415 0.45371-0.18391 0.10573-0.43262 0.26002-0.59026 0.41697-0.27925 0.1613-0.40911 0.38186-0.68288 0.55745 0.03854 0.25897-0.59379 0.43041-0.41874 0.00646 0.12893-0.33586 0.30676-0.56212 0.48523-0.87807 0.17782-0.22497 0.34255-0.39872 0.46058-0.66224 0.33434-0.41605-0.34512-0.37849-0.4216-0.21094-0.26832 0.020804-0.63329-0.011088-0.86748 0.16712-0.30825 0.086013-0.60392 0.18638-0.87871 0.19246-0.42817 0.095276-0.86728 0.23465-1.2603 0.40503-0.29105 0.10924-0.59632 0.20853-0.82443 0.38225-0.28913 0.068531-0.38414 0.29203-0.70589 0.4002-0.43088 0.21229-0.78075 0.47207-1.2358 0.686-0.1326 0.21103-0.42796 0.24349-0.57334 0.45453-0.18201 0.15509-0.39632 0.19125-0.41841 0.33898-0.18583 0.10302-0.45923 0.30259-0.69304 0.491-0.42848 0.21132-0.45741 0.48884 0.043201 0.34858 0.66113-0.1716 1.3915-0.10367 2.0551-0.29485 0.45645 0.031802 0.97912-0.096542 1.4802-0.075302 0.57235-0.11087 1.1847-0.1313 1.7184-0.31359 0.22548 0.07229 0.55782-0.072021 0.79639-0.025367 0.22455-0.093765 0.4233-0.012863 0.65379-0.093275 0.35338-0.030951 0.61164-0.030646 0.98151-0.1142 0.25474-0.02239 0.48538-0.01514 0.72492-0.14688 0.33198 0.017317 0.57588-0.076332 0.88662-0.083745 0.33079-0.078959 0.74861-0.015337 1.057-0.21305 0.24888 0.058271 0.65267-0.035315 0.93826-0.074952 0.41772-0.0025 0.91497-0.14389 1.2597-0.078959 0.30504-0.07333 0.61621-0.13209 0.79084 0.11261-0.0075-0.32604 0.43778-0.12144 0.72182-0.26168 0.1613-0.020016 0.55659 0.043706 0.63785-0.015515 0.33288 0.076019 0.6937-0.098215 1.0201-0.0095 0.12477-0.12568 0.47768 0.079846 0.68311-0.061525 0.20118 0.13781 0.49146 0.04306 0.76944-0.00511 0.34426 0.0748 0.81951-0.092229 1.1999 0.00126 0.6986-0.07247 1.4022-0.054551 2.1022-0.0952 0.34541 0.15562 0.77096 0.00206 1.1197 0.06079 0.30597-0.047363 0.61347 0.023125 0.95779 0.00449 0.23458 0.15922 0.53873 0.13182 0.78812 0.2771 0.22069 0.077426 0.24409 0.48816 0.04588 0.54861-0.10676 0.32234-0.5352 0.27898-0.83843 0.35744-0.61222 0.087357-1.2512 0.027034-1.8473 0.13604-0.63214-0.10801-1.2907-0.021315-1.9509-0.077731-0.30137 0.090869-0.39998 0.063461-0.62968 0.066141-0.79551 0.075337-1.5949 0.095443-2.3849 0.21569-0.33933 0.036114-0.74415 0.037386-1.1019-0.022014-0.39254 0.17323-0.91054 0.097341-1.3562 0.15579-0.40629 0.010631-0.89192 0.17505-1.3516 0.11266-0.32688-0.02214-0.51832 0.1205-0.76108 0.029885-0.33472 0.057707-0.8173 0.10088-1.2208 0.096505-0.42035 0.056675-0.72558-0.020661-1.0892 0.15083-0.44204 0.016573-0.77709 0.051477-1.1978 0.10912-0.42814-0.014548-0.89934 0.099734-1.3408 0.11989-0.38075 0.017846-0.79912 0.20349-1.224 0.16931-0.35205 0.11571-0.80305-0.053045-1.1645 0.12502-0.2472 0.00259-0.65093-0.034267-0.93465 0.00556-0.15031 0.093348-0.73665 0.012916-0.33858 0.16418 0.31253 0.2245 0.63529 0.16891 0.93789 0.39092 0.28949 0.16482 0.60806 0.13878 0.90398 0.14382 0.33191 0.20507 0.44826 0.18855 0.85618 0.19073 0.3849 0.16385 0.87274 0.18127 1.2782 0.38223 0.15147 0.11315 0.50012 0.25109 0.65836 0.29871 0.18415 0.023977 0.40998 0.17098 0.70083 0.22972 0.4139 0.17057 0.88369 0.21833 1.253 0.34733 0.23191 0.057716 0.60234-0.06339 0.84987 0.018707 0.24144 0.13756 0.60069-0.010881 0.81514 0.015578 0.13839-0.084659 0.36004 0.11211 0.33874 0.051074zm-16.118-1.775c0.46206-0.11755 1.0021-0.16138 1.4663-0.22989 0.35317 0.056263 0.81154-0.16083 1.1406 0.026173 0.15693-0.2275 0.57335-0.17744 0.74194-0.14204 0.36975-0.13688 0.8975-0.068714 1.217-0.15381 0.30889-0.016251 0.62359-0.030807 0.93659-0.12418 0.37675-0.060852 0.6825 0.13195 0.97437-0.00377 0.39911-0.091151 0.93581-0.06554 1.3719-0.093102 0.43479-0.12852 0.9934-0.013373 1.3969-0.10588 0.37241-0.11642 0.66223 0.04817 1.045-0.066419 0.28494-0.077668 0.5329-0.082696 0.77603-0.16144 0.35852-0.025761 0.51419-0.066392 0.80758-0.11944 0.55878-0.00449 0.99833-0.069081 1.5434-0.12622 0.20104 0.024372 0.60304-0.11677 0.88749-0.11036 0.21982-0.091034 1.0416 0.1188 0.7011-0.27387-0.02646-0.4007 0.56334-0.093495 0.61989 0.11952 0.48317 0.20925-0.15411-0.22808 0.24864-0.39257 0.40166-0.069673 0.32478 0.56189 0.72728 0.42619 0.04545-0.23194-0.14796-0.38343 0.10474-0.53143 0.2866 0.20704 0.31594 0.65518 0.8009 0.45567 0.55945-0.15871 1.2733-0.041635 1.8633-0.16903 0.30402-0.15036 0.21478 0.065863 0.64567-0.047013 0.23667 0.046072 0.59616 0.064859 0.79549-0.052723 0.43756-0.00761 0.90217-0.045615 1.3485-0.10537 0.29233 0.1144 0.52718-0.16618 0.74942 0.014826 0.29949-0.0034 0.51326-0.03459 0.75856-0.049801 0.28661-0.091754 0.57588 0.058665 0.88415-0.04946 0.39701-0.041698 0.49967 0.020355 0.81815 0.035567 0.18192 0.030333 0.36675 0.00922 0.62884-0.062062 0.20138-0.028163 0.47322-0.028557 0.72342 0.033227 0.23673-0.12881 0.60907-0.09228 0.87013-0.10206 0.16079 0.00928 0.69502-0.19508 0.46259-0.34357-0.19196-0.053177-0.56641-0.1385-0.71486-0.15193-0.197-0.20809-0.72079-0.12015-0.85265-0.17767-0.39655 0.054623-0.47489 0.097744-0.52392 0.40279-0.40468-0.062779-0.26235-0.34725-0.60822-0.34967 0.07767 0.22193-0.23777 0.40689-0.32866 0.29195-0.45989-0.5816-0.31012 0.057483-0.47832 0.049272-0.24485-0.011947-0.25688-0.46035-0.65464-0.33507-0.44074-0.015085-0.82063 0.043285-1.2957 0.074047-0.29143-0.10066-0.68963 0.14697-0.99622-0.00726-0.32177 0.014413-0.7642-0.029767-0.98551-0.0025-0.19173 0.13847-0.29022-0.07627-0.4474 0.032645-0.26918 0.052293-0.59854-0.0313-0.7898-0.01824-0.30647 0.139-0.64099-0.025958-0.92702 0.1383-0.52579-0.013042-1.0885 0.015955-1.6311 0.086784-0.30734 0.15865-0.55035 7.843e-4 -0.83475 0.072452-0.13973 0.00449-0.5851 0.053045-0.69455 0.082464-0.22243 0.15137-0.65695 0.11867-0.95392 0.16369-0.55619 0.053978-1.129 0.10577-1.6387 0.27558-0.35014 0.045095-0.78192 0.044342-1.0878 0.089079-0.25207-0.00467-0.63837 0.15423-0.91618 0.080061-0.31206 0.08076-0.72784 0.063012-1.0682 0.17444-0.15802 0.075266-0.61243 0.12407-0.91689 0.15207-0.62651 0.060143-1.3433 0.1691-2.0398 0.11886-0.16342 0.13802-0.60484 0.12765-0.84839 0.16007-0.41339-0.073876-0.53227 0.20333-0.78414 0.38683-0.32836-0.16871-0.49223-0.26565-0.93702-0.17847-0.71277-0.0045688-1.4403 0.0086095-2.1137 0.12722-0.35021 0.011419-0.63142 0.18827-1.0204 0.22895-0.46644 0.22017-1.0129 0.26098-1.4426 0.53731 0.071968 0.07644 0.37603 0.063882 0.47541 2.456e-4zm2.954-0.29569c0.010416-0.1008-0.073689 0.078036 0 0zm12.286-1.1681c0.50321 0.00708-0.25368-0.1149-0.01799-0.029122z" stroke-width=".25083"/></svg>
