<?xml version="1.0" encoding="UTF-8"?>
<svg width="72" height="24" version="1.1" viewBox="0 0 19.05 6.35" xml:space="preserve" xmlns="http://www.w3.org/2000/svg"><path d="m5.6677 6.2949c-0.16811-0.0039501-0.45466-0.018777-0.35881-0.25357 0.12959-0.086746 0.13919-0.12743 0.30552-0.18317 0.53479-0.091216 1.0841-0.1321 1.625-0.20535 0.43845-0.041752 0.88244 0.023087 1.3158-0.065983 0.13275 0.041623 0.37452 0.053107 0.53896 0.014391 0.26835-0.049293 0.5954-0.00645 0.88391-0.071878 0.17027 0.098959 0.31702 0.00673 0.51444-0.00206 0.31292-0.037726 0.61919-0.082984 0.92625-0.12246 0.1739-0.037631 0.47088-0.16096 0.56064 0.051474 0.09759 0.20176-0.04566 0.44146-0.28034 0.37873-0.21921-0.039135-0.34244 0.037407-0.40952 0.056085-0.28267 0.025858-0.61034 0.00779-0.87815 0.019119-0.17785 0.031146-0.34091 0.035438-0.54767 0.075685-0.18448-0.016991-0.35458-4.428e-4 -0.56617 0.029454-0.16359 0.05286-0.34044 0.059322-0.50626 0.018766-0.166-0.063208-0.33833 0.068798-0.49522 0.01855-0.21355 0.082825-0.4636-0.051952-0.66167 0.05069-0.16781 0.02054-0.53998-0.022085-0.59698 0.035668-0.025546 0.094132-0.32553 0.063732-0.47013 0.11456-0.13961-0.035598-0.31007 0.023547-0.47637 0.0023582-0.11199 0.05487-0.28856 0.066736-0.4233 0.038923zm-4.4881-2.1704c-0.18926-0.081656-0.43861-0.021507-0.59727-0.14672-0.16456-0.091799-0.33042-0.23043-0.39903-0.41038-0.24687-0.32756-0.17212-0.7833-0.17434-1.1732 0.03634-0.23968 0.063862-0.44208 0.08998-0.67418 0.029838-0.218 0.073481-0.34767 0.10992-0.55176 0.022061-0.21479 0.16577-0.37844 0.15697-0.5743 0.057287-0.17633 0.34528-0.16038 0.52677-0.22194 0.18951-0.14732 0.47958-0.048126 0.70882-0.11632 0.23633-0.097751 0.45396 0.024726 0.30846 0.28279-0.011638 0.249-0.23523 0.097019-0.38194 0.16252-0.2072 0.040621-0.42368 0.039058-0.61661 0.10542-0.15548 0.060094-0.19932 0.16355-0.27298 0.33155-0.16488 0.30643-0.14263 0.69263-0.1994 1.0054 0.17741 0.1914 0.47013-0.0065559 0.67551-0.033434 0.15189-0.045968 0.39118-0.32736 0.50692-0.14498 0.012929 0.18975-0.16159 0.28537-0.24383 0.44439-0.12942 0.13908-0.36939 0.12749-0.49292 0.20186-0.16012-0.016148-0.44002-0.022456-0.50383 0.14616-0.04529 0.30028 0.019367 0.65322 0.30594 0.80543 0.15446 0.18424 0.42294 0.1113 0.6281 0.1787 0.19442 0.028411 0.41066 0.00765 0.56741-0.12654 0.085937-0.16465 0.1516-0.32239 0.31578-0.052989 0.067426 0.15358-0.025522 0.38618-0.19866 0.41857-0.0367 0.16993-0.34707 0.15042-0.51179 0.15143-0.10242-0.048137-0.20439 0.029-0.30796-0.0075404zm2.0329-0.058661c-0.18762-0.16859 0.0031247-0.34327 0.085277-0.51176 0.10924-0.092559 0.091659-0.29699 0.19271-0.4458 0.07271-0.1934 0.21481-0.32775 0.27274-0.53154 0.061356-0.15478 0.0071277-0.34788-0.11276-0.48024-0.1118-0.13831-0.10042-0.32087-0.2602-0.36594-0.067212-0.22722-0.29786-0.37151-0.40452-0.54605-0.067872-0.18214-0.074379-0.34288-0.23971-0.50916-0.070622-0.12968-0.19146-0.33906 0.055271-0.37125 0.12219 0.051109 0.2248 0.22879 0.39595 0.27135-0.057665 0.18091 0.16645 0.32083 0.21372 0.49946 0.094857 0.17513 0.30165 0.26547 0.31672 0.47469 0.15044 0.12533 0.30294 0.51374 0.33534 0.1136 0.12621-0.17763 0.12194-0.42545 0.22553-0.60063 0.082982-0.14677 0.15191-0.31208 0.13475-0.50164 0.076874-0.15226 0.44016-0.18184 0.41313 0.013165 0.13623 0.16189-0.17318 0.30582-0.13866 0.49864-0.10894 0.1703-0.16751 0.24402-0.15506 0.46334-0.089472 0.038698-0.16673 0.27816-0.14623 0.4552-0.1643 0.013524-0.21489 0.27166-0.093823 0.41476 0.26017 0.23333 0.41696 0.62968 0.76553 0.73393 0.22243 0.090422 0.25227 0.37297 0.056886 0.51203-0.1766 0.17894-0.26862-0.15687-0.41468-0.18441-0.19332-0.14346-0.29643-0.32891-0.48485-0.49738-0.026848-0.24179-0.28199-0.21459-0.28205 0.0048933-0.19196 0.11691-0.070391 0.39625-0.222 0.52862 0.020923-0.063757-0.13409 0.22764-0.17912 0.33701 0.049594 0.11977-0.27028 0.35969-0.32988 0.22509zm3.3165 0.037555c-0.25447-0.068624-0.14122-0.36794-0.2242-0.55615 0.020175-0.22815-0.010553-0.53578-0.078528-0.70109 0.031889-0.15006-0.10065-0.32106-0.071035-0.51703-0.12361-0.19263-0.094503-0.34657-0.10536-0.56036-0.0010612-0.19441-0.16775-0.38119-0.034247-0.57305-0.063152-0.24581-0.23202-0.59136 5.895e-4 -0.79069 0.14867 0.020988 0.26051-0.15851 0.45076-0.22052 0.27483-0.074008 0.61068-0.097126 0.85969 0.055796 0.21885 0.089661 0.31614 0.30825 0.4446 0.4893 0.064354 0.13448 0.059032 0.31247 0.12722 0.44615 0.10286 0.16574 0.032219 0.4393-0.02337 0.56683-0.048603 0.16255-0.080542 0.25882-0.21313 0.36582-0.2444 0.19824-0.605 0.17645-0.90455 0.18335-0.23495-0.21524-0.33905 0.19443-0.19009 0.24739-0.017929 0.22538 0.097851 0.33589 0.071807 0.54389-0.066991 0.20353 0.1541 0.30747 0.071762 0.51612 0.088604 0.15125 0.17156 0.466-0.078749 0.52358-0.036564 0.00645-0.069114-0.01027-0.10311-0.019337zm0.078748-2.2674c0.21069-0.0063613 0.43137 0.016172 0.65742-0.019886 0.30657 0.005365 0.25239-0.32954 0.27595-0.54497-0.10804-0.15787-0.055937-0.3833-0.23692-0.52297-0.049552-0.19165-0.31203-0.19504-0.41514-0.25668-0.18534 0.048385-0.38816 0.078139-0.51838 0.22507-0.15698 0.12019 0.02765 0.38528 0.0030657 0.47849-0.043297 0.21488 0.095739 0.3957 0.02113 0.59213-0.011426 0.12756 0.14306 0.047424 0.21287 0.048809zm7.7253 2.2193c-0.15782-0.073723-0.01027-0.35431-0.14204-0.43446 0.0086-0.21396-0.12064-0.39353-0.1127-0.61962 0.0097-0.25091-0.10718-0.48779-0.06369-0.74553-0.07462-0.10238 0.05061-0.41817 0.02503-0.60604 0.0392-0.27712-0.05291-0.59402 0.07883-0.84309 0.16717 0.010482 0.21384-0.21777 0.40393-0.295 0.21936-0.14072 0.45278-0.21897 0.7187-0.1856 0.28226 0.018094 0.60294-0.058443 0.79808 0.15842 0.19326 0.11364 0.34381 0.31739 0.26627 0.5526 0.01338 0.23965-0.12859 0.51057-0.33979 0.61248-0.09487 0.14567-0.28844 0.31478-0.46385 0.38829-0.1127 0.011697-0.34888 0.23453-0.24359 0.24889 0.19213 0.033746 0.43759 0.088387 0.56698 0.17906 0.14028 0.11693 0.34233 0.2305 0.47066 0.38278 0.13364 0.15785 0.32143 0.11954 0.23757 0.38379-0.02258 0.16785-0.14073 0.37781-0.33226 0.24581-0.12931-0.13707-0.14751-0.38016-0.35216-0.49251-0.27432-0.35538-0.76197-0.2615-1.154-0.32703-0.24489 0.057187-0.08361 0.26624-0.10358 0.45159-0.02335 0.14722 0.09224 0.28483 0.03008 0.42865 0.01011 0.17927 0.13913 0.43175-0.082 0.55905-0.06928 0.010777-0.15199 0.01639-0.20649-0.042531zm0.32-2.0306c0.1189-0.14327 0.41989 2e-3 0.47426-0.20651 0.18137-0.059907 0.28205-0.28433 0.47903-0.32577 0.12389-0.13917 0.3836-0.28903 0.31916-0.48518-0.009079-0.25246-0.23424-0.35355-0.47448-0.30167-0.22335 0.010759-0.45507-0.11275-0.61297 0.1152-0.16554 0.06885-0.2779 0.23066-0.33353 0.39903-0.01568 0.17252-0.06494 0.36346-0.01835 0.50904 0.09263 0.053414-0.05597 0.47089 0.15056 0.30883zm2.7301 1.7346c-0.34626-0.1105-0.35598-0.53595-0.31273-0.84206-0.07301-0.20447 0.03225-0.43042 0.0061-0.65779 0.02388-0.20934 0.1139-0.43016 0.02329-0.6109 0.06246-0.16944-0.0018-0.39291-0.01804-0.55143-0.0072-0.18271 0.04357-0.41978 0.01645-0.62652 0.14687-0.13035 0.40347-0.17103 0.51677-0.29309 0.17732-0.011054 0.42525-0.14376 0.64677-0.13346 0.18397-0.091203 0.37985-0.038475 0.51096 0.13764 0.08171 0.15421-0.07356 0.34855-0.26362 0.25739-0.24046-0.063245-0.2707-0.038209-0.46072 0.068269-0.16138 0.11507-0.34318 0.085024-0.47892 0.21912-0.09813 0.16888-0.0077 0.34156-0.04528 0.55798 0.03355 0.14964-0.10322 0.49024 0.07606 0.50918 0.17577-0.041847 0.38286-0.067003 0.59304-0.10296 0.15811-0.1129 0.34539-0.14208 0.52024-0.21207 0.13825-0.18161 0.37459 0.12632 0.33124 0.1266-0.1612-0.00749-0.06923 0.10957-0.33834 0.17694-0.21221 0.22069-0.51612 0.30742-0.77809 0.41384-0.18472 0.00673-0.50351-0.019897-0.44174 0.26033-0.1002 0.18601 0.02128 0.40175 0.01144 0.6164-0.13499 0.12316 0.04716 0.28559 0.23709 0.24799 0.31423-0.053821 0.68389 0.088861 0.93969-0.14481 0.03355-0.28068 0.37108-0.24443 0.3411 0.033552 0.03909 0.20931-0.08438 0.3879-0.25517 0.44593-0.3038 0.16152-0.70549 0.075551-1.0501 0.10982-0.11133-0.010583-0.22417 0.030344-0.32744-0.0059zm-8.2326-0.02791c-0.18249-0.084242-0.30883-0.22367-0.37691-0.42561-0.12364-0.16045-0.13321-0.40382-0.13828-0.56745-0.069568-0.19061-0.011809-0.44975-0.1065-0.63751 0.012027-0.24904-0.059442-0.44857-0.076342-0.6747-0.012676-0.33549-0.0061078-0.67118-0.0057187-1.0068 0.13637-0.20151 0.536-0.084694 0.45548 0.1878 0.038752 0.26547-0.10014 0.54082-0.0089318 0.79012 0.010199 0.13664-0.022663 0.35966 0.073273 0.53291 0.085419 0.26231 0.066192 0.56549 0.17685 0.8052-0.017286 0.1822 0.00548 0.47242 0.22583 0.50333 0.18513-0.046581 0.31927-0.25022 0.52629-0.098268 0.14484-0.11623 0.34283 0.050832 0.41966 0.20297-0.10479 0.15653-0.09327 0.34534-0.38308 0.33807-0.10252-0.037767-0.30101-0.13-0.40738 0.044111-0.032266-0.029466-0.25308 0.025033-0.37427 0.0058366zm2.4168-0.29311c-0.15706-0.068128-0.33829-0.16798-0.43209-0.31052-0.090122-0.083583-0.2149-0.26017-0.22653-0.36803-0.13513-0.10664-0.12318-0.39472-0.068291-0.57755 0.05854-0.19273 0.10851-0.38703 0.16881-0.56495 0.01231-0.21072 0.11965-0.35224 0.25118-0.45281 0.16291-0.13368 0.17056-0.33953 0.34171-0.48976 0.16544-0.16632 0.3326-0.019332 0.4241-0.14784 0.26213 0.1063 0.58066 0.096023 0.78637 0.32371 0.13626 0.11268 0.19679 0.22276 0.29684 0.33921-0.01615 0.24424 0.13157 0.46223 0.09936 0.71942 0.14549 0.17942-0.02123 0.36735-0.04772 0.49793-0.18796 0.1739-0.3594 0.41763-0.55567 0.55218-0.14803 0.06284-0.23928 0.27399-0.43895 0.28456-0.10793 0.16891-0.36361 0.1965-0.57736 0.198zm0.39439-0.52942c0.1865-0.10148 0.37489-0.2059 0.48614-0.37853 0.15463-0.00887 0.19111-0.28701 0.37352-0.35863 0.1492-0.16106 0.06101-0.30048 0.0051-0.46653-0.08614-0.20713 0.0257-0.37867-0.16341-0.49734-0.13321-0.086047-0.33579-0.38224-0.47643-0.18075-0.20484 0.24815-0.1181-0.27364-0.33165-0.154-0.17863 0.080545-0.010595 0.26987-0.20788 0.34784-0.10745 0.1011-0.23938 0.24018-0.23903 0.39441-0.08957 0.17312-0.08132 0.38057-0.25583 0.53179 0.05001 0.19023 0.01638 0.34915 0.11776 0.51896 0.04515 0.19502 0.19773 0.27894 0.40894 0.30739 0.10604 0.045673 0.18959-0.02261 0.28275-0.06459z" stroke-width=".059533"/></svg>
