<?xml version="1.0" encoding="UTF-8"?>
<svg width="188" height="28" version="1.1" viewBox="0 0 49.742 7.4083" xml:space="preserve" xmlns="http://www.w3.org/2000/svg"><path d="m1.1263 7.2883c-0.58794-0.075302-0.73033-0.58682-0.66684-1.11-0.11132-0.43698-0.062512-0.86436-0.12751-1.257-0.061824-0.9463-0.18467-2.012-0.13828-3.013 0.066429-0.4714-0.20914-1.3517 0.44999-1.404 0.32981-0.32638 0.75392-0.59355 1.2437-0.32022 0.61689 0.14658 1.1024 0.8097 1.3398 1.3026 0.30185 0.75063 0.072159 1.5823-0.586 2.055 0.51616 0.18209 1.2153 0.44929 1.2993 1.0504 0.21844 0.63247-0.16298 1.1551-0.45675 1.639-0.47434 0.72446-1.3721 1.1283-2.223 1.1057l-0.093883-0.033821zm0.94861-0.43969c0.22002-0.18605 0.73051-0.28593 0.85411-0.60773 0.298-0.38729 0.51448-0.79102 0.42847-1.3158 0.024734-0.47364-0.32214-0.76144-0.73767-0.83387-0.40042-0.27476-1.1341-0.22563-1.6188-0.12879 0.021772 0.45266-0.064052 1.1677 0.00314 1.4502-0.248 0.23611 0.14224 0.62844-0.05998 0.90495-0.27105 0.29053 0.29258 0.48244 0.63091 0.4936 0.15539 0.043131 0.36759 0.11579 0.49989 0.03739zm-0.67991-3.457c0.55282 0.074035 1.228-0.19946 1.2513-0.79048-0.012326-0.47989 0.16632-1.1076-0.21318-1.4642-0.30203-0.41067-1.3166-0.73293-1.6008-0.07135-0.078945 0.23837-0.14162 0.60604-0.068047 0.88828 0.08181 0.40792 0.033165 1.0374 0.14213 1.3674-0.05563 0.2769 0.35923-0.014623 0.4886 0.070428zm7.3151 3.8741c-0.28559-0.48696-0.46881-1.0299-0.69513-1.4904-0.2481-0.71224-0.38869-1.7852-0.1699-2.6245 0.50429-0.60078 1.7449-0.82093 2.1192 0.026391 0.29505 0.43653-0.03059 0.91496-0.21999 1.2795 0.5146 0.4804 0.76411 1.1119 0.96245 1.716-0.019712 0.36075 0.65229 0.65476 0.14763 0.92837-0.39043-0.025225-0.49811-0.36405-0.49435-0.66966-0.24055-0.53021-0.35834-1.2548-0.9356-1.6317-0.33605 0.14564-0.9857 0.3495-0.73074 0.86792 0.14439 0.41617 0.16667 0.8988 0.35135 1.338-0.068749 0.14746-0.11906 0.46631-0.33494 0.26015zm-0.083091-2.602c0.38434-0.25397 0.87881-0.44109 1.0232-0.90133 0.16093-0.42697-0.36719-0.91028-0.81692-0.65251-0.52333 0.028134-0.63223 0.5924-0.46793 1.0192 0.10056 0.11092-0.0073488 0.73753 0.26165 0.53468zm29.651 2.6153c-0.28593-0.099423-0.25518-0.85346-0.44902-0.67909-0.34692 0.39247-1.1694 0.77716-1.429 0.13516-0.2571-0.24058-0.31537-0.65394-0.51982-0.97985-0.059856-0.92931-0.031785-1.8478 0.27373-2.7276 0.25068-0.65754 1.2704-0.87062 1.8217-0.38985 0.27702 0.20457 0.21146 1.0302-0.15885 0.62099-0.06564-0.51941-0.73317-0.52493-1.0381-0.24814-0.28258 0.11545-0.16798 0.47074-0.36269 0.5432-0.17208 0.60065-0.21087 1.3537-0.13545 1.9909 0.1868 0.36122 0.26018 0.93512 0.65448 1.1024 0.71079-0.12592 0.93657-0.85589 0.90719-1.4688 0.38225-0.63893 0.56547 0.31209 0.45493 0.69324-0.12762 0.45575 0.15485 0.79213 0.30137 1.2006-0.07332 0.15717-0.10659 0.3498-0.3205 0.2069zm-33.367-0.035352c-0.48108-0.20988 0.10746-0.64927 0.3931-0.78259 0.62718 0.090372 0.10817-0.73301 0.18757-1.0847-0.098892-0.34291-0.10465-0.80261-0.22029-1.1199 0.094636-0.50504-0.17388-0.6937-0.61748-0.45529-0.40036 0.14454-0.86571-0.35783-0.20154-0.47788 0.64023-0.066935 1.3001-0.47174 1.9616-0.27764 0.40362 0.27391-0.18385 0.57789-0.48371 0.58141-0.51822-0.020533-0.032488 0.60572-0.087253 0.94047 0.12935 0.59919 0.17151 1.1231 0.24282 1.7466 0.37597-0.17951 1.1105 0.018221 0.73441 0.42432-0.602 0.12914-1.299 0.20336-1.8468 0.51853zm29.022-0.16618c-0.50781 0.060053-0.94199-0.2278-0.96016-0.73486-0.17577-0.59763-0.03533-1.398-0.21383-2.0373-0.16288-0.44947-0.0066-0.69071 0.14802-0.96445 0.08834-0.45372 0.72455-0.44181 1.1481-0.44578 0.48402-0.17104 0.77675 0.17873 0.54869 0.38365 0.26638 0.24973-0.59674-0.18343-0.62197 0.1008-0.51958 0.078547-0.91248 0.19345-0.71578 0.87988 0.0033 0.46111 0.05358 0.74744 0.53389 0.51836 0.60046-0.292 0.70048 0.55246 0.14869 0.48602-0.42456 0.021521-0.75669 0.1621-0.60193 0.61358-0.04466 0.42199 0.36491 0.5364 0.72858 0.62877 0.37111-0.058387 0.92223 0.25952 0.4745 0.54264-0.19651 0.060953-0.41392 0.026435-0.6168 0.02869zm-21.887-0.049587c-0.41854-0.20437-0.17505-0.87477-0.30998-1.361-0.046476-0.82532-0.4242-1.7457-0.14866-2.5283 0.25726-0.37068 0.78822-0.51423 1.2642-0.45756 0.43275 0.24846 0.7738 0.52224 1.1474 0.88505 0.39095 0.53193 0.68409 1.1882 0.46011 1.8577-0.12406 0.42838-0.29376 1.0558-0.72919 1.1019-0.09613 0.2802-0.66607 0.47648-1.0595 0.48164-0.21908 0.00272-0.42439-0.026803-0.62436 0.020585zm1.0015-0.4134c0.97369-0.42098 1.4641-1.8648 0.69527-2.6332-0.36208-0.57441-1.0847-1.1937-1.7518-0.69032-0.20447 0.30497-0.09344 0.82695-0.06711 1.1038 0.12018 0.59797 0.26998 1.219 0.29171 1.7606-0.08242 0.56932 0.36474 0.64343 0.83197 0.45909zm27.373 0.36497c-0.54007 0.10811-1.0858-0.30751-1.1464-0.83012 0.19725-1.0164-0.49575-2.3636 0.54526-3.0822 0.48297-0.16937 0.94914-0.43309 1.4457-0.2415 0.0074 0.58358-0.69323 0.30718-1.0538 0.59172-0.47577 0.14793-0.57599 0.91296-0.40306 1.2758 0.29135-0.024528 1.0862-0.072581 0.94047 0.20271-0.18512 0.26433-0.52311 0.35188-0.96148 0.33169-0.06886 0.34794 0.01684 0.71626 0.0218 0.9315 0.03996 0.45631 0.89996 0.23534 1.3225 0.27709 0.54188-0.28263 0.54681 0.62801 0.05358 0.42749-0.1805 0.072407-0.58156-0.027808-0.76449 0.11582zm-23.583-0.036377c-0.46429-0.13869-1.0966 0.13182-1.5069-0.094637-0.03884-0.47383 0.76384-0.29291 0.57871-0.75286-0.13954-0.98243-0.26287-1.9989-0.3042-3.0068-0.26394 0.00978-1.0755 0.30766-0.79626-0.2542 0.46344-0.33202 1.1774-0.31477 1.727-0.21211 0.33904 0.62987-0.71096 0.16015-0.43477 0.63956 0.0056 0.16317-0.02807 0.5302 0.04464 0.98985 0.09827 0.72354 0.27868 1.333 0.27729 2.0745 0.21097 0.11632 0.59136-0.27139 0.68031 0.053553 0.07693 0.11827 0.08697 0.62825-0.26586 0.56317zm29.862-0.027265c-0.37234-0.32419 0.03081-0.87957-0.14661-1.3752-0.08034-0.90409-0.0065-1.7891-0.15625-2.6556 0.66923-0.43262 1.5377-0.14707 2.2427 0.11145 0.56538 0.39944 1.0911 1.0197 0.86603 1.8021-0.11157 0.63495-0.50047 1.1661-0.92753 1.612-0.36174 0.36494-0.81634 0.44149-1.3026 0.56128-0.18448-0.035288-0.41472 0.055138-0.57569-0.05611zm0.8095-0.45199c0.91194-0.21431 1.3651-1.0257 1.5488-1.8722-0.10095-0.52358-0.24574-1.1085-0.8558-1.2822-0.32025-0.00105-0.88619-0.30927-1.1548-0.087588-0.05746 0.78305-0.06861 1.6112-0.02642 2.3053 0.22568 0.1634-0.03674 1.1557 0.48814 0.93668zm-17.881 0.35299c-0.61295-0.46167-0.16933-1.3651-0.27408-2.0192-0.02807-0.4381-0.07653-0.91131 0.0057-1.2264 0.15422-0.79178-0.10708-1.6576 0.1521-2.4084-0.34293-0.31388 0.32892-0.98825 0.46413-0.37909 0.2234 0.43736-0.19972 0.73485-0.0089 1.2466 0.22277 1.0434-0.21194 2.0622-0.14818 3.1257 0.05779 0.40778-0.36159 1.3235 0.38359 1.1875 0.59378 0.055349 1.3007-0.12489 1.7806-0.1777 0.30038 0.22351-0.10831 0.60235-0.4315 0.51946-0.49851-0.00276-1.0002 0.13555-1.5489 0.061751-0.12283 0.033042-0.2451 0.16604-0.3746 0.069932zm12.862-0.069049c-0.2219-0.75915 0.12395-1.529-5e-3 -2.3044 0.07282-0.46736-0.01206-1.0007 0.15681-1.4168 0.33718-0.26899 0.81569-0.28814 0.99448 0.18806 0.25022 0.4569 0.35829 0.97786 0.5567 1.4384 0.17672 0.33138 0.14545 0.6018 0.42027 0.91601 0.1023 0.072279 0.35274 0.76396 0.3991 0.33585 0.01362-0.94722 0.07298-1.936-0.2609-2.81-0.27555-0.2653 0.35358-0.7611 0.42357-0.26567 0.0615 0.24008-0.05961 0.61027 0.12478 0.81493 0.07546 0.92357 0.29839 1.98-0.03675 2.9085-0.29518 0.38703-0.63138-0.1386-0.78614-0.39557-0.4753-0.65664-0.64655-1.5113-0.99032-2.2723-0.016926-0.25124-0.40002-0.86677-0.38011-0.28035-0.02345 0.7164-0.26766 1.3649-0.18835 2.0434-0.18034 0.38716 0.24812 1.1834-0.40231 1.1548zm-17.929-0.039077c-0.37158-0.16467-0.15859-1.0785-0.71962-0.58994-0.37856 0.21451-1.0629 0.14696-1.2484-0.34391-0.31066-0.30995-0.5437-0.75962-0.63977-1.1723 0.01025-0.77536 0.34574-1.474 0.76937-2.0503 0.38251-0.44906 1.1051-0.49884 1.5804-0.10446 0.35306 0.12127 0.43032 1.2849-0.0592 1.0891-0.32976-0.26403 0.07983-0.69934-0.44877-0.86875-0.66096-0.055143-0.86783 0.53191-1.1948 0.92933-0.16555 0.5271-0.25671 1.0791 0.09053 1.6088 0.14397 0.56358 1.2393 0.73206 1.3331 0.00507-0.09824-0.39104 0.41896-0.97899 0.59786-0.44684-0.0654 0.63891 0.30886 1.2959 0.14456 1.8977 0.01322 0.12354-0.14616 0.052689-0.20519 0.04642zm-5.9578-0.10875c-0.3037-0.4806-0.24286-1.1618-0.33003-1.6992-0.048711-0.49845-0.21389-1.1267-0.22522-1.6803-0.23643-0.27714-8e-3 -0.85518 0.42534-0.57042 0.39122 0.16513 0.57677 0.566 0.91803 0.86779 0.39254 0.57524 0.62619 1.113 1.0007 1.6849 0.28877 0.65204 0.25393-0.14047 0.23994-0.55345 0.07969-0.70843-0.12437-1.3882-0.25588-2.0603 0.25731-0.64658 0.54106 0.04302 0.60588 0.34967 0.04946 0.41738 0.15161 0.88317 0.09818 1.2915 0.07186 0.56684 0.13834 1.2109 0.11986 1.8125-0.12466 0.50766-0.66496 0.29826-0.81127-0.1008-0.45596-0.50673-0.6246-1.1255-1.0389-1.6862-0.16527-0.42065-0.41824-0.66385-0.77012-0.96858 0.0095 0.86258 0.17659 1.6821 0.25518 2.5129 0.17399 0.2182 0.14274 1.0347-0.23168 0.80004z" stroke-width=".069245"/></svg>
