<?xml version="1.0" encoding="UTF-8"?>
<svg width="111" height="16" version="1.1" viewBox="0 0 29.369 4.2333" xml:space="preserve" xmlns="http://www.w3.org/2000/svg"><path d="m5.575 4.11c-0.15471-0.28764 0.017038-0.70693-0.0068139-1.0464 0.046174-0.50907 0.1559-1.0211 0.082636-1.5242 0.005113-0.36075 0.082125-0.76158 0.13443-1.0823 0.20671-0.1265 0.53736-0.10425 0.67021 0.13981 0.1162 0.40757 0.27561 0.81221 0.37036 1.2133 0.13699 0.14154 0.08451 0.54067 0.23477 0.71186 0.023343 0.16945-0.015334 0.4372 0.094392 0.66779 0.13852 0.17327 0.26394 0.56165-0.058612 0.60877-0.16016-0.11557-0.25914-0.33222-0.30189-0.58522 0.060827-0.36321-0.26899-0.36017-0.53528-0.32131-0.30076-0.027812-0.36554-0.087828-0.3492 0.31813-0.064235 0.31811 0.010223 0.68436-0.168 0.96583-0.074799 0.01392-0.12046-0.0070199-0.16715-0.066029zm0.49251-1.5048c0.31887-0.12086 0.77511 0.055145 0.53586-0.46537-0.12489-0.28528-0.16272-0.60952-0.3094-0.91118-0.068494-0.27087-0.24079-0.67559-0.25391-0.16195-0.087408 0.51538 0.017038 1.045-0.093201 1.5598 0.040553-6e-3 0.088088 0.016066 0.12063-0.021321zm-4.973 1.5162c-0.55397-0.21246-1.0651-0.75428-1.0091-1.4024-0.16152-0.4063-0.045833-0.91069-0.038848-1.3539 0.083999-0.30504 0.090644-0.64421 0.279-0.90386 0.2248-0.473 0.94137-0.58224 1.3927-0.32757 0.17974 0.15453 0.65005 0.19321 0.43213 0.50635-0.23649-0.03567-0.36783-0.26966-0.60974-0.31587-0.37398-0.11697-0.84081-0.07026-0.91888 0.34778-0.39464 0.5221-0.24368 1.2246-0.28229 1.8574 0.14892 0.27103 0.079569 0.67192 0.37454 0.88182 0.15999 0.28162 0.68215 0.57545 0.99041 0.2351 0.2688-0.15163 0.091667-0.67067 0.44954-0.64233 0.2108 0.13249 0.1438 0.32437 0.056908 0.52642-0.17555 0.43386-0.66775 0.73429-1.1163 0.59107zm2.0333-0.071493c-0.13733-0.31176-0.16783-0.70191-0.22482-1.0552-0.041914-0.51222 0.0535-0.99024 0.073946-1.4906 0.0932-0.38714-0.10819-0.85865 0.073947-1.194 0.36452-0.23833 0.27219 0.33708 0.27739 0.5578 0.042085 0.40513-0.073436 0.80224-0.044641 1.2075 0.3734-0.066855 0.77574 0.080268 1.1067-0.10748-0.089963-0.46588-0.0017039-0.90548-0.09763-1.3651-0.027261-0.22093 0.2347-0.58437 0.36513-0.25177 0.015335 0.41517 0.089452 0.84937 0.066962 1.293 0.13511 0.31473 0.053841 0.57554 0.039529 0.93281 0.049071 0.26698 0.030669 0.54779 0.10836 0.79291 0.11518 0.16046-0.039018 0.6081-0.28042 0.38228-0.080081-0.17316-0.066279-0.51542-0.17151-0.56294 0.092859-0.23124-0.015335-0.6236-0.032884-0.85969-0.35704 0.15188-0.81595 0.0036291-1.1466 0.16537-0.059123 0.49887 0.13103 0.91691 0.17751 1.4302-0.013631 0.15378-0.17941 0.28787-0.29122 0.12496zm4.9407-0.093205c-0.14875-0.30089-0.17297-0.69056-0.17873-1.0234 0.16152-0.76028-0.067131-1.5216-0.096267-2.2834 0.27008-0.26406 0.48587 0.066823 0.53139 0.33064 0.22377 0.27957 0.26137 0.61072 0.49841 0.85219 0.054012 0.42103 0.37989 0.70493 0.46324 1.0878 0.25408 0.4184 0.09303-0.16055 0.18454-0.3714-0.05316-0.33445 0.039699-0.7003-0.036292-1.045 0.096949-0.31226-0.19725-0.68472 0.069006-0.9387 0.42622 0.070624 0.22056 0.63333 0.28573 0.93553 0.011927 0.61591 0.022661 1.283 0.054353 1.8635-3.44e-5 0.16988-0.18066 0.59663-0.42255 0.33161-0.17187-0.24711-0.39122-0.48447-0.49728-0.75174-0.1705-0.36582-0.38164-0.75059-0.53509-1.154-0.19173-0.45783-0.12694 0.2455-0.11194 0.42774 0.025728 0.47822-0.13528 0.97584 0.09337 1.4314-0.048219 0.13209-0.081955 0.53666-0.30194 0.30718zm2.7619-0.15021c-0.28994-0.044738-0.16681-0.53139-0.22964-0.76282 0.07224-0.76667 0.0011-1.5378 0.03646-2.3063 0.11961-0.14983 0.39657-0.48007 0.57225-0.13715 0.09711 0.30364 0.31024 0.56006 0.36484 0.85263 0.31993 0.50788 0.43705 1.0907 0.85201 1.5519 0.11944-0.19479 0.01789-0.54003 0.06219-0.82523-0.13068-0.4619 0.0035-0.96309-0.14636-1.4061-0.0035-0.42385 0.551-0.14439 0.40711 0.19324-0.01907 0.6488 0.11467 1.2429 0.09576 1.8882-0.02813 0.28058 0.07463 0.77231-0.24198 0.88336-0.21344-0.096996-0.35503-0.30637-0.49609-0.50915-0.33099-0.34905-0.45557-0.86111-0.65876-1.258-0.11007-0.27473-0.25244-0.58058-0.4569-0.80113-0.12421 0.017347 0.0593 0.52633-0.05964 0.65852 0.13205 0.23478-0.0259 0.62342 0.06135 0.90379-0.09814 0.22482-0.0501 0.6056 0.07787 0.80032-0.0375 0.09283-0.07292 0.37386-0.24033 0.27382zm3.2481-0.067479c-0.34932 0.037006-0.44372-0.3745-0.55239-0.61419-0.20766-0.41449-0.13034-0.92718-0.27468-1.3516 0.09064-0.31914-0.33368-0.69526 0.0276-0.91756 0.44336-0.39859 1.1559-0.64063 1.705-0.35183-0.0035 0.42675-0.57334 0.08561-0.79077 0.23923-0.23423 0.092517-0.4555 0.17372-0.68057 0.3439 0.09935 0.26758-0.01942 0.66427 0.18246 0.82625 0.33387-0.01846 0.70687-0.018345 1.0127 0.084058-0.12642 0.16019-0.35157 0.2592-0.60502 0.24705-0.35295-0.04523-0.4949 0.1379-0.36411 0.43183 0.15028 0.26347 0.17149 0.68621 0.54012 0.7281 0.38105-0.11207 0.82128 0.086623 1.1398-0.21693 0.19302 0.24947-0.09047 0.58623-0.40397 0.53053-0.31056-2.703e-4 -0.63178 0.03356-0.93619 0.021176zm8.9509-0.066297c-0.24544-0.077328-0.72878 0.12546-0.65816-0.3001 0.14551-0.24522 0.69586 0.079513 0.6013-0.27932 0.01363-0.24163-0.08451-0.46102-0.08076-0.71144-0.02897-0.43643-0.16118-0.89243-0.01193-1.3141 0.08179-0.31547-0.29153-0.2087-0.46765-0.2093-0.30787 0.069152-0.61364-0.2899-0.17243-0.32738 0.56475-0.122 1.0757 0.17372 1.6342 0.11327 0.39875-0.10916 0.17858 0.54275-0.07122 0.384-0.25863-0.10713-0.60979-0.065492-0.60152 0.29694-0.03817 0.6221 0.04652 1.2674 0.17086 1.8474-0.01533 0.3234 0.68501-0.05828 0.76276 0.22849-0.01025 0.42691-0.5831 0.20703-0.82795 0.29493-0.09287-0.00489-0.18702 0.00523-0.2772-0.023456zm5.2723-0.047997c-0.18648-0.13959-0.19734-0.52013-0.22031-0.67967-0.085021-0.54155-0.015334-1.1048-0.10922-1.638 0.060658-0.30574-0.034583-0.55545-0.38382-0.45261-0.22238-0.019235-0.7488 0.20424-0.58452-0.20724 0.4347-0.30097 1.0439-0.11752 1.5692-0.17723 0.21584 0.005044 0.86761-0.10865 0.6052 0.2784-0.07974 0.30347-0.49611-2.103e-5 -0.73313 0.10902-0.2665 0.063212-0.06986 0.45261-0.09814 0.66917 0.01364 0.49576 0.03186 0.97155 0.06168 1.455 0.10956 0.19981 0.30949 0.56923 0.0035 0.66164-0.04107 0.028735-0.07445-0.00244-0.10972-0.018396zm-11.69-0.063069c-0.33215-0.25598-0.31547-0.75957-0.37496-1.1427 0.013628-0.48776-0.23314-0.93568-0.2231-1.4306-0.035275-0.20287-0.096091-0.70236 0.21516-0.62752 0.16067 0.26742 0.09047 0.68299 0.17588 1.0042 0.01738 0.3887 0.21656 0.71877 0.20485 1.1124 0.05044 0.25983 0.07207 0.54687 0.22658 0.76787 0.34067 0.024017 0.7065-0.16055 1.0247-0.0168 0.16885 0.32551-0.31232 0.31337-0.52882 0.34387-0.2251 0.020386-0.51727 0.10401-0.72025-0.010785zm9.5339 0.029279c-0.36433 0.026998-0.74715-0.053106-0.95383-0.39262-0.15403-0.16756 0.08944-0.78366 0.1826-0.3937-0.01977 0.32098 0.39446 0.50294 0.68529 0.43952 0.29103 0.040595 0.54233-0.16056 0.42596-0.45298-0.13154-0.38689-0.55303-0.58597-0.90387-0.60305-0.29521-0.11682-0.5536-0.32221-0.73398-0.58467-0.15028-0.30116 0.035446-0.53131 0.17964-0.75523 0.2537-0.35038 0.83106-0.68126 1.2321-0.2964 0.3206 0.041465 0.28023 0.62115-0.041408 0.46801-0.16442-0.025869-0.2116-0.42544-0.5073-0.23133-0.25434 0.12744-0.70924 0.40228-0.49597 0.72193 0.28474 0.30242 0.6823 0.41643 1.0621 0.51768 0.217 0.19334 0.47055 0.33089 0.52979 0.64805 0.21726 0.42997-0.15454 1.0267-0.66122 0.9148zm-5.628-0.071323c-0.29238-0.094207-0.41886-0.3996-0.44608-0.67465-0.19337-0.52334-0.12728-1.1016-0.21925-1.6388-0.0084-0.23669 5e-3 -0.6931 0.35097-0.60639 0.10444 0.52562 0.0035 1.136 0.12421 1.6369 0.05317 0.27956 0.11262 0.6481 0.25558 0.8585 0.28048-0.013273 0.64318 0.026101 0.89826-0.13366 0.258-0.0302 0.47133 0.41067 0.06782 0.41732-0.28001 0.10274-0.6716 0.038971-0.89504 0.15576 0.03715 0.068903-0.11978-3.068e-4 -0.13648-0.01496z" stroke-width=".05631"/></svg>
