<?xml version="1.0" encoding="UTF-8"?>
<svg width="37" height="16" version="1.1" viewBox="0 0 9.7896 4.2333" xml:space="preserve" xmlns="http://www.w3.org/2000/svg"><path d="m2.1737 4.2136c-0.20487-0.12052-0.1414-0.38787-0.24711-0.57215-0.098136-0.095837-0.05629-0.26704-0.15338-0.36948-0.067159 0.087049-0.12021 0.2288-0.24144 0.23878-0.030746 0.13483-0.21701 0.034305-0.26476 0.15224-0.14647 0.090279-0.34467 0.03944-0.49347-0.014145-0.081171-0.043651-0.191-0.067485-0.25626-0.15482-0.13163-0.11315-0.25637-0.2326-0.31159-0.40182-0.13888-0.22051-0.051356-0.49685-0.15943-0.7238 0.041514-0.11153-0.078737-0.22135-0.037528-0.34544 0.0040617-0.27526-0.034251-0.55578 0.066209-0.81906-0.010182-0.11935 0.071952-0.19061 0.093769-0.30921 0.033052-0.16975 0.14166-0.31666 0.22886-0.46225 0.076719-0.093018 0.12671-0.17949 0.20907-0.26473 0.099527-0.13192 0.25229-0.21247 0.41969-0.18041 0.18367 0.0062092 0.38353 0.010092 0.52615 0.14154 0.098545 0.03659 0.1955 0.09509 0.27023 0.17773 0.023373 0.1385 0.24593 0.037579 0.19698 0.21479 0.039021 0.1407-0.11759 0.19271-0.21664 0.13482-0.11379-0.06018-0.17523-0.11801-0.25575-0.21687-0.11215-0.023564-0.19359-0.072829-0.27169-0.14453-0.12901-0.012365-0.26354-0.054307-0.37261 0.040396-0.10695 0.071852-0.1521 0.18162-0.24449 0.2707-0.15136 0.21678-0.25335 0.46931-0.29161 0.73099-0.086974 0.07842 0.027726 0.25202-0.083592 0.33475 0.085641 0.11348 0.025554 0.28164 0.06024 0.41718-1.54e-4 0.13864 0.068421 0.26136 0.045475 0.4019 0.057259 0.1876 0.081817 0.38687 0.16307 0.56374 0.066951 0.060155 0.17903 0.16025 0.25856 0.24322 0.092479 0.06001 0.19489 0.095867 0.31854 0.074498 0.16642 0.00455 0.29013-0.15794 0.36506-0.28211 0.066959-0.097133 0.15443-0.21207 0.13757-0.34701 0.027073-0.10178 0.072601-0.19195 0.073754-0.30801 0.046008-0.10199 0.01913-0.2311 0.14198-0.28554 0.12648-0.00528 0.28976 0.020294 0.24658 0.18812 0.017755 0.24717-0.024042 0.49873-0.00816 0.74262 0.087929 0.10111 0.023073 0.24094 0.1061 0.33805 0.10622 0.11623 0.043981 0.29323 0.15999 0.40689 0.081966 0.097927 0.04793 0.2477 0.00239 0.35552-0.040779 0.030941-0.13077 0.080413-0.18077 0.032902zm1.6035-0.32599c-0.15495-0.02136-0.32242-0.031562-0.46684-0.085318-0.06027-0.086435-0.058765-0.21812-0.095854-0.32491-0.0097724-0.14032-0.0062967-0.28422-0.091701-0.40414-0.037834-0.29508-0.091456-0.58367-0.089234-0.88238-0.069901-0.45397-0.029597-0.91614-0.044558-1.3743 0.041232-0.088125 0.01-0.21762 0.10435-0.30125 0.034015-0.13722 0.18189-0.18176 0.30862-0.20994 0.38829-0.017081 0.77652-0.031976 1.1634 0.015822 0.10248 0.075651 0.073573 0.21012-0.021647 0.27745-0.073386 0.051892-0.23023 0.004752-0.31222-0.031005-0.10865-0.059798-0.25901 0.00823-0.38534-0.006792-0.14016 0.022361-0.31806-0.046823-0.41075 0.090739-0.055184 0.095118-0.15402 0.21817-0.13059 0.32814 0.04754 0.1212-0.062654 0.26004 0.019484 0.37738-0.040031 0.23246-0.015624 0.46808-0.010314 0.7022 0.16179 0.13531 0.3176-0.08238 0.48783-0.062648 0.18058-0.00358 0.35066-0.076123 0.53392-0.044815 0.10046 4.322e-4 0.31913 0.031656 0.17979 0.15759-0.090067 0.064422-0.21077 0.14058-0.32306 0.092442-0.10619 0.12277-0.2963 0.054534-0.42834 0.13897-0.12419 0.06161-0.27852 0.061377-0.39088 0.1352 0.029923 0.21713 0.12216 0.42639 0.090545 0.64832 0.10682 0.096204 0.095567 0.24165 0.1211 0.37175 0.12651 0.072885 0.26053 0.11165 0.4072 0.092864 0.17636 0.00998 0.34789-0.076923 0.49226-0.17173 0.15551 0.00635 0.13252 0.15083 0.082861 0.2541-0.095905 0.136-0.24472 0.19126-0.39959 0.2334-0.1289-0.0015255-0.26337 0.012711-0.39042-0.017206zm1.5633-0.10868c-0.14056-0.18175-0.045602-0.42794-0.043141-0.63961 0.033283-0.1752 0.10987-0.35109 0.033713-0.52544 0.027041-0.1051 0.14303-0.17241 0.10813-0.30195 0.00567-0.15271 0.018932-0.30394 0.065749-0.44714 0.017208-0.34935 0.037474-0.70333 0.10462-1.0451 0.046474-0.086997 0.023869-0.19922 0.061165-0.30448 0.02077-0.10525 0.11834-0.18696 0.19953-0.19333 0.1624-0.051938 0.2102 0.08706 0.25442 0.20027 0.022551 0.093307 0.085246 0.20106 0.098487 0.30632 0.074131 0.18594 0.1935 0.35901 0.22693 0.56024 0.0804 0.097823 0.07324 0.21493 0.1105 0.32702 0.06485 0.12656 0.01914 0.27207 0.0994 0.39344 0.03622 0.14305 0.04267 0.29844 0.14754 0.40939 0.04213 0.15606 0.16071 0.27512 0.18622 0.43916 0.09544 0.17107 0.20863 0.32844 0.30451 0.49978-0.05592 0.10689-0.07944 0.25594-0.23001 0.23965-0.096189-0.10246-0.20572-0.19835-0.23651-0.34004-0.06866-0.085508-0.059662-0.20394-0.15094-0.26448-0.018431-0.11375-0.10449-0.21669-0.12727-0.33383-0.089635-0.061479-0.067066-0.26866-0.18154-0.24881-0.10685 0.065609-0.2079-0.021113-0.31076 0.036425-0.10385 0.036498-0.29649-0.038936-0.34376 0.058407-0.056513 0.34122-0.044136 0.69735-0.12446 1.0323-0.026719 0.099609-0.12008 0.21765-0.2271 0.16884l-0.014567-0.015504zm1.0095-1.5559c-0.040501-0.15197-0.10245-0.30077-0.097735-0.46074-0.095646-0.25115-0.1654-0.517-0.29116-0.75209-0.03817-0.20444-0.13077 0.055011-0.10792 0.14517-0.01098 0.19969-0.065977 0.39423-0.046725 0.59577-0.082938 0.077393 0.031496 0.23408-0.036517 0.33833-0.085754 0.15934 0.14938 0.11082 0.23897 0.11891 0.10851-0.029054 0.26922 0.057563 0.34109 0.014646zm3.0634 1.3281c-0.11697-0.10787-0.095852-0.29367-0.15816-0.427-0.10416-0.18161-0.14439-0.3942-0.24987-0.57272-0.032784-0.14189-0.11056-0.26644-0.14624-0.40859-0.21003 0.0068-0.4179 0.051408-0.62819 0.046486 0.04791 0.29719 0.02874 0.60515 0.07883 0.89875 0.05687 0.11171 0.1031 0.2594 0.0517 0.37127-0.07905 0.083072-0.2116 0.1044-0.27719-0.00606-0.069-0.086395-0.09369-0.22056-0.11717-0.33392-0.0023-0.2346-0.0046-0.46921-0.0068-0.70381-0.07948-0.088159-0.02103-0.24815-0.12031-0.32706-0.06471-0.2763 0.0063-0.56863-0.07832-0.83959-0.0062-0.18092-0.05031-0.37353-0.0438-0.54603 0.04679-0.11679 0.07892-0.23048 0.2234-0.25624 0.15678-0.10514 0.34263-0.11027 0.51642-0.16568 0.12055 0.016931 0.24657 0.033119 0.32902 0.11346 0.13535 0.031842 0.22608 0.16258 0.33502 0.2446-0.01839 0.12817 0.20968 0.0835 0.18339 0.24281 0.09327 0.23739 0.05371 0.49319-0.02909 0.72701-0.02608 0.14661-0.14654 0.28977-0.08402 0.43972 0.06693 0.19574 0.11805 0.40497 0.22225 0.58621 0.0036 0.11604 0.14121 0.18193 0.10142 0.3053 0.09508 0.096307 0.09099 0.2295 0.17725 0.31946 0.14944 0.096651-0.0093 0.19646-0.05479 0.29746-0.0257 0.061776-0.19455 0.066022-0.2247-0.00581zm-0.80058-1.7238c0.15246-0.062171 0.26513-0.16797 0.38251-0.28368-0.01785-0.12553 0.07125-0.20871 0.05075-0.33985 0.03965-0.17418-0.10112-0.31992-0.21255-0.43682-0.08744-0.049817-0.15749-0.12501-0.27146-0.12364-0.11843-0.036927-0.20466 0.015345-0.315 0.040779-0.11961 0.025221-0.22669 0.11751-0.18888 0.25071 0.02276 0.31928 0.01705 0.64376 0.09232 0.95403 0.09549 0.028358 0.25789 0.027153 0.36566-0.00806 0.03221-0.017823 0.06442-0.035645 0.09664-0.053467z" stroke-width=".051359"/></svg>
