<?xml version="1.0" encoding="UTF-8"?>
<svg width="82" height="16" version="1.1" viewBox="0 0 21.696 4.2333" xml:space="preserve" xmlns="http://www.w3.org/2000/svg"><path d="m17.226 4.1436c-0.10804-0.18919-3.54e-4 -0.46706-0.074174-0.66921-0.0036-0.45925-0.04794-0.92514 0.0077-1.3877-0.05324-0.23806 0.05389-0.44254-0.05163-0.6674 0.0465-0.2174 0.01397-0.41219 0.11725-0.61008 0.2673-0.12594 0.4087 0.1753 0.44244 0.39851 0.15263 0.28125 0.3275 0.54333 0.43554 0.81738 0.07978 0.18499 0.1654 0.34428 0.23227 0.51451 0.10853 0.21501 0.22043 0.46684 0.34675 0.67536 0.12521 0.35854 0.23932 0.24647 0.17683-0.090016-0.04017-0.54786 0.05722-1.1186-0.05944-1.6468 0.01905-0.26876-0.04566-0.50291-0.03462-0.73589 0.11877-0.22976 0.49915-0.040894 0.36544 0.21976 0.05808 0.18347-0.11893 0.4594 0.0042 0.53234 0.01295 0.21627 0.04095 0.40663 0.04998 0.62896-0.0052 0.36304 0.0065 0.75808 0.01562 1.1448-0.01068 0.30566 0.12978 0.68802-0.13841 0.9099-0.27599 0.11384-0.38336-0.2466-0.51726-0.42007 0.004623-0.11429-0.16498-0.34436-0.2469-0.52412-0.10649-0.21199-0.21833-0.45701-0.28434-0.63929-0.067172-0.2026-0.22957-0.43298-0.29379-0.65587-0.094087-0.33815-0.30792-0.28383-0.23681 0.064481-0.03766 0.24256-3.3e-5 0.4048-0.0029 0.63073-0.02825 0.37807 0.03599 0.71058 0.02096 1.0874 0.20186 0.15498-0.03419 0.68767-0.27471 0.42236zm-8.6313-0.0093242c-0.15103-0.16814-0.070107-0.42965-0.20032-0.63215-0.14762-0.27609-0.24274-0.56981-0.33578-0.86824-0.17338 0.11473-0.47407-0.0064013-0.58821 0.19315 0.1349 0.36373-0.055558 0.74752-0.020195 1.1213-0.073203 0.30284-0.44899 0.12339-0.36492-0.13929 0.021418-0.42806 0.043746-0.85886 0.074794-1.2833 0.19022-0.40629 0.18649-0.88249 0.28948-1.3171 0.047047-0.21941-0.001039-0.48385 0.041141-0.67943 0.12559-0.1295 0.23613-0.23637 0.42849-0.19673 0.35331 0.15674 0.17648 0.57801 0.31893 0.8557 0.022992 0.40841 0.094308 0.80801 0.10931 1.2196 0.16888 0.20512 0.096569 0.45518 0.20431 0.6602 0.066251 0.21721 0.1883 0.43557 0.28013 0.66143 0.08369 0.16966 0.069775 0.45554-0.1722 0.45958l-0.03394-0.028529zm-0.79044-1.7564c0.33558 0.04543 0.16614-0.25339 0.18266-0.44882-0.020474-0.261-0.10015-0.52334-0.13231-0.77841-0.097174-0.09894-0.076919 0.32541-0.13668 0.44384-0.060752 0.25808-0.076192 0.53737-0.14004 0.78346 0.044561 0.053116 0.1631-8.551e-4 0.22637-7.25e-5zm0.05901-1.4258c-0.058187-0.11608-0.054798 0.11041 0 0zm-2.1433 3.0947c-0.25395-0.09521-0.40808-0.27774-0.60106-0.47856-0.22277-0.65976-0.4467-1.3629-0.30522-2.0654-0.046895-0.22891 0.071877-0.35459 0.13081-0.55976 0.048925-0.24136 0.14155-0.5016 0.32676-0.66965 0.18055-0.060276 0.27449-0.32842 0.48539-0.23825 0.27749 0.10098 0.42866 0.369 0.61951 0.59751 0.025613 0.17636-0.02507 0.64171-0.27255 0.45637-0.13059-0.15667-0.035243-0.44467-0.27626-0.52632-0.25253-0.28789 0.19707 0.25155-0.1519 0.09982-0.21677-0.24517-0.33414 0.16722-0.41409 0.32884-0.13642 0.39914-0.11009 0.8245-0.13357 1.2398 0.1308 0.19976 0.030496 0.49725 0.18417 0.7039 0.017286 0.35549 0.27131 0.60592 0.54942 0.79688 0.29952-0.039626 0.35806-0.3699 0.39414-0.6162 0.14541-0.21199 0.38727-0.1036 0.36848 0.13139-0.064173 0.2379-0.080443 0.48046-0.25978 0.65649-0.13867 0.15094-0.42607 0.31784-0.64426 0.1431zm7.1308 0.066663c-0.27441-0.070028-0.6238 0.043879-0.85865-0.14461-0.11203-0.23661 0.30434-0.29406 0.47022-0.24996 0.23249 0.063506 0.58917 0.11528 0.39727-0.23029 0.0181-0.29569 0.09537-0.58966 0.01451-0.88918-0.01325-0.53676 0.05723-1.0724 0.0405-1.6122-0.14538-0.10823-0.50705 0.090381-0.60968-0.16785-0.05043-0.25556 0.35071-0.29114 0.53964-0.27473 0.30451 0.04339 0.59629 0.088776 0.91005 0.06994 0.2174 0.005702 0.34767 0.38299 0.09662 0.39097-0.18126-0.039278-0.42994 0.015244-0.59433 0.00549-0.01311 0.68865-0.05969 1.3863 0.0059 2.0667 0.054 0.19384-0.17332 0.67101 0.12935 0.63703 0.1971-0.060044 0.51233 0.00471 0.40753 0.27206-0.17873 0.24292-0.53847 0.082888-0.80206 0.13494-0.0427-0.013113-0.11302 0.024428-0.14691-0.0083zm-12.37-0.037461c-0.37166-0.20127-0.52354-0.70942-0.45605-1.1063 0.029097-0.41424-0.032869-0.82061 0.0054348-1.228-0.042771-0.2028 0.037609-0.41513-0.0084631-0.63628 0.10389-0.24832-0.13241-0.56548-0.022081-0.83539 0.11753-0.20931 0.47112-0.028882 0.3643 0.18761-0.069846 0.21779 0.20179 0.43597 0.004877 0.60794 0.042763 0.23349 0.024702 0.47494 0.035954 0.73007 0.011324 0.23907 0.085453 0.43749 0.072388 0.66901-0.053169 0.25955-0.002235 0.5099-0.066994 0.76921 0.001761 0.31981 0.31428 0.51519 0.61221 0.42612 0.30674-0.010039 0.66008-0.12311 0.93929-0.010414 0.17468 0.14718-0.08327 0.44703-0.28425 0.3526-0.29796 0.023914-0.5952 0.093661-0.91033 0.076675-0.095107-0.00286-0.19247 0.017065-0.28629-0.00283zm14.651-0.044701c-0.29142-0.051167-0.4472-0.33837-0.52288-0.60864-0.1571-0.39352 0.0446-0.81129 0.02804-1.215 0.06904-0.32747 0.08681-0.66781 0.20901-0.97097 0.08234-0.19412 0.12862-0.46796 0.34005-0.56991 0.17425 0.17942 0.40136-0.090658 0.58485 0.02876 0.17103 0.10029 0.40986 0.1251 0.55077 0.31045 0.16249 0.22469 0.23786 0.5299 0.22617 0.81152 0.13923 0.21913-0.14849 0.45904 0.03427 0.6597-0.04943 0.35556-0.09982 0.81179-0.36852 1.0816-0.15726 0.24804-0.46367 0.47748-0.74396 0.42887-0.09141 0.03379-0.25671 0.05985-0.33779 0.043597zm0.31305-0.37641c0.25903-0.038325 0.45524-0.17938 0.54881-0.41063 0.23845-0.25695 0.18758-0.68151 0.28126-1.0177-0.02384-0.32044-0.07341-0.65637-0.16992-0.95003-0.03754-0.22659-0.40113-0.31834-0.59664-0.26202-0.34023 0.036592-0.37432 0.44492-0.4459 0.70635-0.09335 0.43041-0.0671 0.85385-0.19148 1.2817 0.05272 0.2468 0.07149 0.58445 0.3372 0.67382 0.0804 0.00463 0.15827-0.0034 0.23668-0.021544zm-5.3008 0.33136c-0.17034-0.1456-0.026816-0.40546-0.10045-0.6197-0.007926-0.88362-0.009907-1.7719 0.061426-2.6505-0.3068-0.0053624-0.59067-0.080422-0.87307 0.013508-0.29326 0.067968-0.14734-0.48162 0.12525-0.40466 0.32706-0.072466 0.61529 0.071742 0.95115 0.030594 0.21971 0.12518 0.53352-0.031113 0.7905 0.042517 0.2583-0.088528 0.3609 0.33217 0.16743 0.38032-0.27043-0.064071-0.56823-0.024519-0.84355 0.010986-0.05076 0.38582 4.73e-4 0.81713-0.02329 1.1934 0.08466 0.593-0.11061 1.2214 0.06535 1.8114-0.01306 0.18718-0.14022 0.32592-0.32073 0.19217zm-7.1739-0.11427c-0.35135-0.20619-0.4737-0.62289-0.49054-1.0106-0.023743-0.44061 0.046351-0.88849 0.037297-1.3343 0.076951-0.25278 0.076648-0.53879 0.1531-0.807-0.029968-0.30291 0.3315-0.47111 0.59012-0.39255 0.24791-0.007651 0.53234 0.009192 0.65096 0.25153 0.22524 0.12707 0.18691 0.37013 0.26504 0.56361 0.016271 0.27876 0.10986 0.59804 0.00255 0.86045 0.11067 0.21122 0.013405 0.51837-0.01403 0.73917-0.015188 0.20641-0.10123 0.37967-0.22429 0.53346-0.17237 0.25654-0.36293 0.65373-0.7391 0.62579-0.08218 0.0068807-0.16174 0.029583-0.23111-0.029537zm0.33219-0.33371c0.17914-0.093677 0.20924-0.30041 0.39261-0.43596 0.13643-0.28986 0.23927-0.5828 0.21316-0.91605 0.071285-0.19495 0.015256-0.43273 0.02101-0.5949-0.015536-0.2204-0.026668-0.55993-0.20083-0.76715-0.062982-0.23884-0.45459-0.24928-0.6013-0.19886-0.11079 0.21055-0.26032 0.454-0.22093 0.72139-0.1026 0.26423 0.013226 0.55626-0.068792 0.80538-0.013761 0.41051-0.070566 0.84721 0.14747 1.213 0.025326 0.14911 0.17503 0.23482 0.3176 0.17318zm16.904 0.34955c-0.37044-0.069196-0.49754-0.54217-0.33827-0.84084 0.23811-0.029944 0.19511 0.28282 0.24974 0.43195 0.16842 0.21929 0.47914 0.071952 0.71798 0.10879 0.28836-0.13688 0.52792-0.46211 0.40562-0.79127-0.03064-0.23519-0.35639-0.23325-0.4917-0.26222-0.28792 0.019638-0.578-0.17656-0.66552-0.45498-0.23956-0.2449-0.11004-0.63581-0.1405-0.94554 0.10536-0.34334 0.45825-0.54373 0.76577-0.68748 0.32828-0.008014 0.64579 0.08605 0.81599 0.37922 0.1872 0.059937 0.26221 0.39768 0.14084 0.54701-0.0576 0.26403-0.40034 0.063663-0.28936-0.16461-0.04892-0.14641-0.18868-0.34164-0.35947-0.41402-0.22103-0.15059-0.45103 0.09122-0.61568 0.18773-0.20315 0.12192-0.08047 0.48537-0.12872 0.70442 0.10134 0.24708 0.23742 0.56388 0.56224 0.50906 0.22846 0.00963 0.52574 0.018755 0.60046 0.27202 0.13447 0.10775 0.19302 0.34381 0.20829 0.52089 9e-3 0.50172-0.43888 0.97773-0.95588 0.90406-0.15892-0.00657-0.32824 0.037006-0.48183-0.00422z" stroke-width=".055759"/></svg>
