<?xml version="1.0" encoding="UTF-8"?>
<svg width="65" height="16" version="1.1" viewBox="0 0 17.198 4.2333" xml:space="preserve" xmlns="http://www.w3.org/2000/svg"><path d="m2.9468 4.1038c-0.194-0.12969-0.059854-0.39154-0.21892-0.54759 1.357e-4 -0.18302-0.11165-0.33224-0.13847-0.51528-0.029088-0.19115-0.1761-0.32817-0.20503-0.47615-0.24086 0.039667-0.48328 0.010433-0.70556 0.049409-0.25037 0.0048099-0.52044-0.020403-0.75234 0.030028-0.081735 0.046383-0.32117 0.073692-0.32101 0.24544-0.0736 0.14719-0.038238 0.37134-0.11044 0.48143-0.035315 0.12273-0.06038 0.32722-0.18433 0.44976 0.093856 0.20291-0.45794 0.14137-0.27216 0.014477 0.0403-0.191 0.058377-0.34534 0.069399-0.52347 0.040888-0.33342 0.2118-0.65466 0.27649-0.96378 0.03876-0.14146 0.050701-0.30904 0.12903-0.45105 0.12134-0.16353 0.11588-0.30189 0.21565-0.45794 0.057511-0.13011 0.071225-0.2861 0.14908-0.41816 0.077927-0.186 0.226-0.33644 0.28571-0.52776 0.13626-0.11895 0.18731-0.32585 0.40008-0.28732 0.16894 0.02882 0.34727 0.12319 0.4794 0.22946-0.016604 0.15283 0.16048 0.2519 0.067674 0.41008 0.1306 0.12109 0.10851 0.25819 0.21392 0.39673 0.04452 0.23771 0.21225 0.42057 0.22871 0.66005 0.055842 0.17899 0.13401 0.27897 0.19014 0.43612-0.00164 0.21881 0.18573 0.39641 0.19647 0.63242 0.017431 0.21063 0.19861 0.36964 0.16988 0.59034 0.14005 0.1464 0.21783 0.40646 0.11208 0.58513-0.080295 0.024004-0.22461 0.048718-0.27544-0.04237zm-2.0199-1.9103c0.39357-0.14368 0.82443-0.012573 1.2363-0.029779 0.026339-0.24085-0.13607-0.45768-0.1508-0.70044-0.10251-0.17912-0.21162-0.35337-0.19301-0.57141-0.048339-0.12009-0.27155-0.24454-0.32749-0.091179-0.13139 0.098106-0.12249 0.32439-0.25955 0.43501-0.055092 0.12991-0.10583 0.32852-0.19755 0.37944 0.010918 0.22405-0.15173 0.37922-0.19024 0.59466 0.023282-0.012885 0.074077 0.023528 0.082333-0.016303zm3.7432 1.7472c-0.18192-0.046714-0.51827 0.092483-0.56193-0.16765-0.070459-0.16479 0.043352-0.39541-0.044575-0.58486-0.024798-0.25612-0.081819-0.50965-0.054513-0.76484-0.12754-0.3904 0.017791-0.7959-0.012435-1.1968-0.006349-0.21112 0.042182-0.45949-0.093186-0.62764-0.058276-0.18599 0.20191-0.30925 0.34051-0.35908 0.18178-0.069307 0.36767-0.1015 0.54782-0.175 0.21011 9.8987e-4 0.41217 0.12918 0.62822 0.15098 0.16158 0.15585 0.45464 0.071005 0.60824 0.26228 0.10401 0.14172 0.27027 0.23726 0.32602 0.37537 0.011967 0.21217 0.065077 0.38128-0.040364 0.54776 0.014353 0.13746-0.27452 0.34416-0.064375 0.35833 0.13762 0.10174 0.20471 0.22089 0.35182 0.27953 0.14717 0.11529 0.16056 0.2398 0.20574 0.43605 0.022905 0.17757 0.088453 0.29925 0.085663 0.43405-0.069233 0.17432-0.11427 0.33598-0.22344 0.49632-0.13659 0.059836-0.16911 0.19887-0.30343 0.27826-0.19317 0.070936-0.3478 0.17465-0.56262 0.18955-0.36618 0.11267-0.75202 0.080005-1.1332 0.067399zm0.30414-0.36028c0.18213-0.046921 0.35577 0.026435 0.52532-0.0029 0.17126-0.026805 0.36073-0.087152 0.48848-0.1696 0.10841-0.061023 0.28515-0.13427 0.33895-0.27565 0.20647-0.16334 0.090443-0.45833 0.10765-0.68345-0.11469-0.18812-0.32692-0.25308-0.49956-0.35547-0.13928-0.14137-0.34103 0.029292-0.52021-0.026712-0.13278 0.069178-0.37815 0.081446-0.56851 0.071128-0.14843 0.059054-0.29019 0.093291-0.45862 0.12672-0.022414 0.19154 0.035978 0.44611 0.079401 0.65266 0.011524 0.17358 0.01973 0.36584 0.061095 0.4698 0.076207 0.21716 0.24463 0.24408 0.44601 0.19348zm-0.30463-1.841c0.17896-0.073764 0.33734-0.010512 0.53453-0.038414 0.17278-0.034717 0.34287-0.019089 0.50628-0.12553 0.129-0.0911 0.2175-0.23893 0.28397-0.34725 0.019711-0.2144-0.098716-0.31186-0.23625-0.44646-0.23996-0.15318-0.56131-0.19943-0.84419-0.24191-0.15744-0.10211-0.28882 7.6655e-4 -0.41477 0.084723-0.22111 0.020111-0.026646 0.36528-0.1043 0.44834 0.069319 0.17529-0.052206 0.36675 0.025588 0.52859-0.14276 0.17342 0.12269 0.17479 0.24914 0.13791zm4.217 2.1081c-0.16749-0.084239-0.3347 0.0081191-0.49309-0.068486-0.20693-0.039483-0.38824-0.19079-0.49981-0.32045-0.12792-0.023804-0.18343-0.24648-0.18891-0.29032-0.11491-0.15799-0.25651-0.29023-0.24678-0.49879-0.06828-0.11007-0.028848-0.35379-0.08752-0.45829 0.056593-0.22947 0.026368-0.48157 0.092253-0.70875-0.023847-0.16081 0.069098-0.2103 0.086462-0.37099 0.0065414-0.1869 0.13487-0.23716 0.10748-0.42482 0.19857-0.080255-0.12761-0.32926 0.14697-0.385 0.14458-0.089986 0.32045-0.08753 0.50651-0.084701 0.19464-0.034951 0.42448-0.08213 0.6213 0.017037 0.11428-2.0903e-4 0.25304 0.05235 0.37126 0.11253 0.14524 0.056872 0.31952 0.1809 0.37186 0.33052 0.13518 0.11656 0.25809 0.17693 0.29027 0.39195 0.052975 0.17239 0.16035 0.31149 0.14739 0.48838-0.01363 0.16923 0.03903 0.35861-0.01055 0.46652 0.12029 0.099732-0.10281 0.24656 3.13e-4 0.38585-0.02921 0.35857-0.10627 0.74044-0.39151 0.96896-0.14279 0.14634-0.27306 0.22541-0.41524 0.37171-0.12961 0.08457-0.29994 0.056036-0.40867 0.077133zm0.14666-0.42462c0.17602 0.01175 0.28255-0.15624 0.40441-0.2861 0.19308-0.16392 0.21604-0.41819 0.24468-0.65469 0.17829-0.08255-0.039595-0.2983 0.032957-0.4444 0.055746-0.17175 0.042923-0.3368-0.0099756-0.48686-0.058709-0.19123-0.083364-0.43705-0.23581-0.57135-0.095148-0.11397-0.20353-0.26702-0.37459-0.31151-0.078987-0.051085-0.2687-0.083727-0.41572-0.13828-0.13972 0.060793-0.35098 0.023267-0.4548 0.092254-0.10649 0.044005-0.18445 0.25599-0.25816 0.33437-0.011207 0.24385-0.18064 0.43504-0.13452 0.68693-0.034438 0.16141 0.00568 0.33304-0.024982 0.51742-0.00673 0.20991 0.024636 0.43124 0.13252 0.61576-0.047791 0.10708 0.18036 0.26601 0.22383 0.39229 0.10972 0.1211 0.29022 0.21784 0.47258 0.23134 0.14899 0.026339 0.23819 0.045507 0.39757 0.022818zm4.4108 0.31622c-0.17741-0.069712-0.1837-0.26922-0.24835-0.40132-0.090226-0.16198-0.14339-0.30721-0.16264-0.48987-0.1142-0.13531-0.039801-0.29692-0.13146-0.048324-0.09808 0.22562-0.3302 0.40615-0.51209 0.58985-0.15918 0.10022-0.32825 0.030864-0.52278 0.086696-0.21072 0.041874-0.34014 7.061e-4 -0.53637-0.034607-0.14864-0.046642-0.27612-0.10425-0.3655-0.20464-0.10377-0.12827-0.18999-0.22953-0.22388-0.40963-0.15791-0.15701-0.15294-0.30433-0.25784-0.48648-0.013948-0.28484-0.12456-0.54862-0.13146-0.83231-0.0051-0.12249 0.01234-0.36741 0.0028-0.54329-0.0137-0.21533 0.0611-0.41349 0.15093-0.5942 0.14896-0.11632 0.40168-0.053766 0.35806 0.16502 3e-3 0.15737-0.07108 0.29781-0.05176 0.46642-0.08862 0.17309-0.05769 0.37603-0.04316 0.58747 0.08348 0.32377 0.12677 0.65817 0.28732 0.94095-9.05e-4 0.20558 0.14534 0.34761 0.23608 0.51526 0.2511-0.00915 0.46299 0.078662 0.71549 0.037334 0.19167 0.030572 0.30578-0.15691 0.40942-0.25474 0.09524-0.099544 0.1827-0.24183 0.22657-0.40696 0.20777-0.49773 0.1002-1.0412 0.1103-1.5653-0.02897-0.2067 0.09413-0.41015 0.3217-0.3404 0.17952 0.21805 0.11258 0.52539 0.20642 0.7813-0.01388 0.15388 0.0209 0.39567 0.0074 0.58594 0.04091 0.1715-0.02497 0.32273 0.08039 0.46463-0.02462 0.34547 0.20947 0.63359 0.21754 0.97253 0.12901 0.020957 0.22789 0.17971 0.15136 0.31924-0.03868 0.1624-0.17278 0.073293-0.29449 0.099424zm1.9477 0.00282c-0.12638-0.13098-0.15211-0.33154-0.1549-0.5276-0.08541-0.33498-0.12575-0.73004-0.0032-1.0691-0.04569-0.20749-1.04e-4 -0.39582-0.04543-0.59026-0.06642-0.19282-0.01694-0.41504-0.04787-0.62192 0.02181-0.16575-0.06129-0.31244-0.27259-0.31646-0.25136-0.012186-0.52033-0.005849-0.75669-0.049066-0.17116 0.08893-0.19413-0.019139-0.28915-0.05622 0.01201-0.12994 0.06632-0.32836 0.16008-0.30914 0.31117 0.048031 0.62383-0.007131 0.9329 0.006258 0.24524 0.10112 0.52646 0.002686 0.78684 0.070664 0.15802-0.051865 0.38884 0.011935 0.57938-0.021987 0.26632-0.032636 0.54-0.084299 0.80668-0.029155 0.20451 0.084718 0.07887 0.23147-0.01353 0.35264-0.10827 0.13551-0.31878 0.10345-0.47671 0.10681-0.31638 0.064359-0.64515-0.027364-0.95502 0.030544-0.20496 0.051919-0.07254 0.34732-0.1051 0.51146 0.12251 0.36584 0.04273 0.79316 0.0318 1.1865 0.03163 0.17838-0.05762 0.33408-0.0088 0.4611 0.11306 0.13556 0.12883 0.286 0.10078 0.45908 0.01406 0.13104 0.02596 0.28144-0.08307 0.42206-0.05971-0.011123-0.13479 0.020979-0.18647-0.016163z" stroke-width=".05225"/></svg>
