<?xml version="1.0" encoding="UTF-8"?>
<svg width="68" height="16" version="1.1" viewBox="0 0 17.992 4.2333" xml:space="preserve" xmlns="http://www.w3.org/2000/svg"><path d="m1.1679 4.0844c-0.1974-0.017738-0.37656-0.11779-0.57444-0.17288-0.15988-0.047449-0.34991-0.1546-0.42644-0.32597-0.12455-0.15211-0.096239-0.36339-0.13118-0.54766-0.12593-0.28931 8.2024e-4 -0.61638-0.043793-0.92703-0.0052093-0.18572 0.033966-0.39319 0.055942-0.56003 0.081618-0.1879 0.052384-0.39585 0.23488-0.52624 0.063765-0.21196 0.22452-0.35939 0.40526-0.48656 0.11895-0.076939 0.29033-0.1271 0.4185-0.098527 0.20217 0.032103 0.49222-0.13882 0.64205 0.10036 0.19364-0.0071517 0.22223 0.17791 0.35858 0.2766 0.060516 0.11244 0.088594 0.29957-0.056366 0.37804-0.25204 0.10514-0.22847-0.17208-0.33173-0.30543-0.099321-0.13159-0.29104 0.034514-0.42652-0.058406-0.17696-0.0089794-0.27856 0.16355-0.42503 0.16328-0.15806 0.11177-0.25932 0.30337-0.35448 0.46701 0.056834 0.1798-0.16542 0.28651-0.13515 0.45781-0.029923 0.20102 0.029349 0.39784 0.005651 0.60689-0.010083 0.276 0.05732 0.54527 0.084911 0.81821 0.15066 0.10712 0.22479 0.22786 0.35245 0.27695 0.19068 0.00345 0.32567 0.13736 0.51234 0.028448 0.25016-0.024572 0.32966-0.29266 0.46582-0.45121 0.058291-0.12961 0.080002-0.31061 0.18529-0.38146 0.20194-0.045692 0.30658 0.097495 0.32413 0.24813-0.029534 0.18726-0.12556 0.24774-0.22145 0.41086-0.080417 0.25104-0.31239 0.34821-0.48939 0.4899-0.14412 0.021835-0.23657 0.17533-0.42986 0.1189zm2.5942-0.1148c-0.18209-0.054592-0.36331-0.0027371-0.53923-0.11461-0.16815-0.16068-0.35007-0.37321-0.39609-0.60759-0.052729-0.10106-0.094503-0.32086-0.074643-0.48817-0.044862-0.20931-0.0095269-0.47516-0.022029-0.70979 0.005386-0.2711 0.1013-0.51016 0.18543-0.753 0.042257-0.18263 0.23505-0.28584 0.23124-0.48446 0.16512-0.12815 0.15322-0.16083 0.28297-0.24544 0.1199 0.051457 0.28638-0.0060919 0.41881-0.079181 0.13913-0.14548 0.36368-0.037692 0.51864 0.013632 0.12663 0.18749 0.33186 0.32279 0.4356 0.51854 0.14181 0.41269 0.12345 0.87431 0.12336 1.3087-0.029252 0.16999-0.085212 0.3628-0.13036 0.51496 0.0084802 0.2094 0.0082146 0.26445-0.093458 0.48467-0.11856 0.1537-0.19893 0.25057-0.3094 0.4031-0.083243 0.1588-0.29988 0.16865-0.44164 0.26735-0.063553-0.0078581-0.13517 0.014648-0.1892-0.028739zm0.1621-0.40711c0.22573-0.059439 0.41651-0.29426 0.4986-0.52444 0.011708-0.18845 0.077-0.31854 0.085035-0.49095 0.056225-0.1904 0.083985-0.40769 0.026752-0.58901 0.0012362-0.25668 0.0084802-0.5258-0.099012-0.75681-0.06456-0.15849-0.20824-0.26505-0.30567-0.40316-0.21139-0.088668-0.36087 0.096812-0.53626 0.14694-0.1689 0.046239-0.19105 0.30996-0.30838 0.43759-0.067076 0.18999-0.16357 0.34959-0.16459 0.55936-0.10186 0.33309 0.0096 0.6456 0.023796 0.97854 0.11388 0.19532 0.11927 0.52938 0.34723 0.63456 0.15008-0.010115 0.29741 0.045622 0.4325 0.00742zm1.6584 0.41647c-0.17927-0.095108-0.13011-0.26273-0.10257-0.41132-0.0083878-0.18994-0.093218-0.31534-0.073433-0.53768-0.0031785-0.25279 0.10633-0.51777 0.0039733-0.756 0.083075-0.11128 0.057982-0.371 0.071358-0.54482-0.01003-0.19658 0.035238-0.41973-0.0056507-0.5801 0.031521-0.16732 0.08711-0.352 0.067827-0.51532 0.12103-0.12171 0.42634-0.17927 0.4195 0.10589-0.0040562 0.19644 0.12219 0.34837 0.17712 0.51159 0.13055 0.14162 0.15188 0.30981 0.27803 0.45071 0.077512 0.29482 0.26942 0.57376 0.3869 0.83568 0.11901 0.13967 0.20276 0.32978 0.31348 0.49151-0.077124 0.16292 0.22845 0.37238 0.2205 0.070962-0.0078569-0.18665 0.084991-0.35492 0.026046-0.53786 1.864e-4 -0.31177-0.070961-0.62774-0.094115-0.93067 0.090319-0.19645 0.0038825-0.43174 0.012697-0.61528 0.13318-0.1294-0.18167-0.27452-0.019027-0.37645-0.017146-0.20293 0.3507-0.32806 0.39867-0.075084 0.0053 0.13906-0.046716 0.33812-0.033145 0.45875 0.072206 0.26776-0.022577 0.58102 0.023663 0.86577 0.06802 0.45239 0.14134 0.93953-0.013985 1.396-0.0356 0.18029-0.10009 0.25779-0.17009 0.40679-0.060516 0.17133-0.32776 0.19397-0.3781 0.021323-0.092001-0.11703-0.25784-0.24412-0.31731-0.4208-0.091537-0.19083-0.15401-0.3856-0.31393-0.53029-0.0012362-0.22761-0.23851-0.35808-0.24823-0.58089-0.054662-0.14408-0.19041-0.20497-0.19653-0.39057-0.03153-0.15594-0.1937-0.41252-0.1788-0.098453 0.00504 0.27951-0.069892 0.51884-0.044412 0.80427 0.027812 0.27311-0.09224 0.60108 0.082254 0.82885-0.091089 0.15825 0.0083 0.33905-0.053488 0.51229-0.032907 0.084735-0.13 0.21501-0.23913 0.14121zm5.0918-0.22964c-0.17118-0.10094-0.11021-0.37674-0.07069-0.52828 0.05435-0.19477 0.08619-0.40693 0.1025-0.62044 0.09909-0.13181 0.07414-0.37013 0.14945-0.45691 0.01857-0.24034 0.09095-0.4794 0.10413-0.73036 0.07665-0.14786 0.07735-0.32111 0.12574-0.49451 0.12468-0.17857 0.13124-0.47882 0.37032-0.56225 0.14342 0.082307 0.44726-0.094322 0.40782 0.20174 0.03309 0.19992 0.09403 0.38866 0.22612 0.53462 0.04756 0.13742 0.13142 0.32264 0.18694 0.46857 0.06896 0.10751 0.11517 0.33749 0.23223 0.38627 0.08576 0.070803-0.09564 0.21607 0.03073 0.38284 0.04784 0.13579 0.11163 0.31572 0.12651 0.42449 0.12533 0.17054 0.17878 0.37974 0.27908 0.55373 0.08143 0.097292-0.02375 0.38305-0.19996 0.39462-0.10328 0.062291-0.21562-0.1831-0.20238-0.28778-0.08697-0.13441-0.08074-0.3373-0.2063-0.45754-0.0063-0.1533-0.12817-0.2834-0.10623-0.44746-0.05043-0.2099-0.30829-0.064842-0.44218-0.055148-0.19442 0.044288-0.33812 0.079667-0.55122 0.065911-0.24878-0.083587-0.12708 0.20175-0.19961 0.31645-0.03765 0.17256-0.03761 0.23378-0.04661 0.39117 0.06635 0.14265-0.06668 0.3169-0.09848 0.47002-0.05936 0.034532-0.14745 0.095224-0.21791 0.050248zm0.79217-1.6258c0.19208 0.02301 0.32501-0.092289 0.52022-0.093612 0.18974-0.07316-0.03442-0.17904-0.04518-0.34437-0.03661-0.14107-0.07578-0.3111-0.16302-0.39535-0.08821-0.12546-0.14139-0.25572-0.21336-0.39972-0.06412-0.038981-0.11728 0.24206-0.18054 0.3196-0.02794 0.13285-0.05392 0.1577-0.10273 0.35177-0.04196 0.19028-0.03869 0.37365-0.10919 0.5572 0.01641 0.055978 0.22181-0.026903 0.2938 0.00451zm-1.8516 1.3092c-0.21861-0.059086-0.14131-0.31557-0.18909-0.49717 0.029243-0.35391-0.042381-0.69983 3.673e-4 -1.0586-0.019928-0.25009 0.12111-0.51168 0.0077699-0.73865 0.037339-0.17493 0.068401-0.39071-0.021217-0.55386-0.15733 0.014957-0.31002 0.015407-0.4266 0.021067-0.10317 0.097732-0.24592 0.11509-0.40252 0.1259-0.15892-0.022965-0.24107-0.29918-0.053982-0.34812 0.15334-0.10476 0.36618-0.061593 0.5248-0.18454-0.067695-0.19032 0.20696 0.12647 0.35799 0.020934 0.35693 0.069495 0.72273 0.0589 1.0777 0.13245 0.23235-0.08703 0.21475 0.26832 0.10009 0.30804-0.12834 0.06637-0.30412 0.028422-0.47459 0.004061-0.20023-0.10817-0.34208 0.067208-0.28737 0.23254-0.0064 0.37786-0.021951 0.71383-0.037533 1.091 0.037314 0.28864-0.052578 0.60927 0.065209 0.86964-0.0084 0.19595 0.03046 0.34075-0.0021 0.54589-0.079919 0.013836-0.15843 0.06969-0.23891 0.029463zm4.5924-0.015275c-0.26222-0.15885-0.51868-0.36384-0.66833-0.63371-0.084197-0.19839-0.18749-0.43776-0.17813-0.66029 0.014488-0.13274-0.10244-0.32679-0.10301-0.50178 0.03791-0.15416 0.01484-0.38823 0.05793-0.53992 0.04486-0.11562 0.06536-0.3099 0.13874-0.47288 0.06644-0.12136 0.12833-0.23922 0.23562-0.34355 0.19084-0.088354 0.39334-0.13824 0.5859-0.078925 0.23082 0.16704 0.60589 0.14721 0.70829 0.44432 0.05193 0.14194-0.03142 0.35323-0.2173 0.35082-0.25122 0.17417-0.13017-0.24833-0.28168-0.33095-0.16562-0.12364-0.41941-0.21096-0.59632-0.057726-0.02596 0.097452-0.18639 0.19089-0.17354 0.38442-0.04628 0.17478-0.05422 0.34608-0.08432 0.50919 0.0243 0.22723 0.05378 0.45158 0.1 0.66472 0.0321 0.17942 0.0733 0.37481 0.20526 0.51982 0.01952 0.15602 0.24427 0.20284 0.34508 0.34038 0.20348 0.01871 0.27387-0.16064 0.42965-0.27634-0.0085-0.10324 0.01156-0.25925 0.07388-0.32885 0.11238-0.21339 0.55868 0.043794 0.32331 0.20904-0.01709 0.16667-0.06537 0.28334-0.22393 0.39823 0.01934 0.13924-0.15345 0.17416-0.23951 0.2961-0.0828-0.056455-0.15065 0.14753-0.27725 0.14704-0.05738-0.0076-0.12616 0.026638-0.16033-0.039158zm2.1997-0.11944c-0.17881-0.088828-0.10027-0.34697-0.155-0.4938 0.0272-0.33669-0.02523-0.72531 0.02445-1.023-0.03562-0.20149 0.03075-0.41072 0.03405-0.61408-0.04811-0.15066 0.08131-0.38933 0.01031-0.46776-0.16345-0.071438-0.31617 0.004061-0.48787-0.038629-0.17596 0.00212-0.38755-0.057187-0.48866-0.13996-0.0908-0.15552 0.11151-0.39096 0.30257-0.27916 0.16844 0.036721 0.35977 0.017306 0.50576 0.073592 0.29584-0.029146 0.58408 0.1334 0.88801 0.11991 0.24708 0.088693 0.52876-0.005121 0.75936 0.050848 0.25224-0.083057 0.23364 0.14654 0.18008 0.31209 0.01102 0.24789-0.26631 0.016167-0.42417 0.065019-0.21368 0.026611-0.36321-0.081336-0.56376 0.00953-0.20138-0.057726-0.2801 3.6729e-4 -0.26698 0.21176 0.01212 0.23135-0.08835 0.42819-0.0739 0.65612-0.03099 0.22249-0.01353 0.47063-0.0023 0.70677-0.08333 0.14172 5e-3 0.36073 0.08866 0.46257 0.0674 0.20015-0.01695 0.20684-0.0679 0.36303-0.08316 0.064357-0.18279 0.07716-0.26261 0.025217z" stroke-width=".046524"/></svg>
