<?xml version="1.0" encoding="UTF-8"?>
<svg width="47" height="16" version="1.1" viewBox="0 0 12.435 4.2333" xml:space="preserve" xmlns="http://www.w3.org/2000/svg"><path d="m12.139 4.0158c-0.15041-0.068718-0.18285-0.24045-0.24322-0.36765-0.09249 0.077222-0.20955 0.19361-0.37506 0.1669-0.03888 0.1136-0.28698 0.01443-0.41239 0.050569-0.144 0.071805-0.22922-0.072138-0.35876-0.074325-0.10325-0.15134-0.35337-0.065528-0.40946-0.264-0.12423-0.050964-0.17321-0.18888-0.25007-0.29363-0.022334-0.13459-0.12954-0.24409-0.13756-0.34856 5.2e-5 -0.084463-0.051251-0.25566-0.083126-0.3747-0.053887-0.26001-0.064652-0.52028-0.058725-0.78814-0.040412-0.17383 0.069762-0.19867 0.067622-0.33598 0.05411-0.07314 0.063291-0.22935 0.11606-0.34094 0.010394-0.14861 0.10265-0.28731 0.17109-0.42572 0.08904-0.058362 0.12526-0.24177 0.26098-0.2781 0.10768-0.10382 0.22166-0.14966 0.3442-0.20876 0.15991-0.17284 0.42267-0.077732 0.63182-0.11183 0.13311 0.020239 0.27258 0.10305 0.38284 0.17665 0.09923 0.05371 0.20089 0.11049 0.25678 0.23453 0.13594 0.093688 0.07079 0.2527 0.16357 0.37342 0.03624 0.12965 0.0013 0.27075-0.02647 0.3996 0.15758 0.042877-0.11311 0.13286-0.17674 0.067623-0.14516-0.0067-0.23796-0.13992-0.18486-0.2792 0.02904-0.20621-0.14772-0.38506-0.30362-0.49313 0.03649-0.076448-0.12238-0.23526-0.25732-0.12364-0.16213 0.14854-0.42959 0.068452-0.56156 0.25093-0.15103 0.077377-0.11034 0.24351-0.19628 0.37136-0.05876 0.11181-0.10768 0.17599-0.13652 0.31677-0.07296 0.2584-0.05975 0.53265-0.10587 0.79954 0.10519 0.10078 0.06716 0.26735 0.14225 0.37089-0.04157 0.13548 0.08361 0.25116 0.07547 0.38552 0.04382 0.14649 0.12766 0.26443 0.26319 0.33853 0.0392 0.097171 0.18712 0.215 0.30405 0.14128 0.16792 0.10648 0.40343 0.0197 0.55147-0.082848 0.07951-0.13269-0.10266-0.13661 0.1276-0.17977 0.16135-0.10178 0.10945-0.32705 0.1198-0.49447-0.07173-0.10235-0.04027-0.22999-0.01478-0.34592-0.02144-0.1562 0.17836-0.25581 0.31403-0.21522 0.194-0.048873 0.13956 0.17189 0.20289 0.29171 0.07043 0.12859-0.0019 0.22838 0.01796 0.36821 0.01717 0.22773 2e-3 0.4678 0.0058 0.68458 0.01111 0.14498 0.0718 0.20635 0.06933 0.32408-0.05426 0.2687-0.0801 0.61487-0.29642 0.31384zm-11.808 0.069758c-0.17213-0.035136-0.17402-0.21213-0.21251-0.34116-0.016566-0.11803 0.069219-0.2994-2.6739e-4 -0.41987 0.012974-0.20484-0.088758-0.39498-0.05399-0.60253-7.4848e-4 -0.1533 0.023971-0.23739 0.007783-0.38966 0.01058-0.08318-0.006991-0.20184 0.025627-0.32902-0.014371-0.2385 0.077322-0.48044 0.029699-0.72012 0.064069-0.09807-0.089158-0.21953 0.0099854-0.26368-0.005791-0.14066 0.10906-0.2533-0.051734-0.30019-0.10015-0.10571 0.024581-0.24714 0.14063-0.28561 0.12922-0.076658 0.14622-0.23422 0.32655-0.22224 0.10235-0.074379 0.24437-0.098446 0.33614-0.11818 0.11273-0.0064961 0.27332-0.056749 0.39015-0.093244 0.12217 0.01949 0.28846 0.028984 0.36367 0.069612 0.1293 0.014642 0.26277 0.12066 0.36941 0.17903 0.039977 0.14205 0.20533 0.18744 0.2274 0.33188 0.11133 0.18547 0.11047 0.42743 0.11259 0.642-0.049819 0.1047-0.076125 0.24351-0.15512 0.33158-0.06854 0.11502 0.098398 0.17799 0.19534 0.19823 0.15003 0.022088 0.22825 0.18238 0.31232 0.26523 0.087582 0.11635 0.0975 0.27571 0.15508 0.40803 0.01996 0.16438-0.062611 0.35034-0.065626 0.52555-0.049259 0.13212-0.094148 0.27789-0.20549 0.38296-0.075087 0.1095-0.13782 0.223-0.20467 0.31894-0.086223 0.12693-0.21914 0.18299-0.34354 0.24625-0.11441 0.059407-0.23007 0.15459-0.35959 0.18115-0.12924-0.016766-0.28471-0.020554-0.4374-0.0087233-0.18352-0.10103-0.42163 0.026546-0.60708-0.075045-0.14554 0.031089-0.12123 0.1888-0.30538 0.088836zm1.2977-0.38671c0.1099-0.076406 0.28271-0.052537 0.33527-0.1813 0.069957-0.11614 0.22886-0.14553 0.21134-0.30656 0.10806-0.1106 0.23158-0.20631 0.23218-0.36631 0.12377-0.15566 0.027424-0.35037 0.027284-0.52927-0.16065-0.036679-0.14241-0.27129-0.32483-0.27736-0.21072-0.03703-0.43999-0.030234-0.65371-0.0052892-0.11995 0.045076-0.1944 0.077248-0.33537 0.08207-0.15935-0.00914-0.27087 0.073573-0.43872 0.05358 0.005989-0.05496-0.22628-0.12743-0.19869 0.053534 0.041735 0.35131-0.013173 0.73899 0.083529 1.0927-0.020738 0.19577 0.14287 0.13469 0.17618 0.26378 0.11405 0.19776 0.35991 0.053111 0.52398 0.14679 0.11952-0.011396 0.24975 0.024333 0.36154-0.026371zm-0.99165-1.9945c0.1354-0.028234 0.2645 0.042627 0.42289 4.998e-4 0.16714 0.0035023 0.19859-0.034631 0.31837-0.092513 0.11666-0.091171 0.20988-0.11968 0.33941-0.18544 0.11369-0.086762 0.13965-0.16767 0.23056-0.26533 0.05884-0.12924-0.030098-0.22325-0.039659-0.35516-0.070776-0.14891-0.23248-0.25748-0.37395-0.33926-0.1186-0.029034-0.27036-0.052096-0.37946-0.0044966-0.12554 0.041777-0.26722 0.0025-0.38174 0.06408-0.095685 0.11522-0.23011 0.070261-0.19173 0.26104-0.046704 0.25315 0.004393 0.52846-0.062272 0.78509 0.066225 0.081825-0.054329 0.22525 0.11756 0.1313zm3.2699 2.3832c-0.16836-0.031272-0.11912-0.24372-0.19816-0.32756-0.1348-0.080653-0.08808-0.2997-0.10958-0.44063 0.024789-0.16312-0.08828-0.25771-0.049399-0.41971-0.004791-0.21755 0.058121-0.43151 0.0083928-0.64445-0.0083928-0.21639 0.071813-0.40798 0.050556-0.6255-0.013772-0.24846 0.012574-0.49708-0.01457-0.74494 0.086423-0.093763-0.015966-0.2037-0.012974-0.304 0.023473-0.10289 0.04391-0.23586 0.1964-0.24842 0.1455-0.01939 0.27812 0.16714 0.20449 0.29677-0.091652 0.047874 0.049618 0.16895 0.00519 0.25486 0.013373 0.075364-0.023232 0.25986-0.00115 0.38281 0.0028 0.23736 0.042872 0.48394 0.038701 0.71402-0.018362 0.12584 0.032214 0.30672-0.05389 0.4098 0.027165 0.085235 0.026247 0.29128 0.025708 0.4276 0.00339 0.28072-0.030418 0.58121 0.14654 0.82209 0.18194 0.021584 0.38592-0.00339 0.54479-0.0861 0.16554-0.089432 0.39659 0.015369 0.5651-0.10319 0.15193-0.068738 0.30781 0.050298 0.32431 0.16705-0.13981 0.059573 0.0024 0.22597-0.055287 0.25548-0.10253 0.10865-0.22723-0.036014-0.32833 0.047744-0.16115-0.067846-0.2305 0.061877-0.38435 0.055205-0.096703 0.070472-0.26701 0.0077409-0.3119 0.088342-0.18592 0.018043-0.39921 0.061995-0.59077 0.022711zm3.4136-0.25097c-0.15486-0.018622-0.27244-0.10349-0.39991-0.16719-0.14985-0.045744-0.24627-0.19988-0.39301-0.26497-0.054509-0.14118-0.10894-0.22988-0.1558-0.37282-0.07808-0.14024-0.071474-0.31658-0.20588-0.4202-0.02457-0.14809-0.10151-0.27653-0.077881-0.4059 0.045607-0.26235 0.16502-0.50689 0.2246-0.77012 0.084707-0.10538 0.13107-0.23848 0.19945-0.36529 0.051535-0.1639 0.23729-0.25557 0.343-0.39032 0.092411-0.065848 0.17812-0.15309 0.3364-0.11322 0.15556-0.010592 0.28315-0.16425 0.45413-0.11679 0.14758 0.050947 0.26047-0.097536 0.37659 0.005795 0.10685-0.006697 0.19482 0.009045 0.33592 0.078382 0.14764 0.09919 0.37266 0.10952 0.46946 0.26304-0.00743 0.14793 0.21817 0.1039 0.19855 0.27604-0.044706 0.17829 0.15762 0.19647 0.12878 0.32988 0.075528 0.16863 0.086863 0.36787 0.059157 0.54336-0.047501 0.12257 0.049903 0.23363-0.02299 0.36411-0.018163 0.19818-0.10766 0.3941-0.22103 0.55734-0.11057 0.084698-0.11696 0.21383-0.19855 0.32817-0.11024 0.010616-0.20249 0.14248-0.20632 0.19783-0.12684-0.050675-0.16572 0.14562-0.26907 0.19199-0.13748 0.077848-0.25949 0.14077-0.41168 0.19468-0.15656 0.067657-0.33669 0.050299-0.49471 0.076539-0.023073-0.0067808-0.046146-0.013573-0.069198-0.020338zm0.35398-0.44327c0.13502 0.0057042 0.21358-0.038075 0.30158-0.15739 0.19055-0.034887 0.15247-0.13475 0.30393-0.19167 0.14876-0.18032 0.34467-0.31839 0.42273-0.54442 0.10373-0.16389 0.079042-0.35387 0.067102-0.53728 0.093569-0.13009 0.040561-0.26024-1.609e-4 -0.37292-0.032674-0.14994-0.12063-0.29595-0.15546-0.43787-0.088279-0.1261-0.1961-0.16907-0.31201-0.22368-0.12227-0.052491-0.28923-0.13847-0.39358-0.094143-0.14055-0.059867-0.3143 0.01964-0.45184 0.044875-0.12664-0.020639-0.20718 0.14361-0.33583 0.10898-0.15001-0.069532-0.13155 0.15777-0.28317 0.20389 0.19736 0.12491-0.11782 0.060066-0.074208 0.22925-0.017165 0.11686-0.096582 0.2361-0.13399 0.35536 0.00339 0.1411-0.058939 0.23169-0.11794 0.34535-0.11337 0.1279-0.00818 0.18824 0.063151 0.27729 0.00899 0.10663 0.136 0.19269 0.11327 0.32127 0.053052 0.13098 0.1474 0.24469 0.19412 0.37154 0.14095 0.079088 0.14472 0.18153 0.2809 0.24652 0.14167-0.036598 0.24458 0.11762 0.38396 0.05693 0.042473-5.997e-4 0.084946-0.00124 0.12744-0.00184z" stroke-width=".053515"/></svg>
