<?xml version="1.0" encoding="UTF-8"?>
<svg width="52" height="24" version="1.1" viewBox="0 0 13.758 6.35" xml:space="preserve" xmlns="http://www.w3.org/2000/svg"><path d="m4.7561 6.3464c-0.14579-0.075546-0.16064-0.23964-0.19608-0.35518 0.057615-0.14483 0.29327-0.17303 0.35792-0.12029 0.15457-0.031059 0.21218-0.23069 0.39867-0.21554 0.23425-0.079681 0.4803-0.10266 0.72654-0.10335 0.13911-0.091931 0.35503-0.066428 0.52291-0.12024 0.30469 0.051046 0.61993-3.653e-4 0.91932-0.035398 0.23209-0.024014 0.47816-0.052891 0.71168-0.083658 0.16268-0.026969 0.3404-0.068164 0.52416-0.079629 0.17892-0.013298 0.35131-0.059843 0.50748-0.14963 0.13722 0.11665 0.32525-0.03973 0.42272 0.15137 0.17902 0.1417-0.12743 0.25882-0.13934 0.39715-0.17322-0.013329-0.32032 0.040242-0.47862 0.053371-0.15689 0.047785-0.3375 0.052012-0.51464 0.057099-0.15336 0.042299-0.30685 0.069908-0.44649 0.091148-0.19992-0.039375-0.28776 0.094998-0.47046 0.092965-0.15418-0.0048626-0.29976 0.011178-0.43797 0.054325-0.1334 0.064133-0.2302 0.074576-0.41754 0.10614-0.53993-0.015024-1.0858 0.062243-1.6083 0.17042-0.10367 0.085517-0.30724 0.1492-0.38194 0.088924zm-3.7617-1.4402c-0.11893-0.043746-0.32068-0.027275-0.25193-0.2061 0.031417-0.1642 0.12953-0.22118 0.28252-0.2304 0.24387-0.078433 0.49981-0.13042 0.75963-0.15878 0.010146-0.16441-0.12523-0.2535-0.13399-0.40159-0.10971-0.47495-0.04807-0.97459-0.18658-1.4455 0.02983-0.18595-0.13882-0.28629-0.097656-0.4843 0.015518-0.17382-0.11626-0.37292-0.0066301-0.52428-0.11347-0.16159-0.20106 0.078779-0.36511 0.0062966-0.17834 0.026483-0.35446 0.04291-0.50028 0.13263-0.15758-0.037119-0.30568 0.1486-0.43041 0.073393-0.20336-0.20286 0.15561-0.13474 0.018254-0.29971-0.0072753-0.12912 0.2112-0.13286 0.33856-0.19616 0.2143-0.12626 0.4968-0.015573 0.69973-0.16244 0.27994-0.067395 0.57003-0.07791 0.85087-0.13388 0.18447-0.0011222 0.34936-0.077482 0.53629-0.061245 0.17312-0.051227 0.48088-0.097486 0.52872 0.13135-0.049229 0.12712 0.053664 0.37422-0.14103 0.38717-0.15435-0.057667-0.33511-0.1065-0.52293-0.072615-0.1718 0.033939-0.3349 0.10704-0.52218 0.086496-0.14648 0.048465-0.31462 0.00224-0.42668 0.054337-0.024186 0.13808 0.20754 0.042642 0.25108 0.15447 0.092458 0.1652 0.10505 0.31792 0.16929 0.49678 0.096865 0.21381 0.055991 0.46535 0.12796 0.68562-0.025574 0.13699 0.018442 0.34606 0.092518 0.40729-0.05799 0.16575 0.03386 0.30342 0.0247 0.47334 0.00477 0.18181 0.053307 0.31225 0.12937 0.46351-0.065826 0.20884 0.13656 0.18667 0.28545 0.13382 0.1514-0.020249 0.36714 0.068146 0.53395-0.025068 0.17418-0.053938 0.34106-0.17389 0.52891-0.088231 0.21009 0.023185 0.095581 0.28181-0.024172 0.35907-0.094436 0.16513-0.29532 0.05884-0.43429 0.13494-0.1716-0.021801-0.17316 0.07754-0.37409 0.056818-0.28213 0.029849-0.57755 0.032106-0.84324 0.10773-0.24836 0.020062-0.51426 0.0043-0.72308 0.1366-0.031017 0.051258-0.14372 0.065034-0.17352 0.00865zm4.3514-0.17624c-0.14728-0.10256-0.11412-0.34432-0.22477-0.48919-0.041069-0.18016-0.0014152-0.1492-0.032541-0.34946-0.01033-0.1704-0.092966-0.33371-0.12999-0.50557-0.046895-0.24076-0.036921-0.52651-0.22383-0.7119 0.055136-0.17203-0.083566-0.24953-0.12057-0.41001-0.056746-0.12535-0.012774-0.2865-0.098037-0.39426 0.029118-0.11851-0.10463-0.14194-0.08183-0.31264-0.11094-0.19949-0.24758-0.41373-0.28412-0.64823 0.11472-0.13126 0.2218-0.094213 0.37672-0.077195 0.11087 0.065849 0.19425 0.17218 0.32238 0.22145 0.00954 0.10455 0.13863 0.15799 0.18529 0.24369 0.080955 0.042811 0.19961 0.14608 0.29075 0.2473 0.098865 0.058147 0.18389 0.20845 0.32863 0.2138 0.1304 0.1009 0.18195 0.25381 0.32392 0.32415 0.22085 0.081768 0.29749 0.34796 0.48843 0.48674 0.053328 0.075192 0.18958 0.24875 0.30393 0.28457 0.12811 0.20616 0.15665 0.054044 0.15255-0.14549-0.14987-0.11545-0.015436-0.29355-0.097935-0.43124-0.095998-0.15234-0.0032417-0.27475-0.097723-0.43465-0.042642-0.19651 3.772e-4 -0.42922-0.074808-0.605-0.0094823-0.16127-0.018821-0.34471-0.088952-0.50025-0.11465-0.15108-0.073341-0.46975 0.1553-0.45215 0.15916 0.072728 0.22943 0.21686 0.29251 0.3387 0.016402 0.15344 0.067075 0.29701 0.071186 0.45183 0.012774 0.16079 0.055428 0.29349 0.08074 0.43389 0.00112 0.15883 0.14556 0.27706 0.10763 0.44069 0.05233 0.053334 0.10252 0.29763 0.1179 0.43763-0.029949 0.19323 0.091694 0.29452 0.020261 0.40878-0.10715 0.1517-5.068e-4 0.24575 0.031041 0.41173 0.1005 0.041426 0.12659 0.23884 0.21015 0.27889 0.054917 0.11568 0.19571 0.27501 0.019394 0.29972 0.046089 0.027711-0.16952 0.36324-0.28378 0.18621-0.0646-0.13946-0.19522-0.22504-0.32568-0.33927-0.32078-0.16828-0.53903-0.47577-0.81389-0.70577-0.099834-0.24349-0.36626-0.36028-0.52233-0.56795-0.1407-0.12125-0.13957-0.15477-0.26597-0.19649-0.098435-0.066406-0.21129-0.21148-0.33378-0.30753-0.12582-0.20884-0.28321-0.092319-0.1629 0.10721 0.051269 0.28056 0.086584 0.56317 0.23904 0.80872-0.039228 0.16021 0.10461 0.27645 0.12273 0.43331 0.076645 0.1869 0.081781 0.39282 0.1558 0.58559 0.075819 0.088308 0.016546 0.2276 0.062872 0.37138 0.064031 0.12954 0.19807 0.32824 0.020093 0.42427-0.063127 0.064879-0.10317 0.18328-0.21578 0.14398zm6.8537-0.39952c-0.17584-0.033297-0.31242-0.11312-0.45352-0.21067-0.12692-0.089894-0.30179-0.16848-0.36592-0.31298-0.053932-0.12999-0.12225-0.21276-0.1481-0.35566-0.039269-0.14718-0.13583-0.219-0.10436-0.43494 0.0047-0.27374-0.05441-0.55329 0.0049-0.81797-0.0595-0.16567-0.09823-0.36999-0.03861-0.54159 0.0029-0.15161 0.0138-0.37837-0.0059-0.46796 0.03291-0.13471 0.06313-0.23816 0.03188-0.43049 0.0453-0.15817 0.15557-0.25906 0.23464-0.4039 0.06723-0.14591 0.17282-0.25079 0.34575-0.26452 0.23823-0.062099 0.46722-0.042916 0.70949-0.089789 0.12807 0.10555 0.26936 0.18033 0.4166 0.24521 0.10094 0.061494 0.2867 0.14414 0.37357 0.28786 0.12946 0.087572 0.19594 0.24069 0.28343 0.33716 0.0605 0.13183 0.1503 0.14908 0.11834 0.35184-0.01529 0.17355 0.06813 0.34084 0.07367 0.49196-0.07577 0.1647 0.16495 0.25873 0.03555 0.39565-0.02845 0.15698-0.02011 0.30298-0.0043 0.42934 0.11224 0.13973-0.0057 0.29917 0.04923 0.41009 0.01915 0.19407-0.07452 0.37067-0.10682 0.55884-0.08469 0.085351-0.17118 0.25858-0.28458 0.36064-0.13336 0.098086-0.1734 0.27226-0.32752 0.30573-0.18576 0.032587-0.18754 0.12035-0.38505 0.16575-0.14244 0.043265-0.30776 0.015786-0.45228-0.0096zm0.41371-0.43161c0.22121-0.033409 0.3217-0.27093 0.48539-0.40159 0.01988-0.17128 0.13312-0.30287 0.16398-0.47656 0.05261-0.35825-0.01103-0.73566 6e-3 -1.1015 0.02168-0.15492 0.04675-0.27344-0.01528-0.39724-0.17591-0.10809-0.044621-0.36383-0.17437-0.51377-0.065558-0.13-0.22506-0.25891-0.32674-0.29677-0.2381-0.14409-0.5605-0.14508-0.84012-0.15645-0.13514 0.039282-0.30095 0.13193-0.25545 0.3136-0.03704 0.13692 0.04365 0.32158-0.15199 0.35723-0.12427 0.14303 0.04792 0.28984-0.04705 0.41522-0.03723 0.19186 0.0014 0.41657-0.08066 0.58899 0.0335 0.084358 0.11028 0.25177 0.08308 0.41551 0.03745 0.17947-0.02014 0.3841 0.04711 0.54725 0.03873 0.13665 0.1381 0.3352 0.24488 0.37923 0.10221 0.078897 0.11799 0.23291 0.27409 0.27466 0.11172 0.16781 0.26199-0.096142 0.37867 0.072734 0.0641 0.04079 0.14211-0.00981 0.20844-0.020523zm-3.776 0.37395c-0.19608-0.095687-0.046241-0.35326-0.15713-0.5101 0.14899-0.34834 0.047318-0.74164 0.064335-1.11-0.052966-0.14902-0.099984-0.29479-0.13975-0.43599 0.021882-0.17224-0.025778-0.3435-0.042598-0.50179-0.021215-0.12641-0.11635-0.1262-0.10327-0.32762-0.0049874-0.30014-0.0065771-0.61067 0.025953-0.90584 0.10526-0.12132 0.096161-0.2897 0.22419-0.25885 0.26887-0.062909 0.57039 0.00884 0.85162-0.017325 0.21718 0.008429 0.43231-0.038509 0.63496-0.022736 0.16807 0.12736 0.15394 0.30007-0.08293 0.28376-0.18604 0.0084227-0.28995 0.15759-0.44705 0.22877-0.14801-0.036277-0.44607-0.09774-0.3572 0.10111-0.1548 0.13098-0.19295-0.14907-0.32776-0.095511-0.14863 0.050884-0.084292 0.32741-0.13579 0.47143 0.081052 0.14802-0.032649 0.28226 0.035897 0.44275 0.046894 0.10922-0.033185 0.47902 0.12882 0.38177 0.084437 0.086396 0.31006 0.020766 0.45209 0.043428 0.12796-0.070527 0.31231-0.14323 0.42139-0.047723 0.21169-0.01879 0.24866 0.17227 0.066764 0.26003-0.14755 0.10257-0.2388 0.20034-0.43357 0.16467-0.12287 0.10487-0.31081 0.031153-0.46303 0.055503 0.02006 0.39382-0.020926 0.8028 0.059098 1.1865 0.10927 0.096295 0.13013 0.23621 0.055896 0.39115 0.042952 0.1754-0.19342 0.14772-0.26934 0.26891-0.020529-0.015455-0.041052-0.030903-0.061582-0.046352z" stroke-width=".060513"/></svg>
