<?xml version="1.0" encoding="UTF-8"?>
<svg width="162" height="24" version="1.1" viewBox="0 0 42.863 6.35" xml:space="preserve" xmlns="http://www.w3.org/2000/svg"><path d="m0.99496 6.2827c-0.50603-0.064811-0.62858-0.50506-0.57394-0.95534-0.095813-0.3761-0.053803-0.74393-0.10975-1.0819-0.05321-0.81445-0.15894-1.7317-0.11902-2.5932 0.057174-0.40572-0.18-1.1634 0.38729-1.2084 0.28386-0.28091 0.64888-0.51085 1.0704-0.27561 0.53094 0.12616 0.94885 0.69689 1.1531 1.1211 0.2598 0.64605 0.062105 1.3618-0.50435 1.7687 0.44424 0.15672 1.046 0.38669 1.1182 0.90405 0.18801 0.54435-0.14028 0.99413-0.39312 1.4106-0.40826 0.62353-1.181 0.97112-1.9132 0.95168l-0.080803-0.029109zm0.81645-0.37843c0.18936-0.16013 0.62873-0.2461 0.73511-0.52305 0.25648-0.33333 0.4428-0.68081 0.36878-1.1325 0.021288-0.40765-0.27726-0.65535-0.6349-0.71769-0.34463-0.23647-0.9761-0.19419-1.3933-0.11085 0.018739 0.3896-0.055128 1.005 0.0027025 1.2482-0.21345 0.20322 0.12242 0.54088-0.051623 0.77886-0.23328 0.25005 0.25182 0.41522 0.543 0.42483 0.13374 0.037122 0.31637 0.099661 0.43024 0.032181zm-0.58518-2.9753c0.4758 0.06372 1.0569-0.17167 1.077-0.68034-0.010609-0.41303 0.14315-0.95331-0.18348-1.2602-0.25995-0.35345-1.1332-0.63081-1.3778-0.06141-0.067946 0.20515-0.12189 0.5216-0.058566 0.76452 0.070412 0.35109 0.028544 0.89287 0.12233 1.1768-0.047879 0.23832 0.30918-0.012586 0.42052 0.060616zm6.2959 3.3343c-0.2458-0.41912-0.40349-0.88644-0.59828-1.2827-0.21354-0.61301-0.33454-1.5365-0.14623-2.2589 0.43403-0.51708 1.5018-0.70655 1.824 0.022714 0.25394 0.37571-0.026328 0.78749-0.18934 1.1012 0.4429 0.41347 0.65765 0.95699 0.82836 1.4769-0.016966 0.31049 0.56141 0.56354 0.12706 0.79903-0.33604-0.021711-0.42871-0.31333-0.42547-0.57636-0.20704-0.45634-0.30841-1.0799-0.80525-1.4044-0.28923 0.12535-0.84836 0.30081-0.62893 0.747 0.12427 0.35819 0.14345 0.77358 0.3024 1.1516-0.05917 0.12692-0.10247 0.40134-0.28828 0.2239zm-0.071514-2.2395c0.33079-0.21858 0.75636-0.37964 0.88065-0.77576 0.13851-0.36748-0.31603-0.78345-0.7031-0.5616-0.45042 0.024215-0.54414 0.50986-0.40274 0.87717 0.086547 0.095468-0.00632 0.63477 0.22519 0.46019zm25.52 2.2509c-0.24609-0.085571-0.21963-0.73455-0.38646-0.58448-0.29858 0.33779-1.0065 0.66888-1.2299 0.11633-0.22128-0.20706-0.27143-0.56283-0.44739-0.84333-0.051516-0.79983-0.027356-1.5904 0.2356-2.3476 0.21576-0.56593 1.0934-0.74932 1.5679-0.33553 0.23842 0.17606 0.18199 0.88668-0.13672 0.53447-0.056495-0.44704-0.63102-0.4518-0.89344-0.21357-0.24321 0.099365-0.14458 0.40516-0.31216 0.46752-0.1481 0.51697-0.18149 1.1651-0.11658 1.7135 0.16077 0.31089 0.22393 0.80484 0.5633 0.9488 0.61176-0.10838 0.80608-0.73664 0.78079-1.2642 0.32899-0.54991 0.48669 0.26861 0.39155 0.59665-0.10984 0.39226 0.13328 0.68177 0.25938 1.0333-0.06311 0.13527-0.09174 0.30107-0.27585 0.17807zm-28.718-0.030426c-0.41405-0.18064 0.09249-0.55881 0.33833-0.67356 0.5398 0.077781 0.093101-0.63088 0.16143-0.93355-0.085114-0.29514-0.090069-0.69079-0.18959-0.96385 0.081451-0.43468-0.14965-0.59705-0.53145-0.39185-0.34458 0.12441-0.74509-0.30798-0.17346-0.4113 0.55103-0.057609 1.1189-0.40601 1.6883-0.23896 0.34738 0.23575-0.15824 0.49738-0.41632 0.5004-0.44602-0.017672-0.027962 0.52133-0.075097 0.80944 0.11133 0.51571 0.14761 0.96661 0.20899 1.5032 0.32359-0.1545 0.95579 0.015682 0.63209 0.3652-0.51813 0.11115-1.118 0.17502-1.5895 0.44629zm24.978-0.14303c-0.43706 0.051686-0.81075-0.19606-0.82639-0.63247-0.15128-0.51436-0.030408-1.2032-0.18404-1.7535-0.14019-0.38684-0.0057-0.59448 0.12739-0.83008 0.07603-0.3905 0.6236-0.38026 0.98815-0.38368 0.41659-0.14721 0.66852 0.15383 0.47224 0.3302 0.22926 0.21494-0.5136-0.15787-0.53531 0.086758-0.44718 0.067603-0.78535 0.16649-0.61606 0.75729 0.0028 0.39687 0.04612 0.6433 0.45951 0.44614 0.5168-0.25132 0.60289 0.47549 0.12798 0.41831-0.36541 0.018523-0.65126 0.13952-0.51807 0.52809-0.03844 0.3632 0.31407 0.46167 0.62707 0.54117 0.31941-0.050252 0.79374 0.22336 0.40839 0.46703-0.16913 0.052461-0.35625 0.022752-0.53086 0.024693zm-18.838-0.042678c-0.36022-0.1759-0.15066-0.75289-0.26679-1.1714-0.040001-0.71033-0.3651-1.5025-0.12795-2.176 0.22142-0.31904 0.6784-0.44258 1.0881-0.39381 0.37246 0.21385 0.66599 0.44947 0.9875 0.76174 0.33648 0.45782 0.58878 1.0226 0.396 1.5989-0.10677 0.36869-0.25283 0.90872-0.6276 0.94836-0.08274 0.24116-0.57327 0.41009-0.91189 0.41453-0.18855 0.00234-0.36526-0.023069-0.53737 0.017717zm0.862-0.3558c0.83803-0.36233 1.2601-1.6049 0.5984-2.2663-0.31164-0.49438-0.93359-1.0274-1.5078-0.59414-0.17598 0.26248-0.08042 0.71173-0.05776 0.95004 0.10343 0.51466 0.23237 1.0492 0.25107 1.5153-0.07094 0.49 0.31392 0.55378 0.71605 0.39513zm23.559 0.31412c-0.46482 0.093046-0.93449-0.26467-0.9867-0.71446 0.16976-0.87476-0.42668-2.0343 0.46929-2.6527 0.41568-0.14577 0.8169-0.37275 1.2443-0.20785 0.0064 0.50227-0.59664 0.26438-0.90701 0.50928-0.40948 0.12732-0.49574 0.78576-0.3469 1.098 0.25076-0.021111 0.93487-0.062469 0.80944 0.17447-0.15933 0.2275-0.45023 0.30286-0.82752 0.28548-0.05927 0.29946 0.01449 0.61646 0.01876 0.80172 0.03439 0.39274 0.77457 0.20255 1.1382 0.23848 0.46639-0.24325 0.47063 0.54051 0.04612 0.36793-0.15535 0.062319-0.50054-0.023934-0.65797 0.099685zm-20.297-0.031309c-0.3996-0.11937-0.9438 0.11346-1.2969-0.081452-0.03343-0.40782 0.65741-0.2521 0.49808-0.64797-0.1201-0.84555-0.22625-1.7204-0.26182-2.5879-0.22716 0.0084174-0.92563 0.2648-0.68532-0.21879 0.39887-0.28576 1.0134-0.27091 1.4864-0.18256 0.2918 0.54212-0.6119 0.13784-0.3742 0.55045 0.0048 0.14044-0.02416 0.45633 0.03842 0.85194 0.08458 0.62273 0.23985 1.1473 0.23866 1.7855 0.18158 0.10012 0.50897-0.23358 0.58553 0.046092 0.06621 0.10179 0.07485 0.54072-0.22882 0.48471zm25.702-0.023466c-0.32047-0.27902 0.02652-0.75702-0.12618-1.1836-0.06915-0.77813-0.0056-1.5398-0.13448-2.2856 0.57599-0.37235 1.3234-0.12658 1.9302 0.095923 0.48661 0.34378 0.9391 0.8776 0.74537 1.551-0.09603 0.54648-0.43074 1.0036-0.7983 1.3874-0.31134 0.3141-0.70261 0.37998-1.1211 0.48308-0.15877-0.030371-0.35693 0.047456-0.49548-0.048292zm0.69672-0.38902c0.78488-0.18445 1.1749-0.88283 1.333-1.6114-0.08688-0.45063-0.21151-0.95408-0.73656-1.1035-0.27563-9.037e-4 -0.76272-0.26618-0.99388-0.075385-0.04946 0.67395-0.05905 1.3867-0.02274 1.9841 0.19424 0.14063-0.03162 0.99469 0.42013 0.80618zm-15.39 0.30381c-0.52755-0.39734-0.14574-1.1749-0.23589-1.7379-0.02416-0.37706-0.06587-0.78434 0.0049-1.0556 0.13274-0.68147-0.09216-1.4267 0.13091-2.0729-0.29515-0.27015 0.28309-0.85056 0.39946-0.32628 0.19228 0.37643-0.1719 0.63247-0.0077 1.0729 0.19173 0.89805-0.18241 1.7749-0.12754 2.6902 0.04974 0.35097-0.31121 1.1391 0.33014 1.022 0.51105 0.047638 1.1195-0.10749 1.5325-0.15294 0.25853 0.19237-0.09322 0.51843-0.37138 0.44709-0.42906-0.00238-0.86089 0.11666-1.3331 0.053148-0.10571 0.028438-0.21095 0.14291-0.32241 0.060189zm11.07-0.059429c-0.19098-0.65338 0.10668-1.3159-0.0043-1.9833 0.06267-0.40224-0.01038-0.8613 0.13496-1.2194 0.2902-0.23151 0.70204-0.24799 0.85592 0.16186 0.21536 0.39324 0.30837 0.84162 0.47913 1.238 0.15209 0.28521 0.12518 0.51796 0.36172 0.78839 0.08805 0.062209 0.3036 0.65752 0.3435 0.28906 0.01172-0.81525 0.06281-1.6663-0.22455-2.4185-0.23716-0.22834 0.30432-0.65506 0.36456-0.22866 0.05293 0.20663-0.0513 0.52524 0.10739 0.70139 0.06495 0.79489 0.25682 1.7041-0.03163 2.5033-0.25405 0.33311-0.54342-0.11929-0.67661-0.34046-0.40908-0.56515-0.55647-1.3007-0.85234-1.9557-0.014568-0.21624-0.34429-0.746-0.32715-0.24129-0.020183 0.61658-0.23036 1.1748-0.16211 1.7587-0.15521 0.33322 0.21355 1.0185-0.34626 0.9939zm-15.431-0.033633c-0.31981-0.14173-0.1365-0.92827-0.61936-0.50774-0.32582 0.18462-0.91483 0.12648-1.0745-0.29599-0.26738-0.26677-0.46795-0.65378-0.55063-1.0089 0.0088-0.66734 0.29757-1.2686 0.66218-1.7646 0.32922-0.3865 0.95112-0.42934 1.3602-0.089902 0.30386 0.10438 0.37036 1.1059-0.05095 0.93737-0.28382-0.22724 0.06871-0.60191-0.38624-0.74771-0.56887-0.04746-0.74692 0.4578-1.0284 0.79985-0.14249 0.45366-0.22095 0.92877 0.07792 1.3846 0.12391 0.48506 1.0667 0.63007 1.1474 0.00436-0.08455-0.33656 0.36059-0.84259 0.51456-0.38458-0.05629 0.54989 0.26583 1.1153 0.12442 1.6333 0.01138 0.10633-0.12579 0.045348-0.1766 0.039952zm-5.1277-0.093596c-0.26138-0.41364-0.20902-0.99992-0.28405-1.4625-0.041924-0.42901-0.18409-0.96974-0.19384-1.4462-0.20349-0.23853-0.0069-0.73603 0.36608-0.49094 0.33671 0.14212 0.49641 0.48714 0.79012 0.74688 0.33785 0.49509 0.53895 0.95796 0.86125 1.4501 0.24854 0.56119 0.21855-0.1209 0.20651-0.47634 0.06859-0.60973-0.10704-1.1947-0.22023-1.7733 0.22146-0.55649 0.46568 0.037026 0.52146 0.30096 0.04257 0.35922 0.13048 0.76012 0.0845 1.1116 0.06185 0.48787 0.11906 1.0422 0.10316 1.56-0.1073 0.43693-0.57231 0.2567-0.69824-0.086753-0.39244-0.43613-0.53758-0.96873-0.89414-1.4513-0.14224-0.36205-0.35997-0.57136-0.66282-0.83363 0.0082 0.7424 0.15199 1.4477 0.21963 2.1628 0.14975 0.1878 0.12285 0.89058-0.1994 0.68857z" stroke-width=".059597"/></svg>
