<?xml version="1.0" encoding="UTF-8" standalone="no"?>
<!-- Created with Inkscape (http://www.inkscape.org/) -->

<svg
   width="401"
   height="425"
   viewBox="0 0 106.09824 112.44817"
   version="1.1"
   id="svg1"
   xml:space="preserve"
   inkscape:version="1.3.2 (091e20e, 2023-11-25)"
   sodipodi:docname="messenger-pigeon.svg"
   xmlns:inkscape="http://www.inkscape.org/namespaces/inkscape"
   xmlns:sodipodi="http://sodipodi.sourceforge.net/DTD/sodipodi-0.dtd"
   xmlns="http://www.w3.org/2000/svg"
   xmlns:svg="http://www.w3.org/2000/svg"><sodipodi:namedview
     id="namedview1"
     pagecolor="#ffffff"
     bordercolor="#000000"
     borderopacity="0.25"
     inkscape:showpageshadow="2"
     inkscape:pageopacity="0.0"
     inkscape:pagecheckerboard="0"
     inkscape:deskcolor="#d1d1d1"
     inkscape:document-units="mm"
     inkscape:zoom="0.65907011"
     inkscape:cx="-212.4205"
     inkscape:cy="-9.1037355"
     inkscape:window-width="1392"
     inkscape:window-height="1027"
     inkscape:window-x="0"
     inkscape:window-y="25"
     inkscape:window-maximized="0"
     inkscape:current-layer="layer1" /><defs
     id="defs1" /><g
     inkscape:label="Layer 1"
     inkscape:groupmode="layer"
     id="layer1"><path
       style="fill:#000000"
       d="m 42.415745,111.79736 c -3.244765,-0.50944 -6.409172,-1.23682 -9.451998,-2.50466 -2.080498,-0.83348 -3.187593,-0.62579 -4.252177,0.22482 -2.605019,0.24564 -4.45843,-1.83157 -6.793674,-2.58906 -1.762731,-1.53947 -5.090026,-1.24321 -5.621255,-3.95321 0.767579,-1.87065 -1.528,-1.86363 -2.520011,-3.277482 -3.399697,-1.2079 -6.749305,-2.84069 -9.101362,-5.69335 -2.291748,-1.46444 -1.415168,-4.43187 -0.07646,-6.26241 1.640296,-2.70295 3.70572,-5.70965 6.878431,-6.6241 1.156317,-0.14112 3.804135,-0.86879 3.506507,0.98918 0.866886,2.62048 2.539415,5.36929 4.800166,6.83366 1.817107,-0.99988 2.936186,2.5604 4.02064,0.53809 1.543675,-1.38517 1.987518,-2.07374 1.797338,-3.02621 1.605586,-1.42461 1.90887,-2.66258 -0.387252,-3.36563 -5.718896,-3.32671 -9.281641,-9.26477 -11.42691,-15.363 -1.065635,1.53993 -1.588728,-1.6326 -1.828961,-2.55421 -1.053405,-2.983119 -0.08027,-6.533389 -1.526405,-9.333659 -1.279035,0.40814 -1.659501,-0.37806 -2.825188,-0.52416 -1.123873,1.30053 -4.168125,-1.41075 -3.71477,0.52415 -1.522501,0.3811 -3.29131693,-0.5306 -3.32752993,-2.17297 -0.289655,-1.90371 0.88026903,-3.98324 2.73980593,-4.5586 -0.788407,-2.16402 2.090895,-2.05674 1.948705,-3.81616 -1.341423,-0.92181 -1.794393,-3.05613 -0.449657,-4.32057 1.130953,-1.34083 3.599936,-1.21966 4.40517,0.44089 2.818063,0.35478 -0.913072,-2.03318 -1.324472,-3.0681 -1.181595,-2.06909 -2.870665,-4.9003 -1.191223,-7.10857 2.020946,-0.56235 1.577914,2.48462 2.177166,3.72445 0.533404,1.7897 1.949519,3.13163 3.396912,4.23562 1.087565,-1.4226 3.5762,-1.51058 2.578012,-3.73905 -0.36568,-3.6578 -2.829028,-6.78764 -3.318746,-10.37092 0.124963,-3.72149 2.927617,-6.61872 4.701091,-9.71637 4.860686,-5.6135102 9.842506,-11.8135372 17.048378,-14.39457415 1.695181,-0.557552 3.45396,-0.836791 4.834195,0.45833505 1.626974,1.3026789 -0.766984,3.1512909 -1.20401,4.5937369 -0.429027,1.111419 -3.611043,3.523122 -2.679335,3.248532 3.475321,-1.717323 6.745437,-4.759099 10.757082,-4.732993 2.21723,0.368603 1.305669,2.663116 0.04052,3.653673 -2.933545,3.3205802 -6.676286,6.2612202 -10.020389,8.8775002 2.206398,-0.52046 4.853796,-2.27073 7.099691,-0.91544 1.247098,1.71201 -1.518464,2.88172 -2.382648,4.15065 -1.840634,1.64347 -4.199022,3.21012 -5.698019,4.9278 1.735965,-0.57307 3.884407,-1.82837 5.833337,-0.82358 -0.302185,3.04668 1.383566,-0.26215 2.390945,-1.13439 6.44639,-6.74506 13.89278,-13.05829 22.90303,-15.9526002 1.72225,-0.351916 4.84568,0.7192 3.51211,2.9250102 -2.39217,3.799 -6.24542,6.45227 -9.36126,9.65409 -1.66283,1.4716 2.31333,-1.02872 2.9603,-1.61065 3.19647,-2.24031 6.32121,-5.69138 10.54939,-5.37245 1.66141,0.32861 2.86441,1.96113 1.57603,3.45039 -2.10451,4.41362 -6.65581,6.94489 -10.46603,9.64622 2.45926,-0.5666 5.13841,-1.44222 7.74679,-1.92379 1.58183,-0.7406 3.93721,0.24145 3.18243,2.24153 -1.15244,3.67987 -5.17199,5.39393 -8.43197,6.88494 -2.34594,1.11796 1.50046,-0.24824 2.31461,-0.26503 2.21019,-0.71185 3.25133,2.68095 1.49662,3.8 -2.40511,2.69398 -5.68791,4.39089 -8.69089,6.31262 1.09813,0.3685 3.09299,1.40806 1.80604,2.93405 -2.30575,1.64236 -0.5317,1.49133 -0.41677,3.23425 -0.91174,2.7031 -4.08504,3.44636 -6.02207,5.29288 -1.03602,0.8814 -4.1548,2.26991 -1.05922,2.49147 3.61401,0.91971 7.43666,0.95262 11.14232,1.27575 2.94677,0.0684 6.03516,-0.8318 8.84241,-0.68984 -1.21011,1.84327 1.58068,0.40217 2.73732,0.1261 2.57518,-1.25127 5.26285,-2.37981 7.36616,-4.34847 2.74691,-1.28333 3.72506,-4.88378 6.98144,-5.26475 1.93535,-0.86381 4.25705,0.37104 5.12573,2.21265 1.45287,-0.5232 3.438855,-1.31621 4.661775,0.24783 1.10023,2.00595 -1.16874,4.1793 -1.95724,5.68283 1.50853,-0.75617 4.42272,-0.987 4.83078,1.06213 -0.29966,3.06729 -3.76366,4.27988 -5.850255,6.05708 -6.58271,4.948249 -15.13713,5.834559 -22.48486,8.967479 -3.40068,0.35144 -4.90724,4.21409 -7.81755,5.63091 -1.97955,1.80437 -4.64915,2.55311 -6.75303,4.15578 2.39954,-0.26832 -1.42204,1.97669 -2.225,2.50285 -4.53508,3.25835 -10.28984,3.76497 -15.650803,4.47436 -2.102669,-0.60088 -2.01879,2.2853 -3.502641,3.11025 -1.326109,1.26852 -1.585135,-0.4761 -2.417596,1.96948 -1.932572,1.53434 0.479383,1.56442 0.492408,3.16389 3.454472,0.17467 6.933761,0.19705 10.364602,0.11419 2.03581,0.40719 4.92385,0.16065 5.48867,2.733452 1.88001,2.66378 0.454,6.06332 -1.6558,8.13699 -1.54238,1.18862 -2.09007,1.28176 -1.41302,2.38978 -2.59077,1.79989 -5.811334,1.0237 -8.770678,1.17412 -0.321976,-0.0351 -0.643951,-0.0703 -0.965927,-0.10543 z m 7.84101,-0.99076 c 1.80387,-0.90792 -2.233634,-2.35177 -2.08427,-4.08244 -1.152585,-2.90177 0.46175,-7.290282 4.02552,-7.107682 1.93426,0.939252 2.96958,2.961362 2.63958,5.071452 0.9433,-0.70436 0.65412,-3.02407 -0.19064,-3.96174 -0.29495,-1.907592 -2.10636,-2.383512 -3.79186,-2.300372 -3.65767,-0.52425 -7.580799,-0.12694 -11.34056,-0.29678 -1.482805,0.66366 -3.305073,0.99174 -4.888574,1.82094 -1.069089,0.948102 -1.082046,3.392742 -3.216954,2.875342 -0.748883,1.41657 -1.809764,2.92269 -1.862666,4.71296 0.821581,0.94262 3.095314,0.65572 4.388661,1.38136 4.996832,1.95973 10.481327,2.7654 15.782973,2.15233 l 0.27496,-0.13543 z m -1.87201,-0.0371 c -1.370547,-1.4968 2.90642,-0.36103 0.66717,-0.6629 -2.223584,-0.17155 1.28771,0.99 -0.66717,0.6629 z m 0,-1.51485 c -1.538458,-1.33501 -0.29936,-1.17181 0.635,-4e-5 0.11732,0.40266 -0.50906,0.0214 -0.635,4e-5 z m -1.678019,-1.78207 c 0.01,-3.20854 0.681374,1.26989 0,0 z m 5.116989,1.3694 c 0.91019,-0.83456 -3.07792,0.98058 0,0 z m -23.121467,-0.47105 c 0.247335,-1.93318 0.516218,-4.06198 2.026207,-5.461 -0.804552,-1.32994 -1.677202,-2.59291 -3.387991,-2.86312 -1.235301,-0.696182 -0.580502,-4.775192 -1.711622,-3.401662 0.247743,2.184 -3.337054,2.94051 -3.664832,0.57342 -0.890105,1.99295 -2.601803,-0.36998 -3.518608,0.68063 -1.420803,2.789052 0.38233,-1.31028 1.301725,0.65925 2.159996,-0.21282 1.976035,1.613932 1.638935,3.176142 0.04888,2.59454 -0.651829,2.793 -0.861461,0.97197 -0.788815,0.57546 -3.832812,1.7103 -1.615335,2.06269 2.899318,1.00787 5.530449,2.69206 8.315855,3.93496 0.528203,-0.0992 1.778806,0.70826 1.477127,-0.33328 z m -1.865169,-1.86479 c -1.170916,-0.98038 -0.128643,-3.51744 1.062893,-4.18058 1.81946,0.20453 0.404665,2.12164 -0.104475,3.07948 1.687923,0.87649 0.228749,1.78556 -0.958418,1.1011 z m 0.504603,-0.72164 c -0.853242,-0.78284 0.39847,0.98742 0.01846,0.0222 z m 0.337049,-1.6469 c 1.277928,-2.28428 -0.72581,-0.0979 -0.593332,0.889 0.28219,-0.10892 0.380292,-0.64794 0.593332,-0.889 z m -3.305666,1.55674 c -0.841284,-0.65801 -2.526163,-0.2542 -2.938125,-1.36521 0.31232,-1.66829 0.114248,-4.11464 1.53517,-4.890362 2.035591,-0.19239 1.635157,2.602782 1.184198,3.884472 0.707047,2.22199 0.250388,-2.13074 1.33804,-2.67047 1.927553,0.0434 1.555874,2.19216 0.756781,3.32601 -0.40163,1.20149 0.169869,3.00488 -1.876064,1.71556 z m 1.390911,-2.61508 c 1.130288,-2.15934 -0.899444,-1.76797 -0.435334,0.49948 -1.020534,1.39847 -0.09407,2.75428 0.253476,0.37158 0.07379,-0.28758 0.124808,-0.57994 0.181858,-0.87106 z m -2.085677,0.0423 c 0.673044,-1.31085 -0.464707,-4.476982 -1.074598,-1.98967 2.152812,-0.18253 -0.385386,2.45715 0.821583,3.38667 0.350737,-0.0455 0.124869,-1.07865 0.253015,-1.397 z m -1.21002,-0.49954 c -0.753579,-0.34461 0.390081,1.36158 0,0 z m 28.410366,5.49487 c -1.25891,-1.66859 0.0213,-0.22889 0,0 z m 0.40367,-0.46567 c -0.93526,-1.06449 0.24822,0.93352 0,0 z m 1.02483,-0.061 c 0.10294,-1.04599 -1.43841,0.67922 0,0 z m 1.08281,-1.22165 c -0.63371,-0.72041 -0.47852,0.8373 0,0 z m -1.6662,-0.1143 c -1.18313,-1.74046 -0.92571,0.18046 0,0 z m 2.97872,-0.56979 c 0.58232,-2.55696 -1.0252,1.90419 0,0 z m -2.15305,-0.54976 c 0.82177,-3.17146 -1.68504,-0.51167 -0.48168,0.0327 -1.03984,0.93155 0.43422,0.63762 0.48168,-0.0327 z m 1.21165,0.39989 c -0.84093,-0.098 -0.0383,-0.0735 0,0 z m 0.2184,-0.84667 c 0.26699,-1.18034 -0.96769,1.27148 0,0 z m -4.51198,-0.93334 c -0.1125,-1.48799 -0.64107,1.61791 -0.007,0.11537 z m 4.62152,-0.32057 c -0.28341,-0.54779 -0.96075,2.05515 10e-4,0.0484 z m -3.56457,0.21769 c -2.548907,-1.33737 1.26994,1.7623 0,0 z m 1.16677,0.14722 c 1.06626,-1.41515 -1.95649,-2.2253 -2.33282,-0.94599 1.13979,0.14409 1.76115,-1.00498 1.97361,0.77469 -0.26487,0.59164 0.13952,0.86116 0.35921,0.1713 z m 1.76506,-0.66887 c -0.75358,-0.34461 0.39008,1.36158 0,0 z M 17.53112,102.18028 c 0.233017,-1.93322 0.181153,-3.623202 -0.346016,-0.73697 -0.226313,1.31161 0.352961,3.04528 0.346016,0.73697 z m 35.737015,-0.12573 c -1.52558,-1.83139 0.98331,2.26132 0.32081,0.3654 l -0.20222,-0.23033 z m -33.682321,-0.52643 c 1.035409,-0.4477 2.103087,-0.46902 0.766625,-2.116792 -0.520997,0.456439 -0.522204,1.657682 -0.859233,1.545542 -0.517159,-0.17209 0.0351,-0.9271 -0.512104,-1.942652 -0.479835,-0.55575 -0.897071,3.263442 -0.709087,3.031902 0.205724,-0.43415 0.510225,-0.77229 1.313799,-0.518 z m 13.178241,0.19616 c 0.805311,-1.11874 -0.766015,-3.359052 1.199823,-4.093572 1.198802,-1.20209 3.693894,0.21674 4.5572,-0.5205 -0.969528,-0.89509 -2.206436,-1.11156 -1.037455,-2.59553 0.432067,-0.99131 0.183827,-1.08745 1.291455,-1.3514 -0.695901,-0.74895 0.390607,-0.56797 -0.266507,-1.26344 1.408266,-0.12956 0.88487,-0.76374 -0.254787,-0.27091 -1.80415,2.52215 -0.279775,-4.13112 -1.525309,-1.14585 -0.443321,2.355 -1.452435,-0.90982 -1.855562,1.45972 -0.520131,0.69711 -1.369588,3.35298 -2.109168,2.2791 -0.656848,-1.66049 -3.358093,-1.87798 -4.893939,-1.31081 -1.705482,0.0307 -1.837401,3.88372 -0.974315,2.88005 0.708042,-0.19932 -0.933455,-0.85926 1.218581,-1.04877 2.489498,0.14226 -0.574575,1.22503 -0.861627,2.29182 -0.832942,1.36097 1.478813,3.450102 1.489636,2.62398 -0.312279,-0.62789 0.392162,-0.22302 -0.169333,-0.92158 1.452102,-0.32766 -0.746239,-0.74324 1.515769,-1.18315 -1.395266,-0.35472 0.754044,-0.64535 0.356305,-1.19964 2.789193,-0.53773 0.177148,1.30159 -0.266015,2.48144 -0.444962,1.180482 -0.241208,3.163942 1.452137,3.306992 0.492778,0.0475 0.862802,0.0662 1.133111,-0.41795 z m 17.99628,-0.59927 c -0.88833,-1.444372 -0.38239,1.5863 0,0 z m 0.63784,-0.31723 c -1.28382,-1.513202 0.53503,1.63204 0,0 z m 0.74757,-0.29433 c -1.22112,-0.668542 0.9146,1.45147 0.0599,0.0438 z m -35.408701,-0.35142 c -0.137938,-1.771652 1.987373,-2.862432 1.826663,-4.299817 -0.208706,-1.689634 -2.08847,-1.34523 -1.967253,-3.55639 0.06703,-1.623574 2.545853,-2.457395 1.7776,-3.514595 -1.868221,-1.98835 -3.782669,-4.33658 -4.067642,-7.12621 -3.613858,-0.81383 -6.516159,2.31134 -8.323379,5.06762 -0.994424,1.70436 -2.496817,3.77984 -1.837777,5.75323 2.273363,2.76379 5.248563,5.09223 8.694888,6.02051 1.520684,-0.10771 2.956743,2.987632 3.841915,1.991862 l 0.04947,-0.30248 z m 17.661699,-0.884912 c 1.014837,-0.60566 4.043762,-1.35366 1.328335,-1.47546 -0.975807,-0.55553 -3.501709,2.690122 -1.328335,1.47546 z m -10.078091,-1.51718 c 0.629964,-1.30747 0.243514,-2.97743 1.382093,-3.96086 1.039141,-0.57699 -0.742857,-1.06903 1.049667,-1.44409 -0.960781,-1.03616 0.680861,-1.30624 0.659971,-2.0603 1.197246,-0.51581 0.911996,-3.33536 -0.266746,-1.016 -1.389841,0.0267 0.384909,-3.19622 -1.652423,-0.57337 -1.108683,1.10958 -2.451985,3.55831 -3.774074,1.35149 -2.091097,-1.64888 -5.074151,1.698751 -3.570554,3.900191 1.461472,-0.0232 0.813179,-0.910848 1.103977,-1.762761 0.433346,-0.894002 1.116871,-1.343942 1.966959,-0.932146 -1.645139,1.227743 -1.134818,1.681604 -1.852393,3.284416 -1.088384,1.13216 1.058529,4.13649 1.913043,2.14126 0.191613,-1.3669 2.33431,-3.83018 1.430165,-1.19761 -0.424543,0.8777 0.307876,3.60017 1.610315,2.26978 z m 10.121644,-6.48621 c 1.507056,-2.49698 0.252219,-1.43468 -1.357214,-1.6033 1.057325,-1.35404 1.08841,-4.18969 -0.403549,-1.48307 -0.528487,0.75795 -2.145154,3.92214 -2.288462,1.61826 -0.997555,0.40264 -2.305524,2.94249 0.217997,2.2226 1.617259,-0.2347 2.737656,2.42083 3.428903,-0.005 0.134108,-0.24997 0.268217,-0.49995 0.402325,-0.74993 z m -6.589218,0.73395 c -1.090172,-0.97836 -1.149497,0.5122 0,0 z m 14.285259,-2.03471 c 0.59061,-0.74818 1.854998,-5.01208 1.834838,-2.309 -0.480012,1.68707 3.136824,0.27561 4.41661,0.28762 4.45903,-0.62354 9.0049,-1.62773 12.62271,-4.4726 1.81732,-0.86048 -1.54392,-1.31749 1.71048,-2.29835 4.1313,-1.91763 7.9065,-4.49029 10.99719,-7.85236 1.99935,-1.92002 5.08742,-2.0247 7.55777,-3.16183 6.12325,-2.00748 12.64485,-3.29758 17.92338,-7.217589 1.875765,-1.47724 4.382365,-2.66636 5.518975,-4.7963 0.98708,-1.91127 -1.95531,-1.99914 -3.07448,-1.56449 -2.325685,1.17261 -4.210595,3.054 -6.570665,4.13856 -0.54519,-1.16047 2.32361,-2.19793 3.19488,-3.30099 1.973725,-1.4264 3.794805,-3.59501 4.089845,-6.04898 -1.12699,-2.14991 -4.104625,-0.51735 -5.503335,0.62921 -1.22725,0.77893 -2.64268,3.45382 -3.81,3.00155 1.12815,-1.56892 3.00539,-3.0655 4.40266,-4.34656 -0.77143,-2.08072 -3.55706,-2.71462 -5.38415,-1.5389 -2.35398,1.11797 -3.64936,3.81289 -6.02788,5.04553 -3.32547,2.84006 -7.64861,4.36542 -11.70899,5.49019 -1.0435,-0.28586 1.29003,-2.21448 -1.7546,-1.20211 -5.25406,0.94322 -10.57992,0.29004 -15.79755,-0.45532 -1.82,-1.1789 -2.16464,0.75296 -3.1479,-0.38596 0.18776,2.20251 -0.76493,0.47649 -1.44447,1.28265 -0.63333,2.45882 -0.66358,-2.87885 -0.99211,0.28266 -0.60521,0.85408 -0.80983,-1.30403 -1.37353,0.92564 -0.53398,-1.03817 -1.866999,-0.87216 0.43046,-1.95041 3.95618,-2.17688 7.52043,-4.99346 11.1446,-7.65259 0.66973,-0.39739 1.76961,-2.86208 -0.83741,-2.20133 -0.49359,-0.96991 2.45168,-1.82375 2.57888,-3.35478 -0.47543,-1.50356 -2.9265,-0.52737 -3.02318,-2.0912 2.55641,-0.89256 4.78228,-2.64173 7.06858,-4.08147 1.35061,-1.35352 4.03136,-2.72418 3.00025,-4.98386 -1.78771,-0.83664 -3.78802,0.65748 -5.66616,0.81225 -1.32339,0.2849 -3.10447,2.11366 -4.14828,1.27727 1.59746,-1.07426 3.64678,-2.17851 5.48959,-3.15688 3.12337,-1.15365 6.70403,-2.85243 8.20843,-6.00433 0.83357,-1.95193 -0.79585,-2.53665 -2.43774,-2.00969 -3.8318,0.89196 -7.68793,1.66678 -11.06284,3.73043 -1.28182,-0.75547 2.1244,-2.03618 2.86155,-2.90908 4.23615,-2.88624 9.10539,-5.66143 11.04161,-10.69695 -1.49387,-2.53699 -4.97607,-1.00952 -6.87546,0.31074 -3.3469,2.26259 -6.48299,5.3528 -10.23862,6.66211 -0.5744,-1.41923 1.99684,-2.38327 2.79893,-3.55903 2.74242,-2.83878 6.06229,-5.20376 8.17283,-8.5867202 0.29169,-1.89363 -2.5549,-1.8306 -3.86697,-1.48196 -3.68036,1.29287 -7.1515,3.1572702 -10.35703,5.4040402 -4.74798,3.40571 -9.098845,7.41773 -12.886977,11.85377 -2.120591,2.42291 -0.984603,5.95854 -2.315387,8.75597 -1.718415,5.70037 -4.401883,11.13573 -7.882047,15.97547 -0.705754,-0.89936 -4.331437,0.0595 -3.18518,-1.61289 -1.452585,0.0911 -3.841646,0.33615 -5.612779,-0.21699 -1.717433,-0.43754 -2.633302,-0.36053 -3.117694,-1.17577 -1.730414,0.98974 -0.561916,-0.42828 -1.451749,-0.94402 -1.030989,-0.82887 -3.11446,-0.97977 -3.172189,-1.93631 -1.639838,-0.2097 -0.582673,-0.81491 -2.039124,-0.86951 1.140968,-0.45373 -2.523675,-0.32325 -0.719426,-0.99513 -1.234775,-0.16857 -2.974822,-0.98167 -4.03469,0.60131 -0.551289,0.61179 -2.647272,2.73832 -1.197588,2.74382 0.177864,1.90851 1.035402,0.12253 1.386821,0.65741 -0.636035,1.06513 0.591505,-0.82759 0.513449,0.94798 1.461564,0.53814 2.741001,2.96889 1.396315,4.47 0.829052,1.18474 -2.458305,3.31984 0.05378,3.13435 1.525683,0.18442 2.079171,2.04124 2.005435,3.6113 0.1903,2.8297 0.339125,5.68687 1.303465,8.376469 1.357095,-1.38595 1.517662,1.94806 2.244177,2.73456 2.328109,6.35313 7.183403,11.86635 13.468064,14.58299 1.840313,0.89467 3.793054,1.54874 5.770026,2.16088 1.095362,-2.81618 0.814728,0.71831 -0.192451,1.85227 -0.734932,1.10737 2.390545,-1.95954 1.377458,1.47588 0.437253,0.0769 2.143366,-2.90744 2.152292,0.27275 -0.236475,2.47633 2.207805,-2.11241 2.882071,-0.4532 -0.338896,2.66448 -0.116128,2.75894 1.29223,0.38781 z m -14.244081,-9.38932 c -2.030245,-0.29224 -2.255914,-2.50321 -0.26321,-0.61838 0.437738,0.0609 -0.715557,-2.8152 1.024958,-0.55086 1.705973,1.12504 0.756183,1.7459 -0.761748,1.16924 z m -9.040743,-11.32871 c -1.196392,-0.31525 -1.6366,-3.64444 -0.504418,-1.51254 1.757077,2.46746 0.716229,0.72244 0.873322,-1.02672 0.664343,0.67591 1.548421,2.97154 0.831788,3.42826 -0.573471,0.16152 -0.794024,-0.64429 -1.200692,-0.889 z M 12.860468,50.997999 c -2.401378,-0.73181 -3.38559,-4.09047 -1.353285,-5.78428 1.882714,-1.86178 4.376843,0.94204 4.660584,2.87346 0.253175,1.744 -1.539928,3.57742 -3.307299,2.91082 z m 0.09128,-0.82487 c 0.90978,-0.12471 2.393295,0.37836 2.528934,-1.47398 0.302168,-1.5793 -1.163978,-2.98994 -2.414029,-3.61588 -1.567831,0.43354 -2.137249,2.10943 -0.318568,0.50736 1.551655,0.29393 1.927513,3.33529 0.0048,3.38667 -1.690702,0.33947 -1.035543,-4.05932 -1.663816,-1.02053 -0.237498,0.72326 1.46336,2.61844 1.862669,2.21636 z m 15.155333,40.968139 c -1.316548,-0.63769 -0.346553,0.74771 0,0 z m 11.768664,-0.16937 c -2.108689,-0.77393 0.659089,0.72105 0,0 z m -11.006667,-0.508 c -0.387717,-0.73418 -0.422448,0.7008 0,0 z m 3.028327,-2.35841 c 2.013494,-1.81918 -1.264689,-2.03508 -2.435662,-2.74654 -1.153026,-2.34196 -4.192062,2.11358 -1.965015,0.5726 0.881992,1.06644 -0.708006,2.09901 1.352948,1.39962 -0.584893,3.94102 1.691973,-1.62373 2.021749,0.98375 -0.124985,1.79636 0.431329,0.77117 1.02598,-0.20943 z m -1.67366,0.83441 c -0.484385,-0.11423 0.0016,-0.0569 0,0 z m 22.77533,-31.157339 c -1.68026,-0.85913 -0.20253,0.79887 0,0 z m 0.88548,-0.6103 c -1.08014,-0.16876 0.008,0.33176 0,0 z M 8.037133,52.194689 c 1.088047,-0.19507 -1.408705,-1.93245 -2.171727,-2.35811 0,0 -2.9634986,-0.09909 -3.8406544,0.878292 -0.8567865,0.954681 -1.14910756,2.747455 -0.4486106,3.822073 0,0 2.0304821,1.281075 1.684445,0.769832 0,0 0.5364352,-1.492521 1.0201014,-2.103538 0.8081208,-1.020903 2.5716988,-1.50408 3.7564456,-1.008549 z m -2.611314,1.76847 c -1.315924,-1.48122 0.876543,1.8834 0,0 z m 1.429926,0.35806 c -0.533596,-0.85372 -0.458729,0.47893 0,0 z m 1.185334,-0.26399 c -0.387718,-0.73418 -0.42245,0.7008 0,0 z m -2.032,-0.33867 c -1.154568,-1.36162 0.374926,1.31977 0,0 z m 0.614781,-0.42676 c -1.016661,-0.93909 0.275628,1.26581 0,0 z m 1.501885,0.0881 c -0.859565,-0.65743 -0.126173,0.73769 0,0 z m -0.762,-0.15934 c -0.566029,-1.32717 -0.410546,0.88379 0,0 z m 1.609406,-0.18053 c -0.351189,-1.17739 -1.002501,0.61528 0,0 z m 0.653361,-2.48659 c 0.520689,-2.33354 -2.585718,-3.03488 -4.294767,-3.4323 -2.122894,-0.16523 -0.314426,3.25911 -0.338687,0.84009 0.170849,0.87333 0.85835,1.22189 1.162435,0.47396 0.319214,1.07071 0.709615,0.53462 1.038788,1.2294 0.543202,-0.35609 0.778061,1.46261 1.691618,1.42712 0.334489,0.68248 0.799783,-0.11556 0.740613,-0.53827 z m 20.089233,-1.91488 c -0.346462,0.11914 -0.160622,-0.0221 0,0 z m 1.085095,0.0847 c -1.977533,-1.69319 0.871263,1.52369 0,0 z M 4.008123,48.601879 c -0.83647,-0.48886 0.566514,0.92181 0,0 z m 24.945622,0.20602 c -0.859565,-0.65743 -0.126173,0.73769 0,0 z m 2.624667,-0.68201 c -0.541858,-0.60557 -0.582864,0.99658 0,0 z m -6.406958,-0.31589 c -0.501043,-1.17574 0.69073,-3.12346 -0.08398,-4.62021 -0.572876,-1.4178 -1.20543,-3.51796 -2.529859,-4.04419 1.014108,1.3988 0.720604,3.51184 0.403579,4.82685 -0.956914,2.2094 -1.753335,0.65 -0.448926,-1.00657 0.212232,-1.60915 -0.219068,-3.70958 -1.494232,-4.56926 -1.499763,0.10885 -4.403932,-0.46899 -4.651422,1.35193 -0.978718,-0.54301 -2.930128,3.50812 -1.96419,0.50666 1.134608,-1.67348 3.17893,-2.83193 5.237975,-2.64463 -2.536597,-0.8864 -5.424067,0.54862 -7.216374,2.39217 -2.586475,-1.36637 -4.606346,-4.22107 -4.701727,-7.27604 -0.903157,-1.5838 -1.650763,1.70645 -0.172504,-0.0449 -1.346337,1.24042 -0.542626,2.89337 0.152596,1.93901 -1.064552,2.62065 0.690569,0.40271 0.266151,2.06289 -0.06858,2.20244 1.440733,-0.44054 0.88797,2.02555 0.68958,-1.0199 0.904796,1.82791 2.252148,2.29134 2.680256,1.69009 4.911621,3.97503 7.869057,5.20174 1.298868,1.13311 3.239478,1.35071 4.18045,1.61335 0.393222,-0.008 3.041707,0.88082 2.013293,-0.006 z m 2.79241,-0.10277 c 2.015943,0.20233 1.466398,-1.31103 2.281561,-0.75099 1.295318,1.05868 -0.213945,-1.78195 1.681808,-1.0361 -1.193596,-1.01674 -0.786768,-2.0665 0.572197,-0.62807 0.702793,-0.51639 -1.143429,-1.89005 0.971166,-1.0937 -0.267892,-0.74048 1.444522,-0.65263 0.554744,-2.16311 1.479279,1.24993 0.142637,-1.01613 1.109081,-1.87329 -1.177054,-0.74677 1.392905,-2.60783 0.981551,-3.97503 -2.056677,0.9562 -1.787523,-1.07601 -0.38373,-2.01289 2.053452,-1.85065 -2.012573,-1.04556 -1.047994,-2.56379 1.499343,-1.78256 3.583119,-3.34279 4.683507,-5.31759 0.701444,-2.41497 -2.482672,-1.82865 -3.739841,-0.96831 -1.120877,0.79995 -4.804562,1.87285 -2.418881,-0.25639 2.669637,-2.81273 6.348822,-4.78453 8.634142,-7.85985 0.105053,-1.60235 -2.744653,-0.92416 -3.739192,-0.55824 -1.866937,0.68302 -3.903848,1.55657 -5.676783,2.10328 -0.05897,-1.40322 2.684895,-2.22992 3.722051,-3.38797 3.40388,-2.98542 7.372746,-5.5591802 9.84378,-9.4249712 -1.199595,-2.092013 -3.889617,-0.08351 -5.595394,0.345239 -3.299532,2.215392 -6.921653,3.7634322 -9.845836,6.5170322 -1.051018,-1.22375 2.027386,-2.45149 2.649712,-3.6768602 2.147285,-1.816958 3.722659,-4.087502 4.946236,-6.605246 -0.82966,-1.96692795 -3.661798,-1.2319769 -5.299337,-0.752954 -3.362541,1.58034 -6.627244,3.509329 -9.083234,6.41856 -3.826698,3.6930802 -7.534632,7.5962502 -9.964512,12.3765302 -1.486776,2.05024 -2.187038,4.9588 -0.77036,7.24868 1.324068,2.9763 2.433738,6.07881 2.792418,9.32101 1.287177,-0.74732 2.874996,-0.69171 4.241013,-0.17795 0.02417,-2.28442 3.687959,-1.67787 4.139539,0.17334 0.14979,1.40211 -0.943756,2.31312 0.664602,3.6594 0.905673,1.96519 1.563948,4.15416 0.75045,6.30385 0.420724,1.06022 1.429195,1.07172 2.345536,0.61638 z m 2.259881,0.17933 c -0.324974,-0.73705 -0.959481,0.52654 0,0 z m 1.185333,-0.264 c -0.945956,-0.8334 -0.908029,0.75201 0,0 z m -12.731749,-0.66675 c -0.758739,0.1273 -0.118066,-0.0521 0,0 z m 13.67266,-0.30068 c -1.534226,-1.82062 -0.948735,1.62653 0,0 z m 0.667756,-0.89523 c 0.854916,-0.59953 -1.659936,0.33959 -0.05706,0.0245 z m 0.723233,-1.1537 c -0.14457,-0.58293 -0.984277,0.80104 0,0 z M 5.743631,44.254419 c -0.917378,-1.94967 -1.855845,-1.32426 -0.09321,0.15081 z m 2.085781,-2.18562 c 1.735866,-1.20769 -1.758778,-2.10329 -2.46923,-0.86098 0.311845,-0.36933 1.49487,1.5519 2.164119,1.08979 l 0.245214,-0.18389 z m 28.613276,-2.85946 c 1.410606,-3.6369 2.64274,-7.41235 2.858588,-11.31411 -0.346032,-0.13631 -2.400135,2.43142 -3.381853,3.30144 -1.797775,1.18208 2.416646,0.92582 0.713067,2.87823 -2.569713,1.94313 0.827393,0.74391 -0.06029,2.85886 0.201105,1.00764 -1.73302,2.8546 -0.490081,3.091 0.120188,-0.27181 0.240377,-0.54361 0.360565,-0.81542 z m -13.207471,-1.00242 c -1.080181,-0.16873 0.0076,0.33177 0,0 z m -0.462138,-1.11931 c -0.500013,-2.85614 -0.447727,2.86578 0,0 z m -1.497201,-0.67957 c -0.124022,-1.24361 -0.882111,1.96002 0,0 z m 0.893409,-0.11371 c -0.801323,0.0919 -1.326639,1.84208 0,0 z"
       id="path1"
       sodipodi:nodetypes="sccccccccccccccccccccccccccccccccccccccccccccccccccccccccccccccccccccccccccccccccccsscccccccccccccccccccccccccccccccccccccccccccccccccccccccccccccccccccccccccccccccccccccccccccccccccccccccccsccccccccccccccccccccccccccccccccccccccccccccccccccccccccccccccccccccccccccccccccccccccccccccccccccccccccccccccccccccccccccccccccccccccccccccccccccccccccccscccccssccccccccccccccccccccaccacccccccccccccccccccccccccccccccccccccccccccccccccccccccccccccccccccccccccccccccccccccccccccccccccccccccccccscccccsscccccccc" /></g></svg>
