<?xml version="1.0" encoding="UTF-8"?>
<svg width="563" height="40" version="1.1" viewBox="0 0 148.96 10.583" xml:space="preserve" xmlns="http://www.w3.org/2000/svg"><path d="m36.578 10.533c-0.38513-0.88528 0.02842-1.9583-0.32867-2.579-0.24476 1.538-2.6005 2.3012-3.3049 1.3368-0.14308-0.08331-0.9224-0.70602-0.78352-1.3957-0.67237-1.6986-0.39678-4.1822-0.41665-6.2213 1.4733-0.31383 0.33987 2.7472 0.75322 3.7402 0.14468 1.4906-0.04431 2.6038 1.2079 3.6113 2.4444 0.09136 1.9108-2.9372 2.4459-4.4888 0.23235-1.0924-0.44684-2.4506-0.10065-3.5414 0.91781 0.02097 0.6029 1.6327 0.91264 2.4412-4e-3 2.299 0.24965 4.8021 0.04721 6.9753-0.0012 0.27563-0.3094 0.22628-0.4325 0.12141zm16.684-0.13668c-0.05908-1.5528 0.06532-3.5778-0.15709-5.1898 0.07534-1.374-0.51592-2.8395-0.11774-4.1062 0.6886-0.17958 1.7912-0.68884 2.3245-0.39885 1.4444-0.23815 2.2266 2.7203 0.9365 3.412-0.02811 1.0757 1.1231 0.29133 1.5508 1.1189 1.5455 2.251-0.71002 5.3532-3.3196 4.8179-0.78231-0.43092-0.58054 0.59208-1.2173 0.34615zm2.3502-1.0776c1.7869-0.21041 2.5139-2.7993 1.4077-3.8769-0.83631-0.19841-1.4209-0.37631-2.608 0.14276-1.1525 0.40078-0.0071 2.1452-0.37722 3.0842-0.30982 0.87292 1.0699 0.60745 1.5775 0.64997zm-1.5377-4.4645c1.3997-0.25701 2.9907-2.1355 1.5063-3.424-0.90412-0.53417-2.2808 0.27551-2.1057 0.97081 0.50809 0.39466 0.0053 2.6059 0.59945 2.4532zm-12.476 5.271c-0.1009-1.4313-0.0018-1.9791-0.14175-3.5546 0.08555-1.5279-0.05679-3.5411-0.41461-5.0099-0.85764 0.04906-3.4312-0.34398-1.3036-0.76344 1.448 0.31584 3.6086-0.65272 4.608 0.25829-0.55766 0.89392-3.3415-0.27916-2.2777 1.9055 0.12505 2.5057 0.27615 4.6043 0.13666 7.0234-0.11003 0.15708-0.49998 0.3564-0.60701 0.14077zm34.076 0.02533c-0.23724-0.52108-0.09302-2.9181-0.07322-2.5512-0.15702-0.96775 0.24672-2.4681-1.1957-2.2324-1.8672-0.67194-0.94048 1.727-1.1858 2.8137 0.11479 2.5332-1.4541-0.137-0.64541-1.355 0.21727-0.58186-0.18955-0.65025 0.08274-1.7643-0.24902-1.1985-0.01661-1.9739-0.17642-2.9569 0.06245-0.61139-0.51342-1.8712 0.5668-1.7122 0.09722 1.3509 0.08358 2.7963 0.32814 4.2367 1.743 0.46109 2.7138-0.25171 2.2046-2.1598-0.43045-0.77011 0.37736-3.4927 0.67118-1.6941-0.07806 2.9367 0.04717 5.5925 0.01368 8.6389-0.10445 0.39568 0.01717 0.95577-0.59059 0.73654zm-3.027-7.5731c-0.13534-0.25627-0.14746 0.24462 0 0zm-21.908 7.4916c-0.26622-0.93383-0.06273-1.975-0.1364-3.073-0.50042 1.178-1.1471 2.4304-2.416 2.902-0.72495 0.28432-2.0053-0.92033-1.3997-1.3122-0.55393-0.34741-0.3961-1.192-0.6989-1.6841-0.33192-1.1015-0.61004-2.2249-0.32889-3.4448 0.31427-0.59683-0.49754-2.988 0.63965-2.3278 0.21377 1.4238-0.09556 3.0391-0.04431 4.3145 0.36199 0.95505 0.7449 2.3444 1.0936 3.5002 1.4531 0.67114 2.2156-1.6397 2.6197-2.6748 0.12369-1.5507 0.23584-3.1748 0.37543-4.7032 1.1506-0.38389 0.45804 1.8643 0.69213 2.7545 0.16422 1.8756 0.35209 3.9289 0.094 5.7265-0.09046 0.12101-0.40301 0.15543-0.49033 0.02219zm-38.64-0.19796c-0.36005-1.0527 0.14086-1.9489-0.27424-3.1543 0.2791-1.0395-0.74708-1.9086-1.0383-2.9449-0.69105-0.77242-1.0908-2.2084-1.202-3.3348 1.0669 0.26531 0.81581 1.9237 1.4984 2.704 0.24178 0.38476 0.71937 1.8777 1.1572 0.5885 0.49423-1.1464 1.3576-1.7699 1.3833-3.0873 0.9964-0.29215 0.35914 1.2509-9.3e-5 1.7127-0.2209 0.58286-0.70387 1.4194-1.1106 2.1055-0.37542 0.69247-0.16793 1.6421-0.13385 2.367-0.02771 0.54992 0.38573 1.5128 0.06287 2.3027 0.43716 0.14379 0.11865 1.2251-0.34272 0.74087zm-1.8592-8.6934c-0.35963-0.49676 0.20028 0.5542 0 0zm16.766 8.5913c-1.6204-0.95147-1.2335-3.2953-1.4242-4.9761 0.20358-1.452 0.3145-3.5831 1.9559-4.0579 1.6359 0.07526 2.7866 1.4879 2.8146 2.965 0.27085 0.67448 0.52268 2.8665 0.13131 4.0471-0.15639 1.4931-1.7218 2.5769-3.4777 2.0219zm1.798-0.72003c1.7694-1.3192 1.1364-3.8749 0.85527-5.7332-0.18839-1.0385-1.6859-2.6943-2.6194-1.3587-0.76746 1.2841-0.7395 3.1755-0.69847 4.4024 0.13775 1.085 0.45064 3.613 2.4626 2.6895zm-7.0277 0.64674c-0.14257-2.3734-0.03828-4.6676-1.417-6.6291-0.1103-0.93919-1.2441-1.9152-1.026-2.8483 0.90377-0.19905 0.92012 1.5407 1.3536 1.9158 0.44599 0.5447 0.9447 2.7452 1.518 1.4655 1.0579-0.96956 1.4995-2.1167 2.4006-2.972 0.80517 0.62562-0.54308 1.4658-0.8593 2.1565-0.89694 1.0923-2.0158 2.0548-1.6558 3.5154 0.11753 0.97442 0.58958 2.5153 0.10814 3.486-0.12972-0.05338-0.36 0.10716-0.42226-0.08982zm-12.945-0.05401c-0.48332-1.037-0.64204-0.41164-0.16141-1.1561-0.68553-1.8762-1.3485-4.0895-1.9926-6.2028-0.68357 0.37129-0.3781 0.93421-0.85086 1.1807-0.11543 0.42401-0.44559 1.2925-0.79763 1.8608-0.20954 0.31601-0.52835 2.1322-1.0389 0.95091 0.13602-1.2411-0.79941-2.7524-0.6848-3.6248-0.45668-1.0092-0.29524 0.92738-0.72909 1.3648-0.56419 1.7384-1.1324 3.6878-1.9303 5.416-0.99077-0.43881 0.13379-1.2788 0.09877-1.8977 0.34122-0.77498 0.69069-1.8801 1.0044-2.9472 0.5818-1.2432 0.68019-3.1218 1.2754-4.2182 0.90126-0.06759 0.61152 1.7354 0.79808 2.3625 0.43814 0.46289 0.22796 2.3766 0.92161 1.7256 0.76028-1.216 1.1937-2.7478 1.9331-3.8874 0.6207 0.73702 0.43182 1.9486 1.0444 2.6314 0.15969 1.3166 0.92713 2.2809 0.98999 3.5164 0.38857 0.36946 0.22629 0.67171 0.49722 1.3834 0.4556 0.65458 0.52499 1.454-0.37741 1.5415zm50.595-0.13253c-0.28247-2.8634-0.61174-5.6132-0.55518-8.4727 1.0611-0.62185 1.4913-0.30353 2.6693-0.63968 0.41624 0.8979-1.3157 0.76762-1.7787 0.99146-0.11892 0.74396-0.62486 3.414 0.74392 2.9375 1.7826 0.05988 0.75951 1.1558-0.41764 0.86532-0.76814 0.4757 0.12895 2.3229-0.09548 3.3057-0.1771 1.1539 2.7228-0.43252 1.9974 0.97406-0.65927 0.16938-1.9356 0.27457-2.5636 0.03845zm23.383 0.06991c-0.27926-2.9285-0.02296-5.7455-0.41423-8.6969 1.0332-0.95217 1.2191 1.4085 1.6284 1.978 0.53857 1.5932 1.414 3.4095 1.9913 4.7097-0.06266-2.0358 0.50598-3.4986 0.31245-5.3197-0.09107-0.44346-0.02366-2.0795 0.69846-1.363 0.15394 2.7777-0.32449 5.4341-0.33255 8.2606-1.1022 0.75361-1.0619-1.1698-1.5786-1.6976-0.58826-1.6397-1.2919-2.7452-1.716-4.1773-0.29232 0.43309 0.11774 2.5103-0.0028 3.4998-0.29561 0.78574 0.80512 3.1793-0.58643 2.8065zm-5.5984-0.24153c-0.42085-0.23484 0.44415-1.5957 0.51699-2.4767 0.12915-1.1152 0.53854-1.6179 0.83664-2.7726 0.42908-1.2424 0.32271-2.3881 0.85983-3.1657 0.97655 0.43096 0.8466 1.8729 1.3315 2.9807 0.0628 1.8107 0.4542 3.5381 0.72379 5.3208-1.3325 0.015-0.8042-2.0071-1.1654-2.9795-0.2511-0.66955-1.6224-0.10016-1.8184 0.65008-0.42382 0.67758-0.39361 1.9497-0.92008 2.5691l-0.17294 0.03398zm2.5386-4.0208c0.94404-0.07441 0.2208-1.842 0.03622-2.1813-0.29897-1.2389-0.58553 1.0598-0.7363 1.5868-0.2896 0.72748 0.0087 0.95917 0.70005 0.59456zm-0.40508-2.0599c0.0087-0.397-0.17351 0.32736 0 0zm1.0421-0.23284c-0.18654-0.29786-0.15979 0.16754 0 0zm21.907 6.0081c-0.70204-0.64451-2.9196 0.25676-3.0509-0.91687-0.0888-2.5659-0.16276-4.9437-0.37837-7.2766 0.57482-1.6053 0.87924 1.0589 0.863 1.7544 0.10253 1.9361 0.0502 3.5492 0.34978 5.2944 1.1686 0.24908 3.0779 9.07e-4 2.2165 1.1447zm-32.932 0.03489c-0.73608-0.10205-1.178-0.69914-1.4402-1.1633-0.98032-1.119-1.0031-3.084-1.0227-4.7376-0.16579-1.763 1.4283-3.916 3.284-2.7703 1.4098 0.45318 0.82377 2.2977-0.08518 0.70044-1.2421-1.1064-2.3028 0.29157-2.3219 1.4934-0.36068 1.6534 0.1301 3.1502 0.43483 4.7437 0.26423-0.05315 1.2803 1.9077 2.1168 0.8453-0.21469-1.0939 1.0722-2.3309 0.853-0.55002 0.33602 0.90698-1.0087 1.8191-1.8185 1.4384zm18.89-0.15368c-0.65477-0.82105 0.40159-2.3228 0.01975-3.4223-0.01444-1.2268 0.11782-2.9569-7e-3 -3.8174-0.35154-0.53998 0.23526-2.326 1.0414-0.75878 0.36814 1.2268 1.169 2.3227 1.5102 3.7317 0.33025 1.1872 0.83889 2.5004 0.80498 0.79618 0.29642-1.6558 0.41224-3.4472 0.30253-4.7357 0.79572-1.0973 0.75877 0.96762 0.67421 1.6042 0.0422 1.0135-0.18175 3.0136-0.42344 3.9868 0.17345 0.61131 0.39016 2.2248-0.74539 2.3639-0.1624-0.14971-0.75571-1.6851-0.76119-2.4379-0.67287-1.329-0.79211-2.6777-1.6715-3.9428-0.18135 1.6864 0.04389 3.1356-0.05129 5.0516-0.28711 0.50657 0.11412 1.7097-0.69327 1.5806zm18.847-0.27246c-0.40895-2.4878-0.3293-4.8503-0.18025-7.5405 0.42227-1.8039 3.8583-0.8126 3.4725 1.1077 0.0611 0.8394-1.0988 1.8237 0.22135 2.2705 0.95167 1.0703 1.0564 3.8304-0.89212 4.1163-0.80935 0.15504-1.9248 0.4586-2.6215 0.04602zm2.0014-0.60391c2.0976 0.1426 2.0774-3.0588 0.36001-3.4508-0.88593 0.82218-2.752 0.28061-1.9575 2.0402-0.10273 1.403 0.15104 1.7733 1.5975 1.4106zm-1.3441-3.551c1.2854-0.2004 2.2706-1.3968 1.9315-2.8151-0.23548-1.162-2.4115-1.2005-2.2402 0.34523 0.28254 0.5418-0.65267 2.8552 0.30867 2.4699zm3.9576 4.2488c-0.88679-0.96577 1.7991-0.33345 1.5167-1.5196-0.0225-1.7293-0.0584-3.7586 0.17693-5.3579 0.43453-1.0558-2.3927-0.36164-1.5649-1.2592 1.1068 0.08417 2.3821-0.41672 3.4364-0.19832 0.28915 0.97527-1.9668 0.32371-1.3065 2.0306-0.28735 1.8767-0.0224 3.7603-0.21389 5.5085 1.5997-0.64709 2.5308 0.74005 0.45225 0.69827-0.83154 0.01846-1.695-0.04824-2.497 0.097579zm5.5716-0.0335c0.0458-1.6388-0.0331-3.3589-0.0384-5.2672 0.18298-1.0814-0.39759-2.7894 0.44724-3.4563 1.5336-0.16075 3.1846 1.4911 2.2593 3.1523-0.80513 1.6649 0.87889 3.5973 0.47322 5.1783-0.95038-0.07594-0.67909-1.8828-0.93194-2.3604-0.11648-0.95514-0.48235-1.8696-1.631-1.1107-0.26757 1.2015 0.49981 3.0467-0.34788 3.9426l-0.12164 6.98e-4zm1.1976-4.7355c1.6505-0.3696 1.2609-3.8168-0.51155-3.0087 0.0852 0.8953-0.62252 3.2842 0.47404 3.0269zm3.9698 4.5686c-1.8271 0.16536-0.52157-2.3765-1.0364-3.4512 0.13418-1.5737-0.11344-3.487 0.31682-4.869 0.75274 0.21076 2.1878-0.17089 2.8407 1.021 2.0936 0.91372 1.9015 4.0283 0.81408 5.7143-0.61371 0.94252-1.6667 1.9503-2.9352 1.5849zm1.0511-0.75741c2.2977-1.1377 2.8628-5.2955 0.31817-6.2456-0.99939-1.2165-1.9538-0.22663-1.6732 1.0187-0.0677 1.6446-0.15631 4.0508 0.17862 5.2247 0.32591 0.21631 0.87266 0.08405 1.1764 0.0022zm-26.878 0.56308c-0.86815-0.33551-1.9338 0.27486-2.6455-0.47473-0.13849-2.4378-0.39057-5.1768-0.0588-7.1354 0.69418-0.72816 2.0368 0.12104 2.9895-0.39763 0.68192 0.87335-1.3474 0.90598-1.6361 0.77434-1.0772-0.42891-1.2682 2.8635-0.28182 2.8029 1.4918-0.19636 2.1536 1.0975 0.12932 0.78773-0.89273 0.13292-0.78265 2.6975-0.0324 2.9021 0.55866-0.11161 3.0854-0.19906 1.9399 0.69749-0.0928 0.06619-0.30621 0.11472-0.404 0.04316zm38.733-0.15398c-1.977-0.86464 1.5022-0.54776 0.37474-2.1514-0.24335-1.573 0.38522-3.4185-0.19475-4.8114-2.5711-0.06677-0.49493-1.1759 0.98258-0.84102 1.885 0.24698 0.62876 1.0934-0.10305 1.2034 0.11463 1.9603-0.0896 3.8097 0.13172 5.7487 1.5132-0.59786 2.216 1.2573 0.3887 0.78683-0.47514 0.08408-1.1434 0.16689-1.5799 0.06484zm-4.1923-0.11767c-1.4181 0.21561-1.6859-1.1028-1.3158-2.1846-0.0307-1.4831-0.1106-3.5397-0.0882-5.1535 1.2065-0.37465 0.62097 1.9896 0.82504 2.7628 0.15921 1.2346-0.38889 2.6865 0.0435 3.7282 0.96483 0.62473 2.9032-0.94247 3.2829 0.54159-0.78021 0.3028-1.8696 0.30162-2.7474 0.30544zm9.5511-0.06629c-1.5214-0.12117-0.94688-2.1328 0.0793-0.74614 1.5548 0.50199 2.0094-1.8781 1.3876-2.9816-1.17 0.35181-2.9875 0.31251-2.7162-1.3747-0.47054-1.5495 1.4326-4.0841 2.7995-2.2337 1.2928 1.3999-0.44189 1.2311-0.99075 0.06228-1.087 0.36581-1.5123 2.0195-0.87578 2.9356 1.4679-0.62215 3.14-0.05122 2.894 1.7498-0.0762 1.5475-0.83516 2.9426-2.5777 2.5884zm6.0707-0.3952c-0.57062-0.89518 0.19191-1.7417-0.3166-2.873-0.39139-1.1469 0.94863-3.9958-0.87119-3.7941-2.3249-0.03585 0.14814-1.3785 1.126-0.72543 0.89311-0.78553 3.1654 0.56406 1.2492 0.65521-1.3239 0.04932-0.38535 2.2378-0.74251 3.1552-0.0883 0.82984 0.91097 4.0069-0.44487 3.5821z" stroke-width=".69782"/></svg>
