<?xml version="1.0" encoding="UTF-8"?>
<svg width="241mm" height="122mm" version="1.1" viewBox="0 0 241 122" xml:space="preserve" xmlns="http://www.w3.org/2000/svg"><path d="m17.376 37.209c-0.69524-2.8677-0.44593-6.5685-0.46468-9.6458-0.0956-3.1381 0.29532-6.8271-0.0581-9.8343-0.31596-2.8775-0.80158-6.1382-0.78452-9.243-0.10119-2.7279-0.43845-5.4437-2.8282-5.1485-3.2195-0.30618-6.7224 0.79593-9.6753-0.13712-4.3474 0.87185-1.8042-3.702 1.3694-2.2084 2.7934 0.66301 5.4078-0.96323 7.4517-0.32424 5.5288 0.6137 11.602 1.6913 17.314 0.77283 3.4246 0.32749 1.471 3.7994-1.4261 2.6925-3.4274 0.49075-6.9016-0.36788-10.291 0.0922 0.44665 6.0883 0.53768 11.974 1.1692 17.841 0.0752 2.0709-0.15143 4.2328-0.10998 5.9344-0.0428 2.9688 0.74724 6.4096 0.0126 9.1692-0.52076 0.1559-1.2516 0.68766-1.6791 0.039z"/><path d="m68.714 37.707c-2.9394-1.9355-0.65608-6.8614-2.3144-9.9892 0.44037-2.1838 0.28386-4.576-0.074-7.2335-1.2964-4.1892-0.23708-9.1498-1.3967-13.445-0.9531-2.2416-1.0498-4.9414 2.3299-4.8985 3.2558-0.91103 6.7636-0.30007 10.123-0.60721 2.1031 3.3905-4.5174 2.374-6.4741 2.9122-2.6553-0.80422-5.0063 0.88548-3.5682 3.9801 0.78861 2.8364-0.40543 6.4393 1.1467 9.1268 1.8851 1.8718 5.5336-1.7889 6.1273 1.1369-0.46401 3.3552-6.6649 0.40018-5.6803 3.6427-0.0122 4.106 0.0234 8.2493 0.64108 12.182 1.0667 2.5538 8.2056-1.7423 7.4962 2.4627-2.0165 1.622-5.8403 0.52528-8.3566 0.7293z"/><path d="m56.29 38.946c-1.2229-3.1935-0.50809-7.7259-1.5304-11.376-0.18366-1.8756 0.53073-6.3786-2.3249-5.8918-2.3311-0.0297-3.9062-0.0019-7.0328 0.0041-2.2134-0.12866-4.7284-1.066-3.768 1.9206-0.0786 4.0868-0.38862 7.8234-0.24208 12.237 0.60189 4.0757-3.9367-0.75837-2.0701-3.3157 0.21871-3.3766 0.24686-7.2344 0.21086-10.234-0.32429-2.5391-0.54033-4.9179-0.54921-7.5739-0.86031-4.1246-1.0115-9.3551-0.82499-13.718 3.3704-0.43747 1.4596 5.1257 2.2183 7.28-0.36643 3.3022 1.3786 4.4418 0.89753 7.9688-0.82523 3.8298 4.3031 2.4463 6.6513 2.6919 3.4944 0.16592 7.5582 0.44756 6.1355-4.3193-0.44351-3.3584-0.33935-8.1652-0.55119-11.98 1.1445-3.5373 2.5757 1.2154 1.9694 2.5678 0.10459 2.9917 0.46037 6.273 0.74561 9.0865-0.65857 2.4642 0.0518 3.8896 0.9059 5.5911 0.0423 1.3182-0.91619 4.2574-0.12362 5.9099 0.74484 1.5664 0.82241 4.6624 0.69925 6.458 0.64283 1.2803 0.2397 4.3352 0.3527 6.3807 5e-3 0.54302-1.5507 1.0384-1.7691 0.31341z"/><path d="m126.13 121.29c-6.6136-3.4281-2.4958-12.405-4.3665-18.537-1.5826-12.203-1.1242-25.462-2.7495-37.826-0.6321-4.7883 1.8314-10.221 2.1894-12.622 6.0907-3.8998 14.307-3.504 21.229-4.958 5.7746 5.1438-3.8597 5.3892-7.4474 6.3323-6.595-0.46099-11.027 3.3833-10.641 9.6924-1.1514 4.7678 2.0476 10.772 0.71218 14.453-1.5184 7.1869 8.4868 1.5079 11.915 4.2786 0.80639 6.1454-8.1435 4.5862-10.236 7.5408-2.0981 3.6127 1.6317 8.2044 0.38238 12.818 1.017 3.8388-1.9296 15.406 4.2183 12.914 3.7923-0.81557 11.344-4.7716 13.579 0.46372-1.9322 5.7074-8.2187 1.0893-11.924 4.3857-2.2593 0.68738-4.8621 1.3226-6.861 1.0659zm-114.35-1.048c-4.8007-1.7385-2.282-7.9938-3.8929-12.364-0.16855-8.7534-1.386-14.529-0.77016-23.335-0.48766-11.473-1.6228-22.816-0.74626-34.382 6.0584-5.9865 5.9745 4.2869 5.4121 8.4235-1.6636 9.3259 1.4305 18.592 0.49094 27.711-0.4607 5.5721 0.83727 13.644 0.5917 19.239 0.4001 4.835 0.36344 11.178 7.1972 8.3177 3.573 0.13124 11.452-1.6092 10.807 3.8619-4.6407 4.2528-11.643-0.11242-17.25 2.5396-0.57701-0.28568-1.2867 0.46044-1.8394-0.0139zm42.247-1.854c-4.5986-1.891-11.468 2.2746-13.285-3.6668-0.53698-4.5812-1.9447-11.243-1.9229-16.096-1.689-3.389 1.2486-10.306-1.7318-13.841 0.48436-6.4335-1.5927-12.425-2.5352-17.993-0.19179-4.3987 1.6852-8.1362 0.65274-12.379 5.0938-5.5787 14.505-2.1074 20.425-6.2918 8.0412 1.9377-0.63201 6.8058-5.0975 6.6894-5.3336 0.82193-11.877 1.6113-10.218 7.4823-1.6906 6.5948 2.4712 12.864 2.292 19.312 3.9824-0.24534 15.494 0.69635 8.0746 5.6456-7.8202-1.1629-8.5752 4.3315-6.8395 10.758-0.2262 4.5508 0.75859 7.5182 1.5505 12.134-0.12419 6.5679 12.823-1.4097 13.914 4.9793 0.76555 2.5796-3.1486 4.6684-5.2786 3.2679zm109.44-0.41187c-3.307-5.1339-1.9759-13.112-2.3015-19.343-0.11992-5.4613-0.71794-11.388 0.12244-17.418 0.86694-9.2149-2.4075-17.175 0.1699-25.89-0.74622-3.3983-0.86165-12.915 6.0574-9.5529 2.5902 3.6569 4.0583 8.9615 6.3414 11.276 3.3198 5.4931 6.3194 10.715 7.7427 17.573 3.7648 6.3844 3.4663 15.252 8.2852 20.824 1.9054-4.7685-0.0895-8.4543 0.13639-12.856 0.51454-8.2543 1.1713-17.455-0.025-25.057-0.79525-3.5476 2.393-14.328 6.0394-7.2603-1.0479 10.392-0.30487 21.092-1.3584 31.051 0.36861 7.9763 1.2889 15.885 1.1687 22.88-0.13424 2.8227-0.14451 12.399-5.2342 8.2268-2.987-2.6698-2.5443-7.7876-4.7257-10.248-1.3296-4.6197-3.4089-9.3695-5.4814-14.016-0.21561-5.7507-3.6145-10.817-4.2265-15.771-1.5046-4.9646-4.1842-9.6899-7.5186-14.51-4.9417-6.3746-3.9008 6.98-3.5624 10.006 1.7596 9.4851-0.50085 18.676 0.84901 28.531 0.0662 3.0174 1.7826 8.0381 0.56443 8.7683-1.3184 3.6071 3.5488 13.511-3.0435 12.789zm44.5-2.0559c-4.3936-2.8469-1.5596-11.204-2.6171-16.601-1.5205-14.066 2.9081-27.783 1.6803-41.96 0.88462-5.5754 2.8234-13.825 10.325-11.316 4.551-0.0989 7.6873 2.62 10.03 4.8001 3.6474 2.4563 7.3638 8.339 10.177 12.154 0.73965 5.4983 3.0885 10.601 2.2709 16.666 0.15905 5.8862-1.2741 9.525-2.9937 15.236-1.387 6.2984-4.7792 10.769-8.5149 14.943-4.1602 5.3114-10.785 7.8072-17.961 5.964-0.55495 1.1058-1.6239 1.3101-2.3967 0.11345zm12.325-6.1285c3.764-2.2008 9.2335-7.1704 9.9276-12.304 2.3207-5.1289 3.499-10.115 4.0035-16.114 0.30305-6.937-0.0306-15.567-4.5864-21.363-3.4335-3.4455-6.5224-8.457-12.899-8.2241-8.5808-0.03944-4.0155 11.084-5.0533 16.478 0.26545 8.159-0.99229 17.498-1.2335 24.643 1.7384 4.7247-1.089 12.751 2.2252 16.953 2.4466 0.19656 5.2345 0.62563 7.616-0.0705zm-115.64 4.6951c-2.1904-3.1059-2.597-9.8887-5.5241-3.8803-4.7455 2.8326-10.676 2.9451-14.945-0.47416-5.5086-2.5786-3.8872-9.7527-6.5491-14.805-0.66911-5.6915-0.7121-12.007-3.2502-16.354-1.7742-8.1708-0.93311-17.159 2.3184-23.988 1.4582-6.3056 7.2078-11.678 14.306-9.8962 5.5187 1.8301 9.8195 6.7334 11.236 12.293-4.4799 5.2889-7.5255-4.5322-11.14-6.261-6.3833-4.0376-8.3402 5.5351-10.402 9.7308-3.2923 9.7529 0.90071 18.863 2.243 28.364 0.16894 5.7165 2.1996 11.744 4.7726 16.383 4.2854 3.5048 10.13 0.51744 10.418-4.1631 3.0449-4.4351-1.8617-13.751 3.4676-17.314 6.8461-1.3164 4.8635 9.1519 5.5276 13.394-0.60041 5.5006 3.6178 12.598 0.29507 16.959-0.89517-0.15351-2.023 0.91329-2.7758 0.0126z" stroke-width="1.9373"/><path d="m190.53 39.261c-3.7706-0.37788-7.6143-0.33302-11.331-1.0071-2.139-2.6244 1.5018-2.8191 3.2808-2.3307 4.2405 1.2527 2.6995-3.6514 2.9096-6.152-0.73016-3.2804-0.92248-7.1254-0.5105-10.444-0.9731-3.5801-0.36726-8.8628-1.5846-12.664 0.81558-3.0652-2.0025-2.5824-4.3805-2.7605-2.9968 2.1237-5.7188-1.6937-1.3909-2.3786 2.5212-0.45835 4.8558-0.0363 7.4628-0.44905 2.181 0.27788 6.8984 0.54718 5.745 3.7693-2.3787-0.17713-6.2922-1.4381-4.5163 3.1612 0.48424 3.4433 1.0685 6.8344 0.92106 10.185 0.0104 4.8053 0.51726 9.6155 1.1301 14.289-0.79747 2.5673-0.17071 3.9797 2.9347 3.9668 1.706-0.02717 5.9063-0.17858 4.1762 2.0338-1.4666 0.73361-3.2206 1.1904-4.847 0.7809zm-97.924-0.49802c-1.0995-4.1091-0.92551-8.5605-1.5906-12.812-0.4634-7.4361-1.1121-14.75-0.62841-22.28 2.549-1.2346 6.8822-2.3192 8.8795-0.50239 2.1115 1.119 3.428 2.9909 4.2843 5.3648 0.3797 2.2814-0.22471 5.0551-1.2828 6.7852-1.3139 2.5672 4.233 1.4094 5.0778 3.6925 3.0882 3.5343 5.2619 10.475 1.7646 14.053-1.7707 3.3464-4.6885 6.2294-9.0355 5.7829-2.3371 0.60238-5.0653-1.25-6.5861 0.27979-0.21061-0.25178-0.97292 0.35756-0.8827-0.36377zm6.4987-2.4679c2.4829-0.43159 5.4858-0.10273 6.3008-2.4104 0.99056-2.0477 3.4174-3.7302 2.7143-6.4083 0.11028-3.0606-1.0763-6.2384-3.5219-7.4383-3.5568-2.0637-7.8094-0.04078-11.224 1.6506 0.6411 2.8904 0.14811 5.8499 0.59601 8.6268 0.56081 1.5379-0.0785 5.8251 2.9986 5.8556 0.46009 0.24363 1.2302 0.56133 2.1358 0.12389zm-3.8166-18.672c1.9138-0.79559 4.1459-1.7823 4.9484-4.0405 1.4595-2.3227 0.72051-6.8303-1.4951-7.9365-1.8055-1.442-6.5488-0.753-5.7936 2.3067 0.19714 3.6129-0.20403 6.8085 0.44828 10.335 0.53828-0.48762 1.2041-0.55726 1.892-0.66502zm20.39 20.589c-4.2213-0.68871-0.54606-3.8386 2.0209-2.5902 3.5888 0.76763 3.1702-1.286 2.9575-3.5886 0.74334-2.6165-1.007-5.8753-0.75013-8.1395-1.084-4.5329 0.10734-10.469-1.2236-15.364 0.45354-2.4536-3.7162-1.6938-4.8115-2.9418-4.1125-2.3162 1.7188-3.4003 3.8434-1.6336 2.5238-0.0595 4.5403 0.15694 7.2595 0.0479 1.6492 0.15013 5.6781 1.0853 3.2451 3.0096-1.8901 0.67891-7.1502-1.5973-6.6836 1.8009-0.0768 2.8522 1.0897 5.4815 0.58897 8.2822 0.4215 4.5502 0.71825 9.2693 1.5004 13.506-1.0494 3.054 0.31614 5.8911 3.6125 3.8047 2.9744-1.4162 4.6432 3.4995 1.1721 2.9142-4.2149 0.49025-8.4132 1.3758-12.732 0.8922zm122.27-0.67193c-0.45678-4.4563-2.1627-2.8191-4.7974-0.7748-3.1292 0.0062-5.897-2.7984-7.2191-5.5511-1.1591-3.4099-1.9221-5.537-2.6584-9.2575-0.33806-2.1474-8e-4 -3.8857-0.99782-6.3537-0.78728-4.0778-1.0363-8.3677 1.3973-11.908 1.6231-2.1673 3.2203-2.9817 5.901-3.537 3.4566-0.89075 7.4544 2.0999 7.1701 5.644-2.8304 1.8814-2.8014-3.1312-5.6612-2.9686-5.5346-0.48829-7.0512 6.8232-5.7275 11.24 0.84433 4.113 0.71441 8.5632 2.1745 12.199 1.0409 2.8806 1.8173 6.7916 5.1157 7.5073 2.7336-1.8658 1.9974-4.293 2.3991-7.4802 0.69779-2.5459-1.169-5.8176 0.91488-7.3015 2.9242-0.6184 1.8859 3.8331 2.6791 5.7877-0.12872 3.0319 1.0985 6.5094 0.66213 9.1485 1.4664 1.095 0.42634 5.2177-1.3526 3.6051zm-83.793 0.05192c-2.4208-0.79594-2.1228-4.5917-4.2247-6.5753-0.0862-2.3791-1.6214-3.7006-2.1232-6.0368-0.92145-1.7731-1.1449-3.677-2.8754-5.1552-2.7811 0.26244-4.9656 1.3832-4.14 4.0097 0.76857 2.7869-0.3674 5.0645 0.40491 7.9171 0.0345 1.8507 0.72421 6.1185-2.1594 5.1925-0.54355-2.5225-0.88821-5.912-0.55653-8.234-0.55771-2.2435 0.32267-3.6643-0.17334-6.4781-0.98976-5.0732-1.4257-9.9575-1.6092-14.985-0.18774-1.8315-1.2542-4.0865 2.1381-4.2683 3.9464-0.89507 8.4688 1.4744 10.685 4.7029 2.1965 1.3454 1.7992 4.9849 0.29429 7.0436-1.164 1.6527-3.4521 3.2745-1.4428 5.4424 0.15885 1.9906 2.2311 3.9166 2.2223 5.9455 1.2897 1.5971 1.9362 4.1078 2.9783 6.125 0.80184 1.5197 3.5236 4.5238 0.78116 5.5953zm-11.561-19.84c3.3191-1.4145 6.1119-4.5346 5.8202-8.109-1.8101-2.0232-3.7055-3.3075-5.7322-3.953-2.3016-0.59364-3.754 0.90079-3.2357 3.5539 0.13084 3.0233 0.34188 6.1827 0.99495 9.0609 0.73645-0.11412 1.4479-0.31409 2.1527-0.55289zm71.179 19.879c-1.8192-3.7835-3.4568-7.3949-4.8591-11.233-1.5903-3.5607-3.4586-6.677-5.0575-9.6928-1.378-2.2451-1.355-5.1964-3.3183-7.0189 0.36817 4.009 0.61474 8.2099 0.14478 11.656 0.51031 1.984 0.39229 4.4233 0.67865 6.1435 0.51329 2.4713 0.89068 5.8077 1.506 8.6494-1.9306 3.3769-3.4213-0.83399-3.1858-2.6917-1.5151-6.0629-1.6517-12.611-1.618-19.156-0.59735-3.115 0.0868-6.2116-0.57379-9.1936-1.0832-2.5642 3.3215-5.3847 3.4967-2.3437-0.78178 2.6864 3.1 4.914 3.2849 7.7596 1.1991 2.4916 2.441 6.0921 4.137 8.707 1.0832 2.2922 2.8645 5.1349 3.8204 7.6218 2e-3 0.38354 1.537 5.476 1.7002 2.0209-1.4304-5.5243-0.73124-10.708-1.456-16.038-0.39199-2.8601-0.86161-6.0086-0.59781-9.1016-1.5985-3.3967 4.3958-1.5903 3.1273 1.5359-0.54303 2.7869-0.0539 5.5587 0.20916 8.0836 0.81994 2.0498-0.38107 4.1869 0.45847 6.4745-0.0543 2.6304 0.28758 3.7161 0.68334 6.5331 0.83559 3.7155 0.93768 8.5225-0.59263 11.318-0.50702 0.19144-1.5261 0.3763-1.9878-0.03474zm-49.919-0.21746c-3.9909 0.94264-4.4178-3.2685-4.0642-6.3106 0.0418-6.3128-0.0504-12.704-1.4683-18.664 0.35634-3.0711-0.60064-6.4172 0.094-9.4116 2.8066-1.7784 6.7546 0.54379 8.6797 2.7677 2.4975 2.8183 4.4837 5.7636 6.7382 8.8377 1.0539 3.398 2.0788 6.4545 2.1438 10.101-0.18663 2.7604-2.037 6.5289-3.878 8.599-0.95061 2.7386-4.1216 4.9749-7.0089 4.1634-0.39175 0.31185-0.82336-0.04088-1.2363-0.08255zm3.0448-2.3502c2.6165-1.4483 4.8614-4.8079 5.6917-7.5455 1.5639-4.3901-0.085-9.4639-1.8509-13.312-2.0422-1.506-4.0118-5.6928-6.6892-7.8984-3.4189-2.1897-3.3125 2.0197-3.0598 4.5593 0.38594 2.8577 0.56413 6.0984 1.0922 8.2527 0.32032 1.5203 0.3303 5.0836 0.36879 6.6722 0.64697 2.69-1.1173 4.9885 0.0811 6.0772-0.33443 2.8825 2.3359 3.5049 4.3661 3.1948z"/></svg>
