<?xml version="1.0" encoding="UTF-8"?>
<svg width="364mm" height="40mm" version="1.1" viewBox="0 0 364 40" xml:space="preserve" xmlns="http://www.w3.org/2000/svg"><path d="m53.328 39.638c-1.5501-3.7752-1.0604-8.0354-1.585-12.031 0.75693-4.7171-3.2048-4.6206-6.8245-4.0255-2.5349 0.47522-6.268-2.2171-4.976 1.7923-0.11293 4.1127-0.37142 8.4989-0.15933 12.667-4.3872 0.33166-1.7482-5.1141-2.5038-7.7169 0.58807-4.4914-0.10274-8.6427-0.48998-12.964-0.24474-3.9524-1.0061-9.3503-0.47482-13.368 3.8783-0.70296 1.4722 5.1934 2.6823 7.468 0.0558 2.7214 0.85744 5.911 0.65267 8.6886 3.3815 1.1154 7.8 0.47042 11.261 0.18208 0.41179-5.3365-1.1193-10.868-0.0828-15.831 3.5288-0.93211 1.5169 5.0364 2.2261 7.264 0.0578 3.0997 0.75554 4.2003 0.32945 7.4742 1.8833 2.8125-0.17499 5.1243 1.0606 8.7183 1.1972 2.4277-0.10304 4.9247 0.80076 6.8384-0.79661 1.9072 1.2854 5.5196-1.9168 4.8436zm12.069-1.3171c-3.3964-0.84572-1.627-5.6593-2.3096-8.1853-0.69726-2.9784 0.14855-5.2091-0.60451-8.3494-1.3238-5.3217 0.0531-9.4782-1.827-14.495 0.41615-3.2803 6.1935-2.2713 8.9462-2.64 6.1642-1.0935 3.3108 3.6174-1.2637 2.5627-2.4999-0.02778-6.5887-0.36162-4.7302 3.5937 0.65402 2.6351-0.20403 6.1102 1.0539 8.726 1.9999 1.2555 6.6899-1.7375 5.3432 1.81-3.2378 1.4736-6.5296 0.71438-4.8707 5.8836 0.0774 2.7679 0.0401 6.0633 0.83033 8.7627 2.1172-0.25607 9.3836-0.89496 5.6786 2.1724-2.0208 0.29602-4.2073 0.1591-6.2466 0.15891zm-48.299-0.56799c-0.83249-5.0031-0.49387-10.934-0.40801-15.74-0.0161-3.4364-1.0273-6.6128-0.86601-10.363-0.16932-2.0561 0.18115-6.5967-3.9913-5.4594-3.2865 0.24778-7.3472 0.90054-10.051-0.70267 1.3792-3.2472 7.1006-0.010054 9.1578-2.1405 5.9415 1.208 12.212 1.7021 18.344 1.1395 3.8618 2.4808-2.7729 2.8844-5.0167 2.6519-3.393-0.27822-8.0954-1.078-6.2611 3.6093 0.64441 8.6034 0.77354 16.859 0.93163 25.256 0.79363 1.2077-0.76975 2.6745-1.8391 1.7497zm173.26 0.18561c-3.6815-0.48986-7.6023-0.23554-11.223-1.0397-2.4134-3.7082 3.4918-1.6942 5.402-2.2596 1.3026-5.0577-1.2388-10.292-0.13919-15.369-0.80192-4.7106-0.97532-9.5634-1.6681-14.17-2.1242-0.75302-9.3957 2.071-6.6836-1.7944 2.9668-1.2277 6.2977-0.70123 9.3888-0.83314 3.8003-1.0326 6.7778 5.1352 1.735 3.0441-3.8099 0.17094-0.34084 6.0346-0.74891 8.7856-0.072 6.3882 0.68558 12.967 1.1522 19.079-0.88439 2.6862 4.6699 1.41 6.346 2.0904 2.6447 1.6302-2.3535 2.802-3.5616 2.4676zm-91.582-0.28328c-1.4709-3.7049-0.9609-8.0559-1.7362-11.962-0.13214-7.0722-1.3605-14.131-0.32385-21.108 3.5847-1.5051 7.5966-2.039 9.9969 1.0286 3.0212 3.0353 2.7191 7.2295 0.5702 10.709 2.4217 1.2959 6.1779 2.199 7.052 5.8082 1.5768 3.5065 2.0707 7.834-0.41482 10.258-1.8416 3.3606-4.5992 5.4672-8.6661 5.1658-2.6485-0.11632-4.5165-0.25531-6.478 0.09914zm5.6574-2.5436c2.4049-0.51649 5.3502-0.04758 6.0588-2.3174 1.1868-1.9651 3.6083-4.4543 2.2006-6.9238 0.59962-2.3575-1.2998-5.0237-2.8548-5.8728-3.4838-1.7978-7.1403-0.16375-10.295 1.4628 0.28804 2.7921 0.23959 5.6357 0.27534 8.1672 0.94462 1.0834-0.0742 5.3532 3.0311 5.2514 0.49811 0.49717 0.89499 0.61159 1.5841 0.23255zm-4.5825-17.063c4.9942-0.44686 8.7504-7.0645 5.0139-11.017-1.7608-1.8904-7.0743-1.2722-5.902 2.4412 0.48867 3.181-0.45007 5.8065 0.58098 8.7149h0.16433zm207.57 18.863c-3.3085-1.7661-0.8892-5.9413-2.1231-8.9263-0.42963-6.679-0.90839-13.934-1.3018-20.318 0.83863-1.8096 0.75552-5.4121 4.4177-5.1926 2.6274 0.22228 6.1982-2.4037 8.1931-0.26609-0.27284 3.1559-5.4395 1.4775-7.3917 2.9034-2.7997 0.94214-2.3046 4.2327-2.2395 6.9135 1.6025 2.11-1.4154 6.7244 2.3065 5.8504 3.7139-1.787 5.1948 2.3936 0.7567 3.017-3.3376 0.04964-1.8602 3.3604-1.8128 5.6098 0.45836 2.0958-0.88164 8.2816 1.8756 7.4676 2.1348-1.6179 9.6351-0.83434 4.8012 1.8861-2.47-0.76223-5.0463 1.7202-7.4818 1.0555zm-186.81-0.03029c-4.6487-0.46556-0.90068-3.7129 1.8543-2.3738 4.2132 0.97317 1.3887-3.1432 2.5193-5.2559-1.4743-5.7027-1.2609-11.008-1.4874-17.001-0.72112-2.5303 0.0897-5.4364-3.4146-4.8928-1.8177-0.14048-4.79-3.0225-1.3524-3.242 4.4802 2.195 9.7809-0.37118 13.751 2.2936-0.34701 2.9113-4.1257 0.61093-5.7273 1.4276-3.3827 0.62154 0.17119 5.8024-0.80452 8.4714 0.12918 4.867 0.82452 9.3703 1.2958 14.1-1.3096 4.3858 2.3283 3.5484 5.236 2.8082 3.6958 2.5462-1.9099 3.2029-4.16 3.3064-2.5301 0.28914-5.2229 0.57318-7.7097 0.35799zm113.12-0.63085c-0.46044-5.4318-2.4731-0.87403-5.4136-0.76189-4.4592-1.1467-6.7486-6.1892-7.3723-10.613-1.3273-4.8011-1.6067-9.4258-2.3277-14.428-0.1508-5.6639 5.8535-11.161 11.306-8.2919 1.3419 0.71717 4.6892 4.8183 1.1523 5.0712-1.2132-2.4304-4.8129-4.9205-7.4703-1.9389-4.1036 4.9468-0.56724 11.338-0.57665 16.958 1.1723 3.5222 1.638 8.9158 5.5014 10.527 3.9232-2.2161 1.8853-7.212 2.5894-11.197-1.5174-3.3164 4.0933-3.3426 2.801 0.50684 0.23797 3.428 1.4102 7.2661 0.90582 10.609 1.4641 0.80218 0.72006 5.1833-1.0954 3.5594zm-78.408-0.12063c-2.122-1.4224-1.6332-4.2028-3.4082-5.7953-1.2171-3.5692-2.3178-7.4461-4.6391-10.363-3.7911-0.46871-4.4312 2.4368-3.4219 5.1439-0.82531 3.1343 1.0709 7.4307-0.55406 10.807-3.5358-0.36175-1.5384-6.0995-2.3278-8.8922-0.0258-1.8252 0.22703-6.1406-0.62985-8.3771-0.28167-3.5646-1.0328-8.4967-0.68178-11.136-2.7572-4.139 5.2678-4.3313 7.1199-2.8556 3.4789 1.6882 7.1187 4.3334 6.0394 8.5407-0.48488 2.5999-4.2978 3.9153-2.416 6.7483 0.95786 2.3723 1.9711 4.9665 3.3702 7.4805 0.50023 3.0983 3.6101 5.4308 3.2629 8.4796-0.40605 0.63792-1.1444 0.91247-1.7138 0.21948zm-10.756-18.138c2.9371-1.0599 6.9415-4.7466 5.3521-7.995-1.547-1.7275-3.1875-3.3639-5.5253-3.0492-3.3862-1.2247-2.0269 4.7095-1.9 6.4336 0.90679 1.4543-0.97881 5.7446 2.0731 4.6106zm66.68 18.344c-2.7402-5.5191-4.8126-11.502-7.5578-16.818-2.4385-2.4739-2.5048-6.567-4.7457-9.1602 0.72111 4.2923 0.0625 8.5814 0.31455 12.189 0.48466 2.9321 0.24674 4.6458 1.1028 7.4889-0.06 1.9688 2.0679 7.0829-1.4181 5.737-1.0234-2.2107-0.84478-5.6649-1.8009-8.191-0.57958-7.5849-0.54807-15.292-0.94358-22.694 2.124-5.0244 3.191 0.039962 4.2977 2.5418 2.6117 3.7834 3.4865 8.1101 5.6728 11.937 2.0984 3.1575 3.6482 6.7276 4.5116 9.6341 1.7191 0.98527-0.30425-4.1305-0.0794-5.4767 0.0262-5.6766-0.78699-10.863-1.1474-16.656-1.1217-2.625 1.1398-5.973 2.7681-1.9558 0.26206 3.4705-0.55812 6.7115 0.71291 9.8645-0.54169 2.0074 0.31193 5.8651 0.14029 7.7708 0.86386 4.1507 1.9983 10.27 0.02 13.822-0.4612 0.23793-1.4378 0.32482-1.8479-0.03229zm-46.401-0.18655c-3.8338 0.89515-4.1053-3.2391-3.7981-6.0845 0.0675-6.1746-0.17232-11.789-1.3629-17.543 0.31246-2.727-0.55352-5.579 0.10015-8.3544 4.5182-2.1676 8.6 2.7541 10.833 5.9897 2.8416 3.2253 4.5622 6.7737 5.1114 10.639 0.96986 3.6928-0.10399 7.9833-2.889 10.9-0.9368 3.2503-4.3974 5.3995-7.995 4.4534zm2.9256-2.2527c4.6964-2.9947 6.9486-9.3528 5.1852-14.431-0.78311-4.7549-4.6058-8.0602-7.4955-11.808-2.6904-2.4706-3.7883 0.32674-3.3219 3.0906 0.36603 5.2842 1.304 8.4846 1.4712 13.58-0.37066 0.73364 0.36646 4.8824-0.38527 5.6443 0.11172 1.2453 0.89286 4.689 3.7949 4.248 0.25816-0.08869 0.51946-0.16945 0.75147-0.32407zm84.814 2.2806c-1.8767-1.9381-1.237-5.7599-1.6508-8.596-0.1832-6.3318-0.5438-13.47-0.70601-20.365-0.79378-1.9851 1.1288-7.8202 2.4597-3.7086-0.48938 7.8227 0.33462 15.32 0.38458 23.322 0.43155 2.4144-0.39741 6.0622 1.6513 6.7916 2.6864-0.01125 5.4357-1.1294 7.2267 1.001-1.5556 3.0864-6.0071 0.28645-8.8112 1.7218l-0.35603 0.02927zm21.068-0.40181c-2.8659-0.73791-7.6578 0.89294-7.4673-3.3805-0.36445-2.5473-0.51231-4.765-0.91724-6.791-0.3208-2.044 0.36431-4.6112-0.51906-6.2437-0.0156-3.5197-0.4718-5.5782-1.3764-8.1894 0.86581-2.7381-0.63546-5.3032 1.4381-7.4112 3.028-0.60455 7.057-1.3383 9.9865-2.1041 3.0832 2.8779-2.7199 3.0703-4.5586 3.6809-3.5408 0.17209-3.677 2.0703-3.675 5.1358 0.224 2.4058 1.0754 5.0019 1.3567 7.4497 2.9367-0.79043 7.2203 1.2509 3.2522 2.9512-4.8624-1.3441-2.3587 4.1878-2.6735 6.6331 0.56961 2.4312-0.17716 6.7466 4.0262 5.0965 3.9501-0.78151 4.5574 3.3242 1.1275 3.1728zm51.68-0.49159c-1.7938-4.8286-0.55423-9.9037-1.2782-14.466 1.3087-5.0274-0.84024-11.011 0.24573-16.081 0.14812-1.9294-0.59823-4.8899 2.8981-4.1946 1.9443 1.5146 1.918 3.8594 3.6433 5.8475 3.5981 5.0638 4.6496 12.477 6.9592 17.622 1.6943-0.31729-0.20964-6.0244 0.43219-8.3038 1.2988-4.5432-1.528-10.512 1.3347-14.015 3.4154-0.25591 0.91363 4.7502 1.3944 6.801 0.26369 5.3325-0.84885 10.39 0.27269 15.655-0.42495 2.9963 0.72195 6.4951-0.92724 8.9934-3.8489 0.33456-3.0153-5.2962-5.0063-7.5147-0.96067-2.7565-2.1224-5.5374-2.5834-8.3415-1.4534-4.1211-2.3221-8.251-5.5516-11.567-2.2544 3.5489 0.43449 8.4761-0.43061 12.619-0.23798 5.4077 0.46139 10.695 0.55086 16.23-0.47022 0.56997-1.2164 1.3697-1.9538 0.71583zm21.588-0.944c-2.2173-1.4661-0.55427-5.4968-1.3168-8.0363 0.0346-1.9995-0.26813-6.3016 0.36369-9.0275 1.3358-5.0834-0.8266-11.289 2.2905-15.942 2.9761-1.8467 7.3166 0.50961 8.4851 2.3617 4.8241 3.7016 5.9621 9.5712 5.3021 15.444-0.64531 3.2639-1.7532 8.2628-4.2287 10.83-1.9498 3.5645-6.0789 5.1942-9.9262 4.5328-0.13326 0.46397-0.88538 0.13085-0.9697-0.16288zm6.002-2.9224c2.4405-1.3496 4.6756-4.4469 5.2196-7.4279 1.4025-3.1622 1.5498-6.2376 1.3334-10.154-0.0231-3.2779-1.7807-6.6563-3.7624-7.8415-1.0025-2.7304-8.275-4.0869-7.0824 0.81009 0.21561 5.3135-0.0975 9.9874-0.45527 14.728 0.18251 2.8132-0.25485 7.1141 0.92413 9.8983 1.2049 0.09183 2.642 0.3121 3.823-0.01299zm-55.85 1.8309c-0.18387-3.8193-1.7881-2.7589-4.2783-0.83495-3.0349 1.0321-7.1759-0.995-7.2849-4.7225-1.35-4.0194-1.1384-8.6284-2.8266-12.708-0.31057-4.8382 0.43874-10.735 4.2568-13.91 2.5264-2.0507 6.6331 0.26478 7.7465 2.5172 3.0691 1.944-0.12234 4.9671-1.496 1.81-1.7234-3.4972-5.8476-3.3458-6.7394 0.012227-1.1159 2.5769-1.4452 6.0006-1.5055 8.7459 2.0771 4.7154 1.4019 10.312 3.6358 14.757 2.6435 2.8846 6.2796 0.34497 6.2902-2.837 0.65306-2.3072-1.4257-7.7408 2.5078-6.7865 1.5065 3.7529 0.59233 8.2488 1.8095 12.949 0.59826 1.2531-1.553 1.8999-2.116 1.0083z" stroke-width=".42603"/></svg>
